# FreeCAD v1.0 build0 Arch module
# https://www.freecad.org
mtllib letterC_p01.mtl
o letterC_p01
v 0.79744 6.75009 0.0
v 0.79744 6.75009 4.0
v 0.903641 8.30173 0.0
v 0.903641 8.30173 4.0
v 0.907501 5.19876 0.0
v 0.907501 5.19876 4.0
v 0.955436 5.0 0.0
v 0.955436 5.0 4.0
v 1.22226 9.66231 0.0
v 1.22226 9.66231 4.0
v 1.3756 10.0 0.0
v 1.3756 10.0 4.0
v 3.61717 6.75009 0.0
v 3.61717 6.75009 4.0
v 3.67857 7.81635 0.0
v 3.67857 7.81635 4.0
v 3.68036 5.66481 0.0
v 3.68036 5.66481 4.0
v 3.8132 5.0 0.0
v 3.8132 5.0 4.0
v 3.86281 8.74611 0.0
v 3.86281 8.74611 4.0
v 4.16985 9.5394 0.0
v 4.16985 9.5394 4.0
v 4.47128 10.0 0.0
v 4.47128 10.0 4.0
vn 0.0 1.0 -0.0
vn 0.0 1.0 0.0
vn 0.0 -1.0 0.0
vn 0.0 -1.0 -0.0
vn 0.0 0.0 -1.0
vn 0.0 0.0 -1.0
vn 0.0 0.0 -1.0
vn 0.0 0.0 -1.0
vn -0.0 0.0 -1.0
vn 0.0 0.0 -1.0
vn 0.0 0.0 -1.0
vn 0.0 0.0 -1.0
vn 0.0 0.0 -1.0
vn 0.0 0.0 -1.0
vn 0.0 0.0 -1.0
vn 0.0 0.0 1.0
vn -0.0 0.0 1.0
vn 0.0 0.0 1.0
vn -0.0 0.0 1.0
vn 0.0 0.0 1.0
vn 0.0 0.0 1.0
vn 0.0 0.0 1.0
vn 0.0 0.0 1.0
vn 0.0 -0.0 1.0
vn 0.0 -0.0 1.0
vn 0.0 0.0 1.0
vn 0.980615 0.195943 0.0
vn 0.980615 0.195943 0.0
vn 0.998309 0.058126 0.0
vn 0.998309 0.058126 0.0
vn 0.998346 -0.057489 0.0
vn 0.998346 -0.057489 0.0
vn 0.980927 -0.194379 0.0
vn 0.980927 -0.194379 0.0
vn 0.932584 -0.360953 0.0
vn 0.932584 -0.360953 0.0
vn 0.836746 -0.547591 0.0
vn 0.836746 -0.547591 0.0
vn -0.910524 0.413455 0.0
vn -0.910524 0.413455 0.0
vn -0.973659 0.22801 0.0
vn -0.973659 0.22801 0.0
vn -0.997666 0.068285 0.0
vn -0.997666 0.068285 0.0
vn -0.997493 -0.070768 0.0
vn -0.997493 -0.070768 0.0
vn -0.972129 -0.234448 0.0
vn -0.972129 -0.234448 0.0
f 25//1 12//1 26//1 
f 12//2 25//2 11//2 
f 7//3 20//3 8//3 
f 20//4 7//4 19//4 
f 1//5 13//5 17//5 
f 7//6 17//6 19//6 
f 13//7 9//7 11//7 
f 17//8 7//8 5//8 
f 17//9 5//9 1//9 
f 13//10 1//10 3//10 
f 13//11 3//11 9//11 
f 23//12 11//12 25//12 
f 21//13 11//13 23//13 
f 15//14 11//14 21//14 
f 11//15 15//15 13//15 
f 4//16 22//16 10//16 
f 10//17 22//17 12//17 
f 24//18 12//18 22//18 
f 12//19 24//19 26//19 
f 22//20 4//20 16//20 
f 2//21 16//21 4//21 
f 16//22 2//22 14//22 
f 14//23 2//23 18//23 
f 8//24 18//24 6//24 
f 6//25 18//25 2//25 
f 18//26 8//26 20//26 
f 20//27 17//27 18//27 
f 17//28 20//28 19//28 
f 18//29 13//29 14//29 
f 13//30 18//30 17//30 
f 14//31 15//31 16//31 
f 15//32 14//32 13//32 
f 16//33 21//33 22//33 
f 21//34 16//34 15//34 
f 22//35 23//35 24//35 
f 23//36 22//36 21//36 
f 24//37 25//37 26//37 
f 25//38 24//38 23//38 
f 9//39 12//39 11//39 
f 12//40 9//40 10//40 
f 3//41 10//41 9//41 
f 10//42 3//42 4//42 
f 1//43 4//43 3//43 
f 4//44 1//44 2//44 
f 5//45 2//45 1//45 
f 2//46 5//46 6//46 
f 7//47 6//47 5//47 
f 6//48 7//48 8//48 
