# FreeCAD v1.0 build0 Arch module
# https://www.freecad.org
mtllib letterD_p20.mtl
o letterD_p20
v 10.0 0.76285 0.0
v 10.0 0.76285 4.0
v 10.0 4.54393 0.0
v 10.0 4.54393 4.0
v 10.1156 0.816467 0.0
v 10.1156 0.816467 4.0
v 10.1394 4.875 0.0
v 10.1394 4.875 4.0
v 10.1671 5.0 0.0
v 10.1671 5.0 4.0
v 10.8163 1.2701 0.0
v 10.8163 1.2701 4.0
v 11.4328 1.8145 0.0
v 11.4328 1.8145 4.0
v 11.9651 2.44966 0.0
v 11.9651 2.44966 4.0
v 12.4131 3.17561 0.0
v 12.4131 3.17561 4.0
v 12.7682 3.97993 0.0
v 12.7682 3.97993 4.0
v 13.0219 4.85011 0.0
v 13.0219 4.85011 4.0
v 13.0463 5.0 0.0
v 13.0463 5.0 4.0
vn -1.0 0.0 0.0
vn -1.0 -0.0 0.0
vn 0.0 1.0 -0.0
vn 0.0 1.0 0.0
vn 0.0 0.0 -1.0
vn 0.0 0.0 -1.0
vn 0.0 0.0 -1.0
vn 0.0 0.0 -1.0
vn 0.0 0.0 -1.0
vn 0.0 0.0 -1.0
vn 0.0 0.0 -1.0
vn 0.0 0.0 -1.0
vn 0.0 0.0 -1.0
vn 0.0 -0.0 -1.0
vn -0.0 0.0 1.0
vn 0.0 0.0 1.0
vn -0.0 0.0 1.0
vn 0.0 0.0 1.0
vn 0.0 0.0 1.0
vn 0.0 0.0 1.0
vn 0.0 0.0 1.0
vn 0.0 0.0 1.0
vn 0.0 0.0 1.0
vn 0.0 0.0 1.0
vn 0.420761 -0.907172 0.0
vn 0.420761 -0.907172 0.0
vn 0.543453 -0.83944 0.0
vn 0.543453 -0.83944 0.0
vn 0.661915 -0.749579 0.0
vn 0.661915 -0.749579 0.0
vn 0.766438 -0.642318 0.0
vn 0.766438 -0.642318 0.0
vn 0.850998 -0.52517 0.0
vn 0.850998 -0.52517 0.0
vn 0.914812 -0.403881 0.0
vn 0.914812 -0.403881 0.0
vn 0.96003 -0.279896 0.0
vn 0.96003 -0.279896 0.0
vn 0.987008 -0.16067 0.0
vn 0.987008 -0.16067 0.0
vn -0.976315 0.216355 0.0
vn -0.976315 0.216355 0.0
vn -0.921634 0.388061 0.0
vn -0.921634 0.388061 0.0
f 1//1 4//1 3//1 
f 4//2 1//2 2//2 
f 23//3 10//3 24//3 
f 10//4 23//4 9//4 
f 9//5 21//5 19//5 
f 3//6 19//6 17//6 
f 3//7 17//7 15//7 
f 3//8 15//8 13//8 
f 3//9 13//9 11//9 
f 19//10 3//10 7//10 
f 21//11 9//11 23//11 
f 3//12 11//12 5//12 
f 3//13 5//13 1//13 
f 9//14 19//14 7//14 
f 10//15 22//15 24//15 
f 22//16 10//16 20//16 
f 4//17 20//17 8//17 
f 20//18 4//18 18//18 
f 16//19 4//19 14//19 
f 20//20 10//20 8//20 
f 18//21 4//21 16//21 
f 14//22 4//22 12//22 
f 12//23 4//23 6//23 
f 6//24 4//24 2//24 
f 1//25 6//25 2//25 
f 6//26 1//26 5//26 
f 5//27 12//27 6//27 
f 12//28 5//28 11//28 
f 11//29 14//29 12//29 
f 14//30 11//30 13//30 
f 14//31 15//31 16//31 
f 15//32 14//32 13//32 
f 16//33 17//33 18//33 
f 17//34 16//34 15//34 
f 18//35 19//35 20//35 
f 19//36 18//36 17//36 
f 20//37 21//37 22//37 
f 21//38 20//38 19//38 
f 22//39 23//39 24//39 
f 23//40 22//40 21//40 
f 7//41 10//41 9//41 
f 10//42 7//42 8//42 
f 3//43 8//43 7//43 
f 8//44 3//44 4//44 
