solid OpenSCAD_Model
  facet normal 1 -0 0
    outer loop
      vertex 10 5 4
      vertex 10 9.71059 0
      vertex 10 9.71059 4
    endloop
  endfacet
  facet normal 1 0 0
    outer loop
      vertex 10 9.71059 0
      vertex 10 5 4
      vertex 10 5 0
    endloop
  endfacet
  facet normal -1 0 0
    outer loop
      vertex 5 5 0
      vertex 5 10 4
      vertex 5 10 0
    endloop
  endfacet
  facet normal -1 -0 0
    outer loop
      vertex 5 10 4
      vertex 5 5 0
      vertex 5 5 4
    endloop
  endfacet
  facet normal 0 1 -0
    outer loop
      vertex 6.62329 10 0
      vertex 5 10 4
      vertex 6.62329 10 4
    endloop
  endfacet
  facet normal 0 1 0
    outer loop
      vertex 5 10 4
      vertex 6.62329 10 0
      vertex 5 10 0
    endloop
  endfacet
  facet normal 0 1 -0
    outer loop
      vertex 9.89484 10 0
      vertex 7.42438 10 4
      vertex 9.89484 10 4
    endloop
  endfacet
  facet normal 0 1 0
    outer loop
      vertex 7.42438 10 4
      vertex 9.89484 10 0
      vertex 7.42438 10 0
    endloop
  endfacet
  facet normal 0 -1 0
    outer loop
      vertex 5 5 0
      vertex 10 5 4
      vertex 5 5 4
    endloop
  endfacet
  facet normal 0 -1 -0
    outer loop
      vertex 10 5 4
      vertex 5 5 0
      vertex 10 5 0
    endloop
  endfacet
  facet normal 0 0 -1
    outer loop
      vertex 8.94305 5.52538 0
      vertex 10 9.71059 0
      vertex 10 5 0
    endloop
  endfacet
  facet normal 0 0 -1
    outer loop
      vertex 7.62341 9.37033 0
      vertex 10 9.71059 0
      vertex 8.94305 5.52538 0
    endloop
  endfacet
  facet normal 0 0 -1
    outer loop
      vertex 5 5 0
      vertex 8.94305 5.52538 0
      vertex 10 5 0
    endloop
  endfacet
  facet normal -0 0 -1
    outer loop
      vertex 8.94305 5.52538 0
      vertex 5 5 0
      vertex 5.0981 5.52538 0
    endloop
  endfacet
  facet normal -0 0 -1
    outer loop
      vertex 10 9.71059 0
      vertex 7.62341 9.37033 0
      vertex 9.89484 10 0
    endloop
  endfacet
  facet normal -0 0 -1
    outer loop
      vertex 9.89484 10 0
      vertex 7.62341 9.37033 0
      vertex 7.42438 10 0
    endloop
  endfacet
  facet normal 0 0 -1
    outer loop
      vertex 5 10 0
      vertex 6.57916 9.8652 0
      vertex 6.25638 8.90991 0
    endloop
  endfacet
  facet normal 0 0 -1
    outer loop
      vertex 5 10 0
      vertex 6.25638 8.90991 0
      vertex 5.7627 7.4633 0
    endloop
  endfacet
  facet normal 0 0 -1
    outer loop
      vertex 5 10 0
      vertex 5.7627 7.4633 0
      vertex 5.0981 5.52538 0
    endloop
  endfacet
  facet normal 0 0 -1
    outer loop
      vertex 6.57916 9.8652 0
      vertex 5 10 0
      vertex 6.62329 10 0
    endloop
  endfacet
  facet normal 0 0 -1
    outer loop
      vertex 5 10 0
      vertex 5.0981 5.52538 0
      vertex 5 5 0
    endloop
  endfacet
  facet normal -0 0 1
    outer loop
      vertex 5 10 4
      vertex 6.57916 9.8652 4
      vertex 6.62329 10 4
    endloop
  endfacet
  facet normal 0 0 1
    outer loop
      vertex 6.57916 9.8652 4
      vertex 5 10 4
      vertex 6.25638 8.90991 4
    endloop
  endfacet
  facet normal 0 0 1
    outer loop
      vertex 6.25638 8.90991 4
      vertex 5 10 4
      vertex 5.7627 7.4633 4
    endloop
  endfacet
  facet normal 0 0 1
    outer loop
      vertex 5.7627 7.4633 4
      vertex 5 10 4
      vertex 5.0981 5.52538 4
    endloop
  endfacet
  facet normal 0 0 1
    outer loop
      vertex 10 9.71059 4
      vertex 7.62341 9.37033 4
      vertex 8.94305 5.52538 4
    endloop
  endfacet
  facet normal 0 -0 1
    outer loop
      vertex 7.62341 9.37033 4
      vertex 9.89484 10 4
      vertex 7.42438 10 4
    endloop
  endfacet
  facet normal 0 0 1
    outer loop
      vertex 7.62341 9.37033 4
      vertex 10 9.71059 4
      vertex 9.89484 10 4
    endloop
  endfacet
  facet normal 0 0 1
    outer loop
      vertex 10 9.71059 4
      vertex 8.94305 5.52538 4
      vertex 10 5 4
    endloop
  endfacet
  facet normal 0 0 1
    outer loop
      vertex 5 5 4
      vertex 8.94305 5.52538 4
      vertex 5.0981 5.52538 4
    endloop
  endfacet
  facet normal 0 0 1
    outer loop
      vertex 8.94305 5.52538 4
      vertex 5 5 4
      vertex 10 5 4
    endloop
  endfacet
  facet normal 0 0 1
    outer loop
      vertex 5 5 4
      vertex 5.0981 5.52538 4
      vertex 5 10 4
    endloop
  endfacet
  facet normal 0.939877 0.341514 0
    outer loop
      vertex 10 9.71059 4
      vertex 9.89484 10 0
      vertex 9.89484 10 4
    endloop
  endfacet
  facet normal 0.939877 0.341514 0
    outer loop
      vertex 9.89484 10 0
      vertex 10 9.71059 4
      vertex 10 9.71059 0
    endloop
  endfacet
  facet normal 0.94592 -0.324399 0
    outer loop
      vertex 5.0981 5.52538 4
      vertex 5.7627 7.4633 0
      vertex 5.7627 7.4633 4
    endloop
  endfacet
  facet normal 0.94592 -0.324399 0
    outer loop
      vertex 5.7627 7.4633 0
      vertex 5.0981 5.52538 4
      vertex 5.0981 5.52538 0
    endloop
  endfacet
  facet normal 0.946407 -0.322977 0
    outer loop
      vertex 5.7627 7.4633 4
      vertex 6.25638 8.90991 0
      vertex 6.25638 8.90991 4
    endloop
  endfacet
  facet normal 0.946407 -0.322977 0
    outer loop
      vertex 6.25638 8.90991 0
      vertex 5.7627 7.4633 4
      vertex 5.7627 7.4633 0
    endloop
  endfacet
  facet normal 0.947381 -0.320108 0
    outer loop
      vertex 6.25638 8.90991 4
      vertex 6.57916 9.8652 0
      vertex 6.57916 9.8652 4
    endloop
  endfacet
  facet normal 0.947381 -0.320108 0
    outer loop
      vertex 6.57916 9.8652 0
      vertex 6.25638 8.90991 4
      vertex 6.25638 8.90991 0
    endloop
  endfacet
  facet normal 0.950369 -0.311126 0
    outer loop
      vertex 6.57916 9.8652 4
      vertex 6.62329 10 0
      vertex 6.62329 10 4
    endloop
  endfacet
  facet normal 0.950369 -0.311126 0
    outer loop
      vertex 6.62329 10 0
      vertex 6.57916 9.8652 4
      vertex 6.57916 9.8652 0
    endloop
  endfacet
  facet normal -0.953501 -0.301389 0
    outer loop
      vertex 7.62341 9.37033 0
      vertex 7.42438 10 4
      vertex 7.42438 10 0
    endloop
  endfacet
  facet normal -0.953501 -0.301389 0
    outer loop
      vertex 7.42438 10 4
      vertex 7.62341 9.37033 0
      vertex 7.62341 9.37033 4
    endloop
  endfacet
  facet normal -0.945842 -0.324626 0
    outer loop
      vertex 8.94305 5.52538 0
      vertex 7.62341 9.37033 4
      vertex 7.62341 9.37033 0
    endloop
  endfacet
  facet normal -0.945842 -0.324626 0
    outer loop
      vertex 7.62341 9.37033 4
      vertex 8.94305 5.52538 0
      vertex 8.94305 5.52538 4
    endloop
  endfacet
  facet normal 0 1 -0
    outer loop
      vertex 8.94305 5.52538 0
      vertex 5.0981 5.52538 4
      vertex 8.94305 5.52538 4
    endloop
  endfacet
  facet normal 0 1 0
    outer loop
      vertex 5.0981 5.52538 4
      vertex 8.94305 5.52538 0
      vertex 5.0981 5.52538 0
    endloop
  endfacet
endsolid OpenSCAD_Model
