# FreeCAD v1.0 build0 Arch module
# https://www.freecad.org
mtllib letterC_p20.mtl
o letterC_p20
v 10.0 0.207086 0.0
v 10.0 0.207086 4.0
v 10.0 2.95763 0.0
v 10.0 2.95763 4.0
v 10.3983 0.341476 0.0
v 10.3983 0.341476 4.0
v 10.4793 3.44383 0.0
v 10.4793 3.44383 4.0
v 11.0697 4.55699 0.0
v 11.0697 4.55699 4.0
v 11.1979 0.75473 0.0
v 11.1979 0.75473 4.0
v 11.9138 1.28903 0.0
v 11.9138 1.28903 4.0
v 12.5377 1.94736 0.0
v 12.5377 1.94736 4.0
v 13.0696 2.72971 0.0
v 13.0696 2.72971 4.0
v 13.5096 3.63608 0.0
v 13.5096 3.63608 4.0
vn -1.0 0.0 0.0
vn -1.0 -0.0 0.0
vn 0.0 0.0 -1.0
vn 0.0 0.0 -1.0
vn 0.0 0.0 -1.0
vn 0.0 0.0 -1.0
vn 0.0 0.0 -1.0
vn 0.0 0.0 -1.0
vn 0.0 0.0 -1.0
vn 0.0 0.0 -1.0
vn 0.0 0.0 1.0
vn -0.0 0.0 1.0
vn 0.0 0.0 1.0
vn 0.0 0.0 1.0
vn -0.0 0.0 1.0
vn 0.0 0.0 1.0
vn 0.0 0.0 1.0
vn 0.0 0.0 1.0
vn 0.319701 -0.947518 0.0
vn 0.319701 -0.947518 0.0
vn 0.459132 -0.888368 0.0
vn 0.459132 -0.888368 0.0
vn 0.598117 -0.801408 0.0
vn 0.598117 -0.801408 0.0
vn 0.725833 -0.687872 0.0
vn 0.725833 -0.687872 0.0
vn 0.826974 -0.562239 0.0
vn 0.826974 -0.562239 0.0
vn 0.899601 -0.436713 0.0
vn 0.899601 -0.436713 0.0
vn 0.353122 0.935577 -0.0
vn 0.353122 0.935577 0.0
vn -0.883433 0.468557 0.0
vn -0.883433 0.468557 0.0
vn -0.712142 0.702035 0.0
vn -0.712142 0.702035 0.0
f 1//1 4//1 3//1 
f 4//2 1//2 2//2 
f 7//3 17//3 15//3 
f 7//4 15//4 13//4 
f 3//5 13//5 11//5 
f 17//6 7//6 9//6 
f 17//7 9//7 19//7 
f 3//8 11//8 5//8 
f 3//9 5//9 1//9 
f 13//10 3//10 7//10 
f 10//11 18//11 20//11 
f 8//12 18//12 10//12 
f 16//13 8//13 14//13 
f 18//14 8//14 16//14 
f 4//15 14//15 8//15 
f 14//16 4//16 12//16 
f 12//17 4//17 6//17 
f 6//18 4//18 2//18 
f 1//19 6//19 2//19 
f 6//20 1//20 5//20 
f 5//21 12//21 6//21 
f 12//22 5//22 11//22 
f 11//23 14//23 12//23 
f 14//24 11//24 13//24 
f 14//25 15//25 16//25 
f 15//26 14//26 13//26 
f 16//27 17//27 18//27 
f 17//28 16//28 15//28 
f 18//29 19//29 20//29 
f 19//30 18//30 17//30 
f 19//31 10//31 20//31 
f 10//32 19//32 9//32 
f 7//33 10//33 9//33 
f 10//34 7//34 8//34 
f 3//35 8//35 7//35 
f 8//36 3//36 4//36 
