# FreeCAD v1.0 build0 Arch module
# https://www.freecad.org
mtllib letterB_p10.mtl
o letterB_p10
v 5.0 0.0 0.0
v 5.0 0.0 4.0
v 5.0 2.07913 0.0
v 5.0 2.07913 4.0
v 7.75641 2.07913 0.0
v 7.75641 2.07913 4.0
v 7.99371 0.0 0.0
v 7.99371 0.0 4.0
v 8.38506 2.10968 0.0
v 8.38506 2.10968 4.0
v 8.92293 2.20135 0.0
v 8.92293 2.20135 4.0
v 9.14246 0.062286 0.0
v 9.14246 0.062286 4.0
v 9.37003 2.35413 0.0
v 9.37003 2.35413 4.0
v 9.72635 2.56801 0.0
v 9.72635 2.56801 4.0
v 9.99843 2.84306 0.0
v 9.99843 2.84306 4.0
v 10.0 0.220067 0.0
v 10.0 0.220067 4.0
v 10.0 2.84578 0.0
v 10.0 2.84578 4.0
vn 1.0 -0.0 0.0
vn 1.0 0.0 0.0
vn -1.0 0.0 0.0
vn -1.0 -0.0 0.0
vn 0.0 0.0 -1.0
vn 0.0 0.0 -1.0
vn 0.0 0.0 -1.0
vn 0.0 0.0 -1.0
vn 0.0 0.0 -1.0
vn 0.0 0.0 -1.0
vn 0.0 0.0 -1.0
vn 0.0 0.0 -1.0
vn 0.0 0.0 -1.0
vn -0.0 0.0 -1.0
vn -0.0 0.0 1.0
vn -0.0 0.0 1.0
vn -0.0 0.0 1.0
vn -0.0 0.0 1.0
vn 0.0 0.0 1.0
vn -0.0 0.0 1.0
vn 0.0 0.0 1.0
vn -0.0 0.0 1.0
vn 0.0 0.0 1.0
vn 0.0 0.0 1.0
vn 0.180955 -0.983491 0.0
vn 0.180955 -0.983491 0.0
vn 0.0 -1.0 0.0
vn 0.0 -1.0 -0.0
vn 0.054142 -0.998533 0.0
vn 0.054142 -0.998533 0.0
vn -0.866105 0.499863 0.0
vn -0.866105 0.499863 0.0
vn -0.710934 0.703259 0.0
vn -0.710934 0.703259 0.0
vn -0.514652 0.857399 0.0
vn -0.514652 0.857399 0.0
vn -0.323355 0.946278 0.0
vn -0.323355 0.946278 0.0
vn -0.168009 0.985785 0.0
vn -0.168009 0.985785 0.0
vn -0.048539 0.998821 0.0
vn -0.048539 0.998821 0.0
vn 0.0 1.0 -0.0
vn 0.0 1.0 0.0
f 22//1 23//1 24//1 
f 23//2 22//2 21//2 
f 1//3 4//3 3//3 
f 4//4 1//4 2//4 
f 21//5 19//5 23//5 
f 21//6 17//6 19//6 
f 21//7 15//7 17//7 
f 11//8 21//8 13//8 
f 21//9 11//9 15//9 
f 13//10 9//10 11//10 
f 7//11 9//11 13//11 
f 7//12 5//12 9//12 
f 1//13 5//13 7//13 
f 5//14 1//14 3//14 
f 20//15 22//15 24//15 
f 18//16 22//16 20//16 
f 16//17 22//17 18//17 
f 12//18 22//18 16//18 
f 22//19 12//19 14//19 
f 10//20 14//20 12//20 
f 10//21 8//21 14//21 
f 6//22 8//22 10//22 
f 2//23 6//23 4//23 
f 6//24 2//24 8//24 
f 13//25 22//25 14//25 
f 22//26 13//26 21//26 
f 1//27 8//27 2//27 
f 8//28 1//28 7//28 
f 7//29 14//29 8//29 
f 14//30 7//30 13//30 
f 19//31 24//31 23//31 
f 24//32 19//32 20//32 
f 17//33 20//33 19//33 
f 20//34 17//34 18//34 
f 17//35 16//35 18//35 
f 16//36 17//36 15//36 
f 15//37 12//37 16//37 
f 12//38 15//38 11//38 
f 11//39 10//39 12//39 
f 10//40 11//40 9//40 
f 9//41 6//41 10//41 
f 6//42 9//42 5//42 
f 5//43 4//43 6//43 
f 4//44 5//44 3//44 
