# FreeCAD v1.0 build0 Arch module
# https://www.freecad.org
mtllib letterD_p22.mtl
o letterD_p22
v 10.0 10.0 0.0
v 10.0 10.0 4.0
v 10.0 12.5729 0.0
v 10.0 12.5729 4.0
v 10.3523 12.4181 0.0
v 10.3523 12.4181 4.0
v 11.3735 11.6725 0.0
v 11.3735 11.6725 4.0
v 12.1834 10.7282 0.0
v 12.1834 10.7282 4.0
v 12.5566 10.0 0.0
v 12.5566 10.0 4.0
vn -1.0 0.0 0.0
vn -1.0 -0.0 0.0
vn 0.0 -1.0 0.0
vn 0.0 -1.0 -0.0
vn 0.0 0.0 -1.0
vn -0.0 0.0 -1.0
vn -0.0 0.0 -1.0
vn -0.0 0.0 -1.0
vn 0.0 0.0 1.0
vn 0.0 0.0 1.0
vn 0.0 0.0 1.0
vn 0.0 0.0 1.0
vn 0.889935 0.456088 0.0
vn 0.889935 0.456088 0.0
vn 0.759058 0.651023 0.0
vn 0.759058 0.651023 0.0
vn 0.589676 0.80764 -0.0
vn 0.589676 0.80764 0.0
vn 0.402276 0.915518 -0.0
vn 0.402276 0.915518 0.0
f 1//1 4//1 3//1 
f 4//2 1//2 2//2 
f 1//3 12//3 2//3 
f 12//4 1//4 11//4 
f 1//5 9//5 11//5 
f 9//6 1//6 7//6 
f 7//7 1//7 5//7 
f 5//8 1//8 3//8 
f 2//9 10//9 8//9 
f 2//10 8//10 6//10 
f 2//11 6//11 4//11 
f 10//12 2//12 12//12 
f 12//13 9//13 10//13 
f 9//14 12//14 11//14 
f 10//15 7//15 8//15 
f 7//16 10//16 9//16 
f 7//17 6//17 8//17 
f 6//18 7//18 5//18 
f 5//19 4//19 6//19 
f 4//20 5//20 3//20 
