# FreeCAD v1.0 build0 Arch module
# https://www.freecad.org
mtllib letterC_p00.mtl
o letterC_p00
v 0.955436 5.0 0.0
v 0.955436 5.0 4.0
v 1.2377 3.82959 0.0
v 1.2377 3.82959 4.0
v 1.78802 2.64258 0.0
v 1.78802 2.64258 4.0
v 2.55849 1.63771 0.0
v 2.55849 1.63771 4.0
v 3.53076 0.83815 0.0
v 3.53076 0.83815 4.0
v 3.8132 5.0 0.0
v 3.8132 5.0 4.0
v 3.86995 4.716 0.0
v 3.86995 4.716 4.0
v 4.1859 3.90367 0.0
v 4.1859 3.90367 4.0
v 4.62825 3.22783 0.0
v 4.62825 3.22783 4.0
v 4.68636 0.267044 0.0
v 4.68636 0.267044 4.0
v 5.0 0.186778 0.0
v 5.0 0.186778 4.0
v 5.0 2.87592 0.0
v 5.0 2.87592 4.0
vn 1.0 -0.0 0.0
vn 1.0 0.0 0.0
vn 0.0 1.0 -0.0
vn 0.0 1.0 0.0
vn 0.0 0.0 -1.0
vn 0.0 0.0 -1.0
vn -0.0 0.0 -1.0
vn 0.0 0.0 -1.0
vn -0.0 0.0 -1.0
vn 0.0 0.0 -1.0
vn -0.0 0.0 -1.0
vn 0.0 0.0 -1.0
vn -0.0 0.0 -1.0
vn -0.0 0.0 -1.0
vn 0.0 0.0 1.0
vn 0.0 0.0 1.0
vn 0.0 0.0 1.0
vn 0.0 0.0 1.0
vn 0.0 0.0 1.0
vn 0.0 0.0 1.0
vn 0.0 0.0 1.0
vn 0.0 0.0 1.0
vn 0.0 0.0 1.0
vn 0.0 -0.0 1.0
vn 0.687462 0.72622 -0.0
vn 0.687462 0.72622 0.0
vn 0.836712 0.547643 0.0
vn 0.836712 0.547643 0.0
vn 0.931988 0.36249 0.0
vn 0.931988 0.36249 0.0
vn 0.980614 0.19595 0.0
vn 0.980614 0.19595 0.0
vn -0.972129 -0.234445 0.0
vn -0.972129 -0.234445 0.0
vn -0.90724 -0.420613 0.0
vn -0.90724 -0.420613 0.0
vn -0.79358 -0.608466 0.0
vn -0.79358 -0.608466 0.0
vn -0.635171 -0.772372 0.0
vn -0.635171 -0.772372 -0.0
vn -0.443054 -0.896495 0.0
vn -0.443054 -0.896495 -0.0
vn -0.247927 -0.968779 0.0
vn -0.247927 -0.968779 -0.0
f 22//1 23//1 24//1 
f 23//2 22//2 21//2 
f 11//3 2//3 12//3 
f 2//4 11//4 1//4 
f 19//5 23//5 21//5 
f 9//6 23//6 19//6 
f 23//7 9//7 17//7 
f 7//8 17//8 9//8 
f 17//9 7//9 15//9 
f 5//10 15//10 7//10 
f 15//11 5//11 13//11 
f 3//12 13//12 5//12 
f 13//13 3//13 11//13 
f 11//14 3//14 1//14 
f 24//15 20//15 22//15 
f 10//16 24//16 18//16 
f 8//17 18//17 16//17 
f 6//18 16//18 14//18 
f 4//19 14//19 12//19 
f 24//20 10//20 20//20 
f 18//21 8//21 10//21 
f 16//22 6//22 8//22 
f 14//23 4//23 6//23 
f 4//24 12//24 2//24 
f 23//25 18//25 24//25 
f 18//26 23//26 17//26 
f 18//27 15//27 16//27 
f 15//28 18//28 17//28 
f 16//29 13//29 14//29 
f 13//30 16//30 15//30 
f 14//31 11//31 12//31 
f 11//32 14//32 13//32 
f 3//33 2//33 1//33 
f 2//34 3//34 4//34 
f 5//35 4//35 3//35 
f 4//36 5//36 6//36 
f 7//37 6//37 5//37 
f 6//38 7//38 8//38 
f 7//39 10//39 8//39 
f 10//40 7//40 9//40 
f 9//41 20//41 10//41 
f 20//42 9//42 19//42 
f 19//43 22//43 20//43 
f 22//44 19//44 21//44 
