# FreeCAD v1.0 build0 Arch module
# https://www.freecad.org
mtllib letterA_p01.mtl
o letterA_p01
v 2.30812 5.0 0.0
v 2.30812 5.0 4.0
v 4.13213 10.0 0.0
v 4.13213 10.0 4.0
v 5.0 5.0 0.0
v 5.0 5.0 4.0
v 5.0 10.0 0.0
v 5.0 10.0 4.0
vn 1.0 -0.0 0.0
vn 1.0 0.0 0.0
vn 0.0 1.0 -0.0
vn 0.0 1.0 0.0
vn 0.0 -1.0 0.0
vn 0.0 -1.0 -0.0
vn 0.0 0.0 -1.0
vn 0.0 -0.0 -1.0
vn -0.0 0.0 1.0
vn 0.0 0.0 1.0
vn -0.939441 0.34271 0.0
vn -0.939441 0.34271 0.0
f 6//1 7//1 8//1 
f 7//2 6//2 5//2 
f 7//3 4//3 8//3 
f 4//4 7//4 3//4 
f 1//5 6//5 2//5 
f 6//6 1//6 5//6 
f 5//7 3//7 7//7 
f 3//8 5//8 1//8 
f 4//9 6//9 8//9 
f 6//10 4//10 2//10 
f 1//11 4//11 3//11 
f 4//12 1//12 2//12 
