solid OpenSCAD_Model
  facet normal 1 -0 0
    outer loop
      vertex 10 8.95911 4
      vertex 10 10 0
      vertex 10 10 4
    endloop
  endfacet
  facet normal 1 0 0
    outer loop
      vertex 10 10 0
      vertex 10 8.95911 4
      vertex 10 8.95911 0
    endloop
  endfacet
  facet normal 0 1 -0
    outer loop
      vertex 10 10 0
      vertex 9.3452 10 4
      vertex 10 10 4
    endloop
  endfacet
  facet normal 0 1 0
    outer loop
      vertex 9.3452 10 4
      vertex 10 10 0
      vertex 9.3452 10 0
    endloop
  endfacet
  facet normal 0 0 -1
    outer loop
      vertex 9.77505 9.44655 0
      vertex 10 10 0
      vertex 10 8.95911 0
    endloop
  endfacet
  facet normal -0 0 -1
    outer loop
      vertex 10 10 0
      vertex 9.77505 9.44655 0
      vertex 9.3452 10 0
    endloop
  endfacet
  facet normal 0 0 1
    outer loop
      vertex 10 10 4
      vertex 9.77505 9.44655 4
      vertex 10 8.95911 4
    endloop
  endfacet
  facet normal 0 -0 1
    outer loop
      vertex 9.77505 9.44655 4
      vertex 10 10 4
      vertex 9.3452 10 4
    endloop
  endfacet
  facet normal -0.789775 -0.613397 0
    outer loop
      vertex 9.77505 9.44655 0
      vertex 9.3452 10 4
      vertex 9.3452 10 0
    endloop
  endfacet
  facet normal -0.789775 -0.613397 0
    outer loop
      vertex 9.3452 10 4
      vertex 9.77505 9.44655 0
      vertex 9.77505 9.44655 4
    endloop
  endfacet
  facet normal -0.907975 -0.419024 0
    outer loop
      vertex 10 8.95911 0
      vertex 9.77505 9.44655 4
      vertex 9.77505 9.44655 0
    endloop
  endfacet
  facet normal -0.907975 -0.419024 0
    outer loop
      vertex 9.77505 9.44655 4
      vertex 10 8.95911 0
      vertex 10 8.95911 4
    endloop
  endfacet
endsolid OpenSCAD_Model
