# FreeCAD v1.0 build0 Arch module
# https://www.freecad.org
mtllib letterD_p01.mtl
o letterD_p01
v 1.3006 5.0 0.0
v 1.3006 5.0 4.0
v 1.3006 10.0 0.0
v 1.3006 10.0 4.0
v 4.10129 5.0 0.0
v 4.10129 5.0 4.0
v 4.10129 10.0 0.0
v 4.10129 10.0 4.0
vn 0.0 1.0 -0.0
vn 0.0 1.0 0.0
vn 0.0 -1.0 0.0
vn 0.0 -1.0 -0.0
vn 0.0 0.0 -1.0
vn -0.0 0.0 -1.0
vn -0.0 0.0 1.0
vn 0.0 0.0 1.0
vn -1.0 0.0 0.0
vn -1.0 -0.0 0.0
vn 1.0 -0.0 0.0
vn 1.0 0.0 0.0
f 7//1 4//1 8//1 
f 4//2 7//2 3//2 
f 1//3 6//3 2//3 
f 6//4 1//4 5//4 
f 1//5 7//5 5//5 
f 7//6 1//6 3//6 
f 4//7 6//7 8//7 
f 6//8 4//8 2//8 
f 1//9 4//9 3//9 
f 4//10 1//10 2//10 
f 6//11 7//11 8//11 
f 7//12 6//12 5//12 
