# FreeCAD v1.0 build0 Arch module
# https://www.freecad.org
mtllib letterC_p02.mtl
o letterC_p02
v 1.3756 10.0 0.0
v 1.3756 10.0 4.0
v 1.7533 10.8318 0.0
v 1.7533 10.8318 4.0
v 2.49675 11.8103 0.0
v 2.49675 11.8103 4.0
v 3.442 12.5828 0.0
v 3.442 12.5828 4.0
v 4.47128 10.0 0.0
v 4.47128 10.0 4.0
v 4.57831 13.1346 0.0
v 4.57831 13.1346 4.0
v 4.59969 10.1962 0.0
v 4.59969 10.1962 4.0
v 5.0 10.572 0.0
v 5.0 10.572 4.0
v 5.0 13.2398 0.0
v 5.0 13.2398 4.0
vn 1.0 -0.0 0.0
vn 1.0 0.0 0.0
vn 0.0 -1.0 0.0
vn 0.0 -1.0 -0.0
vn 0.0 0.0 -1.0
vn 0.0 0.0 -1.0
vn 0.0 0.0 -1.0
vn 0.0 0.0 -1.0
vn 0.0 0.0 -1.0
vn 0.0 0.0 -1.0
vn 0.0 -0.0 -1.0
vn -0.0 0.0 1.0
vn -0.0 0.0 1.0
vn 0.0 0.0 1.0
vn -0.0 0.0 1.0
vn 0.0 0.0 1.0
vn -0.0 0.0 1.0
vn 0.0 0.0 1.0
vn 0.836725 -0.547623 0.0
vn 0.836725 -0.547623 0.0
vn 0.684434 -0.729075 0.0
vn 0.684434 -0.729075 0.0
vn -0.242055 0.970262 0.0
vn -0.242055 0.970262 0.0
vn -0.436826 0.899546 0.0
vn -0.436826 0.899546 0.0
vn -0.632803 0.774313 0.0
vn -0.632803 0.774313 0.0
vn -0.796244 0.604975 0.0
vn -0.796244 0.604975 0.0
vn -0.910528 0.413448 0.0
vn -0.910528 0.413448 0.0
f 16//1 17//1 18//1 
f 17//2 16//2 15//2 
f 1//3 10//3 2//3 
f 10//4 1//4 9//4 
f 7//5 15//5 13//5 
f 15//6 11//6 17//6 
f 5//7 13//7 9//7 
f 15//8 7//8 11//8 
f 13//9 5//9 7//9 
f 9//10 3//10 5//10 
f 3//11 9//11 1//11 
f 12//12 16//12 18//12 
f 8//13 16//13 12//13 
f 16//14 8//14 14//14 
f 6//15 14//15 8//15 
f 14//16 6//16 10//16 
f 4//17 10//17 6//17 
f 10//18 4//18 2//18 
f 10//19 13//19 14//19 
f 13//20 10//20 9//20 
f 13//21 16//21 14//21 
f 16//22 13//22 15//22 
f 17//23 12//23 18//23 
f 12//24 17//24 11//24 
f 11//25 8//25 12//25 
f 8//26 11//26 7//26 
f 7//27 6//27 8//27 
f 6//28 7//28 5//28 
f 3//29 6//29 5//29 
f 6//30 3//30 4//30 
f 1//31 4//31 3//31 
f 4//32 1//32 2//32 
