# FreeCAD v1.0 build0 Arch module
# https://www.freecad.org
mtllib letterB_p11.mtl
o letterB_p11
v 5.0 5.91457 0.0
v 5.0 5.91457 4.0
v 5.0 7.98419 0.0
v 5.0 7.98419 4.0
v 7.31023 7.98419 0.0
v 7.31023 7.98419 4.0
v 7.65198 5.91457 0.0
v 7.65198 5.91457 4.0
v 7.86292 8.01001 0.0
v 7.86292 8.01001 4.0
v 8.3343 8.08745 0.0
v 8.3343 8.08745 4.0
v 8.7244 8.21651 0.0
v 8.7244 8.21651 4.0
v 8.83159 5.79709 0.0
v 8.83159 5.79709 4.0
v 9.03322 8.39719 0.0
v 9.03322 8.39719 4.0
v 9.26793 8.6295 0.0
v 9.26793 8.6295 4.0
v 9.43558 8.91344 0.0
v 9.43558 8.91344 4.0
v 9.53616 9.24901 0.0
v 9.53616 9.24901 4.0
v 9.53847 10.0 0.0
v 9.53847 10.0 4.0
v 9.56969 9.6362 0.0
v 9.56969 9.6362 4.0
v 9.67416 5.44463 0.0
v 9.67416 5.44463 4.0
v 9.83556 7.03485 0.0
v 9.83556 7.03485 4.0
v 10.0 5.06602 0.0
v 10.0 5.06602 4.0
v 10.0 7.00577 0.0
v 10.0 7.00577 4.0
v 10.0 7.08096 0.0
v 10.0 7.08096 4.0
v 10.0 10.0 0.0
v 10.0 10.0 4.0
vn 1.0 -0.0 0.0
vn 1.0 0.0 0.0
vn 1.0 -0.0 0.0
vn 1.0 0.0 0.0
vn -1.0 0.0 0.0
vn -1.0 -0.0 0.0
vn 0.0 1.0 -0.0
vn 0.0 1.0 0.0
vn 0.0 0.0 -1.0
vn -0.0 0.0 -1.0
vn 0.0 0.0 -1.0
vn 0.0 0.0 -1.0
vn 0.0 -0.0 -1.0
vn -0.0 0.0 -1.0
vn 0.0 0.0 -1.0
vn 0.0 0.0 -1.0
vn 0.0 0.0 -1.0
vn 0.0 0.0 -1.0
vn 0.0 0.0 -1.0
vn 0.0 0.0 -1.0
vn 0.0 0.0 -1.0
vn 0.0 0.0 -1.0
vn 0.0 0.0 -1.0
vn 0.0 0.0 -1.0
vn 0.0 0.0 -1.0
vn -0.0 0.0 -1.0
vn -0.0 0.0 1.0
vn -0.0 0.0 1.0
vn 0.0 0.0 1.0
vn 0.0 -0.0 1.0
vn 0.0 0.0 1.0
vn 0.0 0.0 1.0
vn 0.0 0.0 1.0
vn -0.0 0.0 1.0
vn 0.0 0.0 1.0
vn -0.0 0.0 1.0
vn 0.0 0.0 1.0
vn -0.0 0.0 1.0
vn 0.0 0.0 1.0
vn 0.0 0.0 1.0
vn 0.0 0.0 1.0
vn -0.0 0.0 1.0
vn 0.0 0.0 1.0
vn 0.0 0.0 1.0
vn 0.17414 0.984721 -0.0
vn 0.17414 0.984721 0.0
vn 0.269991 -0.962863 0.0
vn 0.269991 -0.962863 0.0
vn -0.996338 -0.085501 0.0
vn -0.996338 -0.085501 0.0
vn -0.996271 0.086274 0.0
vn -0.996271 0.086274 0.0
vn -0.957898 0.28711 0.0
vn -0.957898 0.28711 0.0
vn -0.861102 0.508432 0.0
vn -0.861102 0.508432 0.0
vn -0.703465 0.71073 0.0
vn -0.703465 0.71073 0.0
vn -0.504986 0.863128 0.0
vn -0.504986 0.863128 0.0
vn -0.314095 0.949392 0.0
vn -0.314095 0.949392 0.0
vn -0.162111 0.986773 0.0
vn -0.162111 0.986773 0.0
vn -0.046666 0.998911 0.0
vn -0.046666 0.998911 0.0
vn 0.0 1.0 -0.0
vn 0.0 1.0 0.0
vn 0.0 -1.0 0.0
vn 0.0 -1.0 -0.0
vn -0.099102 -0.995077 0.0
vn -0.099102 -0.995077 -0.0
vn -0.385911 -0.922536 0.0
vn -0.385911 -0.922536 -0.0
vn -0.757952 -0.65231 0.0
vn -0.757952 -0.65231 0.0
f 38//1 39//1 40//1 
f 39//2 38//2 37//2 
f 34//3 35//3 36//3 
f 35//4 34//4 33//4 
f 1//5 4//5 3//5 
f 4//6 1//6 2//6 
f 39//7 26//7 40//7 
f 26//8 39//8 25//8 
f 29//9 35//9 33//9 
f 35//10 29//10 31//10 
f 17//11 37//11 31//11 
f 15//12 31//12 29//12 
f 23//13 37//13 21//13 
f 39//14 27//14 25//14 
f 39//15 23//15 27//15 
f 37//16 23//16 39//16 
f 37//17 19//17 21//17 
f 37//18 17//18 19//18 
f 11//19 31//19 15//19 
f 31//20 13//20 17//20 
f 31//21 11//21 13//21 
f 7//22 11//22 15//22 
f 11//23 7//23 9//23 
f 7//24 5//24 9//24 
f 1//25 5//25 7//25 
f 5//26 1//26 3//26 
f 24//27 38//27 40//27 
f 20//28 38//28 22//28 
f 24//29 40//29 28//29 
f 28//30 40//30 26//30 
f 30//31 36//31 32//31 
f 36//32 30//32 34//32 
f 38//33 24//33 22//33 
f 18//34 38//34 20//34 
f 38//35 18//35 32//35 
f 14//36 32//36 18//36 
f 32//37 16//37 30//37 
f 12//38 32//38 14//38 
f 32//39 12//39 16//39 
f 8//40 12//40 10//40 
f 12//41 8//41 16//41 
f 6//42 8//42 10//42 
f 2//43 6//43 4//43 
f 6//44 2//44 8//44 
f 35//45 32//45 36//45 
f 32//46 35//46 31//46 
f 31//47 38//47 32//47 
f 38//48 31//48 37//48 
f 27//49 26//49 25//49 
f 26//50 27//50 28//50 
f 23//51 28//51 27//51 
f 28//52 23//52 24//52 
f 21//53 24//53 23//53 
f 24//54 21//54 22//54 
f 19//55 22//55 21//55 
f 22//56 19//56 20//56 
f 19//57 18//57 20//57 
f 18//58 19//58 17//58 
f 17//59 14//59 18//59 
f 14//60 17//60 13//60 
f 13//61 12//61 14//61 
f 12//62 13//62 11//62 
f 11//63 10//63 12//63 
f 10//64 11//64 9//64 
f 9//65 6//65 10//65 
f 6//66 9//66 5//66 
f 5//67 4//67 6//67 
f 4//68 5//68 3//68 
f 1//69 8//69 2//69 
f 8//70 1//70 7//70 
f 7//71 16//71 8//71 
f 16//72 7//72 15//72 
f 15//73 30//73 16//73 
f 30//74 15//74 29//74 
f 33//75 30//75 29//75 
f 30//76 33//76 34//76 
