# FreeCAD v1.0 build0 Arch module
# https://www.freecad.org
mtllib letterD_p00.mtl
o letterD_p00
v 1.3006 0.0 0.0
v 1.3006 0.0 4.0
v 1.3006 5.0 0.0
v 1.3006 5.0 4.0
v 4.10129 2.16454 0.0
v 4.10129 2.16454 4.0
v 4.10129 5.0 0.0
v 4.10129 5.0 4.0
v 5.0 0.0 0.0
v 5.0 0.0 4.0
v 5.0 2.16454 0.0
v 5.0 2.16454 4.0
vn 1.0 -0.0 0.0
vn 1.0 0.0 0.0
vn 0.0 1.0 -0.0
vn 0.0 1.0 0.0
vn 0.0 0.0 -1.0
vn 0.0 0.0 -1.0
vn 0.0 0.0 -1.0
vn 0.0 0.0 -1.0
vn 0.0 0.0 1.0
vn -0.0 0.0 1.0
vn 0.0 0.0 1.0
vn 0.0 0.0 1.0
vn -1.0 0.0 0.0
vn -1.0 -0.0 0.0
vn 0.0 -1.0 0.0
vn 0.0 -1.0 -0.0
vn 1.0 -0.0 0.0
vn 1.0 0.0 0.0
vn 0.0 1.0 -0.0
vn 0.0 1.0 0.0
f 10//1 11//1 12//1 
f 11//2 10//2 9//2 
f 7//3 4//3 8//3 
f 4//4 7//4 3//4 
f 9//5 5//5 11//5 
f 1//6 5//6 9//6 
f 3//7 5//7 1//7 
f 5//8 3//8 7//8 
f 8//9 4//9 6//9 
f 6//10 10//10 12//10 
f 2//11 6//11 4//11 
f 6//12 2//12 10//12 
f 1//13 4//13 3//13 
f 4//14 1//14 2//14 
f 1//15 10//15 2//15 
f 10//16 1//16 9//16 
f 6//17 7//17 8//17 
f 7//18 6//18 5//18 
f 11//19 6//19 12//19 
f 6//20 11//20 5//20 
