# FreeCAD v1.0 build0 Arch module
# https://www.freecad.org
mtllib letterB_p22.mtl
o letterB_p22
v 10.0 10.0 0.0
v 10.0 10.0 4.0
v 10.0 13.032 0.0
v 10.0 13.032 4.0
v 10.428 12.8987 0.0
v 10.428 12.8987 4.0
v 11.1314 12.5269 0.0
v 11.1314 12.5269 4.0
v 11.6817 12.0513 0.0
v 11.6817 12.0513 4.0
v 12.0748 11.4743 0.0
v 12.0748 11.4743 4.0
v 12.3107 10.7958 0.0
v 12.3107 10.7958 4.0
v 12.3882 10.0 0.0
v 12.3882 10.0 4.0
v 12.3893 10.0159 0.0
v 12.3893 10.0159 4.0
vn -1.0 0.0 0.0
vn -1.0 -0.0 0.0
vn 0.0 -1.0 0.0
vn 0.0 -1.0 -0.0
vn 0.0 0.0 -1.0
vn -0.0 0.0 -1.0
vn -0.0 0.0 -1.0
vn -0.0 0.0 -1.0
vn -0.0 0.0 -1.0
vn -0.0 0.0 -1.0
vn -0.0 0.0 -1.0
vn 0.0 0.0 1.0
vn 0.0 0.0 1.0
vn 0.0 0.0 1.0
vn 0.0 0.0 1.0
vn 0.0 0.0 1.0
vn 0.0 0.0 1.0
vn 0.0 0.0 1.0
vn 0.997613 -0.069053 0.0
vn 0.997613 -0.069053 0.0
vn 0.99496 0.100274 0.0
vn 0.99496 0.100274 0.0
vn 0.94454 0.328397 0.0
vn 0.94454 0.328397 0.0
vn 0.826433 0.563035 0.0
vn 0.826433 0.563035 0.0
vn 0.653889 0.756591 -0.0
vn 0.653889 0.756591 0.0
vn 0.46731 0.884094 -0.0
vn 0.46731 0.884094 0.0
vn 0.29736 0.954766 -0.0
vn 0.29736 0.954766 0.0
f 1//1 4//1 3//1 
f 4//2 1//2 2//2 
f 1//3 16//3 2//3 
f 16//4 1//4 15//4 
f 1//5 17//5 15//5 
f 17//6 1//6 13//6 
f 13//7 1//7 11//7 
f 11//8 1//8 9//8 
f 9//9 1//9 7//9 
f 7//10 1//10 5//10 
f 5//11 1//11 3//11 
f 2//12 18//12 14//12 
f 2//13 14//13 12//13 
f 2//14 12//14 10//14 
f 2//15 10//15 8//15 
f 2//16 8//16 6//16 
f 2//17 6//17 4//17 
f 18//18 2//18 16//18 
f 16//19 17//19 18//19 
f 17//20 16//20 15//20 
f 18//21 13//21 14//21 
f 13//22 18//22 17//22 
f 14//23 11//23 12//23 
f 11//24 14//24 13//24 
f 12//25 9//25 10//25 
f 9//26 12//26 11//26 
f 9//27 8//27 10//27 
f 8//28 9//28 7//28 
f 7//29 6//29 8//29 
f 6//30 7//30 5//30 
f 5//31 4//31 6//31 
f 4//32 5//32 3//32 
