# FreeCAD v1.0 build0 Arch module
# https://www.freecad.org
mtllib letterD_p12.mtl
o letterD_p12
v 5.0 11.2122 0.0
v 5.0 11.2122 4.0
v 5.0 13.3767 0.0
v 5.0 13.3767 4.0
v 6.08551 11.2122 0.0
v 6.08551 11.2122 4.0
v 6.14249 13.3767 0.0
v 6.14249 13.3767 4.0
v 7.06516 11.1413 0.0
v 7.06516 11.1413 4.0
v 7.73683 13.2702 0.0
v 7.73683 13.2702 4.0
v 7.92494 10.9285 0.0
v 7.92494 10.9285 4.0
v 8.66487 10.574 0.0
v 8.66487 10.574 4.0
v 9.14011 12.9507 0.0
v 9.14011 12.9507 4.0
v 9.28493 10.0776 0.0
v 9.28493 10.0776 4.0
v 9.3452 10.0 0.0
v 9.3452 10.0 4.0
v 10.0 10.0 0.0
v 10.0 10.0 4.0
v 10.0 12.5729 0.0
v 10.0 12.5729 4.0
vn 1.0 -0.0 0.0
vn 1.0 0.0 0.0
vn -1.0 0.0 0.0
vn -1.0 -0.0 0.0
vn 0.0 -1.0 0.0
vn 0.0 -1.0 -0.0
vn 0.0 0.0 -1.0
vn 0.0 0.0 -1.0
vn 0.0 0.0 -1.0
vn -0.0 0.0 -1.0
vn 0.0 0.0 -1.0
vn 0.0 0.0 -1.0
vn 0.0 0.0 -1.0
vn 0.0 0.0 -1.0
vn 0.0 0.0 -1.0
vn 0.0 0.0 -1.0
vn 0.0 0.0 -1.0
vn -0.0 0.0 1.0
vn 0.0 0.0 1.0
vn 0.0 0.0 1.0
vn 0.0 0.0 1.0
vn 0.0 0.0 1.0
vn 0.0 0.0 1.0
vn 0.0 0.0 1.0
vn 0.0 0.0 1.0
vn 0.0 0.0 1.0
vn -0.0 0.0 1.0
vn 0.0 0.0 1.0
vn 0.402247 0.915531 -0.0
vn 0.402247 0.915531 0.0
vn 0.221999 0.975047 -0.0
vn 0.221999 0.975047 0.0
vn 0.066651 0.997776 -0.0
vn 0.066651 0.997776 0.0
vn 0.0 1.0 -0.0
vn 0.0 1.0 0.0
vn 0.0 -1.0 0.0
vn 0.0 -1.0 -0.0
vn -0.072184 -0.997391 0.0
vn -0.072184 -0.997391 -0.0
vn -0.240256 -0.97071 0.0
vn -0.240256 -0.97071 -0.0
vn -0.432071 -0.90184 0.0
vn -0.432071 -0.90184 -0.0
vn -0.624966 -0.780652 0.0
vn -0.624966 -0.780652 -0.0
vn -0.789775 -0.613396 0.0
vn -0.789775 -0.613396 0.0
f 24//1 25//1 26//1 
f 25//2 24//2 23//2 
f 1//3 4//3 3//3 
f 4//4 1//4 2//4 
f 21//5 24//5 22//5 
f 24//6 21//6 23//6 
f 19//7 23//7 21//7 
f 23//8 19//8 25//8 
f 15//9 25//9 19//9 
f 25//10 15//10 17//10 
f 13//11 17//11 15//11 
f 13//12 11//12 17//12 
f 9//13 11//13 13//13 
f 9//14 7//14 11//14 
f 5//15 7//15 9//15 
f 3//16 5//16 1//16 
f 5//17 3//17 7//17 
f 20//18 24//18 26//18 
f 24//19 20//19 22//19 
f 16//20 26//20 18//20 
f 26//21 16//21 20//21 
f 18//22 14//22 16//22 
f 12//23 14//23 18//23 
f 12//24 10//24 14//24 
f 8//25 10//25 12//25 
f 8//26 6//26 10//26 
f 4//27 6//27 8//27 
f 6//28 4//28 2//28 
f 25//29 18//29 26//29 
f 18//30 25//30 17//30 
f 17//31 12//31 18//31 
f 12//32 17//32 11//32 
f 11//33 8//33 12//33 
f 8//34 11//34 7//34 
f 7//35 4//35 8//35 
f 4//36 7//36 3//36 
f 1//37 6//37 2//37 
f 6//38 1//38 5//38 
f 5//39 10//39 6//39 
f 10//40 5//40 9//40 
f 9//41 14//41 10//41 
f 14//42 9//42 13//42 
f 13//43 16//43 14//43 
f 16//44 13//44 15//44 
f 15//45 20//45 16//45 
f 20//46 15//46 19//46 
f 21//47 20//47 19//47 
f 20//48 21//48 22//48 
