# FreeCAD v1.0 build0 Arch module
# https://www.freecad.org
mtllib letterC_p22.mtl
o letterC_p22
v 10.0 10.5047 0.0
v 10.0 10.5047 4.0
v 10.0 13.1963 0.0
v 10.0 13.1963 4.0
v 10.0613 10.4577 0.0
v 10.0613 10.4577 4.0
v 10.4064 10.0836 0.0
v 10.4064 10.0836 4.0
v 10.4593 10.0 0.0
v 10.4593 10.0 4.0
v 10.4644 13.0447 0.0
v 10.4644 13.0447 4.0
v 11.2595 12.6313 0.0
v 11.2595 12.6313 4.0
v 11.9448 12.1036 0.0
v 11.9448 12.1036 4.0
v 12.5198 11.4648 0.0
v 12.5198 11.4648 4.0
v 12.9845 10.7151 0.0
v 12.9845 10.7151 4.0
v 13.2789 10.0 0.0
v 13.2789 10.0 4.0
vn -1.0 0.0 0.0
vn -1.0 -0.0 0.0
vn 0.0 -1.0 0.0
vn 0.0 -1.0 -0.0
vn 0.0 0.0 -1.0
vn -0.0 0.0 -1.0
vn 0.0 0.0 -1.0
vn 0.0 0.0 -1.0
vn -0.0 0.0 -1.0
vn -0.0 0.0 -1.0
vn 0.0 0.0 -1.0
vn -0.0 0.0 -1.0
vn -0.0 0.0 -1.0
vn 0.0 0.0 1.0
vn 0.0 0.0 1.0
vn 0.0 0.0 1.0
vn 0.0 0.0 1.0
vn 0.0 0.0 1.0
vn 0.0 0.0 1.0
vn 0.0 0.0 1.0
vn 0.0 0.0 1.0
vn 0.0 0.0 1.0
vn -0.608456 -0.793587 0.0
vn -0.608456 -0.793587 -0.0
vn -0.735022 -0.678043 0.0
vn -0.735022 -0.678043 0.0
vn -0.845031 -0.534717 0.0
vn -0.845031 -0.534717 0.0
vn 0.924702 0.380691 0.0
vn 0.924702 0.380691 0.0
vn 0.849961 0.526846 0.0
vn 0.849961 0.526846 0.0
vn 0.743248 0.669016 0.0
vn 0.743248 0.669016 0.0
vn 0.610107 0.792319 -0.0
vn 0.610107 0.792319 0.0
vn 0.461307 0.887241 -0.0
vn 0.461307 0.887241 0.0
vn 0.310326 0.95063 -0.0
vn 0.310326 0.95063 0.0
f 1//1 4//1 3//1 
f 4//2 1//2 2//2 
f 9//3 22//3 10//3 
f 22//4 9//4 21//4 
f 9//5 19//5 21//5 
f 19//6 9//6 17//6 
f 7//7 17//7 9//7 
f 5//8 15//8 7//8 
f 17//9 7//9 15//9 
f 15//10 5//10 13//10 
f 1//11 13//11 5//11 
f 13//12 1//12 11//12 
f 11//13 1//13 3//13 
f 10//14 20//14 18//14 
f 8//15 18//15 16//15 
f 6//16 16//16 14//16 
f 2//17 14//17 12//17 
f 18//18 8//18 10//18 
f 20//19 10//19 22//19 
f 16//20 6//20 8//20 
f 2//21 12//21 4//21 
f 14//22 2//22 6//22 
f 1//23 6//23 2//23 
f 6//24 1//24 5//24 
f 7//25 6//25 5//25 
f 6//26 7//26 8//26 
f 9//27 8//27 7//27 
f 8//28 9//28 10//28 
f 22//29 19//29 20//29 
f 19//30 22//30 21//30 
f 20//31 17//31 18//31 
f 17//32 20//32 19//32 
f 18//33 15//33 16//33 
f 15//34 18//34 17//34 
f 15//35 14//35 16//35 
f 14//36 15//36 13//36 
f 13//37 12//37 14//37 
f 12//38 13//38 11//38 
f 11//39 4//39 12//39 
f 4//40 11//40 3//40 
