# FreeCAD v1.0 build0 Arch module
# https://www.freecad.org
mtllib letterA_p20.mtl
o letterA_p20
v 10.0 2.17856 0.0
v 10.0 2.17856 4.0
v 10.0 5.0 0.0
v 10.0 5.0 4.0
v 10.7565 0.0 0.0
v 10.7565 0.0 4.0
v 11.7117 5.0 0.0
v 11.7117 5.0 4.0
v 13.5286 0.0 0.0
v 13.5286 0.0 4.0
vn -1.0 0.0 0.0
vn -1.0 -0.0 0.0
vn 0.0 1.0 -0.0
vn 0.0 1.0 0.0
vn 0.0 0.0 -1.0
vn 0.0 0.0 -1.0
vn -0.0 0.0 -1.0
vn -0.0 0.0 1.0
vn 0.0 0.0 1.0
vn 0.0 0.0 1.0
vn -0.944666 -0.328033 0.0
vn -0.944666 -0.328033 0.0
vn 0.0 -1.0 0.0
vn 0.0 -1.0 -0.0
vn 0.939871 0.34153 0.0
vn 0.939871 0.34153 0.0
f 1//1 4//1 3//1 
f 4//2 1//2 2//2 
f 7//3 4//3 8//3 
f 4//4 7//4 3//4 
f 1//5 9//5 5//5 
f 9//6 1//6 7//6 
f 7//7 1//7 3//7 
f 2//8 10//8 8//8 
f 2//9 8//9 4//9 
f 10//10 2//10 6//10 
f 5//11 2//11 1//11 
f 2//12 5//12 6//12 
f 5//13 10//13 6//13 
f 10//14 5//14 9//14 
f 10//15 7//15 8//15 
f 7//16 10//16 9//16 
