solid OpenSCAD_Model
  facet normal -1 0 0
    outer loop
      vertex 10 5 0
      vertex 10 9.71059 4
      vertex 10 9.71059 0
    endloop
  endfacet
  facet normal -1 -0 0
    outer loop
      vertex 10 9.71059 4
      vertex 10 5 0
      vertex 10 5 4
    endloop
  endfacet
  facet normal 0 -1 0
    outer loop
      vertex 10 5 0
      vertex 11.7117 5 4
      vertex 10 5 4
    endloop
  endfacet
  facet normal 0 -1 -0
    outer loop
      vertex 11.7117 5 4
      vertex 10 5 0
      vertex 11.7117 5 0
    endloop
  endfacet
  facet normal 0 0 -1
    outer loop
      vertex 10 9.71059 0
      vertex 11.7117 5 0
      vertex 10 5 0
    endloop
  endfacet
  facet normal 0 0 1
    outer loop
      vertex 11.7117 5 4
      vertex 10 9.71059 4
      vertex 10 5 4
    endloop
  endfacet
  facet normal 0.939873 0.341524 0
    outer loop
      vertex 11.7117 5 4
      vertex 10 9.71059 0
      vertex 10 9.71059 4
    endloop
  endfacet
  facet normal 0.939873 0.341524 0
    outer loop
      vertex 10 9.71059 0
      vertex 11.7117 5 4
      vertex 11.7117 5 0
    endloop
  endfacet
endsolid OpenSCAD_Model
