solid OpenSCAD_Model
  facet normal 1 -0 0
    outer loop
      vertex 5 5.91457 4
      vertex 5 7.98419 0
      vertex 5 7.98419 4
    endloop
  endfacet
  facet normal 1 0 0
    outer loop
      vertex 5 7.98419 0
      vertex 5 5.91457 4
      vertex 5 5.91457 0
    endloop
  endfacet
  facet normal 0 1 -0
    outer loop
      vertex 4.10129 10 0
      vertex 1.3006 10 4
      vertex 4.10129 10 4
    endloop
  endfacet
  facet normal 0 1 0
    outer loop
      vertex 1.3006 10 4
      vertex 4.10129 10 0
      vertex 1.3006 10 0
    endloop
  endfacet
  facet normal 0 -1 0
    outer loop
      vertex 1.3006 5 0
      vertex 4.10129 5 4
      vertex 1.3006 5 4
    endloop
  endfacet
  facet normal 0 -1 -0
    outer loop
      vertex 4.10129 5 4
      vertex 1.3006 5 0
      vertex 4.10129 5 0
    endloop
  endfacet
  facet normal 0 0 -1
    outer loop
      vertex 1.3006 5 0
      vertex 4.10129 5.91457 0
      vertex 4.10129 5 0
    endloop
  endfacet
  facet normal -0 0 -1
    outer loop
      vertex 4.10129 5.91457 0
      vertex 1.3006 5 0
      vertex 4.10129 7.98419 0
    endloop
  endfacet
  facet normal 0 0 -1
    outer loop
      vertex 1.3006 10 0
      vertex 4.10129 7.98419 0
      vertex 1.3006 5 0
    endloop
  endfacet
  facet normal 0 0 -1
    outer loop
      vertex 4.10129 7.98419 0
      vertex 1.3006 10 0
      vertex 4.10129 10 0
    endloop
  endfacet
  facet normal 0 0 -1
    outer loop
      vertex 4.10129 5.91457 0
      vertex 5 7.98419 0
      vertex 5 5.91457 0
    endloop
  endfacet
  facet normal -0 0 -1
    outer loop
      vertex 5 7.98419 0
      vertex 4.10129 5.91457 0
      vertex 4.10129 7.98419 0
    endloop
  endfacet
  facet normal -0 0 1
    outer loop
      vertex 1.3006 10 4
      vertex 4.10129 7.98419 4
      vertex 4.10129 10 4
    endloop
  endfacet
  facet normal 0 0 1
    outer loop
      vertex 1.3006 5 4
      vertex 4.10129 7.98419 4
      vertex 1.3006 10 4
    endloop
  endfacet
  facet normal 0 0 1
    outer loop
      vertex 4.10129 7.98419 4
      vertex 1.3006 5 4
      vertex 4.10129 5.91457 4
    endloop
  endfacet
  facet normal 0 0 1
    outer loop
      vertex 4.10129 5.91457 4
      vertex 1.3006 5 4
      vertex 4.10129 5 4
    endloop
  endfacet
  facet normal -0 0 1
    outer loop
      vertex 4.10129 7.98419 4
      vertex 5 5.91457 4
      vertex 5 7.98419 4
    endloop
  endfacet
  facet normal 0 0 1
    outer loop
      vertex 5 5.91457 4
      vertex 4.10129 7.98419 4
      vertex 4.10129 5.91457 4
    endloop
  endfacet
  facet normal -1 0 0
    outer loop
      vertex 1.3006 5 0
      vertex 1.3006 10 4
      vertex 1.3006 10 0
    endloop
  endfacet
  facet normal -1 -0 0
    outer loop
      vertex 1.3006 10 4
      vertex 1.3006 5 0
      vertex 1.3006 5 4
    endloop
  endfacet
  facet normal 1 -0 0
    outer loop
      vertex 4.10129 7.98419 4
      vertex 4.10129 10 0
      vertex 4.10129 10 4
    endloop
  endfacet
  facet normal 1 0 0
    outer loop
      vertex 4.10129 10 0
      vertex 4.10129 7.98419 4
      vertex 4.10129 7.98419 0
    endloop
  endfacet
  facet normal 0 1 -0
    outer loop
      vertex 5 7.98419 0
      vertex 4.10129 7.98419 4
      vertex 5 7.98419 4
    endloop
  endfacet
  facet normal 0 1 0
    outer loop
      vertex 4.10129 7.98419 4
      vertex 5 7.98419 0
      vertex 4.10129 7.98419 0
    endloop
  endfacet
  facet normal 1 -0 0
    outer loop
      vertex 4.10129 5 4
      vertex 4.10129 5.91457 0
      vertex 4.10129 5.91457 4
    endloop
  endfacet
  facet normal 1 0 0
    outer loop
      vertex 4.10129 5.91457 0
      vertex 4.10129 5 4
      vertex 4.10129 5 0
    endloop
  endfacet
  facet normal 0 -1 0
    outer loop
      vertex 4.10129 5.91457 0
      vertex 5 5.91457 4
      vertex 4.10129 5.91457 4
    endloop
  endfacet
  facet normal 0 -1 -0
    outer loop
      vertex 5 5.91457 4
      vertex 4.10129 5.91457 0
      vertex 5 5.91457 0
    endloop
  endfacet
endsolid OpenSCAD_Model
