solid OpenSCAD_Model
  facet normal -1 0 0
    outer loop
      vertex 10 2.17856 0
      vertex 10 5 4
      vertex 10 5 0
    endloop
  endfacet
  facet normal -1 -0 0
    outer loop
      vertex 10 5 4
      vertex 10 2.17856 0
      vertex 10 2.17856 4
    endloop
  endfacet
  facet normal 0 1 -0
    outer loop
      vertex 11.7117 5 0
      vertex 10 5 4
      vertex 11.7117 5 4
    endloop
  endfacet
  facet normal 0 1 0
    outer loop
      vertex 10 5 4
      vertex 11.7117 5 0
      vertex 10 5 0
    endloop
  endfacet
  facet normal 0 0 -1
    outer loop
      vertex 10 2.17856 0
      vertex 13.5286 0 0
      vertex 10.7565 0 0
    endloop
  endfacet
  facet normal 0 0 -1
    outer loop
      vertex 13.5286 0 0
      vertex 10 2.17856 0
      vertex 11.7117 5 0
    endloop
  endfacet
  facet normal -0 0 -1
    outer loop
      vertex 11.7117 5 0
      vertex 10 2.17856 0
      vertex 10 5 0
    endloop
  endfacet
  facet normal -0 0 1
    outer loop
      vertex 10 2.17856 4
      vertex 13.5286 0 4
      vertex 11.7117 5 4
    endloop
  endfacet
  facet normal 0 0 1
    outer loop
      vertex 10 2.17856 4
      vertex 11.7117 5 4
      vertex 10 5 4
    endloop
  endfacet
  facet normal 0 0 1
    outer loop
      vertex 13.5286 0 4
      vertex 10 2.17856 4
      vertex 10.7565 0 4
    endloop
  endfacet
  facet normal -0.944666 -0.328033 0
    outer loop
      vertex 10.7565 0 0
      vertex 10 2.17856 4
      vertex 10 2.17856 0
    endloop
  endfacet
  facet normal -0.944666 -0.328033 0
    outer loop
      vertex 10 2.17856 4
      vertex 10.7565 0 0
      vertex 10.7565 0 4
    endloop
  endfacet
  facet normal 0 -1 0
    outer loop
      vertex 10.7565 0 0
      vertex 13.5286 0 4
      vertex 10.7565 0 4
    endloop
  endfacet
  facet normal 0 -1 -0
    outer loop
      vertex 13.5286 0 4
      vertex 10.7565 0 0
      vertex 13.5286 0 0
    endloop
  endfacet
  facet normal 0.939871 0.34153 0
    outer loop
      vertex 13.5286 0 4
      vertex 11.7117 5 0
      vertex 11.7117 5 4
    endloop
  endfacet
  facet normal 0.939871 0.34153 0
    outer loop
      vertex 11.7117 5 0
      vertex 13.5286 0 4
      vertex 13.5286 0 0
    endloop
  endfacet
endsolid OpenSCAD_Model
