#Exported from SketchUp with ZbylsXExporter

mtllib lettreF.mtl

  v  -0.0053  -0.0250  -0.0050
  v  -0.0153  -0.0250   0.0050
  v  -0.0153  -0.0250  -0.0050
  v  -0.0053  -0.0250   0.0050
  v   0.0147   0.0250   0.0050
  v  -0.0153   0.0250  -0.0050
  v  -0.0153   0.0250   0.0050
  v   0.0147   0.0250  -0.0050
  v  -0.0053  -0.0050  -0.0050
  v  -0.0053   0.0050  -0.0050
  v   0.0047  -0.0050  -0.0050
  v  -0.0053   0.0150  -0.0050
  v   0.0147   0.0150  -0.0050
  v   0.0047   0.0050  -0.0050
  v  -0.0053  -0.0050   0.0050
  v   0.0047   0.0050   0.0050
  v   0.0047  -0.0050   0.0050
  v  -0.0053   0.0150   0.0050
  v   0.0147   0.0150   0.0050
  v  -0.0053   0.0050   0.0050

  vt   0.0000   0.0000
  vt   0.0656  -0.0757
  vt   0.0328  -0.0505
  vt   0.0656  -0.0505
  vt   0.0984  -0.1262
  vt   0.0328  -0.1009
  vt   0.0984  -0.1009
  vt   0.0328   0.0000
  vt   0.0000  -0.1262
  vt   0.0328  -0.0757

  vn   0.0000  -1.0000   0.0000
  vn   0.0000   1.0000   0.0000
  vn   0.0000   0.0000  -1.0000
  vn   1.0000   0.0000   0.0000
  vn   0.0000   0.0000   1.0000
  vn  -1.0000   0.0000   0.0000

usemtl __Color_I01_
f   1/1/1   2/1/1   3/1/1
f   2/1/1   1/1/1   4/1/1
usemtl __Color_A01_
f   5/1/2   6/1/2   7/1/2
f   6/1/2   5/1/2   8/1/2
usemtl __Color_I01_
f   6/1/3   1/1/3   3/1/3
f   1/1/3   6/1/3   9/1/3
f   9/1/3   6/1/3   10/1/3
f   9/1/3   10/1/3   11/1/3
f   10/1/3   6/1/3   12/1/3
f   12/1/3   6/1/3   13/1/3
f   13/1/3   6/1/3   8/1/3
f   14/1/3   11/1/3   10/1/3
f   1/1/4   15/1/4   4/1/4
f   15/1/4   1/1/4   9/1/4
usemtl __Carpet_Diamond_Olive__Carpet_Diamond_Olive_jpg
f   16/2/5   15/3/5   17/4/5
f   5/5/5   18/6/5   19/7/5
f   15/3/5   2/1/5   4/8/5
f   2/1/5   15/3/5   7/9/5
f   7/9/5   15/3/5   20/10/5
f   20/10/5   15/3/5   16/2/5
f   7/9/5   20/10/5   18/6/5
f   7/9/5   18/6/5   5/5/5
usemtl __Color_I01_
f   6/1/6   2/1/6   7/1/6
f   2/1/6   6/1/6   3/1/6
f   10/1/4   18/1/4   20/1/4
f   18/1/4   10/1/4   12/1/4
f   13/1/4   5/1/4   19/1/4
f   5/1/4   13/1/4   8/1/4
f   13/1/1   18/1/1   12/1/1
f   18/1/1   13/1/1   19/1/1
f   11/1/4   16/1/4   17/1/4
f   16/1/4   11/1/4   14/1/4
f   16/1/2   10/1/2   20/1/2
f   10/1/2   16/1/2   14/1/2
f   11/1/1   15/1/1   9/1/1
f   15/1/1   11/1/1   17/1/1
