solid OpenSCAD_Model
  facet normal -1 0 0
    outer loop
      vertex 0 0 0
      vertex 0 0 20
      vertex 0 4 0
    endloop
  endfacet
  facet normal -1 0 0
    outer loop
      vertex 0 4 0
      vertex 0 0 20
      vertex 0 4 20
    endloop
  endfacet
  facet normal 0 -1 0
    outer loop
      vertex 0 0 20
      vertex 0 0 0
      vertex 4 0 0
    endloop
  endfacet
  facet normal 0 -1 0
    outer loop
      vertex 4 0 12
      vertex 0 0 20
      vertex 4 0 8
    endloop
  endfacet
  facet normal 0 -1 0
    outer loop
      vertex 4 0 8
      vertex 0 0 20
      vertex 4 0 0
    endloop
  endfacet
  facet normal 0 -1 0
    outer loop
      vertex 10 0 16
      vertex 0 0 20
      vertex 4 0 16
    endloop
  endfacet
  facet normal 0 -1 0
    outer loop
      vertex 8 0 8
      vertex 4 0 12
      vertex 4 0 8
    endloop
  endfacet
  facet normal 0 -1 0
    outer loop
      vertex 10 0 16
      vertex 10 0 20
      vertex 0 0 20
    endloop
  endfacet
  facet normal 0 -1 0
    outer loop
      vertex 4 0 12
      vertex 4 0 16
      vertex 0 0 20
    endloop
  endfacet
  facet normal 0 -1 0
    outer loop
      vertex 8 0 12
      vertex 4 0 12
      vertex 8 0 8
    endloop
  endfacet
  facet normal 0 0 -1
    outer loop
      vertex 0 0 0
      vertex 0 4 0
      vertex 4 0 0
    endloop
  endfacet
  facet normal 0 0 -1
    outer loop
      vertex 4 0 0
      vertex 0 4 0
      vertex 4 4 0
    endloop
  endfacet
  facet normal 0 1 0
    outer loop
      vertex 0 4 0
      vertex 0 4 20
      vertex 4 4 0
    endloop
  endfacet
  facet normal 0 1 0
    outer loop
      vertex 4 4 16
      vertex 0 4 20
      vertex 10 4 20
    endloop
  endfacet
  facet normal 0 1 0
    outer loop
      vertex 4 4 0
      vertex 0 4 20
      vertex 4 4 8
    endloop
  endfacet
  facet normal 0 1 0
    outer loop
      vertex 8 4 12
      vertex 4 4 8
      vertex 4 4 12
    endloop
  endfacet
  facet normal 0 1 0
    outer loop
      vertex 0 4 20
      vertex 4 4 16
      vertex 4 4 12
    endloop
  endfacet
  facet normal 0 1 0
    outer loop
      vertex 4 4 8
      vertex 8 4 12
      vertex 8 4 8
    endloop
  endfacet
  facet normal 0 1 0
    outer loop
      vertex 0 4 20
      vertex 4 4 12
      vertex 4 4 8
    endloop
  endfacet
  facet normal 0 1 0
    outer loop
      vertex 4 4 16
      vertex 10 4 20
      vertex 10 4 16
    endloop
  endfacet
  facet normal 0 0 1
    outer loop
      vertex 0 4 20
      vertex 0 0 20
      vertex 10 0 20
    endloop
  endfacet
  facet normal 0 0 1
    outer loop
      vertex 10 4 20
      vertex 0 4 20
      vertex 10 0 20
    endloop
  endfacet
  facet normal 1 0 0
    outer loop
      vertex 10 0 20
      vertex 10 0 16
      vertex 10 4 16
    endloop
  endfacet
  facet normal 1 0 0
    outer loop
      vertex 10 4 20
      vertex 10 0 20
      vertex 10 4 16
    endloop
  endfacet
  facet normal 0 0 -1
    outer loop
      vertex 4 0 16
      vertex 4 4 16
      vertex 10 0 16
    endloop
  endfacet
  facet normal 0 0 -1
    outer loop
      vertex 10 0 16
      vertex 4 4 16
      vertex 10 4 16
    endloop
  endfacet
  facet normal 1 0 0
    outer loop
      vertex 4 0 16
      vertex 4 0 12
      vertex 4 4 12
    endloop
  endfacet
  facet normal 1 0 0
    outer loop
      vertex 4 4 16
      vertex 4 0 16
      vertex 4 4 12
    endloop
  endfacet
  facet normal 0 0 1
    outer loop
      vertex 4 4 12
      vertex 4 0 12
      vertex 8 0 12
    endloop
  endfacet
  facet normal 0 0 1
    outer loop
      vertex 8 4 12
      vertex 4 4 12
      vertex 8 0 12
    endloop
  endfacet
  facet normal 1 0 0
    outer loop
      vertex 8 0 12
      vertex 8 0 8
      vertex 8 4 8
    endloop
  endfacet
  facet normal 1 0 0
    outer loop
      vertex 8 4 12
      vertex 8 0 12
      vertex 8 4 8
    endloop
  endfacet
  facet normal 0 0 -1
    outer loop
      vertex 4 0 8
      vertex 4 4 8
      vertex 8 0 8
    endloop
  endfacet
  facet normal 0 0 -1
    outer loop
      vertex 8 0 8
      vertex 4 4 8
      vertex 8 4 8
    endloop
  endfacet
  facet normal 1 0 0
    outer loop
      vertex 4 0 8
      vertex 4 0 0
      vertex 4 4 0
    endloop
  endfacet
  facet normal 1 0 0
    outer loop
      vertex 4 4 8
      vertex 4 0 8
      vertex 4 4 0
    endloop
  endfacet
endsolid OpenSCAD_Model
