#Exported from SketchUp with ZbylsXExporter

mtllib lettreFdock.mtl

  v   0.0500  -0.0800   0.0000
  v   0.0100   0.0000   0.0000
  v  -0.1000  -0.0800   0.0000
  v   0.0500   0.0700   0.0000
  v   0.0200   0.0200   0.0000
  v   0.0300   0.0400   0.0000
  v   0.0200   0.0300   0.0000
  v   0.0100   0.0300   0.0000
  v   0.0300   0.0500   0.0000
  v   0.0000   0.0500   0.0000
  v   0.0000   0.0000   0.0000
  v  -0.1000   0.0700   0.0000
  v   0.0100   0.0400   0.0000
  v   0.0100   0.0200   0.0000
  v   0.0100   0.0400  -0.0100
  v   0.0200   0.0300  -0.0100
  v   0.0100   0.0300  -0.0100
  v  -0.1000   0.0700  -0.0100
  v   0.0500  -0.0800  -0.0100
  v  -0.1000  -0.0800  -0.0100
  v   0.0000   0.0000  -0.0100
  v   0.0000   0.0500  -0.0100
  v   0.0300   0.0500  -0.0100
  v   0.0100   0.0000  -0.0100
  v   0.0500   0.0700  -0.0100
  v   0.0200   0.0200  -0.0100
  v   0.0100   0.0200  -0.0100
  v   0.0300   0.0400  -0.0100

  vt   0.0000   0.0000

  vn   0.0000   0.0000   1.0000
  vn   0.0000   0.0000  -1.0000
  vn  -1.0000   0.0000   0.0000
  vn   0.0000   1.0000   0.0000
  vn   1.0000   0.0000   0.0000
  vn   0.0000  -1.0000   0.0000

usemtl __0046_Gold_
f   1/1/1   2/1/1   3/1/1
f   2/1/1   1/1/1   4/1/1
f   2/1/1   4/1/1   5/1/1
f   5/1/1   4/1/1   6/1/1
f   5/1/1   6/1/1   7/1/1
f   7/1/1   6/1/1   8/1/1
f   6/1/1   4/1/1   9/1/1
f   9/1/1   4/1/1   10/1/1
f   3/1/1   11/1/1   12/1/1
f   11/1/1   3/1/1   2/1/1
f   12/1/1   11/1/1   10/1/1
f   12/1/1   10/1/1   4/1/1
f   13/1/1   8/1/1   6/1/1
f   14/1/1   2/1/1   5/1/1
f   15/1/2   16/1/2   17/1/2
f   18/1/2   19/1/2   20/1/2
f   19/1/2   18/1/2   21/1/2
f   21/1/2   18/1/2   22/1/2
f   22/1/2   18/1/2   23/1/2
f   19/1/2   24/1/2   25/1/2
f   24/1/2   19/1/2   21/1/2
f   25/1/2   24/1/2   26/1/2
f   26/1/2   24/1/2   27/1/2
f   25/1/2   26/1/2   28/1/2
f   28/1/2   26/1/2   16/1/2
f   28/1/2   16/1/2   15/1/2
f   25/1/2   28/1/2   23/1/2
f   25/1/2   23/1/2   18/1/2
f   18/1/3   3/1/3   12/1/3
f   3/1/3   18/1/3   20/1/3
f   4/1/4   18/1/4   12/1/4
f   18/1/4   4/1/4   25/1/4
f   19/1/5   4/1/5   1/1/5
f   4/1/5   19/1/5   25/1/5
f   19/1/6   3/1/6   20/1/6
f   3/1/6   19/1/6   1/1/6
usemtl __0063_GreenYellow_
f   2/1/4   21/1/4   11/1/4
f   21/1/4   2/1/4   24/1/4
f   27/1/3   2/1/3   14/1/3
f   2/1/3   27/1/3   24/1/3
f   5/1/4   27/1/4   14/1/4
f   27/1/4   5/1/4   26/1/4
f   16/1/3   5/1/3   7/1/3
f   5/1/3   16/1/3   26/1/3
f   16/1/6   8/1/6   17/1/6
f   8/1/6   16/1/6   7/1/6
f   15/1/3   8/1/3   13/1/3
f   8/1/3   15/1/3   17/1/3
f   6/1/4   15/1/4   13/1/4
f   15/1/4   6/1/4   28/1/4
f   23/1/3   6/1/3   9/1/3
f   6/1/3   23/1/3   28/1/3
f   23/1/6   10/1/6   22/1/6
f   10/1/6   23/1/6   9/1/6
f   21/1/5   10/1/5   11/1/5
f   10/1/5   21/1/5   22/1/5
