# FreeCAD v1.0 build0 Arch module
# https://www.freecad.org
mtllib colors.mtl
o letterB_p01
usemtl color_fad82c
v 1.3006 5.0 0.0
v 1.3006 5.0 4.0
v 1.3006 10.0 0.0
v 1.3006 10.0 4.0
v 4.10129 5.0 0.0
v 4.10129 5.0 4.0
v 4.10129 5.91457 0.0
v 4.10129 5.91457 4.0
v 4.10129 7.98419 0.0
v 4.10129 7.98419 4.0
v 4.10129 10.0 0.0
v 4.10129 10.0 4.0
v 5.0 5.91457 0.0
v 5.0 5.91457 4.0
v 5.0 7.98419 0.0
v 5.0 7.98419 4.0
vn 1.0 -0.0 0.0
vn 1.0 0.0 0.0
vn 0.0 1.0 -0.0
vn 0.0 1.0 0.0
vn 0.0 -1.0 0.0
vn 0.0 -1.0 -0.0
vn 0.0 0.0 -1.0
vn -0.0 0.0 -1.0
vn 0.0 0.0 -1.0
vn 0.0 0.0 -1.0
vn 0.0 0.0 -1.0
vn -0.0 0.0 -1.0
vn -0.0 0.0 1.0
vn 0.0 0.0 1.0
vn 0.0 0.0 1.0
vn 0.0 0.0 1.0
vn -0.0 0.0 1.0
vn 0.0 0.0 1.0
vn -1.0 0.0 0.0
vn -1.0 -0.0 0.0
vn 1.0 -0.0 0.0
vn 1.0 0.0 0.0
vn 0.0 1.0 -0.0
vn 0.0 1.0 0.0
vn 1.0 -0.0 0.0
vn 1.0 0.0 0.0
vn 0.0 -1.0 0.0
vn 0.0 -1.0 -0.0
f 14//1 15//1 16//1 
f 15//2 14//2 13//2 
f 11//3 4//3 12//3 
f 4//4 11//4 3//4 
f 1//5 6//5 2//5 
f 6//6 1//6 5//6 
f 1//7 7//7 5//7 
f 7//8 1//8 9//8 
f 3//9 9//9 1//9 
f 9//10 3//10 11//10 
f 7//11 15//11 13//11 
f 15//12 7//12 9//12 
f 4//13 10//13 12//13 
f 2//14 10//14 4//14 
f 10//15 2//15 8//15 
f 8//16 2//16 6//16 
f 10//17 14//17 16//17 
f 14//18 10//18 8//18 
f 1//19 4//19 3//19 
f 4//20 1//20 2//20 
f 10//21 11//21 12//21 
f 11//22 10//22 9//22 
f 15//23 10//23 16//23 
f 10//24 15//24 9//24 
f 6//25 7//25 8//25 
f 7//26 6//26 5//26 
f 7//27 14//27 8//27 
f 14//28 7//28 13//28 
