# FreeCAD v1.0 build0 Arch module
# https://www.freecad.org
mtllib colors.mtl
o letterA_p00
usemtl color_fad82c
v 0.484116 0.0 0.0
v 0.484116 0.0 4.0
v 2.30812 5.0 0.0
v 2.30812 5.0 4.0
v 3.28481 0.0 0.0
v 3.28481 0.0 4.0
v 4.47159 3.41782 0.0
v 4.47159 3.41782 4.0
v 5.0 3.41782 0.0
v 5.0 3.41782 4.0
v 5.0 5.0 0.0
v 5.0 5.0 4.0
vn 1.0 -0.0 0.0
vn 1.0 0.0 0.0
vn 0.0 1.0 -0.0
vn 0.0 1.0 0.0
vn 0.0 0.0 -1.0
vn 0.0 0.0 -1.0
vn 0.0 0.0 -1.0
vn 0.0 -0.0 -1.0
vn 0.0 0.0 1.0
vn -0.0 0.0 1.0
vn 0.0 0.0 1.0
vn 0.0 0.0 1.0
vn 0.0 -1.0 0.0
vn 0.0 -1.0 -0.0
vn -0.939442 0.342709 0.0
vn -0.939442 0.342709 0.0
vn 0.0 -1.0 0.0
vn 0.0 -1.0 -0.0
vn 0.94467 -0.328021 0.0
vn 0.94467 -0.328021 0.0
f 10//1 11//1 12//1 
f 11//2 10//2 9//2 
f 11//3 4//3 12//3 
f 4//4 11//4 3//4 
f 7//5 11//5 9//5 
f 3//6 7//6 5//6 
f 7//7 3//7 11//7 
f 3//8 5//8 1//8 
f 12//9 8//9 10//9 
f 4//10 8//10 12//10 
f 8//11 4//11 6//11 
f 6//12 4//12 2//12 
f 7//13 10//13 8//13 
f 10//14 7//14 9//14 
f 1//15 4//15 3//15 
f 4//16 1//16 2//16 
f 1//17 6//17 2//17 
f 6//18 1//18 5//18 
f 6//19 7//19 8//19 
f 7//20 6//20 5//20 
