# FreeCAD v1.0 build0 Arch module
# https://www.freecad.org
mtllib colors.mtl
o letterA_p12
usemtl color_fad82c
v 5.0 10.0 0.0
v 5.0 10.0 4.0
v 5.0 12.379 0.0
v 5.0 12.379 4.0
v 5.36395 13.3767 0.0
v 5.36395 13.3767 4.0
v 6.62329 10.0 0.0
v 6.62329 10.0 4.0
v 6.73105 10.3292 0.0
v 6.73105 10.3292 4.0
v 6.79512 10.5416 0.0
v 6.79512 10.5416 4.0
v 6.85446 10.7422 0.0
v 6.85446 10.7422 4.0
v 6.90907 10.9309 0.0
v 6.90907 10.9309 4.0
v 6.95897 11.1077 0.0
v 6.95897 11.1077 4.0
v 7.01581 11.3166 0.0
v 7.01581 11.3166 4.0
v 7.21532 10.6614 0.0
v 7.21532 10.6614 4.0
v 7.42438 10.0 0.0
v 7.42438 10.0 4.0
v 8.66782 13.3767 0.0
v 8.66782 13.3767 4.0
v 9.89484 10.0 0.0
v 9.89484 10.0 4.0
vn -1.0 0.0 0.0
vn -1.0 -0.0 0.0
vn 0.0 -1.0 0.0
vn 0.0 -1.0 -0.0
vn 0.0 -1.0 0.0
vn 0.0 -1.0 -0.0
vn 0.0 0.0 -1.0
vn 0.0 0.0 -1.0
vn 0.0 0.0 -1.0
vn 0.0 0.0 -1.0
vn 0.0 0.0 -1.0
vn 0.0 0.0 -1.0
vn 0.0 0.0 -1.0
vn 0.0 0.0 -1.0
vn 0.0 0.0 -1.0
vn -0.0 0.0 -1.0
vn 0.0 0.0 -1.0
vn 0.0 0.0 -1.0
vn -0.0 0.0 1.0
vn 0.0 0.0 1.0
vn 0.0 0.0 1.0
vn 0.0 0.0 1.0
vn 0.0 0.0 1.0
vn 0.0 0.0 1.0
vn 0.0 0.0 1.0
vn 0.0 0.0 1.0
vn -0.0 0.0 1.0
vn -0.0 0.0 1.0
vn 0.0 0.0 1.0
vn 0.0 0.0 1.0
vn 0.939871 0.341529 0.0
vn 0.939871 0.341529 0.0
vn 0.0 1.0 -0.0
vn 0.0 1.0 0.0
vn -0.939445 0.342699 0.0
vn -0.939445 0.342699 0.0
vn 0.950378 -0.311096 0.0
vn 0.950378 -0.311096 0.0
vn 0.957391 -0.288793 0.0
vn 0.957391 -0.288793 0.0
vn 0.958924 -0.283662 0.0
vn 0.958924 -0.283662 0.0
vn 0.960582 -0.277995 0.0
vn 0.960582 -0.277995 0.0
vn 0.962402 -0.271627 0.0
vn 0.962402 -0.271627 0.0
vn 0.964919 -0.262547 0.0
vn 0.964919 -0.262547 0.0
vn -0.956633 -0.291297 0.0
vn -0.956633 -0.291297 0.0
vn -0.953501 -0.301389 0.0
vn -0.953501 -0.301389 0.0
f 1//1 4//1 3//1 
f 4//2 1//2 2//2 
f 1//3 8//3 2//3 
f 8//4 1//4 7//4 
f 23//5 28//5 24//5 
f 28//6 23//6 27//6 
f 21//7 27//7 23//7 
f 27//8 21//8 25//8 
f 19//9 25//9 21//9 
f 3//10 17//10 15//10 
f 3//11 15//11 13//11 
f 1//12 13//12 11//12 
f 1//13 11//13 9//13 
f 1//14 9//14 7//14 
f 19//15 5//15 25//15 
f 13//16 1//16 3//16 
f 17//17 3//17 19//17 
f 19//18 3//18 5//18 
f 22//19 28//19 26//19 
f 28//20 22//20 24//20 
f 26//21 20//21 22//21 
f 4//22 18//22 20//22 
f 18//23 4//23 16//23 
f 16//24 4//24 14//24 
f 2//25 14//25 4//25 
f 12//26 2//26 10//26 
f 6//27 20//27 26//27 
f 4//28 20//28 6//28 
f 14//29 2//29 12//29 
f 10//30 2//30 8//30 
f 28//31 25//31 26//31 
f 25//32 28//32 27//32 
f 25//33 6//33 26//33 
f 6//34 25//34 5//34 
f 3//35 6//35 5//35 
f 6//36 3//36 4//36 
f 8//37 9//37 10//37 
f 9//38 8//38 7//38 
f 10//39 11//39 12//39 
f 11//40 10//40 9//40 
f 12//41 13//41 14//41 
f 13//42 12//42 11//42 
f 14//43 15//43 16//43 
f 15//44 14//44 13//44 
f 16//45 17//45 18//45 
f 17//46 16//46 15//46 
f 18//47 19//47 20//47 
f 19//48 18//48 17//48 
f 21//49 20//49 19//49 
f 20//50 21//50 22//50 
f 23//51 22//51 21//51 
f 22//52 23//52 24//52 
