# FreeCAD v1.0 build0 Arch module
# https://www.freecad.org
mtllib colors.mtl
o letterA_p10
usemtl color_fad82c
v 5.0 3.41782 0.0
v 5.0 3.41782 4.0
v 5.0 5.0 0.0
v 5.0 5.0 4.0
v 9.56969 3.41782 0.0
v 9.56969 3.41782 4.0
v 10.0 2.17856 0.0
v 10.0 2.17856 4.0
v 10.0 5.0 0.0
v 10.0 5.0 4.0
vn 1.0 -0.0 0.0
vn 1.0 0.0 0.0
vn -1.0 0.0 0.0
vn -1.0 -0.0 0.0
vn 0.0 1.0 -0.0
vn 0.0 1.0 0.0
vn 0.0 0.0 -1.0
vn 0.0 0.0 -1.0
vn 0.0 0.0 -1.0
vn 0.0 0.0 1.0
vn -0.0 0.0 1.0
vn 0.0 0.0 1.0
vn 0.0 -1.0 0.0
vn 0.0 -1.0 -0.0
vn -0.944671 -0.32802 0.0
vn -0.944671 -0.32802 0.0
f 8//1 9//1 10//1 
f 9//2 8//2 7//2 
f 1//3 4//3 3//3 
f 4//4 1//4 2//4 
f 9//5 4//5 10//5 
f 4//6 9//6 3//6 
f 5//7 9//7 7//7 
f 3//8 5//8 1//8 
f 5//9 3//9 9//9 
f 10//10 6//10 8//10 
f 4//11 6//11 10//11 
f 6//12 4//12 2//12 
f 1//13 6//13 2//13 
f 6//14 1//14 5//14 
f 7//15 6//15 5//15 
f 6//16 7//16 8//16 
