# FreeCAD v1.0 build0 Arch module
# https://www.freecad.org
mtllib colors.mtl
o letterB_p21
usemtl color_fad82c
v 10.0 5.06602 0.0
v 10.0 5.06602 4.0
v 10.0 7.00577 0.0
v 10.0 7.00577 4.0
v 10.0 7.08096 0.0
v 10.0 7.08096 4.0
v 10.0 10.0 0.0
v 10.0 10.0 4.0
v 10.0568 5.0 0.0
v 10.0568 5.0 4.0
v 10.4398 7.20428 0.0
v 10.4398 7.20428 4.0
v 10.5989 6.89987 0.0
v 10.5989 6.89987 4.0
v 10.9617 7.43718 0.0
v 10.9617 7.43718 4.0
v 11.2655 6.68478 0.0
v 11.2655 6.68478 4.0
v 11.401 7.73355 0.0
v 11.401 7.73355 4.0
v 11.7579 8.0934 0.0
v 11.7579 8.0934 4.0
v 11.8355 6.38957 0.0
v 11.8355 6.38957 4.0
v 12.0341 8.50728 0.0
v 12.0341 8.50728 4.0
v 12.2314 8.96567 0.0
v 12.2314 8.96567 4.0
v 12.3087 6.01425 0.0
v 12.3087 6.01425 4.0
v 12.3498 9.46852 0.0
v 12.3498 9.46852 4.0
v 12.3882 10.0 0.0
v 12.3882 10.0 4.0
v 12.6804 5.56541 0.0
v 12.6804 5.56541 4.0
v 12.9459 5.04951 0.0
v 12.9459 5.04951 4.0
v 12.9594 5.0 0.0
v 12.9594 5.0 4.0
vn -1.0 0.0 0.0
vn -1.0 -0.0 0.0
vn -1.0 0.0 0.0
vn -1.0 -0.0 0.0
vn 0.0 1.0 -0.0
vn 0.0 1.0 0.0
vn 0.0 -1.0 0.0
vn 0.0 -1.0 -0.0
vn 0.0 0.0 -1.0
vn 0.0 0.0 -1.0
vn -0.0 0.0 -1.0
vn -0.0 0.0 -1.0
vn -0.0 0.0 -1.0
vn 0.0 0.0 -1.0
vn -0.0 0.0 -1.0
vn -0.0 0.0 -1.0
vn 0.0 0.0 -1.0
vn 0.0 0.0 -1.0
vn 0.0 0.0 -1.0
vn 0.0 0.0 -1.0
vn 0.0 0.0 -1.0
vn 0.0 0.0 -1.0
vn 0.0 0.0 -1.0
vn 0.0 0.0 -1.0
vn 0.0 0.0 1.0
vn 0.0 0.0 1.0
vn 0.0 0.0 1.0
vn 0.0 0.0 1.0
vn 0.0 0.0 1.0
vn 0.0 0.0 1.0
vn 0.0 0.0 1.0
vn 0.0 0.0 1.0
vn -0.0 0.0 1.0
vn 0.0 0.0 1.0
vn 0.0 0.0 1.0
vn 0.0 0.0 1.0
vn 0.0 0.0 1.0
vn 0.0 0.0 1.0
vn 0.0 0.0 1.0
vn 0.0 0.0 1.0
vn 0.964776 0.263072 0.0
vn 0.964776 0.263072 0.0
vn 0.889162 0.457593 0.0
vn 0.889162 0.457593 0.0
vn 0.770186 0.637819 0.0
vn 0.770186 0.637819 0.0
vn 0.621419 0.783478 -0.0
vn 0.621419 0.783478 0.0
vn 0.459893 0.887974 -0.0
vn 0.459893 0.887974 0.0
vn 0.307077 0.951685 -0.0
vn 0.307077 0.951685 0.0
vn 0.174124 0.984724 -0.0
vn 0.174124 0.984724 0.0
vn 0.269987 -0.962864 0.0
vn 0.269987 -0.962864 0.0
vn 0.407518 -0.913197 0.0
vn 0.407518 -0.913197 0.0
vn 0.559269 -0.828986 0.0
vn 0.559269 -0.828986 0.0
vn 0.710011 -0.704191 0.0
vn 0.710011 -0.704191 0.0
vn 0.831791 -0.555088 0.0
vn 0.831791 -0.555088 0.0
vn 0.918529 -0.395353 0.0
vn 0.918529 -0.395353 0.0
vn 0.973381 -0.229191 0.0
vn 0.973381 -0.229191 0.0
vn 0.9974 -0.072063 0.0
vn 0.9974 -0.072063 0.0
vn -0.758056 -0.652189 0.0
vn -0.758056 -0.652189 0.0
f 5//1 8//1 7//1 
f 8//2 5//2 6//2 
f 1//3 4//3 3//3 
f 4//4 1//4 2//4 
f 33//5 8//5 34//5 
f 8//6 33//6 7//6 
f 9//7 40//7 10//7 
f 40//8 9//8 39//8 
f 39//9 35//9 37//9 
f 9//10 35//10 39//10 
f 35//11 9//11 29//11 
f 29//12 9//12 23//12 
f 23//13 9//13 17//13 
f 1//14 17//14 9//14 
f 17//15 1//15 13//15 
f 13//16 1//16 3//16 
f 7//17 31//17 27//17 
f 7//18 27//18 25//18 
f 7//19 25//19 21//19 
f 7//20 21//20 19//20 
f 7//21 19//21 15//21 
f 7//22 15//22 11//22 
f 7//23 11//23 5//23 
f 31//24 7//24 33//24 
f 36//25 40//25 38//25 
f 10//26 36//26 30//26 
f 10//27 30//27 24//27 
f 10//28 24//28 18//28 
f 2//29 18//29 14//29 
f 36//30 10//30 40//30 
f 2//31 14//31 4//31 
f 18//32 2//32 10//32 
f 8//33 32//33 34//33 
f 32//34 8//34 28//34 
f 28//35 8//35 26//35 
f 26//36 8//36 22//36 
f 22//37 8//37 20//37 
f 20//38 8//38 16//38 
f 16//39 8//39 12//39 
f 12//40 8//40 6//40 
f 40//41 37//41 38//41 
f 37//42 40//42 39//42 
f 38//43 35//43 36//43 
f 35//44 38//44 37//44 
f 36//45 29//45 30//45 
f 29//46 36//46 35//46 
f 29//47 24//47 30//47 
f 24//48 29//48 23//48 
f 23//49 18//49 24//49 
f 18//50 23//50 17//50 
f 17//51 14//51 18//51 
f 14//52 17//52 13//52 
f 13//53 4//53 14//53 
f 4//54 13//54 3//54 
f 5//55 12//55 6//55 
f 12//56 5//56 11//56 
f 11//57 16//57 12//57 
f 16//58 11//58 15//58 
f 15//59 20//59 16//59 
f 20//60 15//60 19//60 
f 20//61 21//61 22//61 
f 21//62 20//62 19//62 
f 22//63 25//63 26//63 
f 25//64 22//64 21//64 
f 26//65 27//65 28//65 
f 27//66 26//66 25//66 
f 28//67 31//67 32//67 
f 31//68 28//68 27//68 
f 32//69 33//69 34//69 
f 33//70 32//70 31//70 
f 9//71 2//71 1//71 
f 2//72 9//72 10//72 
