# FreeCAD v1.0 build0 Arch module
# https://www.freecad.org
mtllib colors.mtl
o letterA_p11
usemtl color_fad82c
v 5.0 5.0 0.0
v 5.0 5.0 4.0
v 5.0 10.0 0.0
v 5.0 10.0 4.0
v 5.0981 5.52538 0.0
v 5.0981 5.52538 4.0
v 5.7627 7.4633 0.0
v 5.7627 7.4633 4.0
v 6.25638 8.90991 0.0
v 6.25638 8.90991 4.0
v 6.57916 9.8652 0.0
v 6.57916 9.8652 4.0
v 6.62329 10.0 0.0
v 6.62329 10.0 4.0
v 7.42438 10.0 0.0
v 7.42438 10.0 4.0
v 7.62341 9.37033 0.0
v 7.62341 9.37033 4.0
v 8.94305 5.52538 0.0
v 8.94305 5.52538 4.0
v 9.89484 10.0 0.0
v 9.89484 10.0 4.0
v 10.0 5.0 0.0
v 10.0 5.0 4.0
v 10.0 9.71059 0.0
v 10.0 9.71059 4.0
vn 1.0 -0.0 0.0
vn 1.0 0.0 0.0
vn -1.0 0.0 0.0
vn -1.0 -0.0 0.0
vn 0.0 1.0 -0.0
vn 0.0 1.0 0.0
vn 0.0 1.0 -0.0
vn 0.0 1.0 0.0
vn 0.0 -1.0 0.0
vn 0.0 -1.0 -0.0
vn 0.0 0.0 -1.0
vn 0.0 0.0 -1.0
vn 0.0 0.0 -1.0
vn -0.0 0.0 -1.0
vn -0.0 0.0 -1.0
vn -0.0 0.0 -1.0
vn 0.0 0.0 -1.0
vn 0.0 0.0 -1.0
vn 0.0 0.0 -1.0
vn 0.0 0.0 -1.0
vn 0.0 0.0 -1.0
vn -0.0 0.0 1.0
vn 0.0 0.0 1.0
vn 0.0 0.0 1.0
vn 0.0 0.0 1.0
vn 0.0 0.0 1.0
vn 0.0 -0.0 1.0
vn 0.0 0.0 1.0
vn 0.0 0.0 1.0
vn 0.0 0.0 1.0
vn 0.0 0.0 1.0
vn 0.0 0.0 1.0
vn 0.939877 0.341513 0.0
vn 0.939877 0.341513 0.0
vn 0.945921 -0.324399 0.0
vn 0.945921 -0.324399 0.0
vn 0.946407 -0.322977 0.0
vn 0.946407 -0.322977 0.0
vn 0.947381 -0.320108 0.0
vn 0.947381 -0.320108 0.0
vn 0.950369 -0.311125 0.0
vn 0.950369 -0.311125 0.0
vn -0.953501 -0.301389 0.0
vn -0.953501 -0.301389 0.0
vn -0.945842 -0.324626 0.0
vn -0.945842 -0.324626 0.0
vn 0.0 1.0 -0.0
vn 0.0 1.0 0.0
f 24//1 25//1 26//1 
f 25//2 24//2 23//2 
f 1//3 4//3 3//3 
f 4//4 1//4 2//4 
f 13//5 4//5 14//5 
f 4//6 13//6 3//6 
f 21//7 16//7 22//7 
f 16//8 21//8 15//8 
f 1//9 24//9 2//9 
f 24//10 1//10 23//10 
f 19//11 25//11 23//11 
f 17//12 25//12 19//12 
f 1//13 19//13 23//13 
f 19//14 1//14 5//14 
f 25//15 17//15 21//15 
f 21//16 17//16 15//16 
f 3//17 11//17 9//17 
f 3//18 9//18 7//18 
f 3//19 7//19 5//19 
f 11//20 3//20 13//20 
f 3//21 5//21 1//21 
f 4//22 12//22 14//22 
f 12//23 4//23 10//23 
f 10//24 4//24 8//24 
f 8//25 4//25 6//25 
f 26//26 18//26 20//26 
f 18//27 22//27 16//27 
f 18//28 26//28 22//28 
f 26//29 20//29 24//29 
f 2//30 20//30 6//30 
f 20//31 2//31 24//31 
f 2//32 6//32 4//32 
f 26//33 21//33 22//33 
f 21//34 26//34 25//34 
f 6//35 7//35 8//35 
f 7//36 6//36 5//36 
f 8//37 9//37 10//37 
f 9//38 8//38 7//38 
f 10//39 11//39 12//39 
f 11//40 10//40 9//40 
f 12//41 13//41 14//41 
f 13//42 12//42 11//42 
f 17//43 16//43 15//43 
f 16//44 17//44 18//44 
f 19//45 18//45 17//45 
f 18//46 19//46 20//46 
f 19//47 6//47 20//47 
f 6//48 19//48 5//48 
