# FreeCAD v1.0 build0 Arch module
# https://www.freecad.org
mtllib colors.mtl
o letterC_p10
usemtl color_fad82c
v 5.0 0.186778 0.0
v 5.0 0.186778 4.0
v 5.0 2.87592 0.0
v 5.0 2.87592 4.0
v 5.18987 2.69618 0.0
v 5.18987 2.69618 4.0
v 5.86362 2.31644 0.0
v 5.86362 2.31644 4.0
v 6.02528 -0.075607 0.0
v 6.02528 -0.075607 4.0
v 6.64951 2.08858 0.0
v 6.64951 2.08858 4.0
v 7.54753 -0.189835 0.0
v 7.54753 -0.189835 4.0
v 7.54753 2.01263 0.0
v 7.54753 2.01263 4.0
v 8.57315 -0.130798 0.0
v 8.57315 -0.130798 4.0
v 8.71823 2.17166 0.0
v 8.71823 2.17166 4.0
v 9.52342 0.046295 0.0
v 9.52342 0.046295 4.0
v 9.69548 2.64873 0.0
v 9.69548 2.64873 4.0
v 10.0 0.207086 0.0
v 10.0 0.207086 4.0
v 10.0 2.95763 0.0
v 10.0 2.95763 4.0
vn 1.0 -0.0 0.0
vn 1.0 0.0 0.0
vn -1.0 0.0 0.0
vn -1.0 -0.0 0.0
vn 0.0 0.0 -1.0
vn 0.0 0.0 -1.0
vn 0.0 0.0 -1.0
vn 0.0 0.0 -1.0
vn 0.0 0.0 -1.0
vn 0.0 0.0 -1.0
vn 0.0 0.0 -1.0
vn 0.0 0.0 -1.0
vn 0.0 0.0 -1.0
vn 0.0 0.0 -1.0
vn -0.0 0.0 -1.0
vn -0.0 0.0 -1.0
vn -0.0 0.0 1.0
vn -0.0 0.0 1.0
vn 0.0 0.0 1.0
vn 0.0 0.0 1.0
vn -0.0 0.0 1.0
vn 0.0 0.0 1.0
vn 0.0 0.0 1.0
vn 0.0 0.0 1.0
vn 0.0 0.0 1.0
vn 0.0 0.0 1.0
vn 0.0 0.0 1.0
vn 0.0 0.0 1.0
vn 0.183207 -0.983074 0.0
vn 0.183207 -0.983074 0.0
vn 0.319681 -0.947525 0.0
vn 0.319681 -0.947525 0.0
vn -0.712138 0.70204 0.0
vn -0.712138 0.70204 0.0
vn -0.438693 0.898637 0.0
vn -0.438693 0.898637 0.0
vn -0.134605 0.990899 0.0
vn -0.134605 0.990899 0.0
vn 0.084274 0.996443 -0.0
vn 0.084274 0.996443 0.0
vn 0.27847 0.960445 -0.0
vn 0.27847 0.960445 0.0
vn 0.491003 0.871158 -0.0
vn 0.491003 0.871158 0.0
vn 0.687469 0.726214 -0.0
vn 0.687469 0.726214 0.0
vn -0.247926 -0.968779 0.0
vn -0.247926 -0.968779 -0.0
vn -0.074828 -0.997196 0.0
vn -0.074828 -0.997196 -0.0
vn 0.057467 -0.998347 0.0
vn 0.057467 -0.998347 0.0
f 26//1 27//1 28//1 
f 27//2 26//2 25//2 
f 1//3 4//3 3//3 
f 4//4 1//4 2//4 
f 25//5 23//5 27//5 
f 19//6 25//6 21//6 
f 25//7 19//7 23//7 
f 17//8 19//8 21//8 
f 15//9 17//9 13//9 
f 17//10 15//10 19//10 
f 13//11 11//11 15//11 
f 9//12 11//12 13//12 
f 9//13 7//13 11//13 
f 1//14 7//14 9//14 
f 7//15 1//15 5//15 
f 5//16 1//16 3//16 
f 24//17 26//17 28//17 
f 20//18 26//18 24//18 
f 26//19 20//19 22//19 
f 20//20 18//20 22//20 
f 16//21 18//21 20//21 
f 16//22 14//22 18//22 
f 12//23 14//23 16//23 
f 12//24 10//24 14//24 
f 8//25 10//25 12//25 
f 2//26 8//26 6//26 
f 2//27 6//27 4//27 
f 8//28 2//28 10//28 
f 17//29 22//29 18//29 
f 22//30 17//30 21//30 
f 21//31 26//31 22//31 
f 26//32 21//32 25//32 
f 23//33 28//33 27//33 
f 28//34 23//34 24//34 
f 23//35 20//35 24//35 
f 20//36 23//36 19//36 
f 19//37 16//37 20//37 
f 16//38 19//38 15//38 
f 15//39 12//39 16//39 
f 12//40 15//40 11//40 
f 11//41 8//41 12//41 
f 8//42 11//42 7//42 
f 7//43 6//43 8//43 
f 6//44 7//44 5//44 
f 5//45 4//45 6//45 
f 4//46 5//46 3//46 
f 1//47 10//47 2//47 
f 10//48 1//48 9//48 
f 9//49 14//49 10//49 
f 14//50 9//50 13//50 
f 13//51 18//51 14//51 
f 18//52 13//52 17//52 
