# FreeCAD v1.0 build0 Arch module
# https://www.freecad.org
mtllib colors.mtl
o letterB_p20
usemtl color_fad82c
v 10.0 0.220067 0.0
v 10.0 0.220067 4.0
v 10.0 2.84578 0.0
v 10.0 2.84578 4.0
v 10.0568 5.0 0.0
v 10.0568 5.0 4.0
v 10.1583 0.249191 0.0
v 10.1583 0.249191 4.0
v 10.1797 4.85719 0.0
v 10.1797 4.85719 4.0
v 10.1928 3.17921 0.0
v 10.1928 3.17921 4.0
v 10.3094 3.57646 0.0
v 10.3094 3.57646 4.0
v 10.3482 4.03479 0.0
v 10.3482 4.03479 4.0
v 11.0412 0.560699 0.0
v 11.0412 0.560699 4.0
v 11.7912 0.996796 0.0
v 11.7912 0.996796 4.0
v 12.3893 1.54688 0.0
v 12.3893 1.54688 4.0
v 12.8165 2.2002 0.0
v 12.8165 2.2002 4.0
v 12.9594 5.0 0.0
v 12.9594 5.0 4.0
v 13.0729 2.95674 0.0
v 13.0729 2.95674 4.0
v 13.1052 4.46655 0.0
v 13.1052 4.46655 4.0
v 13.1583 3.81653 0.0
v 13.1583 3.81653 4.0
vn -1.0 0.0 0.0
vn -1.0 -0.0 0.0
vn 0.0 1.0 -0.0
vn 0.0 1.0 0.0
vn -0.0 0.0 -1.0
vn 0.0 0.0 -1.0
vn 0.0 0.0 -1.0
vn 0.0 0.0 -1.0
vn 0.0 0.0 -1.0
vn 0.0 0.0 -1.0
vn 0.0 0.0 -1.0
vn 0.0 0.0 -1.0
vn 0.0 0.0 -1.0
vn 0.0 0.0 -1.0
vn 0.0 0.0 -1.0
vn -0.0 0.0 -1.0
vn 0.0 0.0 -1.0
vn -0.0 0.0 -1.0
vn -0.0 0.0 1.0
vn 0.0 0.0 1.0
vn 0.0 0.0 1.0
vn 0.0 0.0 1.0
vn -0.0 0.0 1.0
vn 0.0 0.0 1.0
vn 0.0 0.0 1.0
vn 0.0 0.0 1.0
vn 0.0 -0.0 1.0
vn -0.0 0.0 1.0
vn 0.0 0.0 1.0
vn 0.0 0.0 1.0
vn 0.0 0.0 1.0
vn 0.0 0.0 1.0
vn 0.180943 -0.983494 0.0
vn 0.180943 -0.983494 0.0
vn 0.332722 -0.943025 0.0
vn 0.332722 -0.943025 0.0
vn 0.502664 -0.864482 0.0
vn 0.502664 -0.864482 0.0
vn 0.676944 -0.736034 0.0
vn 0.676944 -0.736034 0.0
vn 0.836953 -0.547275 0.0
vn 0.836953 -0.547275 0.0
vn 0.947086 -0.320979 0.0
vn 0.947086 -0.320979 0.0
vn 0.995103 -0.098841 0.0
vn 0.995103 -0.098841 0.0
vn 0.99668 0.081419 0.0
vn 0.99668 0.081419 0.0
vn 0.96462 0.263645 0.0
vn 0.96462 0.263645 0.0
vn -0.757966 -0.652294 0.0
vn -0.757966 -0.652294 0.0
vn -0.979649 -0.200718 0.0
vn -0.979649 -0.200718 0.0
vn -0.996436 0.084354 0.0
vn -0.996436 0.084354 0.0
vn -0.959521 0.281637 0.0
vn -0.959521 0.281637 0.0
vn -0.865695 0.500572 0.0
vn -0.865695 0.500572 0.0
f 1//1 4//1 3//1 
f 4//2 1//2 2//2 
f 25//3 6//3 26//3 
f 6//4 25//4 5//4 
f 31//5 13//5 15//5 
f 19//6 11//6 13//6 
f 3//7 17//7 7//7 
f 3//8 7//8 1//8 
f 19//9 3//9 11//9 
f 13//10 31//10 27//10 
f 31//11 15//11 29//11 
f 13//12 27//12 23//12 
f 13//13 23//13 21//13 
f 13//14 21//14 19//14 
f 3//15 19//15 17//15 
f 29//16 15//16 25//16 
f 9//17 25//17 15//17 
f 25//18 9//18 5//18 
f 16//19 32//19 30//19 
f 16//20 30//20 26//20 
f 14//21 32//21 16//21 
f 28//22 14//22 24//22 
f 12//23 24//23 14//23 
f 24//24 12//24 22//24 
f 32//25 14//25 28//25 
f 26//26 10//26 16//26 
f 10//27 26//27 6//27 
f 4//28 22//28 12//28 
f 22//29 4//29 20//29 
f 20//30 4//30 18//30 
f 18//31 4//31 8//31 
f 8//32 4//32 2//32 
f 1//33 8//33 2//33 
f 8//34 1//34 7//34 
f 7//35 18//35 8//35 
f 18//36 7//36 17//36 
f 17//37 20//37 18//37 
f 20//38 17//38 19//38 
f 19//39 22//39 20//39 
f 22//40 19//40 21//40 
f 22//41 23//41 24//41 
f 23//42 22//42 21//42 
f 24//43 27//43 28//43 
f 27//44 24//44 23//44 
f 28//45 31//45 32//45 
f 31//46 28//46 27//46 
f 32//47 29//47 30//47 
f 29//48 32//48 31//48 
f 30//49 25//49 26//49 
f 25//50 30//50 29//50 
f 9//51 6//51 5//51 
f 6//52 9//52 10//52 
f 15//53 10//53 9//53 
f 10//54 15//54 16//54 
f 13//55 16//55 15//55 
f 16//56 13//56 14//56 
f 11//57 14//57 13//57 
f 14//58 11//58 12//58 
f 3//59 12//59 11//59 
f 12//60 3//60 4//60 
