# FreeCAD v1.0 build0 Arch module
# https://www.freecad.org
mtllib colors.mtl
o letterB_p12
usemtl color_fad82c
v 5.0 11.2976 0.0
v 5.0 11.2976 4.0
v 5.0 13.3767 0.0
v 5.0 13.3767 4.0
v 7.2912 11.2976 0.0
v 7.2912 11.2976 4.0
v 7.42406 13.3767 0.0
v 7.42406 13.3767 4.0
v 7.82137 11.2738 0.0
v 7.82137 11.2738 4.0
v 8.28212 11.2026 0.0
v 8.28212 11.2026 4.0
v 8.5743 13.3236 0.0
v 8.5743 13.3236 4.0
v 8.67342 11.0839 0.0
v 8.67342 11.0839 4.0
v 8.99527 10.9178 0.0
v 8.99527 10.9178 4.0
v 9.24658 10.6953 0.0
v 9.24658 10.6953 4.0
v 9.42609 10.4075 0.0
v 9.42609 10.4075 4.0
v 9.5338 10.0545 0.0
v 9.5338 10.0545 4.0
v 9.53847 10.0 0.0
v 9.53847 10.0 4.0
v 9.57561 13.1643 0.0
v 9.57561 13.1643 4.0
v 10.0 10.0 0.0
v 10.0 10.0 4.0
v 10.0 13.032 0.0
v 10.0 13.032 4.0
vn 1.0 -0.0 0.0
vn 1.0 0.0 0.0
vn -1.0 0.0 0.0
vn -1.0 -0.0 0.0
vn 0.0 -1.0 0.0
vn 0.0 -1.0 -0.0
vn 0.0 0.0 -1.0
vn 0.0 0.0 -1.0
vn 0.0 0.0 -1.0
vn 0.0 0.0 -1.0
vn 0.0 0.0 -1.0
vn -0.0 0.0 -1.0
vn 0.0 0.0 -1.0
vn 0.0 0.0 -1.0
vn 0.0 0.0 -1.0
vn 0.0 0.0 -1.0
vn 0.0 0.0 -1.0
vn 0.0 0.0 -1.0
vn 0.0 0.0 -1.0
vn 0.0 0.0 -1.0
vn 0.0 0.0 1.0
vn 0.0 0.0 1.0
vn 0.0 0.0 1.0
vn 0.0 0.0 1.0
vn 0.0 0.0 1.0
vn 0.0 0.0 1.0
vn 0.0 0.0 1.0
vn 0.0 0.0 1.0
vn 0.0 0.0 1.0
vn 0.0 0.0 1.0
vn 0.0 0.0 1.0
vn 0.0 0.0 1.0
vn -0.0 0.0 1.0
vn 0.0 0.0 1.0
vn 0.297616 0.954686 -0.0
vn 0.297616 0.954686 0.0
vn 0.157116 0.98758 -0.0
vn 0.157116 0.98758 0.0
vn 0.046116 0.998936 -0.0
vn 0.046116 0.998936 0.0
vn 0.0 1.0 -0.0
vn 0.0 1.0 0.0
vn 0.0 -1.0 0.0
vn 0.0 -1.0 -0.0
vn -0.044846 -0.998994 0.0
vn -0.044846 -0.998994 -0.0
vn -0.152719 -0.98827 0.0
vn -0.152719 -0.98827 -0.0
vn -0.290283 -0.956941 0.0
vn -0.290283 -0.956941 -0.0
vn -0.458609 -0.888638 0.0
vn -0.458609 -0.888638 -0.0
vn -0.662886 -0.74872 0.0
vn -0.662886 -0.74872 -0.0
vn -0.848481 -0.529225 0.0
vn -0.848481 -0.529225 0.0
vn -0.956466 -0.291843 0.0
vn -0.956466 -0.291843 0.0
vn -0.996349 -0.085378 0.0
vn -0.996349 -0.085378 0.0
f 30//1 31//1 32//1 
f 31//2 30//2 29//2 
f 1//3 4//3 3//3 
f 4//4 1//4 2//4 
f 25//5 30//5 26//5 
f 30//6 25//6 29//6 
f 19//7 31//7 29//7 
f 23//8 29//8 25//8 
f 21//9 29//9 23//9 
f 19//10 29//10 21//10 
f 17//11 31//11 19//11 
f 31//12 17//12 27//12 
f 15//13 27//13 17//13 
f 15//14 13//14 27//14 
f 11//15 13//15 15//15 
f 9//16 13//16 11//16 
f 9//17 7//17 13//17 
f 5//18 7//18 9//18 
f 3//19 5//19 1//19 
f 5//20 3//20 7//20 
f 18//21 32//21 28//21 
f 32//22 20//22 30//22 
f 30//23 24//23 26//23 
f 30//24 22//24 24//24 
f 30//25 20//25 22//25 
f 32//26 18//26 20//26 
f 28//27 16//27 18//27 
f 14//28 16//28 28//28 
f 14//29 12//29 16//29 
f 14//30 10//30 12//30 
f 8//31 10//31 14//31 
f 8//32 6//32 10//32 
f 4//33 6//33 8//33 
f 6//34 4//34 2//34 
f 31//35 28//35 32//35 
f 28//36 31//36 27//36 
f 27//37 14//37 28//37 
f 14//38 27//38 13//38 
f 13//39 8//39 14//39 
f 8//40 13//40 7//40 
f 7//41 4//41 8//41 
f 4//42 7//42 3//42 
f 1//43 6//43 2//43 
f 6//44 1//44 5//44 
f 5//45 10//45 6//45 
f 10//46 5//46 9//46 
f 9//47 12//47 10//47 
f 12//48 9//48 11//48 
f 11//49 16//49 12//49 
f 16//50 11//50 15//50 
f 15//51 18//51 16//51 
f 18//52 15//52 17//52 
f 17//53 20//53 18//53 
f 20//54 17//54 19//54 
f 21//55 20//55 19//55 
f 20//56 21//56 22//56 
f 23//57 22//57 21//57 
f 22//58 23//58 24//58 
f 25//59 24//59 23//59 
f 24//60 25//60 26//60 
