# FreeCAD v1.0 build0 Arch module
# https://www.freecad.org
mtllib colors.mtl
o letterA_p02
usemtl color_fad82c
v 4.13213 10.0 0.0
v 4.13213 10.0 4.0
v 5.0 10.0 0.0
v 5.0 10.0 4.0
v 5.0 12.379 0.0
v 5.0 12.379 4.0
vn 1.0 -0.0 0.0
vn 1.0 0.0 0.0
vn 0.0 -1.0 0.0
vn 0.0 -1.0 -0.0
vn 0.0 -0.0 -1.0
vn 0.0 -0.0 1.0
vn -0.93944 0.342712 0.0
vn -0.93944 0.342712 0.0
f 4//1 5//1 6//1 
f 5//2 4//2 3//2 
f 1//3 4//3 2//3 
f 4//4 1//4 3//4 
f 5//5 3//5 1//5 
f 4//6 6//6 2//6 
f 1//7 6//7 5//7 
f 6//8 1//8 2//8 
