# FreeCAD v1.0 build0 Arch module
# https://www.freecad.org
mtllib colors.mtl
o letterC_p12
usemtl color_fad82c
v 5.0 10.572 0.0
v 5.0 10.572 4.0
v 5.0 13.2398 0.0
v 5.0 13.2398 4.0
v 5.14827 10.7112 0.0
v 5.14827 10.7112 4.0
v 5.81136 11.0791 0.0
v 5.81136 11.0791 4.0
v 5.90565 13.4657 0.0
v 5.90565 13.4657 4.0
v 6.58894 11.2999 0.0
v 6.58894 11.2999 4.0
v 7.42406 13.5761 0.0
v 7.42406 13.5761 4.0
v 7.48103 11.3735 0.0
v 7.48103 11.3735 4.0
v 8.08244 11.3364 0.0
v 8.08244 11.3364 4.0
v 8.54671 13.517 0.0
v 8.54671 13.517 4.0
v 8.6429 11.2251 0.0
v 8.6429 11.2251 4.0
v 9.1624 11.0397 0.0
v 9.1624 11.0397 4.0
v 9.56017 13.3399 0.0
v 9.56017 13.3399 4.0
v 9.64095 10.7801 0.0
v 9.64095 10.7801 4.0
v 10.0 10.5047 0.0
v 10.0 10.5047 4.0
v 10.0 13.1963 0.0
v 10.0 13.1963 4.0
vn 1.0 -0.0 0.0
vn 1.0 0.0 0.0
vn -1.0 0.0 0.0
vn -1.0 -0.0 0.0
vn 0.0 0.0 -1.0
vn 0.0 0.0 -1.0
vn -0.0 0.0 -1.0
vn 0.0 0.0 -1.0
vn 0.0 0.0 -1.0
vn 0.0 0.0 -1.0
vn 0.0 0.0 -1.0
vn 0.0 0.0 -1.0
vn 0.0 0.0 -1.0
vn 0.0 0.0 -1.0
vn 0.0 0.0 -1.0
vn 0.0 0.0 -1.0
vn 0.0 0.0 -1.0
vn 0.0 0.0 -1.0
vn 0.0 0.0 1.0
vn 0.0 0.0 1.0
vn 0.0 0.0 1.0
vn 0.0 0.0 1.0
vn 0.0 0.0 1.0
vn 0.0 0.0 1.0
vn 0.0 0.0 1.0
vn 0.0 0.0 1.0
vn 0.0 0.0 1.0
vn -0.0 0.0 1.0
vn 0.0 0.0 1.0
vn -0.0 0.0 1.0
vn 0.0 0.0 1.0
vn 0.0 0.0 1.0
vn 0.684456 -0.729054 0.0
vn 0.684456 -0.729054 0.0
vn 0.485156 -0.874428 0.0
vn 0.485156 -0.874428 0.0
vn 0.273159 -0.961969 0.0
vn 0.273159 -0.961969 0.0
vn 0.082223 -0.996614 0.0
vn 0.082223 -0.996614 0.0
vn -0.061571 -0.998103 0.0
vn -0.061571 -0.998103 -0.0
vn -0.194784 -0.980846 0.0
vn -0.194784 -0.980846 -0.0
vn -0.336118 -0.94182 0.0
vn -0.336118 -0.94182 -0.0
vn -0.47683 -0.878995 0.0
vn -0.47683 -0.878995 -0.0
vn -0.608611 -0.793469 0.0
vn -0.608611 -0.793469 -0.0
vn 0.310368 0.950617 -0.0
vn 0.310368 0.950617 0.0
vn 0.17214 0.985073 -0.0
vn 0.17214 0.985073 0.0
vn 0.052571 0.998617 -0.0
vn 0.052571 0.998617 0.0
vn -0.072516 0.997367 0.0
vn -0.072516 0.997367 0.0
vn -0.242018 0.970272 0.0
vn -0.242018 0.970272 0.0
f 30//1 31//1 32//1 
f 31//2 30//2 29//2 
f 1//3 4//3 3//3 
f 4//4 1//4 2//4 
f 27//5 31//5 29//5 
f 23//6 31//6 27//6 
f 31//7 23//7 25//7 
f 21//8 25//8 23//8 
f 21//9 19//9 25//9 
f 17//10 19//10 21//10 
f 13//11 17//11 15//11 
f 17//12 13//12 19//12 
f 11//13 13//13 15//13 
f 11//14 9//14 13//14 
f 7//15 9//15 11//15 
f 3//16 7//16 5//16 
f 3//17 5//17 1//17 
f 7//18 3//18 9//18 
f 32//19 28//19 30//19 
f 24//20 32//20 26//20 
f 32//21 24//21 28//21 
f 26//22 22//22 24//22 
f 20//23 22//23 26//23 
f 20//24 18//24 22//24 
f 14//25 18//25 20//25 
f 18//26 14//26 16//26 
f 14//27 12//27 16//27 
f 10//28 12//28 14//28 
f 10//29 8//29 12//29 
f 4//30 8//30 10//30 
f 8//31 4//31 6//31 
f 6//32 4//32 2//32 
f 1//33 6//33 2//33 
f 6//34 1//34 5//34 
f 5//35 8//35 6//35 
f 8//36 5//36 7//36 
f 7//37 12//37 8//37 
f 12//38 7//38 11//38 
f 11//39 16//39 12//39 
f 16//40 11//40 15//40 
f 15//41 18//41 16//41 
f 18//42 15//42 17//42 
f 17//43 22//43 18//43 
f 22//44 17//44 21//44 
f 21//45 24//45 22//45 
f 24//46 21//46 23//46 
f 23//47 28//47 24//47 
f 28//48 23//48 27//48 
f 27//49 30//49 28//49 
f 30//50 27//50 29//50 
f 31//51 26//51 32//51 
f 26//52 31//52 25//52 
f 25//53 20//53 26//53 
f 20//54 25//54 19//54 
f 19//55 14//55 20//55 
f 14//56 19//56 13//56 
f 13//57 10//57 14//57 
f 10//58 13//58 9//58 
f 9//59 4//59 10//59 
f 4//60 9//60 3//60 
