# FreeCAD v1.0 build0 Arch module
# https://www.freecad.org
mtllib colors.mtl
o letterC_p21
usemtl color_fad82c
v 10.4593 10.0 0.0
v 10.4593 10.0 4.0
v 10.676 9.65784 0.0
v 10.676 9.65784 4.0
v 10.8703 9.1805 0.0
v 10.8703 9.1805 4.0
v 13.2789 10.0 0.0
v 13.2789 10.0 4.0
v 13.3388 9.85445 0.0
v 13.3388 9.85445 4.0
vn 0.0 1.0 -0.0
vn 0.0 1.0 0.0
vn 0.0 0.0 -1.0
vn 0.0 0.0 -1.0
vn -0.0 0.0 -1.0
vn 0.0 0.0 1.0
vn 0.0 0.0 1.0
vn 0.0 -0.0 1.0
vn -0.844821 -0.535049 0.0
vn -0.844821 -0.535049 0.0
vn -0.926208 -0.377012 0.0
vn -0.926208 -0.377012 0.0
vn 0.26338 -0.964692 0.0
vn 0.26338 -0.964692 0.0
vn 0.92475 0.380576 0.0
vn 0.92475 0.380576 0.0
f 7//1 2//1 8//1 
f 2//2 7//2 1//2 
f 5//3 7//3 9//3 
f 3//4 7//4 5//4 
f 7//5 3//5 1//5 
f 8//6 6//6 10//6 
f 8//7 4//7 6//7 
f 4//8 8//8 2//8 
f 3//9 2//9 1//9 
f 2//10 3//10 4//10 
f 5//11 4//11 3//11 
f 4//12 5//12 6//12 
f 5//13 10//13 6//13 
f 10//14 5//14 9//14 
f 10//15 7//15 8//15 
f 7//16 10//16 9//16 
