# FreeCAD v1.0 build0 Arch module
# https://www.freecad.org
mtllib colors.mtl
o letterD_p10
usemtl color_fad82c
v 5.0 0.0 0.0
v 5.0 0.0 4.0
v 5.0 2.16454 0.0
v 5.0 2.16454 4.0
v 6.47472 2.16454 0.0
v 6.47472 2.16454 4.0
v 6.71201 0.0 0.0
v 6.71201 0.0 4.0
v 7.33037 2.24226 0.0
v 7.33037 2.24226 4.0
v 7.64394 0.051025 0.0
v 7.64394 0.051025 4.0
v 8.09346 2.47543 0.0
v 8.09346 2.47543 4.0
v 8.52182 0.204117 0.0
v 8.52182 0.204117 4.0
v 8.76398 2.86407 0.0
v 8.76398 2.86407 4.0
v 9.34192 3.40816 0.0
v 9.34192 3.40816 4.0
v 9.3457 0.459259 0.0
v 9.3457 0.459259 4.0
v 9.80711 4.0858 0.0
v 9.80711 4.0858 4.0
v 10.0 0.76285 0.0
v 10.0 0.76285 4.0
v 10.0 4.54393 0.0
v 10.0 4.54393 4.0
vn 1.0 -0.0 0.0
vn 1.0 0.0 0.0
vn -1.0 0.0 0.0
vn -1.0 -0.0 0.0
vn 0.0 0.0 -1.0
vn 0.0 0.0 -1.0
vn 0.0 0.0 -1.0
vn 0.0 0.0 -1.0
vn 0.0 0.0 -1.0
vn 0.0 0.0 -1.0
vn 0.0 0.0 -1.0
vn 0.0 0.0 -1.0
vn 0.0 0.0 -1.0
vn 0.0 0.0 -1.0
vn 0.0 0.0 -1.0
vn -0.0 0.0 -1.0
vn -0.0 0.0 1.0
vn -0.0 0.0 1.0
vn -0.0 0.0 1.0
vn 0.0 0.0 1.0
vn -0.0 0.0 1.0
vn 0.0 0.0 1.0
vn -0.0 0.0 1.0
vn 0.0 0.0 1.0
vn 0.0 0.0 1.0
vn -0.0 0.0 1.0
vn 0.0 0.0 1.0
vn 0.0 0.0 1.0
vn 0.171795 -0.985133 0.0
vn 0.171795 -0.985133 0.0
vn 0.295823 -0.955243 0.0
vn 0.295823 -0.955243 0.0
vn 0.420893 -0.90711 0.0
vn 0.420893 -0.90711 0.0
vn 0.0 -1.0 0.0
vn 0.0 -1.0 -0.0
vn 0.054671 -0.998504 0.0
vn 0.054671 -0.998504 0.0
vn -0.92164 0.388046 0.0
vn -0.92164 0.388046 0.0
vn -0.824432 0.565961 0.0
vn -0.824432 0.565961 0.0
vn -0.685463 0.728108 0.0
vn -0.685463 0.728108 0.0
vn -0.501465 0.865178 0.0
vn -0.501465 0.865178 0.0
vn -0.292223 0.95635 0.0
vn -0.292223 0.95635 0.0
vn -0.090459 0.9959 0.0
vn -0.090459 0.9959 0.0
vn 0.0 1.0 -0.0
vn 0.0 1.0 0.0
f 26//1 27//1 28//1 
f 27//2 26//2 25//2 
f 1//3 4//3 3//3 
f 4//4 1//4 2//4 
f 25//5 23//5 27//5 
f 17//6 25//6 21//6 
f 25//7 19//7 23//7 
f 25//8 17//8 19//8 
f 13//9 21//9 15//9 
f 21//10 13//10 17//10 
f 9//11 15//11 11//11 
f 15//12 9//12 13//12 
f 7//13 9//13 11//13 
f 7//14 5//14 9//14 
f 1//15 5//15 7//15 
f 5//16 1//16 3//16 
f 24//17 26//17 28//17 
f 20//18 26//18 24//18 
f 18//19 26//19 20//19 
f 26//20 18//20 22//20 
f 14//21 22//21 18//21 
f 22//22 14//22 16//22 
f 10//23 16//23 14//23 
f 16//24 10//24 12//24 
f 10//25 8//25 12//25 
f 6//26 8//26 10//26 
f 2//27 6//27 4//27 
f 6//28 2//28 8//28 
f 11//29 16//29 12//29 
f 16//30 11//30 15//30 
f 15//31 22//31 16//31 
f 22//32 15//32 21//32 
f 21//33 26//33 22//33 
f 26//34 21//34 25//34 
f 1//35 8//35 2//35 
f 8//36 1//36 7//36 
f 7//37 12//37 8//37 
f 12//38 7//38 11//38 
f 23//39 28//39 27//39 
f 28//40 23//40 24//40 
f 19//41 24//41 23//41 
f 24//42 19//42 20//42 
f 19//43 18//43 20//43 
f 18//44 19//44 17//44 
f 17//45 14//45 18//45 
f 14//46 17//46 13//46 
f 13//47 10//47 14//47 
f 10//48 13//48 9//48 
f 9//49 6//49 10//49 
f 6//50 9//50 5//50 
f 5//51 4//51 6//51 
f 4//52 5//52 3//52 
