# FreeCAD v1.0 build0 Arch module
# https://www.freecad.org
mtllib colors.mtl
o letterB_p02
usemtl color_fad82c
v 1.3006 10.0 0.0
v 1.3006 10.0 4.0
v 1.3006 13.3767 0.0
v 1.3006 13.3767 4.0
v 4.10129 10.0 0.0
v 4.10129 10.0 4.0
v 4.10129 11.2976 0.0
v 4.10129 11.2976 4.0
v 5.0 11.2976 0.0
v 5.0 11.2976 4.0
v 5.0 13.3767 0.0
v 5.0 13.3767 4.0
vn 1.0 -0.0 0.0
vn 1.0 0.0 0.0
vn 0.0 -1.0 0.0
vn 0.0 -1.0 -0.0
vn 0.0 0.0 -1.0
vn 0.0 0.0 -1.0
vn 0.0 0.0 -1.0
vn 0.0 0.0 -1.0
vn 0.0 0.0 1.0
vn -0.0 0.0 1.0
vn 0.0 0.0 1.0
vn 0.0 0.0 1.0
vn 0.0 1.0 -0.0
vn 0.0 1.0 0.0
vn -1.0 0.0 0.0
vn -1.0 -0.0 0.0
vn 1.0 -0.0 0.0
vn 1.0 0.0 0.0
vn 0.0 -1.0 0.0
vn 0.0 -1.0 -0.0
f 10//1 11//1 12//1 
f 11//2 10//2 9//2 
f 1//3 6//3 2//3 
f 6//4 1//4 5//4 
f 5//5 1//5 7//5 
f 7//6 11//6 9//6 
f 3//7 7//7 1//7 
f 7//8 3//8 11//8 
f 12//9 8//9 10//9 
f 4//10 8//10 12//10 
f 2//11 8//11 4//11 
f 8//12 2//12 6//12 
f 11//13 4//13 12//13 
f 4//14 11//14 3//14 
f 1//15 4//15 3//15 
f 4//16 1//16 2//16 
f 6//17 7//17 8//17 
f 7//18 6//18 5//18 
f 7//19 10//19 8//19 
f 10//20 7//20 9//20 
