# FreeCAD v1.0 build0 Arch module
# https://www.freecad.org
mtllib colors.mtl
o letterD_p11
usemtl color_fad82c
v 9.3452 10.0 0.0
v 9.3452 10.0 4.0
v 9.77505 9.44655 0.0
v 9.77505 9.44655 4.0
v 10.0 8.95911 0.0
v 10.0 8.95911 4.0
v 10.0 10.0 0.0
v 10.0 10.0 4.0
vn 1.0 -0.0 0.0
vn 1.0 0.0 0.0
vn 0.0 1.0 -0.0
vn 0.0 1.0 0.0
vn 0.0 0.0 -1.0
vn -0.0 0.0 -1.0
vn 0.0 0.0 1.0
vn 0.0 -0.0 1.0
vn -0.789774 -0.613398 0.0
vn -0.789774 -0.613398 0.0
vn -0.907975 -0.419024 0.0
vn -0.907975 -0.419024 0.0
f 6//1 7//1 8//1 
f 7//2 6//2 5//2 
f 7//3 2//3 8//3 
f 2//4 7//4 1//4 
f 3//5 7//5 5//5 
f 7//6 3//6 1//6 
f 8//7 4//7 6//7 
f 4//8 8//8 2//8 
f 3//9 2//9 1//9 
f 2//10 3//10 4//10 
f 5//11 4//11 3//11 
f 4//12 5//12 6//12 
