# FreeCAD v1.0 build0 Arch module
# https://www.freecad.org
mtllib colors.mtl
o letterD_p21
usemtl color_fad82c
v 10.0 8.95911 0.0
v 10.0 8.95911 4.0
v 10.0 10.0 0.0
v 10.0 10.0 4.0
v 10.1251 8.68794 0.0
v 10.1251 8.68794 4.0
v 10.1671 5.0 0.0
v 10.1671 5.0 4.0
v 10.3352 7.80176 0.0
v 10.3352 7.80176 4.0
v 10.3388 5.77574 0.0
v 10.3388 5.77574 4.0
v 10.4052 6.78802 0.0
v 10.4052 6.78802 4.0
v 12.5566 10.0 0.0
v 12.5566 10.0 4.0
v 12.762 9.59933 0.0
v 12.762 9.59933 4.0
v 13.0463 5.0 0.0
v 13.0463 5.0 4.0
v 13.1091 8.28595 0.0
v 13.1091 8.28595 4.0
v 13.1741 5.78615 0.0
v 13.1741 5.78615 4.0
v 13.2248 6.78802 0.0
v 13.2248 6.78802 4.0
vn -1.0 0.0 0.0
vn -1.0 -0.0 0.0
vn 0.0 1.0 -0.0
vn 0.0 1.0 0.0
vn 0.0 -1.0 0.0
vn 0.0 -1.0 -0.0
vn 0.0 0.0 -1.0
vn 0.0 0.0 -1.0
vn 0.0 0.0 -1.0
vn 0.0 0.0 -1.0
vn 0.0 0.0 -1.0
vn -0.0 0.0 -1.0
vn 0.0 -0.0 -1.0
vn 0.0 0.0 -1.0
vn -0.0 0.0 -1.0
vn 0.0 0.0 -1.0
vn -0.0 0.0 -1.0
vn 0.0 0.0 1.0
vn 0.0 0.0 1.0
vn 0.0 0.0 1.0
vn 0.0 0.0 1.0
vn -0.0 0.0 1.0
vn 0.0 0.0 1.0
vn 0.0 0.0 1.0
vn 0.0 0.0 1.0
vn 0.0 0.0 1.0
vn 0.0 0.0 1.0
vn 0.0 0.0 1.0
vn 0.987043 -0.160458 0.0
vn 0.987043 -0.160458 0.0
vn 0.998722 -0.050541 0.0
vn 0.998722 -0.050541 0.0
vn 0.99703 0.07701 0.0
vn 0.99703 0.07701 0.0
vn 0.966807 0.255508 0.0
vn 0.966807 0.255508 0.0
vn 0.889882 0.456191 0.0
vn 0.889882 0.456191 0.0
vn -0.90803 -0.418905 0.0
vn -0.90803 -0.418905 0.0
vn -0.973027 -0.230691 0.0
vn -0.973027 -0.230691 0.0
vn -0.997625 -0.068887 0.0
vn -0.997625 -0.068887 0.0
vn -0.997856 0.065453 0.0
vn -0.997856 0.065453 0.0
vn -0.97637 0.216107 0.0
vn -0.97637 0.216107 0.0
f 1//1 4//1 3//1 
f 4//2 1//2 2//2 
f 15//3 4//3 16//3 
f 4//4 15//4 3//4 
f 7//5 20//5 8//5 
f 20//6 7//6 19//6 
f 13//7 25//7 23//7 
f 11//8 23//8 19//8 
f 9//9 25//9 13//9 
f 25//10 9//10 21//10 
f 5//11 21//11 9//11 
f 23//12 11//12 13//12 
f 11//13 19//13 7//13 
f 21//14 5//14 17//14 
f 17//15 5//15 15//15 
f 1//16 15//16 5//16 
f 15//17 1//17 3//17 
f 26//18 10//18 14//18 
f 18//19 6//19 10//19 
f 2//20 16//20 4//20 
f 16//21 2//21 6//21 
f 10//22 26//22 22//22 
f 26//23 14//23 24//23 
f 10//24 22//24 18//24 
f 6//25 18//25 16//25 
f 12//26 24//26 14//26 
f 24//27 12//27 20//27 
f 20//28 12//28 8//28 
f 20//29 23//29 24//29 
f 23//30 20//30 19//30 
f 24//31 25//31 26//31 
f 25//32 24//32 23//32 
f 26//33 21//33 22//33 
f 21//34 26//34 25//34 
f 22//35 17//35 18//35 
f 17//36 22//36 21//36 
f 18//37 15//37 16//37 
f 15//38 18//38 17//38 
f 5//39 2//39 1//39 
f 2//40 5//40 6//40 
f 9//41 6//41 5//41 
f 6//42 9//42 10//42 
f 13//43 10//43 9//43 
f 10//44 13//44 14//44 
f 11//45 14//45 13//45 
f 14//46 11//46 12//46 
f 7//47 12//47 11//47 
f 12//48 7//48 8//48 
