#Exported from google sketchup
mtllib A.mtl
v  -3.2465  -6.6547   2.9755
v   1.3328  -1.3571   2.9755
v   2.7299  -6.6547   2.9755
v  -1.8672  -1.3571   2.9755
v   3.5500  -9.6130   2.9755
v   2.7535  11.0182   2.9755
v   9.1500  -9.6130   2.9755
v   0.1124   5.3325   2.9755
v  -3.2465  11.0182   2.9755
v  -3.8682  -9.7938   2.9755
v  -9.3321  -9.7068   2.9755
v   9.1500  -9.6130  -3.0245
v   2.7535  11.0182  -3.0245
v   3.5500  -9.6130  -3.0245
v   2.7299  -6.6547  -3.0245
v  -3.2465  -6.6547  -3.0245
v  -3.8682  -9.7938  -3.0245
v   0.1124   5.3325  -3.0245
v  -1.8672  -1.3571  -3.0245
v   1.3328  -1.3571  -3.0245
v  -3.2465  11.0182  -3.0245
v  -9.3321  -9.7068  -3.0245
#  22 elements
vt   0.0000   0.0000 0.0000
vt   0.0000   0.0000 0.0000
vt   0.0000   0.0000 0.0000
vt   0.0000   0.0000 0.0000
vt   0.0000   0.0000 0.0000
vt   0.0000   0.0000 0.0000
vt   0.0000   0.0000 0.0000
vt   0.0000   0.0000 0.0000
vt   0.0000   0.0000 0.0000
vt   0.0000   0.0000 0.0000
vt   0.0000   0.0000 0.0000
vt   0.0000   0.0000 0.0000
vt   0.0000   0.0000 0.0000
vt   0.0000   0.0000 0.0000
vt   0.0000   0.0000 0.0000
vt   0.0000   0.0000 0.0000
vt   0.0000   0.0000 0.0000
vt   0.0000   0.0000 0.0000
vt   0.0000   0.0000 0.0000
vt   0.0000   0.0000 0.0000
vt   0.0000   0.0000 0.0000
vt   0.0000   0.0000 0.0000
#  22 elements
vn   0.3005  -0.3658   0.8808
vn  -0.2921   0.2436   0.9248
vn  -0.2970  -0.3905   0.8714
vn   0.2820   0.2106   0.9360
vn  -0.4875  -0.6410   0.5929
vn   0.4769   0.6471   0.5948
vn   0.6652  -0.4902   0.5632
vn  -0.0067  -0.1242   0.9922
vn  -0.4822   0.6441   0.5939
vn   0.5087  -0.6295   0.5874
vn  -0.6647  -0.4894   0.5645
vn   0.2970   0.3905  -0.8714
vn   0.2921  -0.2436  -0.9248
vn  -0.3005   0.3658  -0.8808
vn  -0.2820  -0.2106  -0.9360
vn  -0.6652   0.4902  -0.5632
vn  -0.4769  -0.6471  -0.5948
vn   0.4875   0.6410  -0.5929
vn   0.0067   0.1242  -0.9922
vn   0.4822  -0.6441  -0.5939
vn  -0.5087   0.6295  -0.5874
vn   0.6647   0.4894  -0.5645
vn   0.6652  -0.4902  -0.5632
vn   0.4769   0.6471  -0.5948
vn  -0.6652   0.4902   0.5632
vn  -0.4769  -0.6471   0.5948
vn  -0.4875  -0.6410  -0.5929
vn   0.4875   0.6410   0.5929
vn  -0.2970  -0.3905  -0.8714
vn   0.3005  -0.3658  -0.8808
vn  -0.3005   0.3658   0.8808
vn   0.2970   0.3905   0.8714
vn   0.5087  -0.6295  -0.5874
vn  -0.5087   0.6295   0.5874
vn  -0.0067  -0.1242  -0.9922
vn   0.2820   0.2106  -0.9360
vn  -0.2820  -0.2106   0.9360
vn   0.0067   0.1242   0.9922
vn  -0.2921   0.2436  -0.9248
vn   0.2921  -0.2436   0.9248
vn  -0.4822   0.6441  -0.5939
vn   0.4822  -0.6441   0.5939
vn  -0.6647  -0.4894  -0.5645
vn   0.6647   0.4894   0.5645
#  44 elements
#  88 faces
usemtl Default_Material
f 3/3/3 2/2/2 1/1/1
f 4/4/4 1/1/1 2/2/2
f 7/7/7 6/6/6 5/5/5
f 3/3/3 5/5/5 6/6/6
f 8/8/8 3/3/3 6/6/6
f 9/9/9 8/8/8 6/6/6
f 2/2/2 3/3/3 8/8/8
f 4/4/4 8/8/8 9/9/9
f 1/1/1 4/4/4 9/9/9
f 10/10/10 1/1/1 9/9/9
f 11/11/11 10/10/10 9/9/9
f 1/1/14 2/2/13 3/3/12
f 2/2/13 1/1/14 4/4/15
f 5/5/18 6/6/17 7/7/16
f 6/6/17 5/5/18 3/3/12
f 6/6/17 3/3/12 8/8/19
f 6/6/17 8/8/19 9/9/20
f 8/8/19 3/3/12 2/2/13
f 9/9/20 8/8/19 4/4/15
f 9/9/20 4/4/15 1/1/14
f 9/9/20 1/1/14 10/10/21
f 9/9/20 10/10/21 11/11/22
f 7/7/7 12/12/23 6/6/6
f 13/13/24 6/6/6 12/12/23
f 6/6/17 12/12/25 7/7/16
f 12/12/25 6/6/17 13/13/26
f 14/14/27 12/12/23 5/5/5
f 7/7/7 5/5/5 12/12/23
f 5/5/18 12/12/25 14/14/28
f 12/12/25 5/5/18 7/7/16
f 16/16/30 15/15/29 1/1/1
f 3/3/3 1/1/1 15/15/29
f 1/1/14 15/15/32 16/16/31
f 15/15/32 1/1/14 3/3/12
f 10/10/10 17/17/33 1/1/1
f 16/16/30 1/1/1 17/17/33
f 1/1/14 17/17/34 10/10/21
f 17/17/34 1/1/14 16/16/31
f 19/19/36 18/18/35 4/4/4
f 8/8/8 4/4/4 18/18/35
f 4/4/15 18/18/38 19/19/37
f 18/18/38 4/4/15 8/8/19
f 20/20/39 19/19/36 2/2/2
f 4/4/4 2/2/2 19/19/36
f 2/2/13 19/19/37 20/20/40
f 19/19/37 2/2/13 4/4/15
f 13/13/24 21/21/41 6/6/6
f 9/9/9 6/6/6 21/21/41
f 6/6/17 21/21/42 13/13/26
f 21/21/42 6/6/17 9/9/20
f 12/12/23 14/14/27 13/13/24
f 15/15/29 13/13/24 14/14/27
f 18/18/35 13/13/24 15/15/29
f 21/21/41 13/13/24 18/18/35
f 20/20/39 18/18/35 15/15/29
f 19/19/36 21/21/41 18/18/35
f 15/15/29 16/16/30 20/20/39
f 19/19/36 20/20/39 16/16/30
f 21/21/41 19/19/36 16/16/30
f 22/22/43 21/21/41 16/16/30
f 17/17/33 22/22/43 16/16/30
f 13/13/26 14/14/28 12/12/25
f 14/14/28 13/13/26 15/15/32
f 15/15/32 13/13/26 18/18/38
f 18/18/38 13/13/26 21/21/42
f 15/15/32 18/18/38 20/20/40
f 18/18/38 21/21/42 19/19/37
f 20/20/40 16/16/31 15/15/32
f 16/16/31 20/20/40 19/19/37
f 16/16/31 19/19/37 21/21/42
f 16/16/31 21/21/42 22/22/44
f 16/16/31 22/22/44 17/17/34
f 14/14/27 5/5/5 15/15/29
f 3/3/3 15/15/29 5/5/5
f 15/15/32 5/5/18 14/14/28
f 5/5/18 15/15/32 3/3/12
f 22/22/43 11/11/11 21/21/41
f 9/9/9 21/21/41 11/11/11
f 21/21/42 11/11/22 22/22/44
f 11/11/22 21/21/42 9/9/20
f 20/20/39 2/2/2 18/18/35
f 8/8/8 18/18/35 2/2/2
f 18/18/38 2/2/13 20/20/40
f 2/2/13 18/18/38 8/8/19
f 17/17/33 10/10/10 22/22/43
f 11/11/11 22/22/43 10/10/10
f 22/22/44 10/10/21 17/17/34
f 10/10/21 22/22/44 11/11/22