#Exported from google sketchup
mtllib A_p1.mtl
v   1.7600   6.5362   2.9755
v   1.7600   0.4708  -3.0245
v   1.7600   6.5362  -3.0245
v   1.7600   0.4708   2.9755
v  -1.4865   6.5362   2.9755
v   0.2944  -4.4820   2.9755
v  -4.7218  -4.4820   2.9755
v  -1.4865   6.5362  -3.0245
v   0.2944  -4.4820  -3.0245
v  -4.7218  -4.4820  -3.0245
#  10 elements
vt   0.0000   0.0000 0.0000
vt   0.0000   0.0000 0.0000
vt   0.0000   0.0000 0.0000
vt   0.0000   0.0000 0.0000
vt   0.0000   0.0000 0.0000
vt   0.0000   0.0000 0.0000
vt   0.0000   0.0000 0.0000
vt   0.0000   0.0000 0.0000
vt   0.0000   0.0000 0.0000
vt   0.0000   0.0000 0.0000
#  10 elements
vn  -1.0000   0.0000   0.0000
vn   1.0000   0.0000   0.0000
vn  -0.4822   0.6441   0.5939
vn   0.6190  -0.1832   0.7637
vn  -0.7426   0.2181   0.6332
vn   0.4624  -0.1368   0.8761
vn  -0.0000   0.7071   0.7071
vn   0.7426  -0.2181  -0.6332
vn  -0.6190   0.1832  -0.7637
vn   0.4822  -0.6441  -0.5939
vn  -0.4624   0.1368  -0.8761
vn   0.0000  -0.7071  -0.7071
vn  -0.0000   0.7071  -0.7071
vn  -0.4822   0.6441  -0.5939
vn   0.4822  -0.6441   0.5939
vn   0.0000  -0.7071   0.7071
vn   0.6190  -0.1832  -0.7637
vn   0.4624  -0.1368  -0.8761
vn  -0.4624   0.1368   0.8761
vn  -0.6190   0.1832   0.7637
vn  -0.7426   0.2181  -0.6332
vn   0.7426  -0.2181   0.6332
vn   0.0000   1.0000   0.0000
vn   0.0000  -1.0000   0.0000
#  24 elements
#  32 faces
usemtl Default_Material
f 3/3/1 2/2/1 1/1/1
f 4/4/1 1/1/1 2/2/1
f 1/1/2 2/2/2 3/3/2
f 2/2/2 1/1/2 4/4/2
usemtl _Color_I03
f 7/7/5 6/6/4 5/5/3
f 4/4/6 5/5/3 6/6/4
f 1/1/7 5/5/3 4/4/6
f 5/5/10 6/6/9 7/7/8
f 6/6/9 5/5/10 4/4/11
f 4/4/11 5/5/10 1/1/12
f 8/8/14 5/5/3 3/3/13
f 1/1/7 3/3/13 5/5/3
f 3/3/16 5/5/10 8/8/15
f 5/5/10 3/3/16 1/1/12
f 2/2/18 4/4/6 9/9/17
f 6/6/4 9/9/17 4/4/6
f 9/9/20 4/4/11 2/2/19
f 4/4/11 9/9/20 6/6/9
f 10/10/21 7/7/5 8/8/14
f 5/5/3 8/8/14 7/7/5
f 8/8/15 7/7/8 10/10/22
f 7/7/8 8/8/15 5/5/10
f 9/9/17 10/10/21 2/2/18
f 8/8/14 2/2/18 10/10/21
f 3/3/13 2/2/18 8/8/14
f 2/2/19 10/10/22 9/9/20
f 10/10/22 2/2/19 8/8/15
f 8/8/15 2/2/19 3/3/16
usemtl Default_Material
f 10/10/23 7/7/23 9/9/23
f 6/6/23 9/9/23 7/7/23
f 9/9/24 7/7/24 10/10/24
f 7/7/24 9/9/24 6/6/24