#Exported from google sketchup
mtllib A_p2.mtl
v   2.5720   5.8032  -3.0245
v  -0.6745   5.8032   2.9755
v  -0.6745   5.8032  -3.0245
v   2.5720   5.8032   2.9755
v  -3.9098  -5.2150  -3.0245
v   1.1064  -5.2150   2.9755
v  -3.9098  -5.2150   2.9755
v   1.1064  -5.2150  -3.0245
v   2.5720  -0.2622   2.9755
v   2.5720  -0.2622  -3.0245
#  10 elements
vt   0.0000   0.0000 0.0000
vt   0.0000   0.0000 0.0000
vt   0.0000   0.0000 0.0000
vt   0.0000   0.0000 0.0000
vt   0.0000   0.0000 0.0000
vt   0.0000   0.0000 0.0000
vt   0.0000   0.0000 0.0000
vt   0.0000   0.0000 0.0000
vt   0.0000   0.0000 0.0000
vt   0.0000   0.0000 0.0000
#  10 elements
vn  -0.0000   0.7071  -0.7071
vn  -0.4822   0.6441   0.5939
vn  -0.4822   0.6441  -0.5939
vn   0.0000   0.7071   0.7071
vn   0.4822  -0.6441   0.5939
vn   0.4822  -0.6441  -0.5939
vn   0.0000  -0.7071   0.7071
vn  -0.0000  -0.7071  -0.7071
vn   0.0000   1.0000   0.0000
vn   0.0000  -1.0000   0.0000
vn   0.6190  -0.1832   0.7637
vn  -0.7426   0.2181   0.6332
vn   0.4624  -0.1368   0.8761
vn   0.7426  -0.2181  -0.6332
vn  -0.6190   0.1832  -0.7637
vn  -0.4624   0.1368  -0.8761
vn  -1.0000   0.0000   0.0000
vn   1.0000   0.0000   0.0000
vn   0.4624  -0.1368  -0.8761
vn  -0.7426   0.2181  -0.6332
vn   0.6190  -0.1832  -0.7637
vn  -0.6190   0.1832   0.7637
vn   0.7426  -0.2181   0.6332
vn  -0.4624   0.1368   0.8761
#  24 elements
#  32 faces
usemtl _Color_I03
f 3/3/3 2/2/2 1/1/1
f 4/4/4 1/1/1 2/2/2
f 1/1/7 2/2/6 3/3/5
f 2/2/6 1/1/7 4/4/8
usemtl Default_Material
f 7/7/9 6/6/9 5/5/9
f 8/8/9 5/5/9 6/6/9
f 5/5/10 6/6/10 7/7/10
f 6/6/10 5/5/10 8/8/10
usemtl _Color_I03
f 7/7/12 6/6/11 2/2/2
f 9/9/13 2/2/2 6/6/11
f 4/4/4 2/2/2 9/9/13
f 2/2/6 6/6/15 7/7/14
f 6/6/15 2/2/6 9/9/16
f 9/9/16 2/2/6 4/4/8
usemtl Default_Material
f 10/10/17 9/9/17 1/1/17
f 4/4/17 1/1/17 9/9/17
f 1/1/18 9/9/18 10/10/18
f 9/9/18 1/1/18 4/4/18
usemtl _Color_I03
f 8/8/21 5/5/20 10/10/19
f 3/3/3 10/10/19 5/5/20
f 1/1/1 10/10/19 3/3/3
f 10/10/24 5/5/23 8/8/22
f 5/5/23 10/10/24 3/3/5
f 3/3/5 10/10/24 1/1/7
f 8/8/21 10/10/19 6/6/11
f 9/9/13 6/6/11 10/10/19
f 6/6/15 10/10/24 8/8/22
f 10/10/24 6/6/15 9/9/16
f 3/3/3 5/5/20 2/2/2
f 7/7/12 2/2/2 5/5/20
f 2/2/6 5/5/23 3/3/5
f 5/5/23 2/2/6 7/7/14