#Exported from google sketchup
mtllib A_p3.mtl
v  -4.5080  -1.9437   2.9755
v  -4.5080   3.3539  -3.0245
v  -4.5080  -1.9437  -3.0245
v  -4.5080   3.3539   2.9755
v   2.8876   4.7110   2.9755
v  -2.1968   4.7110  -3.0245
v  -2.1968   4.7110   2.9755
v   2.8876   4.7110  -3.0245
v   0.2680  -4.9020  -3.0245
v   5.8680  -4.9020  -3.0245
v  -0.5521  -1.9437  -3.0245
v  -1.9492   3.3539  -3.0245
v  -0.5521  -1.9437   2.9755
v  -1.9492   3.3539   2.9755
v   5.8680  -4.9020   2.9755
v   0.2680  -4.9020   2.9755
#  16 elements
vt   0.0000   0.0000 0.0000
vt   0.0000   0.0000 0.0000
vt   0.0000   0.0000 0.0000
vt   0.0000   0.0000 0.0000
vt   0.0000   0.0000 0.0000
vt   0.0000   0.0000 0.0000
vt   0.0000   0.0000 0.0000
vt   0.0000   0.0000 0.0000
vt   0.0000   0.0000 0.0000
vt   0.0000   0.0000 0.0000
vt   0.0000   0.0000 0.0000
vt   0.0000   0.0000 0.0000
vt   0.0000   0.0000 0.0000
vt   0.0000   0.0000 0.0000
vt   0.0000   0.0000 0.0000
vt   0.0000   0.0000 0.0000
#  16 elements
vn   1.0000   0.0000   0.0000
vn  -1.0000   0.0000   0.0000
vn   0.0000  -1.0000   0.0000
vn   0.0000   1.0000   0.0000
vn   0.6141   0.1904  -0.7659
vn  -0.4875  -0.6410  -0.5929
vn   0.6652  -0.4902  -0.5632
vn  -0.2970  -0.3905  -0.8714
vn   0.0000  -0.7071  -0.7071
vn  -0.2921   0.2436  -0.9248
vn  -0.7367  -0.1344  -0.6628
vn   0.0000   0.7071  -0.7071
vn  -0.6652   0.4902   0.5632
vn   0.4875   0.6410   0.5929
vn  -0.6141  -0.1904   0.7659
vn   0.2970   0.3905   0.8714
vn  -0.0000   0.7071   0.7071
vn   0.2921  -0.2436   0.9248
vn   0.7367   0.1344   0.6628
vn  -0.0000  -0.7071   0.7071
vn  -0.2970  -0.3905   0.8714
vn   0.2970   0.3905  -0.8714
vn  -0.2921   0.2436   0.9248
vn   0.2921  -0.2436  -0.9248
vn   0.6652  -0.4902   0.5632
vn  -0.4875  -0.6410   0.5929
vn   0.4875   0.6410  -0.5929
vn  -0.6652   0.4902  -0.5632
vn   0.6141   0.1904   0.7659
vn  -0.7367  -0.1344   0.6628
vn  -0.6141  -0.1904  -0.7659
vn   0.7367   0.1344  -0.6628
#  32 elements
#  56 faces
usemtl Default_Material
f 3/3/1 2/2/1 1/1/1
f 4/4/1 1/1/1 2/2/1
f 1/1/2 2/2/2 3/3/2
f 2/2/2 1/1/2 4/4/2
f 7/7/3 6/6/3 5/5/3
f 8/8/3 5/5/3 6/6/3
f 5/5/4 6/6/4 7/7/4
f 6/6/4 5/5/4 8/8/4
usemtl _Color_I03
f 10/10/7 9/9/6 8/8/5
f 11/11/8 8/8/5 9/9/6
f 3/3/9 8/8/5 11/11/8
f 12/12/10 8/8/5 3/3/9
f 6/6/11 8/8/5 12/12/10
f 12/12/10 3/3/9 2/2/12
f 8/8/15 9/9/14 10/10/13
f 9/9/14 8/8/15 11/11/16
f 11/11/16 8/8/15 3/3/17
f 3/3/17 8/8/15 12/12/18
f 12/12/18 8/8/15 6/6/19
f 2/2/20 3/3/17 12/12/18
f 1/1/20 3/3/9 13/13/21
f 11/11/8 13/13/21 3/3/9
f 13/13/22 3/3/17 1/1/12
f 3/3/17 13/13/22 11/11/16
f 2/2/12 4/4/17 12/12/10
f 14/14/23 12/12/10 4/4/17
f 12/12/18 4/4/9 2/2/20
f 4/4/9 12/12/18 14/14/24
f 16/16/26 9/9/6 15/15/25
f 10/10/7 15/15/25 9/9/6
f 15/15/28 9/9/14 16/16/27
f 9/9/14 15/15/28 10/10/13
f 1/1/20 13/13/21 4/4/17
f 16/16/26 15/15/25 13/13/21
f 5/5/29 13/13/21 15/15/25
f 14/14/23 13/13/21 5/5/29
f 4/4/17 13/13/21 14/14/23
f 7/7/30 14/14/23 5/5/29
f 4/4/9 13/13/22 1/1/12
f 13/13/22 15/15/28 16/16/27
f 15/15/28 13/13/22 5/5/31
f 5/5/31 13/13/22 14/14/24
f 14/14/24 13/13/22 4/4/9
f 5/5/31 14/14/24 7/7/32
f 8/8/5 5/5/29 10/10/7
f 15/15/25 10/10/7 5/5/29
f 10/10/13 5/5/31 8/8/15
f 5/5/31 10/10/13 15/15/28
f 11/11/8 9/9/6 13/13/21
f 16/16/26 13/13/21 9/9/6
f 13/13/22 9/9/14 11/11/16
f 9/9/14 13/13/22 16/16/27
f 6/6/11 12/12/10 7/7/30
f 14/14/23 7/7/30 12/12/10
f 7/7/32 12/12/18 6/6/19
f 12/12/18 7/7/32 14/14/24