#Exported from google sketchup
mtllib A_p4.mtl
v   3.1380   3.2657  -3.0245
v   3.1380  -2.0319   2.9755
v   3.1380  -2.0319  -3.0245
v   3.1380   3.2657   2.9755
v   2.8984   4.6228   2.9755
v  -2.1178   4.6228  -3.0245
v  -2.1178   4.6228   2.9755
v   2.8984   4.6228  -3.0245
v   2.4968   3.2657   2.9755
v  -4.9681  -5.0840   2.9755
v   1.1175  -2.0319   2.9755
v   0.4958  -5.1709   2.9755
v   1.1175  -2.0319  -3.0245
v  -4.9681  -5.0840  -3.0245
v   0.4958  -5.1709  -3.0245
v   2.4968   3.2657  -3.0245
#  16 elements
vt   0.0000   0.0000 0.0000
vt   0.0000   0.0000 0.0000
vt   0.0000   0.0000 0.0000
vt   0.0000   0.0000 0.0000
vt   0.0000   0.0000 0.0000
vt   0.0000   0.0000 0.0000
vt   0.0000   0.0000 0.0000
vt   0.0000   0.0000 0.0000
vt   0.0000   0.0000 0.0000
vt   0.0000   0.0000 0.0000
vt   0.0000   0.0000 0.0000
vt   0.0000   0.0000 0.0000
vt   0.0000   0.0000 0.0000
vt   0.0000   0.0000 0.0000
vt   0.0000   0.0000 0.0000
vt   0.0000   0.0000 0.0000
#  16 elements
vn  -1.0000   0.0000   0.0000
vn   1.0000   0.0000   0.0000
vn   0.0000  -1.0000   0.0000
vn   0.0000   1.0000   0.0000
vn   0.0000   0.7071   0.7071
vn   0.0000  -0.7071   0.7071
vn   0.2820   0.2106   0.9360
vn  -0.6647  -0.4894   0.5645
vn   0.3005  -0.3658   0.8808
vn   0.5087  -0.6295   0.5874
vn  -0.6198   0.1820   0.7634
vn   0.7426  -0.2198   0.6326
vn  -0.2820  -0.2106  -0.9360
vn  -0.0000   0.7071  -0.7071
vn  -0.0000  -0.7071  -0.7071
vn  -0.5087   0.6295  -0.5874
vn  -0.3005   0.3658  -0.8808
vn   0.6647   0.4894  -0.5645
vn   0.6198  -0.1820  -0.7634
vn  -0.7426   0.2198  -0.6326
vn   0.3005  -0.3658  -0.8808
vn  -0.3005   0.3658   0.8808
vn  -0.6647  -0.4894  -0.5645
vn   0.5087  -0.6295  -0.5874
vn  -0.6198   0.1820  -0.7634
vn   0.2820   0.2106  -0.9360
vn   0.7426  -0.2198  -0.6326
vn  -0.5087   0.6295   0.5874
vn   0.6647   0.4894   0.5645
vn   0.6198  -0.1820   0.7634
vn  -0.2820  -0.2106   0.9360
vn  -0.7426   0.2198   0.6326
#  32 elements
#  56 faces
usemtl Default_Material
f 3/3/1 2/2/1 1/1/1
f 4/4/1 1/1/1 2/2/1
f 1/1/2 2/2/2 3/3/2
f 2/2/2 1/1/2 4/4/2
f 7/7/3 6/6/3 5/5/3
f 8/8/3 5/5/3 6/6/3
f 5/5/4 6/6/4 7/7/4
f 6/6/4 5/5/4 8/8/4
usemtl _Color_I03
f 9/9/7 2/2/6 4/4/5
f 12/12/10 11/11/9 10/10/8
f 7/7/11 10/10/8 11/11/9
f 2/2/6 7/7/11 11/11/9
f 9/9/7 7/7/11 2/2/6
f 5/5/12 7/7/11 9/9/7
f 4/4/15 2/2/14 9/9/13
f 10/10/18 11/11/17 12/12/16
f 11/11/17 10/10/18 7/7/19
f 11/11/17 7/7/19 2/2/14
f 2/2/14 7/7/19 9/9/13
f 9/9/13 7/7/19 5/5/20
f 11/11/9 13/13/21 2/2/6
f 3/3/15 2/2/6 13/13/21
f 2/2/14 13/13/22 11/11/17
f 13/13/22 2/2/14 3/3/5
f 3/3/15 13/13/21 1/1/14
f 15/15/24 14/14/23 13/13/21
f 6/6/25 13/13/21 14/14/23
f 16/16/26 13/13/21 6/6/25
f 1/1/14 13/13/21 16/16/26
f 8/8/27 16/16/26 6/6/25
f 1/1/6 13/13/22 3/3/5
f 13/13/22 14/14/29 15/15/28
f 14/14/29 13/13/22 6/6/30
f 6/6/30 13/13/22 16/16/31
f 16/16/31 13/13/22 1/1/6
f 6/6/30 16/16/31 8/8/32
f 13/13/21 11/11/9 15/15/24
f 12/12/10 15/15/24 11/11/9
f 15/15/28 11/11/17 13/13/22
f 11/11/17 15/15/28 12/12/16
f 10/10/8 14/14/23 12/12/10
f 15/15/24 12/12/10 14/14/23
f 12/12/16 14/14/29 10/10/18
f 14/14/29 12/12/16 15/15/28
f 16/16/26 9/9/7 1/1/14
f 4/4/5 1/1/14 9/9/7
f 1/1/6 9/9/13 16/16/31
f 9/9/13 1/1/6 4/4/15
f 6/6/25 14/14/23 7/7/11
f 10/10/8 7/7/11 14/14/23
f 7/7/19 14/14/29 6/6/30
f 14/14/29 7/7/19 10/10/18
f 8/8/27 5/5/12 16/16/26
f 9/9/7 16/16/26 5/5/12
f 16/16/31 5/5/20 8/8/32
f 5/5/20 16/16/31 9/9/13