#Exported from google sketchup
mtllib B.mtl
v   6.0886   1.9222  -2.9755
v   6.7048   2.7056   3.0245
v   6.7048   2.7056  -2.9755
v   6.0886   1.9222   3.0245
v   0.6839  -9.5946   3.0245
v  -7.2415  -9.5946  -2.9755
v  -7.2415  -9.5946   3.0245
v   0.6839  -9.5946  -2.9755
v   1.7259   3.4478  -2.9755
v   1.4325   3.2447   3.0245
v   1.4325   3.2447  -2.9755
v   1.7259   3.4478   3.0245
v   2.3010   4.7234   3.0245
v   2.3026   4.7087  -2.9755
v   2.3010   4.7234  -2.9755
v   2.3026   4.7087   3.0245
v   0.6839  -4.6612   3.0245
v   4.3585  -9.5946   3.0245
v   5.4143  -9.1368   3.0245
v   6.3616  -8.4834   3.0245
v   7.1647  -7.6591   3.0245
v   7.7931  -6.6950   3.0245
v   8.2232  -5.6276   3.0245
v   1.2433  -4.6612   3.0245
v   8.4386  -4.4972   3.0245
v   1.5731  -4.5252   3.0245
v   1.8665  -4.3221   3.0245
v   8.4314  -3.3464   3.0245
v   2.1099  -4.0612   3.0245
v   2.2922  -3.7545   3.0245
v   2.4051  -3.4160   3.0245
v   2.4433  -3.0612   3.0245
v   8.2093  -2.2567   3.0245
v   2.4051  -2.7064   3.0245
v   2.2922  -2.3679   3.0245
v   2.2261  -2.2567   3.0245
v  -0.7869   6.3087   3.0245
v  -1.6974   6.3087  -2.9755
v  -1.6974   6.3087   3.0245
v  -0.7869   6.3087  -2.9755
v   7.1795   3.5820   3.0245
v   7.1795   3.5820  -2.9755
v   2.2644   4.3539  -2.9755
v   2.2644   4.3539   3.0245
v  -0.7869  11.2054  -2.9755
v  -7.2415  11.2054   3.0245
v  -7.2415  11.2054  -2.9755
v  -0.7869  11.2054   3.0245
v   5.2155  10.6967  -2.9755
v   4.3585  11.2054   3.0245
v   4.3585  11.2054  -2.9755
v   5.2155  10.6967   3.0245
v   5.9740  10.0501  -2.9755
v   5.9740  10.0501   3.0245
v   1.5731  -1.5972   3.0245
v   1.2433  -1.4612  -2.9755
v   1.2433  -1.4612   3.0245
v   1.5731  -1.5972  -2.9755
v   1.7259   5.9696   3.0245
v   1.4325   6.1727  -2.9755
v   1.4325   6.1727   3.0245
v   1.7259   5.9696  -2.9755
v   2.2922  -3.7545  -2.9755
v   2.4051  -3.4160  -2.9755
v   2.4433  -3.0612  -2.9755
v   2.4051  -2.7064  -2.9755
v   0.5424   3.1087  -2.9755
v  -1.6974   3.1087   3.0245
v  -1.6974   3.1087  -2.9755
v   0.5424   3.1087   3.0245
v   0.5424  -1.4612   3.0245
v  -1.5567  -1.4612  -2.9755
v  -1.5567  -1.4612   3.0245
v   0.5424  -1.4612  -2.9755
v   1.1026   6.3087  -2.9755
v   1.1026   6.3087   3.0245
v   1.9693   5.7087  -2.9755
v   1.9693   5.7087   3.0245
v   2.1516   5.4020  -2.9755
v   2.1516   5.4020   3.0245
v   0.6839  -4.6612  -2.9755
v  -1.5567  -4.6612   3.0245
v  -1.5567  -4.6612  -2.9755
v   2.1516   4.0154   3.0245
v   1.9693   3.7087  -2.9755
v   2.1516   4.0154  -2.9755
v   1.9693   3.7087   3.0245
v   7.6538   5.5106  -2.9755
v   7.6398   6.5072   3.0245
v   7.6398   6.5072  -2.9755
v   7.6538   5.5106   3.0245
v   2.2644   5.0635  -2.9755
v   2.2644   5.0635   3.0245
v   7.4572   7.4870   3.0245
v   7.1113   8.4218  -2.9755
v   7.4572   7.4870  -2.9755
v   7.1113   8.4218   3.0245
v   1.8665  -1.8003   3.0245
v   1.8665  -1.8003  -2.9755
v   7.4989   4.5261   3.0245
v   7.4989   4.5261  -2.9755
v   7.5299   4.7234  -2.9755
v   7.5299   4.7234   3.0245
v   2.2922  -2.3679  -2.9755
v   2.2261  -2.2567  -2.9755
v   1.8665  -4.3221  -2.9755
v   1.5731  -4.5252  -2.9755
v   1.1026   3.1087   3.0245
v   1.1026   3.1087  -2.9755
v   2.1099  -2.0612  -2.9755
v   2.1099  -2.0612   3.0245
v   1.2433  -4.6612  -2.9755
v   4.3585  -9.5946  -2.9755
v   5.4143  -9.1368  -2.9755
v   6.3616  -8.4834  -2.9755
v   5.3486   1.2546  -2.9755
v   5.3486   1.2546   3.0245
v   2.1099  -4.0612  -2.9755
v   6.6121   9.2844  -2.9755
v   6.6121   9.2844   3.0245
v   8.2093  -2.2567  -2.9755
v   8.4314  -3.3464  -2.9755
v   8.4386  -4.4972  -2.9755
v   8.2232  -5.6276  -2.9755
v   7.7931  -6.6950  -2.9755
v   6.3041   0.6132  -2.9755
v   6.3041   0.6132   3.0245
v   7.1175  -0.2008  -2.9755
v   7.1175  -0.2008   3.0245
v   7.7581  -1.1569   3.0245
v   7.7581  -1.1569  -2.9755
v   8.2016  -2.2188   3.0245
v   8.2016  -2.2188  -2.9755
v   7.1647  -7.6591  -2.9755
#  134 elements
vt   0.0000   0.0000 0.0000
vt   0.0000   0.0000 0.0000
vt   0.0000   0.0000 0.0000
vt   0.0000   0.0000 0.0000
vt   0.0000   0.0000 0.0000
vt   0.0000   0.0000 0.0000
vt   0.0000   0.0000 0.0000
vt   0.0000   0.0000 0.0000
vt   0.0000   0.0000 0.0000
vt   0.0000   0.0000 0.0000
vt   0.0000   0.0000 0.0000
vt   0.0000   0.0000 0.0000
vt   0.0000   0.0000 0.0000
vt   0.0000   0.0000 0.0000
vt   0.0000   0.0000 0.0000
vt   0.0000   0.0000 0.0000
vt   0.0000   0.0000 0.0000
vt   0.0000   0.0000 0.0000
vt   0.0000   0.0000 0.0000
vt   0.0000   0.0000 0.0000
vt   0.0000   0.0000 0.0000
vt   0.0000   0.0000 0.0000
vt   0.0000   0.0000 0.0000
vt   0.0000   0.0000 0.0000
vt   0.0000   0.0000 0.0000
vt   0.0000   0.0000 0.0000
vt   0.0000   0.0000 0.0000
vt   0.0000   0.0000 0.0000
vt   0.0000   0.0000 0.0000
vt   0.0000   0.0000 0.0000
vt   0.0000   0.0000 0.0000
vt   0.0000   0.0000 0.0000
vt   0.0000   0.0000 0.0000
vt   0.0000   0.0000 0.0000
vt   0.0000   0.0000 0.0000
vt   0.0000   0.0000 0.0000
vt   0.0000   0.0000 0.0000
vt   0.0000   0.0000 0.0000
vt   0.0000   0.0000 0.0000
vt   0.0000   0.0000 0.0000
vt   0.0000   0.0000 0.0000
vt   0.0000   0.0000 0.0000
vt   0.0000   0.0000 0.0000
vt   0.0000   0.0000 0.0000
vt   0.0000   0.0000 0.0000
vt   0.0000   0.0000 0.0000
vt   0.0000   0.0000 0.0000
vt   0.0000   0.0000 0.0000
vt   0.0000   0.0000 0.0000
vt   0.0000   0.0000 0.0000
vt   0.0000   0.0000 0.0000
vt   0.0000   0.0000 0.0000
vt   0.0000   0.0000 0.0000
vt   0.0000   0.0000 0.0000
vt   0.0000   0.0000 0.0000
vt   0.0000   0.0000 0.0000
vt   0.0000   0.0000 0.0000
vt   0.0000   0.0000 0.0000
vt   0.0000   0.0000 0.0000
vt   0.0000   0.0000 0.0000
vt   0.0000   0.0000 0.0000
vt   0.0000   0.0000 0.0000
vt   0.0000   0.0000 0.0000
vt   0.0000   0.0000 0.0000
vt   0.0000   0.0000 0.0000
vt   0.0000   0.0000 0.0000
vt   0.0000   0.0000 0.0000
vt   0.0000   0.0000 0.0000
vt   0.0000   0.0000 0.0000
vt   0.0000   0.0000 0.0000
vt   0.0000   0.0000 0.0000
vt   0.0000   0.0000 0.0000
vt   0.0000   0.0000 0.0000
vt   0.0000   0.0000 0.0000
vt   0.0000   0.0000 0.0000
vt   0.0000   0.0000 0.0000
vt   0.0000   0.0000 0.0000
vt   0.0000   0.0000 0.0000
vt   0.0000   0.0000 0.0000
vt   0.0000   0.0000 0.0000
vt   0.0000   0.0000 0.0000
vt   0.0000   0.0000 0.0000
vt   0.0000   0.0000 0.0000
vt   0.0000   0.0000 0.0000
vt   0.0000   0.0000 0.0000
vt   0.0000   0.0000 0.0000
vt   0.0000   0.0000 0.0000
vt   0.0000   0.0000 0.0000
vt   0.0000   0.0000 0.0000
vt   0.0000   0.0000 0.0000
vt   0.0000   0.0000 0.0000
vt   0.0000   0.0000 0.0000
vt   0.0000   0.0000 0.0000
vt   0.0000   0.0000 0.0000
vt   0.0000   0.0000 0.0000
vt   0.0000   0.0000 0.0000
vt   0.0000   0.0000 0.0000
vt   0.0000   0.0000 0.0000
vt   0.0000   0.0000 0.0000
vt   0.0000   0.0000 0.0000
vt   0.0000   0.0000 0.0000
vt   0.0000   0.0000 0.0000
vt   0.0000   0.0000 0.0000
vt   0.0000   0.0000 0.0000
vt   0.0000   0.0000 0.0000
vt   0.0000   0.0000 0.0000
vt   0.0000   0.0000 0.0000
vt   0.0000   0.0000 0.0000
vt   0.0000   0.0000 0.0000
vt   0.0000   0.0000 0.0000
vt   0.0000   0.0000 0.0000
vt   0.0000   0.0000 0.0000
vt   0.0000   0.0000 0.0000
vt   0.0000   0.0000 0.0000
vt   0.0000   0.0000 0.0000
vt   0.0000   0.0000 0.0000
vt   0.0000   0.0000 0.0000
vt   0.0000   0.0000 0.0000
vt   0.0000   0.0000 0.0000
vt   0.0000   0.0000 0.0000
vt   0.0000   0.0000 0.0000
vt   0.0000   0.0000 0.0000
vt   0.0000   0.0000 0.0000
vt   0.0000   0.0000 0.0000
vt   0.0000   0.0000 0.0000
vt   0.0000   0.0000 0.0000
vt   0.0000   0.0000 0.0000
vt   0.0000   0.0000 0.0000
vt   0.0000   0.0000 0.0000
vt   0.0000   0.0000 0.0000
vt   0.0000   0.0000 0.0000
vt   0.0000   0.0000 0.0000
vt   0.0000   0.0000 0.0000
vt   0.0000   0.0000 0.0000
#  134 elements
vn   0.7860  -0.6183   0.0000
vn  -0.7860   0.6183  -0.0000
vn  -0.0000  -1.0000   0.0000
vn   0.0000   1.0000  -0.0000
vn  -0.5692   0.8222  -0.0000
vn   0.5692  -0.8222   0.0000
vn  -0.9943  -0.1070   0.0000
vn   0.9943   0.1070  -0.0000
vn  -0.0000   0.0000   1.0000
vn   0.0000  -0.0000  -1.0000
vn   0.8793  -0.4763   0.0000
vn  -0.8793   0.4763  -0.0000
vn  -0.9943   0.1070   0.0000
vn   0.9943  -0.1070  -0.0000
vn   0.5105   0.8599  -0.0000
vn  -0.5105  -0.8599   0.0000
vn   0.6487   0.7610  -0.0000
vn  -0.6487  -0.7610   0.0000
vn  -0.3812  -0.9245   0.0000
vn   0.3812   0.9245  -0.0000
vn  -0.5692  -0.8222   0.0000
vn   0.5692   0.8222  -0.0000
vn  -0.9487   0.3162  -0.0000
vn   0.9487  -0.3162   0.0000
vn  -0.7312  -0.6822   0.0000
vn   0.7312   0.6822  -0.0000
vn  -0.8596  -0.5109   0.0000
vn   0.8596   0.5109  -0.0000
vn  -0.8596   0.5109  -0.0000
vn   0.8596  -0.5109   0.0000
vn   0.9999   0.0141  -0.0000
vn  -0.9999  -0.0141   0.0000
vn  -0.9487  -0.3162   0.0000
vn   0.9487   0.3162  -0.0000
vn   0.9379   0.3470  -0.0000
vn  -0.9379  -0.3470   0.0000
vn   0.9831   0.1832  -0.0000
vn  -0.9831  -0.1832   0.0000
vn   0.9473  -0.3205   0.0000
vn  -0.9473   0.3205  -0.0000
vn   0.9878  -0.1554  -0.0000
vn  -0.9878   0.1554   0.0000
vn   1.0000  -0.0000  -0.0000
vn  -1.0000   0.0000   0.0000
vn  -0.3812   0.9245  -0.0000
vn   0.3812  -0.9245   0.0000
vn  -0.7312   0.6822  -0.0000
vn   0.7312  -0.6822   0.0000
vn   0.3978  -0.9175   0.0000
vn  -0.3978   0.9175  -0.0000
vn   0.5678  -0.8232   0.0000
vn  -0.5678   0.8232  -0.0000
vn   0.6699  -0.7425   0.0000
vn  -0.6699   0.7425  -0.0000
vn   0.8655   0.5008  -0.0000
vn  -0.8655  -0.5008   0.0000
vn   0.9799   0.1996  -0.0000
vn  -0.9799  -0.1996   0.0000
vn   1.0000   0.0063  -0.0000
vn  -1.0000  -0.0063   0.0000
vn   0.9823  -0.1872  -0.0000
vn  -0.9823   0.1872   0.0000
vn   0.9275  -0.3737   0.0000
vn  -0.9275   0.3737  -0.0000
vn   0.5573   0.8303  -0.0000
vn  -0.5573  -0.8303   0.0000
vn   0.7074   0.7068  -0.0000
vn  -0.7074  -0.7068   0.0000
vn   0.8308   0.5566  -0.0000
vn  -0.8308  -0.5566   0.0000
vn   0.9227   0.3854  -0.0000
vn  -0.9227  -0.3854   0.0000
vn   0.8377  -0.5461   0.0000
vn  -0.8377   0.5461  -0.0000
vn   0.7163  -0.6978   0.0000
vn  -0.7163   0.6978  -0.0000
vn   0.7682   0.6402  -0.0000
vn  -0.7682  -0.6402   0.0000
vn   1.0000   0.0000   0.0000
vn  -0.0000  -0.0000  -1.0000
vn   0.0000   0.0000   1.0000
vn   0.0000  -1.0000   0.0000
vn   0.0000   1.0000   0.0000
vn  -0.0000   1.0000  -0.0000
#  84 elements
#  564 faces
usemtl _Color_I03
f 3/3/1 2/2/1 1/1/1
f 4/4/1 1/1/1 2/2/1
f 1/1/2 2/2/2 3/3/2
f 2/2/2 1/1/2 4/4/2
f 7/7/3 6/6/3 5/5/3
f 8/8/3 5/5/3 6/6/3
f 5/5/4 6/6/4 7/7/4
f 6/6/4 5/5/4 8/8/4
f 11/11/5 10/10/5 9/9/5
f 12/12/5 9/9/5 10/10/5
f 9/9/6 10/10/6 11/11/6
f 10/10/6 9/9/6 12/12/6
f 15/15/7 14/14/7 13/13/7
f 16/16/7 13/13/7 14/14/7
f 13/13/8 14/14/8 15/15/8
f 14/14/8 13/13/8 16/16/8
f 5/5/9 18/18/9 17/17/9
f 19/19/9 17/17/9 18/18/9
f 20/20/9 17/17/9 19/19/9
f 21/21/9 17/17/9 20/20/9
f 22/22/9 17/17/9 21/21/9
f 23/23/9 17/17/9 22/22/9
f 24/24/9 17/17/9 23/23/9
f 25/25/9 24/24/9 23/23/9
f 26/26/9 24/24/9 25/25/9
f 27/27/9 26/26/9 25/25/9
f 28/28/9 27/27/9 25/25/9
f 29/29/9 27/27/9 28/28/9
f 30/30/9 29/29/9 28/28/9
f 31/31/9 30/30/9 28/28/9
f 32/32/9 31/31/9 28/28/9
f 33/33/9 32/32/9 28/28/9
f 34/34/9 32/32/9 33/33/9
f 35/35/9 34/34/9 33/33/9
f 36/36/9 35/35/9 33/33/9
f 17/17/10 18/18/10 5/5/10
f 18/18/10 17/17/10 19/19/10
f 19/19/10 17/17/10 20/20/10
f 20/20/10 17/17/10 21/21/10
f 21/21/10 17/17/10 22/22/10
f 22/22/10 17/17/10 23/23/10
f 23/23/10 17/17/10 24/24/10
f 23/23/10 24/24/10 25/25/10
f 25/25/10 24/24/10 26/26/10
f 25/25/10 26/26/10 27/27/10
f 25/25/10 27/27/10 28/28/10
f 28/28/10 27/27/10 29/29/10
f 28/28/10 29/29/10 30/30/10
f 28/28/10 30/30/10 31/31/10
f 28/28/10 31/31/10 32/32/10
f 28/28/10 32/32/10 33/33/10
f 33/33/10 32/32/10 34/34/10
f 33/33/10 34/34/10 35/35/10
f 33/33/10 35/35/10 36/36/10
f 39/39/3 38/38/3 37/37/3
f 40/40/3 37/37/3 38/38/3
f 37/37/4 38/38/4 39/39/4
f 38/38/4 37/37/4 40/40/4
f 42/42/11 41/41/11 3/3/11
f 2/2/11 3/3/11 41/41/11
f 3/3/12 41/41/12 42/42/12
f 41/41/12 3/3/12 2/2/12
f 14/14/13 43/43/13 16/16/13
f 44/44/13 16/16/13 43/43/13
f 16/16/14 43/43/14 14/14/14
f 43/43/14 16/16/14 44/44/14
f 47/47/4 46/46/4 45/45/4
f 48/48/4 45/45/4 46/46/4
f 45/45/3 46/46/3 47/47/3
f 46/46/3 45/45/3 48/48/3
f 51/51/15 50/50/15 49/49/15
f 52/52/15 49/49/15 50/50/15
f 49/49/16 50/50/16 51/51/16
f 50/50/16 49/49/16 52/52/16
f 49/49/17 52/52/17 53/53/17
f 54/54/17 53/53/17 52/52/17
f 53/53/18 52/52/18 49/49/18
f 52/52/18 53/53/18 54/54/18
f 57/57/19 56/56/19 55/55/19
f 58/58/19 55/55/19 56/56/19
f 55/55/20 56/56/20 57/57/20
f 56/56/20 55/55/20 58/58/20
f 61/61/21 60/60/21 59/59/21
f 62/62/21 59/59/21 60/60/21
f 59/59/22 60/60/22 61/61/22
f 60/60/22 59/59/22 62/62/22
f 64/64/23 63/63/23 31/31/23
f 30/30/23 31/31/23 63/63/23
f 31/31/24 63/63/24 64/64/24
f 63/63/24 31/31/24 30/30/24
f 66/66/7 65/65/7 34/34/7
f 32/32/7 34/34/7 65/65/7
f 34/34/8 65/65/8 66/66/8
f 65/65/8 34/34/8 32/32/8
f 69/69/4 68/68/4 67/67/4
f 70/70/4 67/67/4 68/68/4
f 67/67/3 68/68/3 69/69/3
f 68/68/3 67/67/3 70/70/3
f 73/73/3 72/72/3 71/71/3
f 74/74/3 71/71/3 72/72/3
f 71/71/4 72/72/4 73/73/4
f 72/72/4 71/71/4 74/74/4
f 76/76/19 75/75/19 61/61/19
f 60/60/19 61/61/19 75/75/19
f 61/61/20 75/75/20 76/76/20
f 75/75/20 61/61/20 60/60/20
f 62/62/25 77/77/25 59/59/25
f 78/78/25 59/59/25 77/77/25
f 59/59/26 77/77/26 62/62/26
f 77/77/26 59/59/26 78/78/26
f 77/77/27 79/79/27 78/78/27
f 80/80/27 78/78/27 79/79/27
f 78/78/28 79/79/28 77/77/28
f 79/79/28 78/78/28 80/80/28
f 83/83/4 82/82/4 81/81/4
f 17/17/4 81/81/4 82/82/4
f 81/81/3 82/82/3 83/83/3
f 82/82/3 81/81/3 17/17/3
f 86/86/29 85/85/29 84/84/29
f 87/87/29 84/84/29 85/85/29
f 84/84/30 85/85/30 86/86/30
f 85/85/30 84/84/30 87/87/30
f 90/90/31 89/89/31 88/88/31
f 91/91/31 88/88/31 89/89/31
f 88/88/32 89/89/32 90/90/32
f 89/89/32 88/88/32 91/91/32
f 79/79/33 92/92/33 80/80/33
f 93/93/33 80/80/33 92/92/33
f 80/80/34 92/92/34 79/79/34
f 92/92/34 80/80/34 93/93/34
f 96/96/35 95/95/35 94/94/35
f 97/97/35 94/94/35 95/95/35
f 94/94/36 95/95/36 96/96/36
f 95/95/36 94/94/36 97/97/36
f 96/96/37 94/94/37 90/90/37
f 89/89/37 90/90/37 94/94/37
f 90/90/38 94/94/38 96/96/38
f 94/94/38 90/90/38 89/89/38
f 55/55/21 58/58/21 98/98/21
f 99/99/21 98/98/21 58/58/21
f 98/98/22 58/58/22 55/55/22
f 58/58/22 98/98/22 99/99/22
f 101/101/39 100/100/39 42/42/39
f 41/41/39 42/42/39 100/100/39
f 42/42/40 100/100/40 101/101/40
f 100/100/40 42/42/40 41/41/40
f 101/101/41 102/102/41 100/100/41
f 103/103/41 100/100/41 102/102/41
f 100/100/42 102/102/42 101/101/42
f 102/102/42 100/100/42 103/103/42
f 105/105/27 104/104/27 36/36/27
f 35/35/27 36/36/27 104/104/27
f 36/36/28 104/104/28 105/105/28
f 104/104/28 36/36/28 35/35/28
f 65/65/13 64/64/13 32/32/13
f 31/31/13 32/32/13 64/64/13
f 32/32/14 64/64/14 65/65/14
f 64/64/14 32/32/14 31/31/14
f 83/83/43 72/72/43 82/82/43
f 73/73/43 82/82/43 72/72/43
f 82/82/44 72/72/44 83/83/44
f 72/72/44 82/82/44 73/73/44
f 107/107/5 26/26/5 106/106/5
f 27/27/5 106/106/5 26/26/5
f 106/106/6 26/26/6 107/107/6
f 26/26/6 106/106/6 27/27/6
f 109/109/45 108/108/45 11/11/45
f 10/10/45 11/11/45 108/108/45
f 11/11/46 108/108/46 109/109/46
f 108/108/46 11/11/46 10/10/46
f 85/85/47 9/9/47 87/87/47
f 12/12/47 87/87/47 9/9/47
f 87/87/48 9/9/48 85/85/48
f 9/9/48 87/87/48 12/12/48
f 99/99/25 110/110/25 98/98/25
f 111/111/25 98/98/25 110/110/25
f 98/98/26 110/110/26 99/99/26
f 110/110/26 98/98/26 111/111/26
f 112/112/45 24/24/45 107/107/45
f 26/26/45 107/107/45 24/24/45
f 107/107/46 24/24/46 112/112/46
f 24/24/46 107/107/46 26/26/46
f 18/18/49 113/113/49 19/19/49
f 114/114/49 19/19/49 113/113/49
f 19/19/50 113/113/50 18/18/50
f 113/113/50 19/19/50 114/114/50
f 19/19/51 114/114/51 20/20/51
f 115/115/51 20/20/51 114/114/51
f 20/20/52 114/114/52 19/19/52
f 114/114/52 20/20/52 115/115/52
f 117/117/53 116/116/53 4/4/53
f 1/1/53 4/4/53 116/116/53
f 4/4/54 116/116/54 117/117/54
f 116/116/54 4/4/54 1/1/54
f 47/47/44 6/6/44 46/46/44
f 7/7/44 46/46/44 6/6/44
f 46/46/43 6/6/43 47/47/43
f 6/6/43 46/46/43 7/7/43
f 69/69/43 38/38/43 68/68/43
f 39/39/43 68/68/43 38/38/43
f 68/68/44 38/38/44 69/69/44
f 38/38/44 68/68/44 39/39/44
f 104/104/33 66/66/33 35/35/33
f 34/34/33 35/35/33 66/66/33
f 35/35/34 66/66/34 104/104/34
f 66/66/34 35/35/34 34/34/34
f 63/63/29 118/118/29 30/30/29
f 29/29/29 30/30/29 118/118/29
f 30/30/30 118/118/30 63/63/30
f 118/118/30 30/30/30 29/29/30
f 118/118/47 106/106/47 29/29/47
f 27/27/47 29/29/47 106/106/47
f 29/29/48 106/106/48 118/118/48
f 106/106/48 29/29/48 27/27/48
f 95/95/55 119/119/55 97/97/55
f 120/120/55 97/97/55 119/119/55
f 97/97/56 119/119/56 95/95/56
f 119/119/56 97/97/56 120/120/56
f 122/122/57 121/121/57 28/28/57
f 33/33/57 28/28/57 121/121/57
f 28/28/58 121/121/58 122/122/58
f 121/121/58 28/28/58 33/33/58
f 123/123/59 122/122/59 25/25/59
f 28/28/59 25/25/59 122/122/59
f 25/25/60 122/122/60 123/123/60
f 122/122/60 25/25/60 28/28/60
f 124/124/61 123/123/61 23/23/61
f 25/25/61 23/23/61 123/123/61
f 23/23/62 123/123/62 124/124/62
f 123/123/62 23/23/62 25/25/62
f 124/124/63 23/23/63 125/125/63
f 22/22/63 125/125/63 23/23/63
f 125/125/64 23/23/64 124/124/64
f 23/23/64 125/125/64 22/22/64
f 116/116/65 117/117/65 126/126/65
f 127/127/65 126/126/65 117/117/65
f 126/126/66 117/117/66 116/116/66
f 117/117/66 126/126/66 127/127/66
f 126/126/67 127/127/67 128/128/67
f 129/129/67 128/128/67 127/127/67
f 128/128/68 127/127/68 126/126/68
f 127/127/68 128/128/68 129/129/68
f 131/131/69 128/128/69 130/130/69
f 129/129/69 130/130/69 128/128/69
f 130/130/70 128/128/70 131/131/70
f 128/128/70 130/130/70 129/129/70
f 133/133/71 131/131/71 132/132/71
f 130/130/71 132/132/71 131/131/71
f 132/132/72 131/131/72 133/133/72
f 131/131/72 132/132/72 130/130/72
f 134/134/73 125/125/73 21/21/73
f 22/22/73 21/21/73 125/125/73
f 21/21/74 125/125/74 134/134/74
f 125/125/74 21/21/74 22/22/74
f 115/115/75 134/134/75 20/20/75
f 21/21/75 20/20/75 134/134/75
f 20/20/76 134/134/76 115/115/76
f 134/134/76 20/20/76 21/21/76
f 8/8/10 81/81/10 113/113/10
f 114/114/10 113/113/10 81/81/10
f 115/115/10 114/114/10 81/81/10
f 134/134/10 115/115/10 81/81/10
f 125/125/10 134/134/10 81/81/10
f 124/124/10 125/125/10 81/81/10
f 112/112/10 124/124/10 81/81/10
f 123/123/10 124/124/10 112/112/10
f 107/107/10 123/123/10 112/112/10
f 106/106/10 123/123/10 107/107/10
f 122/122/10 123/123/10 106/106/10
f 118/118/10 122/122/10 106/106/10
f 63/63/10 122/122/10 118/118/10
f 64/64/10 122/122/10 63/63/10
f 65/65/10 122/122/10 64/64/10
f 121/121/10 122/122/10 65/65/10
f 66/66/10 121/121/10 65/65/10
f 104/104/10 121/121/10 66/66/10
f 105/105/10 121/121/10 104/104/10
f 113/113/9 81/81/9 8/8/9
f 81/81/9 113/113/9 114/114/9
f 81/81/9 114/114/9 115/115/9
f 81/81/9 115/115/9 134/134/9
f 81/81/9 134/134/9 125/125/9
f 81/81/9 125/125/9 124/124/9
f 81/81/9 124/124/9 112/112/9
f 112/112/9 124/124/9 123/123/9
f 112/112/9 123/123/9 107/107/9
f 107/107/9 123/123/9 106/106/9
f 106/106/9 123/123/9 122/122/9
f 106/106/9 122/122/9 118/118/9
f 118/118/9 122/122/9 63/63/9
f 63/63/9 122/122/9 64/64/9
f 64/64/9 122/122/9 65/65/9
f 65/65/9 122/122/9 121/121/9
f 65/65/9 121/121/9 66/66/9
f 66/66/9 121/121/9 104/104/9
f 104/104/9 121/121/9 105/105/9
f 43/43/23 86/86/23 44/44/23
f 84/84/23 44/44/23 86/86/23
f 44/44/24 86/86/24 43/43/24
f 86/86/24 44/44/24 84/84/24
f 119/119/77 53/53/77 120/120/77
f 54/54/77 120/120/77 53/53/77
f 120/120/78 53/53/78 119/119/78
f 53/53/78 120/120/78 54/54/78
usemtl Default_Material
f 81/81/44 8/8/44 17/17/44
f 5/5/44 17/17/44 8/8/44
f 17/17/79 8/8/79 81/81/79
f 8/8/79 17/17/79 5/5/79
usemtl _Color_I03
f 74/74/80 72/72/80 67/67/80
f 40/40/80 38/38/80 45/45/80
f 8/8/80 6/6/80 81/81/80
f 83/83/80 81/81/80 6/6/80
f 47/47/80 83/83/80 6/6/80
f 72/72/80 83/83/80 47/47/80
f 69/69/80 72/72/80 47/47/80
f 67/67/80 72/72/80 69/69/80
f 38/38/80 69/69/80 47/47/80
f 45/45/80 38/38/80 47/47/80
f 67/67/81 72/72/81 74/74/81
f 45/45/81 38/38/81 40/40/81
f 81/81/81 6/6/81 8/8/81
f 6/6/81 81/81/81 83/83/81
f 6/6/81 83/83/81 47/47/81
f 47/47/81 83/83/81 72/72/81
f 47/47/81 72/72/81 69/69/81
f 69/69/81 72/72/81 67/67/81
f 47/47/81 69/69/81 38/38/81
f 47/47/81 38/38/81 45/45/81
usemtl Default_Material
f 74/74/44 71/71/44 67/67/44
f 70/70/44 67/67/44 71/71/44
f 67/67/79 71/71/79 74/74/79
f 71/71/79 67/67/79 70/70/79
usemtl _Color_I03
f 121/121/10 105/105/10 133/133/10
f 110/110/10 133/133/10 105/105/10
f 131/131/10 133/133/10 110/110/10
f 99/99/10 131/131/10 110/110/10
f 58/58/10 131/131/10 99/99/10
f 56/56/10 131/131/10 58/58/10
f 74/74/10 67/67/10 56/56/10
f 131/131/10 56/56/10 67/67/10
f 128/128/10 131/131/10 67/67/10
f 126/126/10 128/128/10 67/67/10
f 116/116/10 126/126/10 67/67/10
f 1/1/10 116/116/10 67/67/10
f 3/3/10 1/1/10 67/67/10
f 109/109/10 3/3/10 67/67/10
f 42/42/10 3/3/10 109/109/10
f 11/11/10 42/42/10 109/109/10
f 9/9/10 42/42/10 11/11/10
f 85/85/10 42/42/10 9/9/10
f 101/101/10 42/42/10 85/85/10
f 86/86/10 101/101/10 85/85/10
f 43/43/10 101/101/10 86/86/10
f 14/14/10 101/101/10 43/43/10
f 102/102/10 101/101/10 14/14/10
f 15/15/10 102/102/10 14/14/10
f 133/133/9 105/105/9 121/121/9
f 105/105/9 133/133/9 110/110/9
f 110/110/9 133/133/9 131/131/9
f 110/110/9 131/131/9 99/99/9
f 99/99/9 131/131/9 58/58/9
f 58/58/9 131/131/9 56/56/9
f 56/56/9 67/67/9 74/74/9
f 67/67/9 56/56/9 131/131/9
f 67/67/9 131/131/9 128/128/9
f 67/67/9 128/128/9 126/126/9
f 67/67/9 126/126/9 116/116/9
f 67/67/9 116/116/9 1/1/9
f 67/67/9 1/1/9 3/3/9
f 67/67/9 3/3/9 109/109/9
f 109/109/9 3/3/9 42/42/9
f 109/109/9 42/42/9 11/11/9
f 11/11/9 42/42/9 9/9/9
f 9/9/9 42/42/9 85/85/9
f 85/85/9 42/42/9 101/101/9
f 85/85/9 101/101/9 86/86/9
f 86/86/9 101/101/9 43/43/9
f 43/43/9 101/101/9 14/14/9
f 14/14/9 101/101/9 102/102/9
f 14/14/9 102/102/9 15/15/9
f 102/102/80 15/15/80 88/88/80
f 92/92/80 88/88/80 15/15/80
f 79/79/80 88/88/80 92/92/80
f 77/77/80 88/88/80 79/79/80
f 90/90/80 88/88/80 77/77/80
f 62/62/80 90/90/80 77/77/80
f 60/60/80 90/90/80 62/62/80
f 75/75/80 90/90/80 60/60/80
f 40/40/80 45/45/80 75/75/80
f 90/90/80 75/75/80 45/45/80
f 96/96/80 90/90/80 45/45/80
f 95/95/80 96/96/80 45/45/80
f 119/119/80 95/95/80 45/45/80
f 53/53/80 119/119/80 45/45/80
f 49/49/80 53/53/80 45/45/80
f 51/51/80 49/49/80 45/45/80
f 88/88/81 15/15/81 102/102/81
f 15/15/81 88/88/81 92/92/81
f 92/92/81 88/88/81 79/79/81
f 79/79/81 88/88/81 77/77/81
f 77/77/81 88/88/81 90/90/81
f 77/77/81 90/90/81 62/62/81
f 62/62/81 90/90/81 60/60/81
f 60/60/81 90/90/81 75/75/81
f 75/75/81 45/45/81 40/40/81
f 45/45/81 75/75/81 90/90/81
f 45/45/81 90/90/81 96/96/81
f 45/45/81 96/96/81 95/95/81
f 45/45/81 95/95/81 119/119/81
f 45/45/81 119/119/81 53/53/81
f 45/45/81 53/53/81 49/49/81
f 45/45/81 49/49/81 51/51/81
usemtl Default_Material
f 15/15/82 102/102/82 13/13/82
f 103/103/82 13/13/82 102/102/82
f 13/13/83 102/102/83 15/15/83
f 102/102/83 13/13/83 103/103/83
f 105/105/3 121/121/3 36/36/3
f 33/33/3 36/36/3 121/121/3
f 36/36/4 121/121/4 105/105/4
f 121/121/4 36/36/4 33/33/4
f 45/45/44 40/40/44 48/48/44
f 37/37/44 48/48/44 40/40/44
f 48/48/79 40/40/79 45/45/79
f 40/40/79 48/48/79 37/37/79
usemtl _Color_I03
f 110/110/27 105/105/27 111/111/27
f 36/36/27 111/111/27 105/105/27
f 111/111/28 105/105/28 110/110/28
f 105/105/28 111/111/28 36/36/28
f 88/88/41 91/91/41 102/102/41
f 103/103/41 102/102/41 91/91/41
f 102/102/42 91/91/42 88/88/42
f 91/91/42 102/102/42 103/103/42
f 81/81/84 17/17/84 112/112/84
f 24/24/84 112/112/84 17/17/84
f 112/112/82 17/17/82 81/81/82
f 17/17/82 112/112/82 24/24/82
f 71/71/82 74/74/82 57/57/82
f 56/56/82 57/57/82 74/74/82
f 57/57/84 74/74/84 71/71/84
f 74/74/84 57/57/84 56/56/84
f 121/121/57 133/133/57 33/33/57
f 132/132/57 33/33/57 133/133/57
f 33/33/58 133/133/58 121/121/58
f 133/133/58 33/33/58 132/132/58
f 67/67/84 70/70/84 109/109/84
f 108/108/84 109/109/84 70/70/84
f 109/109/82 70/70/82 67/67/82
f 70/70/82 109/109/82 108/108/82
f 45/45/84 48/48/84 51/51/84
f 50/50/84 51/51/84 48/48/84
f 51/51/82 48/48/82 45/45/82
f 48/48/82 51/51/82 50/50/82
f 37/37/82 40/40/82 76/76/82
f 75/75/82 76/76/82 40/40/82
f 76/76/84 40/40/84 37/37/84
f 40/40/84 76/76/84 75/75/84
f 71/71/9 57/57/9 70/70/9
f 130/130/9 70/70/9 57/57/9
f 129/129/9 70/70/9 130/130/9
f 127/127/9 70/70/9 129/129/9
f 117/117/9 70/70/9 127/127/9
f 4/4/9 70/70/9 117/117/9
f 2/2/9 70/70/9 4/4/9
f 108/108/9 70/70/9 2/2/9
f 41/41/9 108/108/9 2/2/9
f 10/10/9 108/108/9 41/41/9
f 12/12/9 10/10/9 41/41/9
f 87/87/9 12/12/9 41/41/9
f 100/100/9 87/87/9 41/41/9
f 84/84/9 87/87/9 100/100/9
f 44/44/9 84/84/9 100/100/9
f 16/16/9 44/44/9 100/100/9
f 103/103/9 16/16/9 100/100/9
f 13/13/9 16/16/9 103/103/9
f 36/36/9 33/33/9 111/111/9
f 132/132/9 111/111/9 33/33/9
f 130/130/9 111/111/9 132/132/9
f 98/98/9 111/111/9 130/130/9
f 55/55/9 98/98/9 130/130/9
f 57/57/9 55/55/9 130/130/9
f 70/70/10 57/57/10 71/71/10
f 57/57/10 70/70/10 130/130/10
f 130/130/10 70/70/10 129/129/10
f 129/129/10 70/70/10 127/127/10
f 127/127/10 70/70/10 117/117/10
f 117/117/10 70/70/10 4/4/10
f 4/4/10 70/70/10 2/2/10
f 2/2/10 70/70/10 108/108/10
f 2/2/10 108/108/10 41/41/10
f 41/41/10 108/108/10 10/10/10
f 41/41/10 10/10/10 12/12/10
f 41/41/10 12/12/10 87/87/10
f 41/41/10 87/87/10 100/100/10
f 100/100/10 87/87/10 84/84/10
f 100/100/10 84/84/10 44/44/10
f 100/100/10 44/44/10 16/16/10
f 100/100/10 16/16/10 103/103/10
f 103/103/10 16/16/10 13/13/10
f 111/111/10 33/33/10 36/36/10
f 33/33/10 111/111/10 132/132/10
f 132/132/10 111/111/10 130/130/10
f 130/130/10 111/111/10 98/98/10
f 130/130/10 98/98/10 55/55/10
f 130/130/10 55/55/10 57/57/10
f 5/5/81 17/17/81 7/7/81
f 82/82/81 7/7/81 17/17/81
f 7/7/81 82/82/81 46/46/81
f 73/73/81 46/46/81 82/82/81
f 71/71/81 46/46/81 73/73/81
f 68/68/81 46/46/81 71/71/81
f 39/39/81 46/46/81 68/68/81
f 37/37/81 46/46/81 39/39/81
f 48/48/81 46/46/81 37/37/81
f 68/68/81 71/71/81 70/70/81
f 7/7/80 17/17/80 5/5/80
f 17/17/80 7/7/80 82/82/80
f 46/46/80 82/82/80 7/7/80
f 82/82/80 46/46/80 73/73/80
f 73/73/80 46/46/80 71/71/80
f 71/71/80 46/46/80 68/68/80
f 68/68/80 46/46/80 39/39/80
f 39/39/80 46/46/80 37/37/80
f 37/37/80 46/46/80 48/48/80
f 70/70/80 71/71/80 68/68/80
f 37/37/81 76/76/81 48/48/81
f 89/89/81 48/48/81 76/76/81
f 94/94/81 48/48/81 89/89/81
f 97/97/81 48/48/81 94/94/81
f 120/120/81 48/48/81 97/97/81
f 54/54/81 48/48/81 120/120/81
f 52/52/81 48/48/81 54/54/81
f 50/50/81 48/48/81 52/52/81
f 13/13/81 103/103/81 93/93/81
f 91/91/81 93/93/81 103/103/81
f 80/80/81 93/93/81 91/91/81
f 78/78/81 80/80/81 91/91/81
f 89/89/81 78/78/81 91/91/81
f 59/59/81 78/78/81 89/89/81
f 61/61/81 59/59/81 89/89/81
f 76/76/81 61/61/81 89/89/81
f 48/48/80 76/76/80 37/37/80
f 76/76/80 48/48/80 89/89/80
f 89/89/80 48/48/80 94/94/80
f 94/94/80 48/48/80 97/97/80
f 97/97/80 48/48/80 120/120/80
f 120/120/80 48/48/80 54/54/80
f 54/54/80 48/48/80 52/52/80
f 52/52/80 48/48/80 50/50/80
f 93/93/80 103/103/80 13/13/80
f 103/103/80 93/93/80 91/91/80
f 91/91/80 93/93/80 80/80/80
f 91/91/80 80/80/80 78/78/80
f 91/91/80 78/78/80 89/89/80
f 89/89/80 78/78/80 59/59/80
f 89/89/80 59/59/80 61/61/80
f 89/89/80 61/61/80 76/76/80
f 92/92/7 15/15/7 93/93/7
f 13/13/7 93/93/7 15/15/7
f 93/93/8 15/15/8 92/92/8
f 15/15/8 93/93/8 13/13/8
f 5/5/82 8/8/82 18/18/82
f 113/113/82 18/18/82 8/8/82
f 18/18/84 8/8/84 5/5/84
f 8/8/84 18/18/84 113/113/84