#Exported from google sketchup
mtllib B_p1.mtl
v  -3.2431  -9.5946   4.2576
v   2.7569  -9.5946  -3.6678
v  -3.2431  -9.5946  -3.6678
v   2.7569  -9.5946   4.2576
v   2.7569   6.3087   2.7868
v  -3.2431   6.3087   1.8763
v  -3.2431   6.3087   2.7868
v   2.7569   6.3087   1.8763
v   2.7569  11.2054  -3.6678
v  -3.2431  11.2054   2.7868
v  -3.2431  11.2054  -3.6678
v   2.7569  11.2054   2.7868
v   2.7569   3.1087   1.8763
v  -3.2431   3.1087   4.1161
v  -3.2431   3.1087   1.8763
v   2.7569   3.1087   4.1161
v   2.7569  -1.4612   4.1161
v  -3.2431  -1.4612   2.0170
v  -3.2431  -1.4612   4.1161
v   2.7569  -1.4612   2.0170
v  -3.2431  -4.6612   2.0170
v   2.7569  -4.6612   4.2576
v  -3.2431  -4.6612   4.2576
v   2.7569  -4.6612   2.0170
#  24 elements
vt   0.0000   0.0000 0.0000
vt   0.0000   0.0000 0.0000
vt   0.0000   0.0000 0.0000
vt   0.0000   0.0000 0.0000
vt   0.0000   0.0000 0.0000
vt   0.0000   0.0000 0.0000
vt   0.0000   0.0000 0.0000
vt   0.0000   0.0000 0.0000
vt   0.0000   0.0000 0.0000
vt   0.0000   0.0000 0.0000
vt   0.0000   0.0000 0.0000
vt   0.0000   0.0000 0.0000
vt   0.0000   0.0000 0.0000
vt   0.0000   0.0000 0.0000
vt   0.0000   0.0000 0.0000
vt   0.0000   0.0000 0.0000
vt   0.0000   0.0000 0.0000
vt   0.0000   0.0000 0.0000
vt   0.0000   0.0000 0.0000
vt   0.0000   0.0000 0.0000
vt   0.0000   0.0000 0.0000
vt   0.0000   0.0000 0.0000
vt   0.0000   0.0000 0.0000
vt   0.0000   0.0000 0.0000
#  24 elements
vn  -0.0000  -1.0000  -0.0000
vn   0.0000   1.0000   0.0000
vn  -0.0000  -0.0000   1.0000
vn   0.0000   0.0000  -1.0000
vn  -0.0000  -0.0000  -1.0000
vn   0.0000   0.0000   1.0000
vn  -0.0000   0.0000   1.0000
vn   0.0000  -0.0000  -1.0000
vn   1.0000   0.0000   0.0000
vn  -1.0000  -0.0000  -0.0000
vn  -1.0000  -0.0000   0.0000
vn   1.0000   0.0000  -0.0000
#  12 elements
#  88 faces
usemtl _Color_I03
f 3/3/1 2/2/1 1/1/1
f 4/4/1 1/1/1 2/2/1
f 1/1/2 2/2/2 3/3/2
f 2/2/2 1/1/2 4/4/2
f 7/7/1 6/6/1 5/5/1
f 8/8/1 5/5/1 6/6/1
f 5/5/2 6/6/2 7/7/2
f 6/6/2 5/5/2 8/8/2
f 11/11/2 10/10/2 9/9/2
f 12/12/2 9/9/2 10/10/2
f 9/9/1 10/10/1 11/11/1
f 10/10/1 9/9/1 12/12/1
f 15/15/2 14/14/2 13/13/2
f 16/16/2 13/13/2 14/14/2
f 13/13/1 14/14/1 15/15/1
f 14/14/1 13/13/1 16/16/1
f 19/19/1 18/18/1 17/17/1
f 20/20/1 17/17/1 18/18/1
f 17/17/2 18/18/2 19/19/2
f 18/18/2 17/17/2 20/20/2
f 23/23/2 22/22/2 21/21/2
f 24/24/2 21/21/2 22/22/2
f 21/21/1 22/22/1 23/23/1
f 22/22/1 21/21/1 24/24/1
f 24/24/3 20/20/3 21/21/3
f 18/18/3 21/21/3 20/20/3
f 21/21/4 20/20/4 24/24/4
f 20/20/4 21/21/4 18/18/4
f 2/2/5 3/3/5 9/9/5
f 11/11/5 9/9/5 3/3/5
f 9/9/6 3/3/6 2/2/6
f 3/3/6 9/9/6 11/11/6
f 15/15/7 13/13/7 6/6/7
f 8/8/7 6/6/7 13/13/7
f 6/6/8 13/13/8 15/15/8
f 13/13/8 6/6/8 8/8/8
usemtl Default_Material
f 17/17/4 19/19/4 16/16/4
f 14/14/4 16/16/4 19/19/4
f 16/16/3 19/19/3 17/17/3
f 19/19/3 16/16/3 14/14/3
usemtl _Color_I03
f 9/9/9 12/12/9 2/2/9
f 8/8/9 2/2/9 12/12/9
f 13/13/9 2/2/9 8/8/9
f 5/5/9 8/8/9 12/12/9
f 13/13/9 24/24/9 2/2/9
f 4/4/9 2/2/9 24/24/9
f 20/20/9 24/24/9 13/13/9
f 22/22/9 4/4/9 24/24/9
f 13/13/9 16/16/9 20/20/9
f 17/17/9 20/20/9 16/16/9
f 2/2/10 12/12/10 9/9/10
f 12/12/10 2/2/10 8/8/10
f 8/8/10 2/2/10 13/13/10
f 12/12/10 8/8/10 5/5/10
f 2/2/10 24/24/10 13/13/10
f 24/24/10 2/2/10 4/4/10
f 13/13/10 24/24/10 20/20/10
f 24/24/10 4/4/10 22/22/10
f 20/20/10 16/16/10 13/13/10
f 16/16/10 20/20/10 17/17/10
usemtl Default_Material
f 4/4/8 1/1/8 22/22/8
f 23/23/8 22/22/8 1/1/8
f 22/22/7 1/1/7 4/4/7
f 1/1/7 22/22/7 23/23/7
f 5/5/8 7/7/8 12/12/8
f 10/10/8 12/12/8 7/7/8
f 12/12/7 7/7/7 5/5/7
f 7/7/7 12/12/7 10/10/7
usemtl _Color_I03
f 11/11/11 3/3/11 10/10/11
f 6/6/11 10/10/11 3/3/11
f 7/7/11 10/10/11 6/6/11
f 21/21/11 18/18/11 15/15/11
f 14/14/11 15/15/11 18/18/11
f 19/19/11 14/14/11 18/18/11
f 1/1/11 21/21/11 3/3/11
f 15/15/11 3/3/11 21/21/11
f 6/6/11 3/3/11 15/15/11
f 23/23/11 21/21/11 1/1/11
f 10/10/12 3/3/12 11/11/12
f 3/3/12 10/10/12 6/6/12
f 6/6/12 10/10/12 7/7/12
f 15/15/12 18/18/12 21/21/12
f 18/18/12 15/15/12 14/14/12
f 18/18/12 14/14/12 19/19/12
f 3/3/12 21/21/12 1/1/12
f 21/21/12 3/3/12 15/15/12
f 15/15/12 3/3/12 6/6/12
f 1/1/12 21/21/12 23/23/12