#Exported from google sketchup
mtllib B_p2.mtl
v   4.1586   2.1989   2.9183
v   4.1472  -2.6978  -3.0816
v   4.1472   2.1989  -3.0816
v   4.1586  -2.6978   2.9183
v  -4.1583   3.7842   2.9342
v   1.0592   3.7842  -3.0758
v  -4.1697   3.7842  -3.0658
v   1.0707   3.7842   2.9242
v   2.2691   2.1989   2.9219
v   2.2577   2.1989  -3.0781
v  -0.9868  -2.6978   2.9281
v  -0.9982  -2.6978  -3.0719
v   1.2201   3.1057   2.9239
v   1.0959   3.4442  -3.0758
v   1.2087   3.1057  -3.0761
v   1.1073   3.4442   2.9242
v   1.9392   2.3349   2.9226
v   1.9278   2.3349  -3.0774
v  -4.2936   2.9970  -3.0656
v  -4.2821   2.9970   2.9344
v  -1.8439  -2.1890   2.9298
v  -1.8553  -2.1890  -3.0702
v  -2.6024  -1.5425   2.9312
v  -2.6138  -1.5425  -3.0688
v  -4.2795   2.0004  -3.0656
v  -4.0855   1.0206   2.9340
v  -4.0969   1.0206  -3.0659
v  -4.2681   2.0004   2.9344
v  -3.7510   0.0859  -3.0666
v  -3.2404  -0.7768   2.9324
v  -3.2518  -0.7768  -3.0676
v  -3.7396   0.0859   2.9334
v   1.6458   2.5380   2.9231
v   1.4024   2.7989   2.9236
v   1.6344   2.5380  -3.0769
v   1.3910   2.7989  -3.0764
#  36 elements
vt   0.0000   0.0000 0.0000
vt   0.0000   0.0000 0.0000
vt   0.0000   0.0000 0.0000
vt   0.0000   0.0000 0.0000
vt   0.0000   0.0000 0.0000
vt   0.0000   0.0000 0.0000
vt   0.0000   0.0000 0.0000
vt   0.0000   0.0000 0.0000
vt   0.0000   0.0000 0.0000
vt   0.0000   0.0000 0.0000
vt   0.0000   0.0000 0.0000
vt   0.0000   0.0000 0.0000
vt   0.0000   0.0000 0.0000
vt   0.0000   0.0000 0.0000
vt   0.0000   0.0000 0.0000
vt   0.0000   0.0000 0.0000
vt   0.0000   0.0000 0.0000
vt   0.0000   0.0000 0.0000
vt   0.0000   0.0000 0.0000
vt   0.0000   0.0000 0.0000
vt   0.0000   0.0000 0.0000
vt   0.0000   0.0000 0.0000
vt   0.0000   0.0000 0.0000
vt   0.0000   0.0000 0.0000
vt   0.0000   0.0000 0.0000
vt   0.0000   0.0000 0.0000
vt   0.0000   0.0000 0.0000
vt   0.0000   0.0000 0.0000
vt   0.0000   0.0000 0.0000
vt   0.0000   0.0000 0.0000
vt   0.0000   0.0000 0.0000
vt   0.0000   0.0000 0.0000
vt   0.0000   0.0000 0.0000
vt   0.0000   0.0000 0.0000
vt   0.0000   0.0000 0.0000
vt   0.0000   0.0000 0.0000
#  36 elements
vn  -1.0000  -0.0000   0.0019
vn   1.0000   0.0000  -0.0019
vn  -0.0000  -1.0000   0.0000
vn   0.0000   1.0000  -0.0000
vn  -0.0000   1.0000  -0.0000
vn   0.0000  -1.0000   0.0000
vn   0.0000  -1.0000  -0.0000
vn  -0.0000   1.0000   0.0000
vn   0.9487   0.3162  -0.0018
vn  -0.9487  -0.3162   0.0018
vn   0.3812   0.9245  -0.0007
vn  -0.3812  -0.9245   0.0007
vn   0.9943   0.1070  -0.0019
vn  -0.9943  -0.1070   0.0019
vn  -0.9878   0.1554   0.0019
vn   0.9878  -0.1554  -0.0019
vn  -0.5105  -0.8599   0.0010
vn   0.5105   0.8599  -0.0010
vn  -0.6487  -0.7610   0.0012
vn   0.6487   0.7610  -0.0012
vn  -0.9831  -0.1832   0.0019
vn   0.9831   0.1832  -0.0019
vn  -0.8655  -0.5008   0.0016
vn   0.8655   0.5008  -0.0016
vn  -0.9378  -0.3470   0.0018
vn   0.9378   0.3470  -0.0018
vn  -0.9999  -0.0141   0.0019
vn   0.9999   0.0141  -0.0019
vn  -0.7682  -0.6402   0.0015
vn   0.7682   0.6402  -0.0015
vn   0.0019  -0.0000   1.0000
vn  -0.0019   0.0000  -1.0000
vn  -0.0019  -0.0000  -1.0000
vn   0.0019   0.0000   1.0000
vn   0.8596   0.5109  -0.0016
vn  -0.8596  -0.5109   0.0016
vn   0.7312   0.6822  -0.0014
vn  -0.7312  -0.6822   0.0014
vn   0.5692   0.8222  -0.0011
vn  -0.5692  -0.8222   0.0011
#  40 elements
#  136 faces
usemtl Default_Material
f 3/3/1 2/2/1 1/1/1
f 4/4/1 1/1/1 2/2/1
f 1/1/2 2/2/2 3/3/2
f 2/2/2 1/1/2 4/4/2
f 7/7/3 6/6/3 5/5/3
f 8/8/3 5/5/3 6/6/3
f 5/5/4 6/6/4 7/7/4
f 6/6/4 5/5/4 8/8/4
usemtl _Color_I03
f 10/10/5 9/9/5 3/3/5
f 1/1/5 3/3/5 9/9/5
f 3/3/6 9/9/6 10/10/6
f 9/9/6 3/3/6 1/1/6
f 12/12/7 2/2/7 11/11/7
f 4/4/7 11/11/7 2/2/7
f 11/11/8 2/2/8 12/12/8
f 2/2/8 11/11/8 4/4/8
f 15/15/9 14/14/9 13/13/9
f 16/16/9 13/13/9 14/14/9
f 13/13/10 14/14/10 15/15/10
f 14/14/10 13/13/10 16/16/10
f 18/18/11 17/17/11 10/10/11
f 9/9/11 10/10/11 17/17/11
f 10/10/12 17/17/12 18/18/12
f 17/17/12 10/10/12 9/9/12
f 14/14/13 6/6/13 16/16/13
f 8/8/13 16/16/13 6/6/13
f 16/16/14 6/6/14 14/14/14
f 6/6/14 16/16/14 8/8/14
f 7/7/15 19/19/15 5/5/15
f 20/20/15 5/5/15 19/19/15
f 5/5/16 19/19/16 7/7/16
f 19/19/16 5/5/16 20/20/16
f 22/22/17 12/12/17 21/21/17
f 11/11/17 21/21/17 12/12/17
f 21/21/18 12/12/18 22/22/18
f 12/12/18 21/21/18 11/11/18
f 24/24/19 22/22/19 23/23/19
f 21/21/19 23/23/19 22/22/19
f 23/23/20 22/22/20 24/24/20
f 22/22/20 23/23/20 21/21/20
f 27/27/21 26/26/21 25/25/21
f 28/28/21 25/25/21 26/26/21
f 25/25/22 26/26/22 27/27/22
f 26/26/22 25/25/22 28/28/22
f 31/31/23 30/30/23 29/29/23
f 32/32/23 29/29/23 30/30/23
f 29/29/24 30/30/24 31/31/24
f 30/30/24 29/29/24 32/32/24
f 29/29/25 32/32/25 27/27/25
f 26/26/25 27/27/25 32/32/25
f 27/27/26 32/32/26 29/29/26
f 32/32/26 27/27/26 26/26/26
f 25/25/27 28/28/27 19/19/27
f 20/20/27 19/19/27 28/28/27
f 19/19/28 28/28/28 25/25/28
f 28/28/28 19/19/28 20/20/28
f 24/24/29 23/23/29 31/31/29
f 30/30/29 31/31/29 23/23/29
f 31/31/30 23/23/30 24/24/30
f 23/23/30 31/31/30 30/30/30
f 28/28/31 9/9/31 20/20/31
f 17/17/31 20/20/31 9/9/31
f 33/33/31 20/20/31 17/17/31
f 34/34/31 20/20/31 33/33/31
f 13/13/31 20/20/31 34/34/31
f 5/5/31 20/20/31 13/13/31
f 16/16/31 5/5/31 13/13/31
f 8/8/31 5/5/31 16/16/31
f 11/11/31 4/4/31 21/21/31
f 1/1/31 21/21/31 4/4/31
f 23/23/31 21/21/31 1/1/31
f 30/30/31 23/23/31 1/1/31
f 32/32/31 30/30/31 1/1/31
f 26/26/31 32/32/31 1/1/31
f 28/28/31 26/26/31 1/1/31
f 9/9/31 28/28/31 1/1/31
f 20/20/32 9/9/32 28/28/32
f 9/9/32 20/20/32 17/17/32
f 17/17/32 20/20/32 33/33/32
f 33/33/32 20/20/32 34/34/32
f 34/34/32 20/20/32 13/13/32
f 13/13/32 20/20/32 5/5/32
f 13/13/32 5/5/32 16/16/32
f 16/16/32 5/5/32 8/8/32
f 21/21/32 4/4/32 11/11/32
f 4/4/32 21/21/32 1/1/32
f 1/1/32 21/21/32 23/23/32
f 1/1/32 23/23/32 30/30/32
f 1/1/32 30/30/32 32/32/32
f 1/1/32 32/32/32 26/26/32
f 1/1/32 26/26/32 28/28/32
f 1/1/32 28/28/32 9/9/32
f 12/12/33 22/22/33 2/2/33
f 3/3/33 2/2/33 22/22/33
f 24/24/33 3/3/33 22/22/33
f 31/31/33 3/3/33 24/24/33
f 29/29/33 3/3/33 31/31/33
f 27/27/33 3/3/33 29/29/33
f 25/25/33 3/3/33 27/27/33
f 10/10/33 3/3/33 25/25/33
f 25/25/33 19/19/33 10/10/33
f 18/18/33 10/10/33 19/19/33
f 35/35/33 18/18/33 19/19/33
f 36/36/33 35/35/33 19/19/33
f 15/15/33 36/36/33 19/19/33
f 7/7/33 15/15/33 19/19/33
f 14/14/33 15/15/33 7/7/33
f 6/6/33 14/14/33 7/7/33
f 2/2/34 22/22/34 12/12/34
f 22/22/34 2/2/34 3/3/34
f 22/22/34 3/3/34 24/24/34
f 24/24/34 3/3/34 31/31/34
f 31/31/34 3/3/34 29/29/34
f 29/29/34 3/3/34 27/27/34
f 27/27/34 3/3/34 25/25/34
f 25/25/34 3/3/34 10/10/34
f 10/10/34 19/19/34 25/25/34
f 19/19/34 10/10/34 18/18/34
f 19/19/34 18/18/34 35/35/34
f 19/19/34 35/35/34 36/36/34
f 19/19/34 36/36/34 15/15/34
f 19/19/34 15/15/34 7/7/34
f 7/7/34 15/15/34 14/14/34
f 7/7/34 14/14/34 6/6/34
f 36/36/35 15/15/35 34/34/35
f 13/13/35 34/34/35 15/15/35
f 34/34/36 15/15/36 36/36/36
f 15/15/36 34/34/36 13/13/36
f 35/35/37 36/36/37 33/33/37
f 34/34/37 33/33/37 36/36/37
f 33/33/38 36/36/38 35/35/38
f 36/36/38 33/33/38 34/34/38
f 35/35/39 33/33/39 18/18/39
f 17/17/39 18/18/39 33/33/39
f 18/18/40 33/33/40 35/35/40
f 33/33/40 18/18/40 17/17/40