#Exported from google sketchup
mtllib B_p3.mtl
v  -3.9531   1.7158   3.0245
v  -0.2785  -3.2176   3.0245
v  -3.9531  -3.2176   3.0245
v   0.7773  -2.7598   3.0245
v   1.7246  -2.1064   3.0245
v   2.5277  -1.2821   3.0245
v   3.1561  -0.3180   3.0245
v   3.5862   0.7494   3.0245
v  -3.3937   1.7158   3.0245
v   3.8016   1.8798   3.0245
v  -3.0639   1.8518   3.0245
v  -2.7705   2.0549   3.0245
v   3.7944   3.0306   3.0245
v  -2.5271   2.3158   3.0245
v  -2.3448   2.6225   3.0245
v  -2.2319   2.9610   3.0245
v  -2.1937   3.3158   3.0245
v   3.5723   4.1203   3.0245
v  -2.2319   3.6706   3.0245
v  -2.3448   4.0091   3.0245
v  -2.4109   4.1203   3.0245
v   3.8016   1.8798  -2.9755
v   3.5862   0.7494  -2.9755
v  -0.2785  -3.2176  -2.9755
v   0.7773  -2.7598  -2.9755
v   3.1561  -0.3180  -2.9755
v  -2.2319   3.6706  -2.9755
v  -2.3448   4.0091  -2.9755
v   2.5277  -1.2821  -2.9755
v  -3.9531  -3.2176  -2.9755
v  -2.7705   2.0549  -2.9755
v  -3.0639   1.8518  -2.9755
v  -3.3937   1.7158  -2.9755
v  -3.9531   1.7158  -2.9755
v   1.7246  -2.1064  -2.9755
v   3.7944   3.0306  -2.9755
v  -2.5271   2.3158  -2.9755
v  -2.3448   2.6225  -2.9755
v  -2.2319   2.9610  -2.9755
v  -2.1937   3.3158  -2.9755
v   3.5723   4.1203  -2.9755
v  -2.4109   4.1203  -2.9755
#  42 elements
vt   0.0000   0.0000 0.0000
vt   0.0000   0.0000 0.0000
vt   0.0000   0.0000 0.0000
vt   0.0000   0.0000 0.0000
vt   0.0000   0.0000 0.0000
vt   0.0000   0.0000 0.0000
vt   0.0000   0.0000 0.0000
vt   0.0000   0.0000 0.0000
vt   0.0000   0.0000 0.0000
vt   0.0000   0.0000 0.0000
vt   0.0000   0.0000 0.0000
vt   0.0000   0.0000 0.0000
vt   0.0000   0.0000 0.0000
vt   0.0000   0.0000 0.0000
vt   0.0000   0.0000 0.0000
vt   0.0000   0.0000 0.0000
vt   0.0000   0.0000 0.0000
vt   0.0000   0.0000 0.0000
vt   0.0000   0.0000 0.0000
vt   0.0000   0.0000 0.0000
vt   0.0000   0.0000 0.0000
vt   0.0000   0.0000 0.0000
vt   0.0000   0.0000 0.0000
vt   0.0000   0.0000 0.0000
vt   0.0000   0.0000 0.0000
vt   0.0000   0.0000 0.0000
vt   0.0000   0.0000 0.0000
vt   0.0000   0.0000 0.0000
vt   0.0000   0.0000 0.0000
vt   0.0000   0.0000 0.0000
vt   0.0000   0.0000 0.0000
vt   0.0000   0.0000 0.0000
vt   0.0000   0.0000 0.0000
vt   0.0000   0.0000 0.0000
vt   0.0000   0.0000 0.0000
vt   0.0000   0.0000 0.0000
vt   0.0000   0.0000 0.0000
vt   0.0000   0.0000 0.0000
vt   0.0000   0.0000 0.0000
vt   0.0000   0.0000 0.0000
vt   0.0000   0.0000 0.0000
vt   0.0000   0.0000 0.0000
#  42 elements
vn  -0.0000   0.0000   1.0000
vn   0.0000  -0.0000  -1.0000
vn   0.9823  -0.1872   0.0000
vn  -0.9823   0.1872  -0.0000
vn   0.3978  -0.9175   0.0000
vn  -0.3978   0.9175   0.0000
vn   0.9275  -0.3737   0.0000
vn  -0.9275   0.3737  -0.0000
vn  -0.9487  -0.3162  -0.0000
vn   0.9487   0.3162   0.0000
vn   0.8377  -0.5461   0.0000
vn  -0.8377   0.5461   0.0000
vn   0.0000  -1.0000   0.0000
vn  -0.0000   1.0000  -0.0000
vn  -0.5692   0.8222  -0.0000
vn   0.5692  -0.8222   0.0000
vn   0.9799   0.1996  -0.0000
vn  -0.9799  -0.1996   0.0000
vn   1.0000   0.0000   0.0000
vn  -1.0000   0.0000   0.0000
vn   0.0000   1.0000   0.0000
vn  -0.8596  -0.5109   0.0000
vn   0.8596   0.5109  -0.0000
vn   0.5678  -0.8232   0.0000
vn  -0.5678   0.8232   0.0000
vn   0.7163  -0.6978   0.0000
vn  -0.7163   0.6978  -0.0000
vn  -0.9487   0.3162  -0.0000
vn   0.9487  -0.3162   0.0000
vn   1.0000   0.0063  -0.0000
vn  -1.0000  -0.0063   0.0000
vn  -0.9943  -0.1070   0.0000
vn   0.9943   0.1070   0.0000
vn  -0.9943   0.1070  -0.0000
vn   0.9943  -0.1070   0.0000
vn  -0.8596   0.5109  -0.0000
vn   0.8596  -0.5109   0.0000
vn  -0.7312   0.6822  -0.0000
vn   0.7312  -0.6822   0.0000
vn  -0.3812   0.9245  -0.0000
vn   0.3812  -0.9245   0.0000
#  41 elements
#  160 faces
usemtl _Color_I03
f 3/3/1 2/2/1 1/1/1
f 4/4/1 1/1/1 2/2/1
f 5/5/1 1/1/1 4/4/1
f 6/6/1 1/1/1 5/5/1
f 7/7/1 1/1/1 6/6/1
f 8/8/1 1/1/1 7/7/1
f 9/9/1 1/1/1 8/8/1
f 10/10/1 9/9/1 8/8/1
f 11/11/1 9/9/1 10/10/1
f 12/12/1 11/11/1 10/10/1
f 13/13/1 12/12/1 10/10/1
f 14/14/1 12/12/1 13/13/1
f 15/15/1 14/14/1 13/13/1
f 16/16/1 15/15/1 13/13/1
f 17/17/1 16/16/1 13/13/1
f 18/18/1 17/17/1 13/13/1
f 19/19/1 17/17/1 18/18/1
f 20/20/1 19/19/1 18/18/1
f 21/21/1 20/20/1 18/18/1
f 1/1/2 2/2/2 3/3/2
f 2/2/2 1/1/2 4/4/2
f 4/4/2 1/1/2 5/5/2
f 5/5/2 1/1/2 6/6/2
f 6/6/2 1/1/2 7/7/2
f 7/7/2 1/1/2 8/8/2
f 8/8/2 1/1/2 9/9/2
f 8/8/2 9/9/2 10/10/2
f 10/10/2 9/9/2 11/11/2
f 10/10/2 11/11/2 12/12/2
f 10/10/2 12/12/2 13/13/2
f 13/13/2 12/12/2 14/14/2
f 13/13/2 14/14/2 15/15/2
f 13/13/2 15/15/2 16/16/2
f 13/13/2 16/16/2 17/17/2
f 13/13/2 17/17/2 18/18/2
f 18/18/2 17/17/2 19/19/2
f 18/18/2 19/19/2 20/20/2
f 18/18/2 20/20/2 21/21/2
f 23/23/3 22/22/3 8/8/3
f 10/10/3 8/8/3 22/22/3
f 8/8/4 22/22/4 23/23/4
f 22/22/4 8/8/4 10/10/4
f 2/2/5 24/24/5 4/4/5
f 25/25/5 4/4/5 24/24/5
f 4/4/6 24/24/6 2/2/6
f 24/24/6 4/4/6 25/25/6
f 23/23/7 8/8/7 26/26/7
f 7/7/7 26/26/7 8/8/7
f 26/26/8 8/8/8 23/23/8
f 8/8/8 26/26/8 7/7/8
f 28/28/9 27/27/9 20/20/9
f 19/19/9 20/20/9 27/27/9
f 20/20/10 27/27/10 28/28/10
f 27/27/10 20/20/10 19/19/10
f 29/29/11 26/26/11 6/6/11
f 7/7/11 6/6/11 26/26/11
f 6/6/12 26/26/12 29/29/12
f 26/26/12 6/6/12 7/7/12
f 3/3/13 30/30/13 2/2/13
f 24/24/13 2/2/13 30/30/13
f 2/2/14 30/30/14 3/3/14
f 30/30/14 2/2/14 24/24/14
f 32/32/15 11/11/15 31/31/15
f 12/12/15 31/31/15 11/11/15
f 31/31/16 11/11/16 32/32/16
f 11/11/16 31/31/16 12/12/16
f 34/34/14 1/1/14 33/33/14
f 9/9/14 33/33/14 1/1/14
f 33/33/13 1/1/13 34/34/13
f 1/1/13 33/33/13 9/9/13
f 30/30/2 34/34/2 24/24/2
f 25/25/2 24/24/2 34/34/2
f 35/35/2 25/25/2 34/34/2
f 29/29/2 35/35/2 34/34/2
f 26/26/2 29/29/2 34/34/2
f 23/23/2 26/26/2 34/34/2
f 33/33/2 23/23/2 34/34/2
f 22/22/2 23/23/2 33/33/2
f 32/32/2 22/22/2 33/33/2
f 31/31/2 22/22/2 32/32/2
f 36/36/2 22/22/2 31/31/2
f 37/37/2 36/36/2 31/31/2
f 38/38/2 36/36/2 37/37/2
f 39/39/2 36/36/2 38/38/2
f 40/40/2 36/36/2 39/39/2
f 41/41/2 36/36/2 40/40/2
f 27/27/2 41/41/2 40/40/2
f 28/28/2 41/41/2 27/27/2
f 42/42/2 41/41/2 28/28/2
f 24/24/1 34/34/1 30/30/1
f 34/34/1 24/24/1 25/25/1
f 34/34/1 25/25/1 35/35/1
f 34/34/1 35/35/1 29/29/1
f 34/34/1 29/29/1 26/26/1
f 34/34/1 26/26/1 23/23/1
f 34/34/1 23/23/1 33/33/1
f 33/33/1 23/23/1 22/22/1
f 33/33/1 22/22/1 32/32/1
f 32/32/1 22/22/1 31/31/1
f 31/31/1 22/22/1 36/36/1
f 31/31/1 36/36/1 37/37/1
f 37/37/1 36/36/1 38/38/1
f 38/38/1 36/36/1 39/39/1
f 39/39/1 36/36/1 40/40/1
f 40/40/1 36/36/1 41/41/1
f 40/40/1 41/41/1 27/27/1
f 27/27/1 41/41/1 28/28/1
f 28/28/1 41/41/1 42/42/1
f 36/36/17 41/41/17 13/13/17
f 18/18/17 13/13/17 41/41/17
f 13/13/18 41/41/18 36/36/18
f 41/41/18 13/13/18 18/18/18
usemtl Default_Material
f 34/34/19 1/1/19 30/30/19
f 3/3/19 30/30/19 1/1/19
f 30/30/20 1/1/20 34/34/20
f 1/1/20 30/30/20 3/3/20
f 42/42/13 41/41/13 21/21/13
f 18/18/13 21/21/13 41/41/13
f 21/21/21 41/41/21 42/42/21
f 41/41/21 21/21/21 18/18/21
usemtl _Color_I03
f 42/42/22 28/28/22 21/21/22
f 20/20/22 21/21/22 28/28/22
f 21/21/23 28/28/23 42/42/23
f 28/28/23 21/21/23 20/20/23
f 4/4/24 25/25/24 5/5/24
f 35/35/24 5/5/24 25/25/24
f 5/5/25 25/25/25 4/4/25
f 25/25/25 5/5/25 35/35/25
f 35/35/26 29/29/26 5/5/26
f 6/6/26 5/5/26 29/29/26
f 5/5/27 29/29/27 35/35/27
f 29/29/27 5/5/27 6/6/27
f 39/39/28 38/38/28 16/16/28
f 15/15/28 16/16/28 38/38/28
f 16/16/29 38/38/29 39/39/29
f 38/38/29 16/16/29 15/15/29
f 22/22/30 36/36/30 10/10/30
f 13/13/30 10/10/30 36/36/30
f 10/10/31 36/36/31 22/22/31
f 36/36/31 10/10/31 13/13/31
f 27/27/32 40/40/32 19/19/32
f 17/17/32 19/19/32 40/40/32
f 19/19/33 40/40/33 27/27/33
f 40/40/33 19/19/33 17/17/33
f 40/40/34 39/39/34 17/17/34
f 16/16/34 17/17/34 39/39/34
f 17/17/35 39/39/35 40/40/35
f 39/39/35 17/17/35 16/16/35
f 38/38/36 37/37/36 15/15/36
f 14/14/36 15/15/36 37/37/36
f 15/15/37 37/37/37 38/38/37
f 37/37/37 15/15/37 14/14/37
f 37/37/38 31/31/38 14/14/38
f 12/12/38 14/14/38 31/31/38
f 14/14/39 31/31/39 37/37/39
f 31/31/39 14/14/39 12/12/39
f 33/33/40 9/9/40 32/32/40
f 11/11/40 32/32/40 9/9/40
f 32/32/41 9/9/41 33/33/41
f 9/9/41 32/32/41 11/11/41