#Exported from google sketchup
mtllib B_p4.mtl
v   2.9820  -3.6870   3.8706
v   2.4444  -2.7429  -2.1138
v   2.7636  -3.6870  -2.1254
v   2.6628  -2.7429   3.8823
v   1.9701  -1.8666  -2.0965
v   2.1884  -1.8666   3.8995
v   1.3542  -1.0832  -2.0741
v   1.5726  -1.0832   3.9219
v  -3.4101  -2.2697   4.1034
v  -3.2988  -2.4057  -1.9047
v  -3.6284  -2.2697  -1.8927
v  -3.0804  -2.4057   4.0914
v  -3.0056  -2.6088  -1.9153
v  -2.5440  -2.8697   4.0718
v  -2.7623  -2.8697  -1.9242
v  -2.7873  -2.6088   4.0807
v  -2.3618  -3.1764   4.0652
v  -2.5801  -3.1764  -1.9308
v  -2.4674  -3.5149  -1.9349
v  -2.2109  -3.8697   4.0597
v  -2.4292  -3.8697  -1.9363
v  -2.2491  -3.5149   4.0611
v  -2.4308  -3.8844  -1.9363
v  -2.2125  -3.8844   4.0598
v   3.0130  -3.8844   3.8695
v   2.7947  -3.8844  -2.1265
v  -4.1882  -2.2697  -1.8723
v  -3.9699   2.3002   4.1238
v  -4.1882   2.3002  -1.8723
v  -3.9699  -2.2697   4.1238
v  -3.1582   2.4362  -1.9098
v  -3.2695   2.3002   4.0983
v  -3.4879   2.3002  -1.8978
v  -2.9399   2.4362   4.0863
v   0.8331  -0.4155   3.9489
v   1.7879   0.2258   3.9141
v   2.6008   1.0399   3.8845
v   3.2410   1.9959   3.8612
v   3.6842   3.0578   3.8451
v  -2.6467   2.6393   4.0756
v  -2.4034   2.9002   4.0667
v  -2.2873   3.0957   4.0625
v   3.6919   3.0957   3.8448
v  -2.8650   2.6393  -1.9204
v  -2.6218   2.9002  -1.9293
v  -2.5056   3.0957  -1.9335
v   3.4659   3.0578  -2.1510
v   3.4736   3.0957  -2.1512
v   0.6147  -0.4155  -2.0472
v   1.5696   0.2258  -2.0819
v   2.3825   1.0399  -2.1115
v   3.0226   1.9959  -2.1348
#  52 elements
vt   0.0000   0.0000 0.0000
vt   0.0000   0.0000 0.0000
vt   0.0000   0.0000 0.0000
vt   0.0000   0.0000 0.0000
vt   0.0000   0.0000 0.0000
vt   0.0000   0.0000 0.0000
vt   0.0000   0.0000 0.0000
vt   0.0000   0.0000 0.0000
vt   0.0000   0.0000 0.0000
vt   0.0000   0.0000 0.0000
vt   0.0000   0.0000 0.0000
vt   0.0000   0.0000 0.0000
vt   0.0000   0.0000 0.0000
vt   0.0000   0.0000 0.0000
vt   0.0000   0.0000 0.0000
vt   0.0000   0.0000 0.0000
vt   0.0000   0.0000 0.0000
vt   0.0000   0.0000 0.0000
vt   0.0000   0.0000 0.0000
vt   0.0000   0.0000 0.0000
vt   0.0000   0.0000 0.0000
vt   0.0000   0.0000 0.0000
vt   0.0000   0.0000 0.0000
vt   0.0000   0.0000 0.0000
vt   0.0000   0.0000 0.0000
vt   0.0000   0.0000 0.0000
vt   0.0000   0.0000 0.0000
vt   0.0000   0.0000 0.0000
vt   0.0000   0.0000 0.0000
vt   0.0000   0.0000 0.0000
vt   0.0000   0.0000 0.0000
vt   0.0000   0.0000 0.0000
vt   0.0000   0.0000 0.0000
vt   0.0000   0.0000 0.0000
vt   0.0000   0.0000 0.0000
vt   0.0000   0.0000 0.0000
vt   0.0000   0.0000 0.0000
vt   0.0000   0.0000 0.0000
vt   0.0000   0.0000 0.0000
vt   0.0000   0.0000 0.0000
vt   0.0000   0.0000 0.0000
vt   0.0000   0.0000 0.0000
vt   0.0000   0.0000 0.0000
vt   0.0000   0.0000 0.0000
vt   0.0000   0.0000 0.0000
vt   0.0000   0.0000 0.0000
vt   0.0000   0.0000 0.0000
vt   0.0000   0.0000 0.0000
vt   0.0000   0.0000 0.0000
vt   0.0000   0.0000 0.0000
vt   0.0000   0.0000 0.0000
vt   0.0000   0.0000 0.0000
#  52 elements
vn   0.9466   0.3205  -0.0345
vn  -0.9466  -0.3205   0.0345
vn   0.8787   0.4763  -0.0320
vn  -0.8787  -0.4763   0.0320
vn   0.7854   0.6183  -0.0286
vn  -0.7854  -0.6183   0.0286
vn  -0.3809  -0.9245   0.0139
vn   0.3809   0.9245  -0.0139
vn  -0.7307  -0.6822   0.0266
vn   0.7307   0.6822  -0.0266
vn  -0.8591  -0.5109   0.0313
vn   0.8591   0.5109  -0.0313
vn  -0.9936  -0.1070   0.0362
vn   0.9936   0.1070  -0.0362
vn  -0.5688  -0.8222   0.0207
vn   0.5688   0.8222  -0.0207
vn  -0.9936   0.1070   0.0362
vn   0.9936  -0.1070  -0.0362
vn   0.9872   0.1554  -0.0359
vn  -0.9872  -0.1554   0.0359
vn   0.9993  -0.0000  -0.0364
vn  -0.9993   0.0000   0.0364
vn   0.0000   1.0000  -0.0000
vn  -0.0000  -1.0000   0.0000
vn  -0.9481  -0.3162   0.0345
vn   0.9481   0.3162  -0.0345
vn  -0.3809   0.9245   0.0139
vn   0.3809  -0.9245  -0.0139
vn   0.0364   0.0000   0.9993
vn  -0.0364  -0.0000  -0.9993
vn  -0.5688   0.8222   0.0207
vn   0.5688  -0.8222  -0.0207
vn  -0.8591   0.5109   0.0313
vn   0.8591  -0.5109  -0.0313
vn  -0.0000   1.0000  -0.0000
vn   0.0000  -1.0000   0.0000
vn   0.9792  -0.1996  -0.0357
vn  -0.9792   0.1996   0.0357
vn  -0.7307   0.6822   0.0266
vn   0.7307  -0.6822  -0.0266
vn   0.6695   0.7425  -0.0244
vn  -0.6695  -0.7425   0.0244
vn   0.5569  -0.8303  -0.0203
vn  -0.5569   0.8303   0.0203
vn   0.7069  -0.7068  -0.0257
vn  -0.7069   0.7068   0.0257
vn   0.8302  -0.5566  -0.0302
vn  -0.8302   0.5566   0.0302
vn   0.9221  -0.3854  -0.0336
vn  -0.9221   0.3854   0.0336
#  50 elements
#  200 faces
usemtl _Color_I03
f 3/3/1 2/2/1 1/1/1
f 4/4/1 1/1/1 2/2/1
f 1/1/2 2/2/2 3/3/2
f 2/2/2 1/1/2 4/4/2
f 2/2/3 5/5/3 4/4/3
f 6/6/3 4/4/3 5/5/3
f 4/4/4 5/5/4 2/2/4
f 5/5/4 4/4/4 6/6/4
f 5/5/5 7/7/5 6/6/5
f 8/8/5 6/6/5 7/7/5
f 6/6/6 7/7/6 5/5/6
f 7/7/6 6/6/6 8/8/6
f 11/11/7 10/10/7 9/9/7
f 12/12/7 9/9/7 10/10/7
f 9/9/8 10/10/8 11/11/8
f 10/10/8 9/9/8 12/12/8
f 15/15/9 14/14/9 13/13/9
f 16/16/9 13/13/9 14/14/9
f 13/13/10 14/14/10 15/15/10
f 14/14/10 13/13/10 16/16/10
f 18/18/11 17/17/11 15/15/11
f 14/14/11 15/15/11 17/17/11
f 15/15/12 17/17/12 18/18/12
f 17/17/12 15/15/12 14/14/12
f 21/21/13 20/20/13 19/19/13
f 22/22/13 19/19/13 20/20/13
f 19/19/14 20/20/14 21/21/14
f 20/20/14 19/19/14 22/22/14
f 10/10/15 13/13/15 12/12/15
f 16/16/15 12/12/15 13/13/15
f 12/12/16 13/13/16 10/10/16
f 13/13/16 12/12/16 16/16/16
f 21/21/17 23/23/17 20/20/17
f 24/24/17 20/20/17 23/23/17
f 20/20/18 23/23/18 21/21/18
f 23/23/18 20/20/18 24/24/18
f 26/26/19 3/3/19 25/25/19
f 1/1/19 25/25/19 3/3/19
f 25/25/20 3/3/20 26/26/20
f 3/3/20 25/25/20 1/1/20
usemtl Default_Material
f 29/29/21 28/28/21 27/27/21
f 30/30/21 27/27/21 28/28/21
f 27/27/22 28/28/22 29/29/22
f 28/28/22 27/27/22 30/30/22
f 23/23/23 24/24/23 26/26/23
f 25/25/23 26/26/23 24/24/23
f 26/26/24 24/24/24 23/23/24
f 24/24/24 26/26/24 25/25/24
usemtl _Color_I03
f 27/27/24 11/11/24 30/30/24
f 9/9/24 30/30/24 11/11/24
f 30/30/23 11/11/23 27/27/23
f 11/11/23 30/30/23 9/9/23
f 19/19/25 22/22/25 18/18/25
f 17/17/25 18/18/25 22/22/25
f 18/18/26 22/22/26 19/19/26
f 22/22/26 18/18/26 17/17/26
f 33/33/27 32/32/27 31/31/27
f 34/34/27 31/31/27 32/32/27
f 31/31/28 32/32/28 33/33/28
f 32/32/28 31/31/28 34/34/28
f 24/24/29 25/25/29 20/20/29
f 1/1/29 20/20/29 25/25/29
f 22/22/29 20/20/29 1/1/29
f 4/4/29 22/22/29 1/1/29
f 17/17/29 22/22/29 4/4/29
f 14/14/29 17/17/29 4/4/29
f 16/16/29 14/14/29 4/4/29
f 6/6/29 16/16/29 4/4/29
f 12/12/29 16/16/29 6/6/29
f 9/9/29 12/12/29 6/6/29
f 30/30/29 9/9/29 6/6/29
f 28/28/29 30/30/29 6/6/29
f 8/8/29 28/28/29 6/6/29
f 35/35/29 28/28/29 8/8/29
f 36/36/29 28/28/29 35/35/29
f 37/37/29 28/28/29 36/36/29
f 38/38/29 28/28/29 37/37/29
f 32/32/29 28/28/29 38/38/29
f 39/39/29 32/32/29 38/38/29
f 34/34/29 32/32/29 39/39/29
f 40/40/29 34/34/29 39/39/29
f 41/41/29 40/40/29 39/39/29
f 42/42/29 41/41/29 39/39/29
f 43/43/29 42/42/29 39/39/29
f 20/20/30 25/25/30 24/24/30
f 25/25/30 20/20/30 1/1/30
f 1/1/30 20/20/30 22/22/30
f 1/1/30 22/22/30 4/4/30
f 4/4/30 22/22/30 17/17/30
f 4/4/30 17/17/30 14/14/30
f 4/4/30 14/14/30 16/16/30
f 4/4/30 16/16/30 6/6/30
f 6/6/30 16/16/30 12/12/30
f 6/6/30 12/12/30 9/9/30
f 6/6/30 9/9/30 30/30/30
f 6/6/30 30/30/30 28/28/30
f 6/6/30 28/28/30 8/8/30
f 8/8/30 28/28/30 35/35/30
f 35/35/30 28/28/30 36/36/30
f 36/36/30 28/28/30 37/37/30
f 37/37/30 28/28/30 38/38/30
f 38/38/30 28/28/30 32/32/30
f 38/38/30 32/32/30 39/39/30
f 39/39/30 32/32/30 34/34/30
f 39/39/30 34/34/30 40/40/30
f 39/39/30 40/40/30 41/41/30
f 39/39/30 41/41/30 42/42/30
f 39/39/30 42/42/30 43/43/30
f 31/31/31 34/34/31 44/44/31
f 40/40/31 44/44/31 34/34/31
f 44/44/32 34/34/32 31/31/32
f 34/34/32 44/44/32 40/40/32
f 46/46/33 45/45/33 42/42/33
f 41/41/33 42/42/33 45/45/33
f 42/42/34 45/45/34 46/46/34
f 45/45/34 42/42/34 41/41/34
f 29/29/35 28/28/35 33/33/35
f 32/32/35 33/33/35 28/28/35
f 33/33/36 28/28/36 29/29/36
f 28/28/36 33/33/36 32/32/36
f 48/48/37 43/43/37 47/47/37
f 39/39/37 47/47/37 43/43/37
f 47/47/38 43/43/38 48/48/38
f 43/43/38 47/47/38 39/39/38
f 45/45/39 44/44/39 41/41/39
f 40/40/39 41/41/39 44/44/39
f 41/41/40 44/44/40 45/45/40
f 44/44/40 41/41/40 40/40/40
f 49/49/41 35/35/41 7/7/41
f 8/8/41 7/7/41 35/35/41
f 7/7/42 35/35/42 49/49/42
f 35/35/42 7/7/42 8/8/42
f 49/49/43 50/50/43 35/35/43
f 36/36/43 35/35/43 50/50/43
f 35/35/44 50/50/44 49/49/44
f 50/50/44 35/35/44 36/36/44
f 51/51/45 37/37/45 50/50/45
f 36/36/45 50/50/45 37/37/45
f 50/50/46 37/37/46 51/51/46
f 37/37/46 50/50/46 36/36/46
f 52/52/47 38/38/47 51/51/47
f 37/37/47 51/51/47 38/38/47
f 51/51/48 38/38/48 52/52/48
f 38/38/48 51/51/48 37/37/48
f 47/47/49 39/39/49 52/52/49
f 38/38/49 52/52/49 39/39/49
f 52/52/50 39/39/50 47/47/50
f 39/39/50 52/52/50 38/38/50
usemtl Default_Material
f 46/46/36 48/48/36 42/42/36
f 43/43/36 42/42/36 48/48/36
f 42/42/35 48/48/35 46/46/35
f 48/48/35 42/42/35 43/43/35
usemtl _Color_I03
f 26/26/30 23/23/30 3/3/30
f 21/21/30 3/3/30 23/23/30
f 19/19/30 3/3/30 21/21/30
f 2/2/30 3/3/30 19/19/30
f 18/18/30 2/2/30 19/19/30
f 15/15/30 2/2/30 18/18/30
f 13/13/30 2/2/30 15/15/30
f 5/5/30 2/2/30 13/13/30
f 10/10/30 5/5/30 13/13/30
f 11/11/30 5/5/30 10/10/30
f 27/27/30 5/5/30 11/11/30
f 29/29/30 5/5/30 27/27/30
f 7/7/30 5/5/30 29/29/30
f 49/49/30 7/7/30 29/29/30
f 50/50/30 49/49/30 29/29/30
f 51/51/30 50/50/30 29/29/30
f 52/52/30 51/51/30 29/29/30
f 33/33/30 52/52/30 29/29/30
f 47/47/30 52/52/30 33/33/30
f 31/31/30 47/47/30 33/33/30
f 44/44/30 47/47/30 31/31/30
f 45/45/30 47/47/30 44/44/30
f 46/46/30 47/47/30 45/45/30
f 48/48/30 47/47/30 46/46/30
f 3/3/29 23/23/29 26/26/29
f 23/23/29 3/3/29 21/21/29
f 21/21/29 3/3/29 19/19/29
f 19/19/29 3/3/29 2/2/29
f 19/19/29 2/2/29 18/18/29
f 18/18/29 2/2/29 15/15/29
f 15/15/29 2/2/29 13/13/29
f 13/13/29 2/2/29 5/5/29
f 13/13/29 5/5/29 10/10/29
f 10/10/29 5/5/29 11/11/29
f 11/11/29 5/5/29 27/27/29
f 27/27/29 5/5/29 29/29/29
f 29/29/29 5/5/29 7/7/29
f 29/29/29 7/7/29 49/49/29
f 29/29/29 49/49/29 50/50/29
f 29/29/29 50/50/29 51/51/29
f 29/29/29 51/51/29 52/52/29
f 29/29/29 52/52/29 33/33/29
f 33/33/29 52/52/29 47/47/29
f 33/33/29 47/47/29 31/31/29
f 31/31/29 47/47/29 44/44/29
f 44/44/29 47/47/29 45/45/29
f 45/45/29 47/47/29 46/46/29
f 46/46/29 47/47/29 48/48/29