solid OpenSCAD_Model
  facet normal 0.5 -0.866025 0
    outer loop
      vertex 0 -6 -15
      vertex 5.19615 -3 -10
      vertex 0 -6 -10
    endloop
  endfacet
  facet normal 0.5 -0.866025 0
    outer loop
      vertex 5.19615 -3 -10
      vertex 0 -6 -15
      vertex 5.19615 -3 -15
    endloop
  endfacet
  facet normal 1 -0 0
    outer loop
      vertex 5.19615 -3 -10
      vertex 5.19615 3 -15
      vertex 5.19615 3 -10
    endloop
  endfacet
  facet normal 1 0 0
    outer loop
      vertex 5.19615 3 -15
      vertex 5.19615 -3 -10
      vertex 5.19615 -3 -15
    endloop
  endfacet
  facet normal -0.5 0.866025 0
    outer loop
      vertex 0 6 -15
      vertex -5.19615 3 -10
      vertex 0 6 -10
    endloop
  endfacet
  facet normal -0.5 0.866025 0
    outer loop
      vertex -5.19615 3 -10
      vertex 0 6 -15
      vertex -5.19615 3 -15
    endloop
  endfacet
  facet normal 0.5 0.866025 -0
    outer loop
      vertex 5.19615 3 -15
      vertex 0 6 -10
      vertex 5.19615 3 -10
    endloop
  endfacet
  facet normal 0.5 0.866025 0
    outer loop
      vertex 0 6 -10
      vertex 5.19615 3 -15
      vertex 0 6 -15
    endloop
  endfacet
  facet normal -1 0 0
    outer loop
      vertex -5.19615 -3 -15
      vertex -5.19615 3 -10
      vertex -5.19615 3 -15
    endloop
  endfacet
  facet normal -1 -0 0
    outer loop
      vertex -5.19615 3 -10
      vertex -5.19615 -3 -15
      vertex -5.19615 -3 -10
    endloop
  endfacet
  facet normal -0.5 -0.866025 0
    outer loop
      vertex -5.19615 -3 -15
      vertex 0 -6 -10
      vertex -5.19615 -3 -10
    endloop
  endfacet
  facet normal -0.5 -0.866025 -0
    outer loop
      vertex 0 -6 -10
      vertex -5.19615 -3 -15
      vertex 0 -6 -15
    endloop
  endfacet
  facet normal 0 0 1
    outer loop
      vertex 5.19615 3 -10
      vertex 4 0 -10
      vertex 5.19615 -3 -10
    endloop
  endfacet
  facet normal 0 0 1
    outer loop
      vertex 5.19615 3 -10
      vertex 3.99211 0.251162 -10
      vertex 4 0 -10
    endloop
  endfacet
  facet normal 0 0 1
    outer loop
      vertex 5.19615 3 -10
      vertex 3.96846 0.501332 -10
      vertex 3.99211 0.251162 -10
    endloop
  endfacet
  facet normal 0 0 1
    outer loop
      vertex 5.19615 3 -10
      vertex 3.92915 0.749525 -10
      vertex 3.96846 0.501332 -10
    endloop
  endfacet
  facet normal 0 0 1
    outer loop
      vertex 5.19615 3 -10
      vertex 3.87433 0.994759 -10
      vertex 3.92915 0.749525 -10
    endloop
  endfacet
  facet normal 0 0 1
    outer loop
      vertex 5.19615 3 -10
      vertex 3.80423 1.23607 -10
      vertex 3.87433 0.994759 -10
    endloop
  endfacet
  facet normal 0 0 1
    outer loop
      vertex 5.19615 3 -10
      vertex 3.71911 1.4725 -10
      vertex 3.80423 1.23607 -10
    endloop
  endfacet
  facet normal 0 0 1
    outer loop
      vertex 5.19615 3 -10
      vertex 3.61931 1.70312 -10
      vertex 3.71911 1.4725 -10
    endloop
  endfacet
  facet normal 0 0 1
    outer loop
      vertex 5.19615 3 -10
      vertex 3.50523 1.92701 -10
      vertex 3.61931 1.70312 -10
    endloop
  endfacet
  facet normal 0 0 1
    outer loop
      vertex 5.19615 3 -10
      vertex 3.37731 2.14331 -10
      vertex 3.50523 1.92701 -10
    endloop
  endfacet
  facet normal 0 0 1
    outer loop
      vertex 5.19615 3 -10
      vertex 3.23607 2.35114 -10
      vertex 3.37731 2.14331 -10
    endloop
  endfacet
  facet normal 0 0 1
    outer loop
      vertex 5.19615 3 -10
      vertex 3.08205 2.5497 -10
      vertex 3.23607 2.35114 -10
    endloop
  endfacet
  facet normal 0 0 1
    outer loop
      vertex 5.19615 3 -10
      vertex 2.91587 2.73819 -10
      vertex 3.08205 2.5497 -10
    endloop
  endfacet
  facet normal 0 0 1
    outer loop
      vertex 5.19615 3 -10
      vertex 2.73819 2.91587 -10
      vertex 2.91587 2.73819 -10
    endloop
  endfacet
  facet normal 0 0 1
    outer loop
      vertex 5.19615 3 -10
      vertex 2.5497 3.08205 -10
      vertex 2.73819 2.91587 -10
    endloop
  endfacet
  facet normal 0 0 1
    outer loop
      vertex 5.19615 3 -10
      vertex 2.35114 3.23607 -10
      vertex 2.5497 3.08205 -10
    endloop
  endfacet
  facet normal 0 0 1
    outer loop
      vertex 5.19615 3 -10
      vertex 2.14331 3.37731 -10
      vertex 2.35114 3.23607 -10
    endloop
  endfacet
  facet normal 0 0 1
    outer loop
      vertex 5.19615 3 -10
      vertex 1.92701 3.50523 -10
      vertex 2.14331 3.37731 -10
    endloop
  endfacet
  facet normal 0 0 1
    outer loop
      vertex 0 6 -10
      vertex 1.92701 3.50523 -10
      vertex 5.19615 3 -10
    endloop
  endfacet
  facet normal 0 0 1
    outer loop
      vertex 1.92701 3.50523 -10
      vertex 0 6 -10
      vertex 1.70312 3.61931 -10
    endloop
  endfacet
  facet normal 0 0 1
    outer loop
      vertex 1.70312 3.61931 -10
      vertex 0 6 -10
      vertex 1.4725 3.71911 -10
    endloop
  endfacet
  facet normal 0 0 1
    outer loop
      vertex 1.4725 3.71911 -10
      vertex 0 6 -10
      vertex 1.23607 3.80423 -10
    endloop
  endfacet
  facet normal 0 0 1
    outer loop
      vertex 1.23607 3.80423 -10
      vertex 0 6 -10
      vertex 0.994759 3.87433 -10
    endloop
  endfacet
  facet normal 0 0 1
    outer loop
      vertex 0.994759 3.87433 -10
      vertex 0 6 -10
      vertex 0.749525 3.92915 -10
    endloop
  endfacet
  facet normal 0 0 1
    outer loop
      vertex 0 6 -10
      vertex 0.501332 3.96846 -10
      vertex 0.749525 3.92915 -10
    endloop
  endfacet
  facet normal 0 0 1
    outer loop
      vertex 0 6 -10
      vertex 0.251162 3.99211 -10
      vertex 0.501332 3.96846 -10
    endloop
  endfacet
  facet normal 0 0 1
    outer loop
      vertex 0 6 -10
      vertex 0 4 -10
      vertex 0.251162 3.99211 -10
    endloop
  endfacet
  facet normal 0 0 1
    outer loop
      vertex 0 6 -10
      vertex -0.251162 3.99211 -10
      vertex 0 4 -10
    endloop
  endfacet
  facet normal 0 0 1
    outer loop
      vertex 0 6 -10
      vertex -0.501332 3.96846 -10
      vertex -0.251162 3.99211 -10
    endloop
  endfacet
  facet normal 0 0 1
    outer loop
      vertex 0 6 -10
      vertex -0.749525 3.92915 -10
      vertex -0.501332 3.96846 -10
    endloop
  endfacet
  facet normal 0 0 1
    outer loop
      vertex 0 6 -10
      vertex -0.994759 3.87433 -10
      vertex -0.749525 3.92915 -10
    endloop
  endfacet
  facet normal 0 0 1
    outer loop
      vertex 0 6 -10
      vertex -1.23607 3.80423 -10
      vertex -0.994759 3.87433 -10
    endloop
  endfacet
  facet normal 0 0 1
    outer loop
      vertex 0 6 -10
      vertex -1.4725 3.71911 -10
      vertex -1.23607 3.80423 -10
    endloop
  endfacet
  facet normal 0 0 1
    outer loop
      vertex 0 6 -10
      vertex -1.70312 3.61931 -10
      vertex -1.4725 3.71911 -10
    endloop
  endfacet
  facet normal 0 0 1
    outer loop
      vertex 0 6 -10
      vertex -1.92701 3.50523 -10
      vertex -1.70312 3.61931 -10
    endloop
  endfacet
  facet normal 0 0 1
    outer loop
      vertex -5.19615 3 -10
      vertex -1.92701 3.50523 -10
      vertex 0 6 -10
    endloop
  endfacet
  facet normal 0 0 1
    outer loop
      vertex -1.92701 3.50523 -10
      vertex -5.19615 3 -10
      vertex -2.14331 3.37731 -10
    endloop
  endfacet
  facet normal 0 0 1
    outer loop
      vertex -2.14331 3.37731 -10
      vertex -5.19615 3 -10
      vertex -2.35114 3.23607 -10
    endloop
  endfacet
  facet normal 0 0 1
    outer loop
      vertex -2.35114 3.23607 -10
      vertex -5.19615 3 -10
      vertex -2.5497 3.08205 -10
    endloop
  endfacet
  facet normal 0 0 1
    outer loop
      vertex -2.5497 3.08205 -10
      vertex -5.19615 3 -10
      vertex -2.73819 2.91587 -10
    endloop
  endfacet
  facet normal 0 0 1
    outer loop
      vertex -3.99211 0.251162 -10
      vertex -5.19615 3 -10
      vertex -4 0 -10
    endloop
  endfacet
  facet normal 0 0 1
    outer loop
      vertex -3.96846 0.501332 -10
      vertex -5.19615 3 -10
      vertex -3.99211 0.251162 -10
    endloop
  endfacet
  facet normal 0 0 1
    outer loop
      vertex -3.92915 0.749525 -10
      vertex -5.19615 3 -10
      vertex -3.96846 0.501332 -10
    endloop
  endfacet
  facet normal 0 0 1
    outer loop
      vertex -3.87433 0.994759 -10
      vertex -5.19615 3 -10
      vertex -3.92915 0.749525 -10
    endloop
  endfacet
  facet normal 0 0 1
    outer loop
      vertex -3.80423 1.23607 -10
      vertex -5.19615 3 -10
      vertex -3.87433 0.994759 -10
    endloop
  endfacet
  facet normal 0 0 1
    outer loop
      vertex -3.71911 1.4725 -10
      vertex -5.19615 3 -10
      vertex -3.80423 1.23607 -10
    endloop
  endfacet
  facet normal 0 0 1
    outer loop
      vertex -3.61931 1.70312 -10
      vertex -5.19615 3 -10
      vertex -3.71911 1.4725 -10
    endloop
  endfacet
  facet normal 0 0 1
    outer loop
      vertex -3.50523 1.92701 -10
      vertex -5.19615 3 -10
      vertex -3.61931 1.70312 -10
    endloop
  endfacet
  facet normal 0 0 1
    outer loop
      vertex -3.37731 2.14331 -10
      vertex -5.19615 3 -10
      vertex -3.50523 1.92701 -10
    endloop
  endfacet
  facet normal 0 0 1
    outer loop
      vertex -3.23607 2.35114 -10
      vertex -5.19615 3 -10
      vertex -3.37731 2.14331 -10
    endloop
  endfacet
  facet normal 0 0 1
    outer loop
      vertex -3.08205 2.5497 -10
      vertex -5.19615 3 -10
      vertex -3.23607 2.35114 -10
    endloop
  endfacet
  facet normal 0 0 1
    outer loop
      vertex -2.91587 2.73819 -10
      vertex -5.19615 3 -10
      vertex -3.08205 2.5497 -10
    endloop
  endfacet
  facet normal 0 0 1
    outer loop
      vertex -2.73819 2.91587 -10
      vertex -5.19615 3 -10
      vertex -2.91587 2.73819 -10
    endloop
  endfacet
  facet normal -0 0 1
    outer loop
      vertex 3.99211 -0.251162 -10
      vertex 5.19615 -3 -10
      vertex 4 0 -10
    endloop
  endfacet
  facet normal -0 0 1
    outer loop
      vertex 3.96846 -0.501332 -10
      vertex 5.19615 -3 -10
      vertex 3.99211 -0.251162 -10
    endloop
  endfacet
  facet normal -0 0 1
    outer loop
      vertex 3.92915 -0.749525 -10
      vertex 5.19615 -3 -10
      vertex 3.96846 -0.501332 -10
    endloop
  endfacet
  facet normal -0 0 1
    outer loop
      vertex 3.87433 -0.994759 -10
      vertex 5.19615 -3 -10
      vertex 3.92915 -0.749525 -10
    endloop
  endfacet
  facet normal -0 0 1
    outer loop
      vertex 3.80423 -1.23607 -10
      vertex 5.19615 -3 -10
      vertex 3.87433 -0.994759 -10
    endloop
  endfacet
  facet normal -0 0 1
    outer loop
      vertex 3.71911 -1.4725 -10
      vertex 5.19615 -3 -10
      vertex 3.80423 -1.23607 -10
    endloop
  endfacet
  facet normal -0 0 1
    outer loop
      vertex 3.61931 -1.70312 -10
      vertex 5.19615 -3 -10
      vertex 3.71911 -1.4725 -10
    endloop
  endfacet
  facet normal -0 0 1
    outer loop
      vertex 3.50523 -1.92701 -10
      vertex 5.19615 -3 -10
      vertex 3.61931 -1.70312 -10
    endloop
  endfacet
  facet normal -0 0 1
    outer loop
      vertex 3.37731 -2.14331 -10
      vertex 5.19615 -3 -10
      vertex 3.50523 -1.92701 -10
    endloop
  endfacet
  facet normal -0 0 1
    outer loop
      vertex 3.23607 -2.35114 -10
      vertex 5.19615 -3 -10
      vertex 3.37731 -2.14331 -10
    endloop
  endfacet
  facet normal -0 0 1
    outer loop
      vertex 3.08205 -2.5497 -10
      vertex 5.19615 -3 -10
      vertex 3.23607 -2.35114 -10
    endloop
  endfacet
  facet normal -0 0 1
    outer loop
      vertex 2.91587 -2.73819 -10
      vertex 5.19615 -3 -10
      vertex 3.08205 -2.5497 -10
    endloop
  endfacet
  facet normal -0 0 1
    outer loop
      vertex 2.73819 -2.91587 -10
      vertex 5.19615 -3 -10
      vertex 2.91587 -2.73819 -10
    endloop
  endfacet
  facet normal 0 0 1
    outer loop
      vertex 2.5497 -3.08205 -10
      vertex 5.19615 -3 -10
      vertex 2.73819 -2.91587 -10
    endloop
  endfacet
  facet normal 0 0 1
    outer loop
      vertex 2.35114 -3.23607 -10
      vertex 5.19615 -3 -10
      vertex 2.5497 -3.08205 -10
    endloop
  endfacet
  facet normal 0 0 1
    outer loop
      vertex 2.14331 -3.37731 -10
      vertex 5.19615 -3 -10
      vertex 2.35114 -3.23607 -10
    endloop
  endfacet
  facet normal 0 0 1
    outer loop
      vertex 1.92701 -3.50523 -10
      vertex 5.19615 -3 -10
      vertex 2.14331 -3.37731 -10
    endloop
  endfacet
  facet normal 0 0 1
    outer loop
      vertex 0 -6 -10
      vertex 1.92701 -3.50523 -10
      vertex 1.70312 -3.61931 -10
    endloop
  endfacet
  facet normal 0 0 1
    outer loop
      vertex 0 -6 -10
      vertex 1.70312 -3.61931 -10
      vertex 1.4725 -3.71911 -10
    endloop
  endfacet
  facet normal 0 0 1
    outer loop
      vertex 0 -6 -10
      vertex 1.4725 -3.71911 -10
      vertex 1.23607 -3.80423 -10
    endloop
  endfacet
  facet normal 0 0 1
    outer loop
      vertex 0 -6 -10
      vertex 1.23607 -3.80423 -10
      vertex 0.994759 -3.87433 -10
    endloop
  endfacet
  facet normal 0 0 1
    outer loop
      vertex 0 -6 -10
      vertex 0.994759 -3.87433 -10
      vertex 0.749525 -3.92915 -10
    endloop
  endfacet
  facet normal -0 0 1
    outer loop
      vertex 1.92701 -3.50523 -10
      vertex 0 -6 -10
      vertex 5.19615 -3 -10
    endloop
  endfacet
  facet normal -0 0 1
    outer loop
      vertex 0.501332 -3.96846 -10
      vertex 0 -6 -10
      vertex 0.749525 -3.92915 -10
    endloop
  endfacet
  facet normal -0 0 1
    outer loop
      vertex 0.251162 -3.99211 -10
      vertex 0 -6 -10
      vertex 0.501332 -3.96846 -10
    endloop
  endfacet
  facet normal -0 0 1
    outer loop
      vertex 0 -4 -10
      vertex 0 -6 -10
      vertex 0.251162 -3.99211 -10
    endloop
  endfacet
  facet normal 0 0 1
    outer loop
      vertex -0.251162 -3.99211 -10
      vertex 0 -6 -10
      vertex 0 -4 -10
    endloop
  endfacet
  facet normal 0 0 1
    outer loop
      vertex -0.501332 -3.96846 -10
      vertex 0 -6 -10
      vertex -0.251162 -3.99211 -10
    endloop
  endfacet
  facet normal 0 0 1
    outer loop
      vertex -0.749525 -3.92915 -10
      vertex 0 -6 -10
      vertex -0.501332 -3.96846 -10
    endloop
  endfacet
  facet normal 0 0 1
    outer loop
      vertex -0.994759 -3.87433 -10
      vertex 0 -6 -10
      vertex -0.749525 -3.92915 -10
    endloop
  endfacet
  facet normal 0 0 1
    outer loop
      vertex -1.23607 -3.80423 -10
      vertex 0 -6 -10
      vertex -0.994759 -3.87433 -10
    endloop
  endfacet
  facet normal 0 0 1
    outer loop
      vertex -1.4725 -3.71911 -10
      vertex 0 -6 -10
      vertex -1.23607 -3.80423 -10
    endloop
  endfacet
  facet normal 0 0 1
    outer loop
      vertex -1.70312 -3.61931 -10
      vertex 0 -6 -10
      vertex -1.4725 -3.71911 -10
    endloop
  endfacet
  facet normal 0 0 1
    outer loop
      vertex -1.92701 -3.50523 -10
      vertex 0 -6 -10
      vertex -1.70312 -3.61931 -10
    endloop
  endfacet
  facet normal 0 0 1
    outer loop
      vertex -5.19615 -3 -10
      vertex -1.92701 -3.50523 -10
      vertex -2.14331 -3.37731 -10
    endloop
  endfacet
  facet normal 0 0 1
    outer loop
      vertex -5.19615 -3 -10
      vertex -2.14331 -3.37731 -10
      vertex -2.35114 -3.23607 -10
    endloop
  endfacet
  facet normal 0 0 1
    outer loop
      vertex -5.19615 -3 -10
      vertex -2.35114 -3.23607 -10
      vertex -2.5497 -3.08205 -10
    endloop
  endfacet
  facet normal -0 0 1
    outer loop
      vertex -5.19615 -3 -10
      vertex -2.5497 -3.08205 -10
      vertex -2.73819 -2.91587 -10
    endloop
  endfacet
  facet normal 0 0 1
    outer loop
      vertex -5.19615 -3 -10
      vertex -2.73819 -2.91587 -10
      vertex -2.91587 -2.73819 -10
    endloop
  endfacet
  facet normal 0 0 1
    outer loop
      vertex -5.19615 -3 -10
      vertex -4 0 -10
      vertex -5.19615 3 -10
    endloop
  endfacet
  facet normal 0 0 1
    outer loop
      vertex -4 0 -10
      vertex -5.19615 -3 -10
      vertex -3.99211 -0.251162 -10
    endloop
  endfacet
  facet normal 0 0 1
    outer loop
      vertex -3.99211 -0.251162 -10
      vertex -5.19615 -3 -10
      vertex -3.96846 -0.501332 -10
    endloop
  endfacet
  facet normal 0 0 1
    outer loop
      vertex -3.96846 -0.501332 -10
      vertex -5.19615 -3 -10
      vertex -3.92915 -0.749525 -10
    endloop
  endfacet
  facet normal 0 0 1
    outer loop
      vertex -3.92915 -0.749525 -10
      vertex -5.19615 -3 -10
      vertex -3.87433 -0.994759 -10
    endloop
  endfacet
  facet normal 0 0 1
    outer loop
      vertex -1.92701 -3.50523 -10
      vertex -5.19615 -3 -10
      vertex 0 -6 -10
    endloop
  endfacet
  facet normal 0 0 1
    outer loop
      vertex -3.08205 -2.5497 -10
      vertex -5.19615 -3 -10
      vertex -2.91587 -2.73819 -10
    endloop
  endfacet
  facet normal 0 0 1
    outer loop
      vertex -3.23607 -2.35114 -10
      vertex -5.19615 -3 -10
      vertex -3.08205 -2.5497 -10
    endloop
  endfacet
  facet normal 0 0 1
    outer loop
      vertex -3.37731 -2.14331 -10
      vertex -5.19615 -3 -10
      vertex -3.23607 -2.35114 -10
    endloop
  endfacet
  facet normal 0 0 1
    outer loop
      vertex -3.50523 -1.92701 -10
      vertex -5.19615 -3 -10
      vertex -3.37731 -2.14331 -10
    endloop
  endfacet
  facet normal 0 0 1
    outer loop
      vertex -3.61931 -1.70312 -10
      vertex -5.19615 -3 -10
      vertex -3.50523 -1.92701 -10
    endloop
  endfacet
  facet normal 0 0 1
    outer loop
      vertex -3.71911 -1.4725 -10
      vertex -5.19615 -3 -10
      vertex -3.61931 -1.70312 -10
    endloop
  endfacet
  facet normal 0 0 1
    outer loop
      vertex -3.80423 -1.23607 -10
      vertex -5.19615 -3 -10
      vertex -3.71911 -1.4725 -10
    endloop
  endfacet
  facet normal 0 0 1
    outer loop
      vertex -3.87433 -0.994759 -10
      vertex -5.19615 -3 -10
      vertex -3.80423 -1.23607 -10
    endloop
  endfacet
  facet normal 0 0 -1
    outer loop
      vertex 0 -6 -15
      vertex 5.19615 3 -15
      vertex 5.19615 -3 -15
    endloop
  endfacet
  facet normal 0 0 -1
    outer loop
      vertex 0 -6 -15
      vertex 0 6 -15
      vertex 5.19615 3 -15
    endloop
  endfacet
  facet normal 0 0 -1
    outer loop
      vertex -5.19615 -3 -15
      vertex 0 6 -15
      vertex 0 -6 -15
    endloop
  endfacet
  facet normal 0 0 -1
    outer loop
      vertex 0 6 -15
      vertex -5.19615 -3 -15
      vertex -5.19615 3 -15
    endloop
  endfacet
  facet normal 0.940881 0.338738 0
    outer loop
      vertex 3.80423 1.23607 15
      vertex 3.71911 1.4725 -10
      vertex 3.71911 1.4725 15
    endloop
  endfacet
  facet normal 0.940881 0.338738 0
    outer loop
      vertex 3.71911 1.4725 -10
      vertex 3.80423 1.23607 15
      vertex 3.80423 1.23607 -10
    endloop
  endfacet
  facet normal 0.995561 0.0941161 0
    outer loop
      vertex 3.99211 0.251162 15
      vertex 3.96846 0.501332 -10
      vertex 3.96846 0.501332 15
    endloop
  endfacet
  facet normal 0.995561 0.0941161 0
    outer loop
      vertex 3.96846 0.501332 -10
      vertex 3.99211 0.251162 15
      vertex 3.99211 0.251162 -10
    endloop
  endfacet
  facet normal 0.999507 0.0313985 0
    outer loop
      vertex 4 0 15
      vertex 3.99211 0.251162 -10
      vertex 3.99211 0.251162 15
    endloop
  endfacet
  facet normal 0.999507 0.0313985 0
    outer loop
      vertex 3.99211 0.251162 -10
      vertex 4 0 15
      vertex 4 0 -10
    endloop
  endfacet
  facet normal 0.987688 0.156435 0
    outer loop
      vertex 3.96846 0.501332 15
      vertex 3.92915 0.749525 -10
      vertex 3.92915 0.749525 15
    endloop
  endfacet
  facet normal 0.987688 0.156435 0
    outer loop
      vertex 3.92915 0.749525 -10
      vertex 3.96846 0.501332 15
      vertex 3.96846 0.501332 -10
    endloop
  endfacet
  facet normal 0.891003 -0.453998 0
    outer loop
      vertex 3.50523 -1.92701 15
      vertex 3.61931 -1.70312 -10
      vertex 3.61931 -1.70312 15
    endloop
  endfacet
  facet normal 0.891003 -0.453998 0
    outer loop
      vertex 3.61931 -1.70312 -10
      vertex 3.50523 -1.92701 15
      vertex 3.50523 -1.92701 -10
    endloop
  endfacet
  facet normal 0.0941161 -0.995561 0
    outer loop
      vertex 0.251162 -3.99211 -10
      vertex 0.501332 -3.96846 15
      vertex 0.251162 -3.99211 15
    endloop
  endfacet
  facet normal 0.0941161 -0.995561 0
    outer loop
      vertex 0.501332 -3.96846 15
      vertex 0.251162 -3.99211 -10
      vertex 0.501332 -3.96846 -10
    endloop
  endfacet
  facet normal -0.156435 -0.987688 0
    outer loop
      vertex -0.749525 -3.92915 -10
      vertex -0.501332 -3.96846 15
      vertex -0.749525 -3.92915 15
    endloop
  endfacet
  facet normal -0.156435 -0.987688 -0
    outer loop
      vertex -0.501332 -3.96846 15
      vertex -0.749525 -3.92915 -10
      vertex -0.501332 -3.96846 -10
    endloop
  endfacet
  facet normal -0.397154 -0.917752 0
    outer loop
      vertex -1.70312 -3.61931 -10
      vertex -1.4725 -3.71911 15
      vertex -1.70312 -3.61931 15
    endloop
  endfacet
  facet normal -0.397154 -0.917752 -0
    outer loop
      vertex -1.4725 -3.71911 15
      vertex -1.70312 -3.61931 -10
      vertex -1.4725 -3.71911 -10
    endloop
  endfacet
  facet normal -0.917752 -0.397154 0
    outer loop
      vertex -3.61931 -1.70312 -10
      vertex -3.71911 -1.4725 15
      vertex -3.71911 -1.4725 -10
    endloop
  endfacet
  facet normal -0.917752 -0.397154 0
    outer loop
      vertex -3.71911 -1.4725 15
      vertex -3.61931 -1.70312 -10
      vertex -3.61931 -1.70312 15
    endloop
  endfacet
  facet normal 0.975914 0.218157 0
    outer loop
      vertex 3.92915 0.749525 15
      vertex 3.87433 0.994759 -10
      vertex 3.87433 0.994759 15
    endloop
  endfacet
  facet normal 0.975914 0.218157 0
    outer loop
      vertex 3.87433 0.994759 -10
      vertex 3.92915 0.749525 15
      vertex 3.92915 0.749525 -10
    endloop
  endfacet
  facet normal 0.509043 0.860741 -0
    outer loop
      vertex 2.14331 3.37731 -10
      vertex 1.92701 3.50523 15
      vertex 2.14331 3.37731 15
    endloop
  endfacet
  facet normal 0.509043 0.860741 0
    outer loop
      vertex 1.92701 3.50523 15
      vertex 2.14331 3.37731 -10
      vertex 1.92701 3.50523 -10
    endloop
  endfacet
  facet normal 0.0313985 -0.999507 0
    outer loop
      vertex 0 -4 -10
      vertex 0.251162 -3.99211 15
      vertex 0 -4 15
    endloop
  endfacet
  facet normal 0.0313985 -0.999507 0
    outer loop
      vertex 0.251162 -3.99211 15
      vertex 0 -4 -10
      vertex 0.251162 -3.99211 -10
    endloop
  endfacet
  facet normal -0.860741 0.509043 0
    outer loop
      vertex -3.50523 1.92701 -10
      vertex -3.37731 2.14331 15
      vertex -3.37731 2.14331 -10
    endloop
  endfacet
  facet normal -0.860741 0.509043 0
    outer loop
      vertex -3.37731 2.14331 15
      vertex -3.50523 1.92701 -10
      vertex -3.50523 1.92701 15
    endloop
  endfacet
  facet normal -0.66132 0.750104 0
    outer loop
      vertex -2.5497 3.08205 -10
      vertex -2.73819 2.91587 15
      vertex -2.5497 3.08205 15
    endloop
  endfacet
  facet normal -0.66132 0.750104 0
    outer loop
      vertex -2.73819 2.91587 15
      vertex -2.5497 3.08205 -10
      vertex -2.73819 2.91587 -10
    endloop
  endfacet
  facet normal 0.827083 0.56208 0
    outer loop
      vertex 3.37731 2.14331 15
      vertex 3.23607 2.35114 -10
      vertex 3.23607 2.35114 15
    endloop
  endfacet
  facet normal 0.827083 0.56208 0
    outer loop
      vertex 3.23607 2.35114 -10
      vertex 3.37731 2.14331 15
      vertex 3.37731 2.14331 -10
    endloop
  endfacet
  facet normal 0.860741 -0.509043 0
    outer loop
      vertex 3.37731 -2.14331 15
      vertex 3.50523 -1.92701 -10
      vertex 3.50523 -1.92701 15
    endloop
  endfacet
  facet normal 0.860741 -0.509043 0
    outer loop
      vertex 3.50523 -1.92701 -10
      vertex 3.37731 -2.14331 15
      vertex 3.37731 -2.14331 -10
    endloop
  endfacet
  facet normal 0.707107 0.707107 0
    outer loop
      vertex 2.91587 2.73819 15
      vertex 2.73819 2.91587 -10
      vertex 2.73819 2.91587 15
    endloop
  endfacet
  facet normal 0.707107 0.707107 0
    outer loop
      vertex 2.73819 2.91587 -10
      vertex 2.91587 2.73819 15
      vertex 2.91587 2.73819 -10
    endloop
  endfacet
  facet normal -0.827083 -0.56208 0
    outer loop
      vertex -3.23607 -2.35114 -10
      vertex -3.37731 -2.14331 15
      vertex -3.37731 -2.14331 -10
    endloop
  endfacet
  facet normal -0.827083 -0.56208 0
    outer loop
      vertex -3.37731 -2.14331 15
      vertex -3.23607 -2.35114 -10
      vertex -3.23607 -2.35114 15
    endloop
  endfacet
  facet normal 0.750104 -0.66132 0
    outer loop
      vertex 2.91587 -2.73819 15
      vertex 3.08205 -2.5497 -10
      vertex 3.08205 -2.5497 15
    endloop
  endfacet
  facet normal 0.750104 -0.66132 0
    outer loop
      vertex 3.08205 -2.5497 -10
      vertex 2.91587 -2.73819 15
      vertex 2.91587 -2.73819 -10
    endloop
  endfacet
  facet normal -0.999507 -0.0313985 0
    outer loop
      vertex -3.99211 -0.251162 -10
      vertex -4 0 15
      vertex -4 0 -10
    endloop
  endfacet
  facet normal -0.999507 -0.0313985 0
    outer loop
      vertex -4 0 15
      vertex -3.99211 -0.251162 -10
      vertex -3.99211 -0.251162 15
    endloop
  endfacet
  facet normal -0.940881 -0.338738 0
    outer loop
      vertex -3.71911 -1.4725 -10
      vertex -3.80423 -1.23607 15
      vertex -3.80423 -1.23607 -10
    endloop
  endfacet
  facet normal -0.940881 -0.338738 0
    outer loop
      vertex -3.80423 -1.23607 15
      vertex -3.71911 -1.4725 -10
      vertex -3.71911 -1.4725 15
    endloop
  endfacet
  facet normal 0.860741 0.509043 0
    outer loop
      vertex 3.50523 1.92701 15
      vertex 3.37731 2.14331 -10
      vertex 3.37731 2.14331 15
    endloop
  endfacet
  facet normal 0.860741 0.509043 0
    outer loop
      vertex 3.37731 2.14331 -10
      vertex 3.50523 1.92701 15
      vertex 3.50523 1.92701 -10
    endloop
  endfacet
  facet normal -0.995561 -0.0941161 0
    outer loop
      vertex -3.96846 -0.501332 -10
      vertex -3.99211 -0.251162 15
      vertex -3.99211 -0.251162 -10
    endloop
  endfacet
  facet normal -0.995561 -0.0941161 0
    outer loop
      vertex -3.99211 -0.251162 15
      vertex -3.96846 -0.501332 -10
      vertex -3.96846 -0.501332 15
    endloop
  endfacet
  facet normal -0.987688 -0.156435 0
    outer loop
      vertex -3.92915 -0.749525 -10
      vertex -3.96846 -0.501332 15
      vertex -3.96846 -0.501332 -10
    endloop
  endfacet
  facet normal -0.987688 -0.156435 0
    outer loop
      vertex -3.96846 -0.501332 15
      vertex -3.92915 -0.749525 -10
      vertex -3.92915 -0.749525 15
    endloop
  endfacet
  facet normal 0.66132 0.750104 -0
    outer loop
      vertex 2.73819 2.91587 -10
      vertex 2.5497 3.08205 15
      vertex 2.73819 2.91587 15
    endloop
  endfacet
  facet normal 0.66132 0.750104 0
    outer loop
      vertex 2.5497 3.08205 15
      vertex 2.73819 2.91587 -10
      vertex 2.5497 3.08205 -10
    endloop
  endfacet
  facet normal 0.987688 -0.156435 0
    outer loop
      vertex 3.92915 -0.749525 15
      vertex 3.96846 -0.501332 -10
      vertex 3.96846 -0.501332 15
    endloop
  endfacet
  facet normal 0.987688 -0.156435 0
    outer loop
      vertex 3.96846 -0.501332 -10
      vertex 3.92915 -0.749525 15
      vertex 3.92915 -0.749525 -10
    endloop
  endfacet
  facet normal 0.960301 0.278964 0
    outer loop
      vertex 3.87433 0.994759 15
      vertex 3.80423 1.23607 -10
      vertex 3.80423 1.23607 15
    endloop
  endfacet
  facet normal 0.960301 0.278964 0
    outer loop
      vertex 3.80423 1.23607 -10
      vertex 3.87433 0.994759 15
      vertex 3.87433 0.994759 -10
    endloop
  endfacet
  facet normal 0.338738 0.940881 -0
    outer loop
      vertex 1.4725 3.71911 -10
      vertex 1.23607 3.80423 15
      vertex 1.4725 3.71911 15
    endloop
  endfacet
  facet normal 0.338738 0.940881 0
    outer loop
      vertex 1.23607 3.80423 15
      vertex 1.4725 3.71911 -10
      vertex 1.23607 3.80423 -10
    endloop
  endfacet
  facet normal 0.338738 -0.940881 0
    outer loop
      vertex 1.23607 -3.80423 -10
      vertex 1.4725 -3.71911 15
      vertex 1.23607 -3.80423 15
    endloop
  endfacet
  facet normal 0.338738 -0.940881 0
    outer loop
      vertex 1.4725 -3.71911 15
      vertex 1.23607 -3.80423 -10
      vertex 1.4725 -3.71911 -10
    endloop
  endfacet
  facet normal -0.56208 0.827083 0
    outer loop
      vertex -2.14331 3.37731 -10
      vertex -2.35114 3.23607 15
      vertex -2.14331 3.37731 15
    endloop
  endfacet
  facet normal -0.56208 0.827083 0
    outer loop
      vertex -2.35114 3.23607 15
      vertex -2.14331 3.37731 -10
      vertex -2.35114 3.23607 -10
    endloop
  endfacet
  facet normal -0.61291 0.790153 0
    outer loop
      vertex -2.35114 3.23607 -10
      vertex -2.5497 3.08205 15
      vertex -2.35114 3.23607 15
    endloop
  endfacet
  facet normal -0.61291 0.790153 0
    outer loop
      vertex -2.5497 3.08205 15
      vertex -2.35114 3.23607 -10
      vertex -2.5497 3.08205 -10
    endloop
  endfacet
  facet normal -0.995561 0.0941161 0
    outer loop
      vertex -3.99211 0.251162 -10
      vertex -3.96846 0.501332 15
      vertex -3.96846 0.501332 -10
    endloop
  endfacet
  facet normal -0.995561 0.0941161 0
    outer loop
      vertex -3.96846 0.501332 15
      vertex -3.99211 0.251162 -10
      vertex -3.99211 0.251162 15
    endloop
  endfacet
  facet normal -0.790153 0.61291 0
    outer loop
      vertex -3.23607 2.35114 -10
      vertex -3.08205 2.5497 15
      vertex -3.08205 2.5497 -10
    endloop
  endfacet
  facet normal -0.790153 0.61291 0
    outer loop
      vertex -3.08205 2.5497 15
      vertex -3.23607 2.35114 -10
      vertex -3.23607 2.35114 15
    endloop
  endfacet
  facet normal -0.975914 0.218157 0
    outer loop
      vertex -3.92915 0.749525 -10
      vertex -3.87433 0.994759 15
      vertex -3.87433 0.994759 -10
    endloop
  endfacet
  facet normal -0.975914 0.218157 0
    outer loop
      vertex -3.87433 0.994759 15
      vertex -3.92915 0.749525 -10
      vertex -3.92915 0.749525 15
    endloop
  endfacet
  facet normal 0.218157 0.975914 -0
    outer loop
      vertex 0.994759 3.87433 -10
      vertex 0.749525 3.92915 15
      vertex 0.994759 3.87433 15
    endloop
  endfacet
  facet normal 0.218157 0.975914 0
    outer loop
      vertex 0.749525 3.92915 15
      vertex 0.994759 3.87433 -10
      vertex 0.749525 3.92915 -10
    endloop
  endfacet
  facet normal 0.509043 -0.860741 0
    outer loop
      vertex 1.92701 -3.50523 -10
      vertex 2.14331 -3.37731 15
      vertex 1.92701 -3.50523 15
    endloop
  endfacet
  facet normal 0.509043 -0.860741 0
    outer loop
      vertex 2.14331 -3.37731 15
      vertex 1.92701 -3.50523 -10
      vertex 2.14331 -3.37731 -10
    endloop
  endfacet
  facet normal 0.453998 -0.891003 0
    outer loop
      vertex 1.70312 -3.61931 -10
      vertex 1.92701 -3.50523 15
      vertex 1.70312 -3.61931 15
    endloop
  endfacet
  facet normal 0.453998 -0.891003 0
    outer loop
      vertex 1.92701 -3.50523 15
      vertex 1.70312 -3.61931 -10
      vertex 1.92701 -3.50523 -10
    endloop
  endfacet
  facet normal 0.56208 0.827083 -0
    outer loop
      vertex 2.35114 3.23607 -10
      vertex 2.14331 3.37731 15
      vertex 2.35114 3.23607 15
    endloop
  endfacet
  facet normal 0.56208 0.827083 0
    outer loop
      vertex 2.14331 3.37731 15
      vertex 2.35114 3.23607 -10
      vertex 2.14331 3.37731 -10
    endloop
  endfacet
  facet normal 0.960301 -0.278964 0
    outer loop
      vertex 3.80423 -1.23607 15
      vertex 3.87433 -0.994759 -10
      vertex 3.87433 -0.994759 15
    endloop
  endfacet
  facet normal 0.960301 -0.278964 0
    outer loop
      vertex 3.87433 -0.994759 -10
      vertex 3.80423 -1.23607 15
      vertex 3.80423 -1.23607 -10
    endloop
  endfacet
  facet normal -0.940881 0.338738 0
    outer loop
      vertex -3.80423 1.23607 -10
      vertex -3.71911 1.4725 15
      vertex -3.71911 1.4725 -10
    endloop
  endfacet
  facet normal -0.940881 0.338738 0
    outer loop
      vertex -3.71911 1.4725 15
      vertex -3.80423 1.23607 -10
      vertex -3.80423 1.23607 15
    endloop
  endfacet
  facet normal 0.891003 0.453998 0
    outer loop
      vertex 3.61931 1.70312 15
      vertex 3.50523 1.92701 -10
      vertex 3.50523 1.92701 15
    endloop
  endfacet
  facet normal 0.891003 0.453998 0
    outer loop
      vertex 3.50523 1.92701 -10
      vertex 3.61931 1.70312 15
      vertex 3.61931 1.70312 -10
    endloop
  endfacet
  facet normal 0.917752 0.397154 0
    outer loop
      vertex 3.71911 1.4725 15
      vertex 3.61931 1.70312 -10
      vertex 3.61931 1.70312 15
    endloop
  endfacet
  facet normal 0.917752 0.397154 0
    outer loop
      vertex 3.61931 1.70312 -10
      vertex 3.71911 1.4725 15
      vertex 3.71911 1.4725 -10
    endloop
  endfacet
  facet normal 0.940881 -0.338738 0
    outer loop
      vertex 3.71911 -1.4725 15
      vertex 3.80423 -1.23607 -10
      vertex 3.80423 -1.23607 15
    endloop
  endfacet
  facet normal 0.940881 -0.338738 0
    outer loop
      vertex 3.80423 -1.23607 -10
      vertex 3.71911 -1.4725 15
      vertex 3.71911 -1.4725 -10
    endloop
  endfacet
  facet normal -0.707107 -0.707107 0
    outer loop
      vertex -2.73819 -2.91587 -10
      vertex -2.91587 -2.73819 15
      vertex -2.91587 -2.73819 -10
    endloop
  endfacet
  facet normal -0.707107 -0.707107 0
    outer loop
      vertex -2.91587 -2.73819 15
      vertex -2.73819 -2.91587 -10
      vertex -2.73819 -2.91587 15
    endloop
  endfacet
  facet normal -0.987688 0.156435 0
    outer loop
      vertex -3.96846 0.501332 -10
      vertex -3.92915 0.749525 15
      vertex -3.92915 0.749525 -10
    endloop
  endfacet
  facet normal -0.987688 0.156435 0
    outer loop
      vertex -3.92915 0.749525 15
      vertex -3.96846 0.501332 -10
      vertex -3.96846 0.501332 15
    endloop
  endfacet
  facet normal -0.0941161 0.995561 0
    outer loop
      vertex -0.251162 3.99211 -10
      vertex -0.501332 3.96846 15
      vertex -0.251162 3.99211 15
    endloop
  endfacet
  facet normal -0.0941161 0.995561 0
    outer loop
      vertex -0.501332 3.96846 15
      vertex -0.251162 3.99211 -10
      vertex -0.501332 3.96846 -10
    endloop
  endfacet
  facet normal -0.975914 -0.218157 0
    outer loop
      vertex -3.87433 -0.994759 -10
      vertex -3.92915 -0.749525 15
      vertex -3.92915 -0.749525 -10
    endloop
  endfacet
  facet normal -0.975914 -0.218157 0
    outer loop
      vertex -3.92915 -0.749525 15
      vertex -3.87433 -0.994759 -10
      vertex -3.87433 -0.994759 15
    endloop
  endfacet
  facet normal 0.790153 -0.61291 0
    outer loop
      vertex 3.08205 -2.5497 15
      vertex 3.23607 -2.35114 -10
      vertex 3.23607 -2.35114 15
    endloop
  endfacet
  facet normal 0.790153 -0.61291 0
    outer loop
      vertex 3.23607 -2.35114 -10
      vertex 3.08205 -2.5497 15
      vertex 3.08205 -2.5497 -10
    endloop
  endfacet
  facet normal 0.278964 -0.960301 0
    outer loop
      vertex 0.994759 -3.87433 -10
      vertex 1.23607 -3.80423 15
      vertex 0.994759 -3.87433 15
    endloop
  endfacet
  facet normal 0.278964 -0.960301 0
    outer loop
      vertex 1.23607 -3.80423 15
      vertex 0.994759 -3.87433 -10
      vertex 1.23607 -3.80423 -10
    endloop
  endfacet
  facet normal 0.218157 -0.975914 0
    outer loop
      vertex 0.749525 -3.92915 -10
      vertex 0.994759 -3.87433 15
      vertex 0.749525 -3.92915 15
    endloop
  endfacet
  facet normal 0.218157 -0.975914 0
    outer loop
      vertex 0.994759 -3.87433 15
      vertex 0.749525 -3.92915 -10
      vertex 0.994759 -3.87433 -10
    endloop
  endfacet
  facet normal 0.917752 -0.397154 0
    outer loop
      vertex 3.61931 -1.70312 15
      vertex 3.71911 -1.4725 -10
      vertex 3.71911 -1.4725 15
    endloop
  endfacet
  facet normal 0.917752 -0.397154 0
    outer loop
      vertex 3.71911 -1.4725 -10
      vertex 3.61931 -1.70312 15
      vertex 3.61931 -1.70312 -10
    endloop
  endfacet
  facet normal -0.509043 -0.860741 0
    outer loop
      vertex -2.14331 -3.37731 -10
      vertex -1.92701 -3.50523 15
      vertex -2.14331 -3.37731 15
    endloop
  endfacet
  facet normal -0.509043 -0.860741 -0
    outer loop
      vertex -1.92701 -3.50523 15
      vertex -2.14331 -3.37731 -10
      vertex -1.92701 -3.50523 -10
    endloop
  endfacet
  facet normal 0.397154 -0.917752 0
    outer loop
      vertex 1.4725 -3.71911 -10
      vertex 1.70312 -3.61931 15
      vertex 1.4725 -3.71911 15
    endloop
  endfacet
  facet normal 0.397154 -0.917752 0
    outer loop
      vertex 1.70312 -3.61931 15
      vertex 1.4725 -3.71911 -10
      vertex 1.70312 -3.61931 -10
    endloop
  endfacet
  facet normal -0.278964 -0.960301 0
    outer loop
      vertex -1.23607 -3.80423 -10
      vertex -0.994759 -3.87433 15
      vertex -1.23607 -3.80423 15
    endloop
  endfacet
  facet normal -0.278964 -0.960301 -0
    outer loop
      vertex -0.994759 -3.87433 15
      vertex -1.23607 -3.80423 -10
      vertex -0.994759 -3.87433 -10
    endloop
  endfacet
  facet normal 0.0941161 0.995561 -0
    outer loop
      vertex 0.501332 3.96846 -10
      vertex 0.251162 3.99211 15
      vertex 0.501332 3.96846 15
    endloop
  endfacet
  facet normal 0.0941161 0.995561 0
    outer loop
      vertex 0.251162 3.99211 15
      vertex 0.501332 3.96846 -10
      vertex 0.251162 3.99211 -10
    endloop
  endfacet
  facet normal -0.750104 0.66132 0
    outer loop
      vertex -3.08205 2.5497 -10
      vertex -2.91587 2.73819 15
      vertex -2.91587 2.73819 -10
    endloop
  endfacet
  facet normal -0.750104 0.66132 0
    outer loop
      vertex -2.91587 2.73819 15
      vertex -3.08205 2.5497 -10
      vertex -3.08205 2.5497 15
    endloop
  endfacet
  facet normal -0.960301 -0.278964 0
    outer loop
      vertex -3.80423 -1.23607 -10
      vertex -3.87433 -0.994759 15
      vertex -3.87433 -0.994759 -10
    endloop
  endfacet
  facet normal -0.960301 -0.278964 0
    outer loop
      vertex -3.87433 -0.994759 15
      vertex -3.80423 -1.23607 -10
      vertex -3.80423 -1.23607 15
    endloop
  endfacet
  facet normal -0.860741 -0.509043 0
    outer loop
      vertex -3.37731 -2.14331 -10
      vertex -3.50523 -1.92701 15
      vertex -3.50523 -1.92701 -10
    endloop
  endfacet
  facet normal -0.860741 -0.509043 0
    outer loop
      vertex -3.50523 -1.92701 15
      vertex -3.37731 -2.14331 -10
      vertex -3.37731 -2.14331 15
    endloop
  endfacet
  facet normal -0.338738 0.940881 0
    outer loop
      vertex -1.23607 3.80423 -10
      vertex -1.4725 3.71911 15
      vertex -1.23607 3.80423 15
    endloop
  endfacet
  facet normal -0.338738 0.940881 0
    outer loop
      vertex -1.4725 3.71911 15
      vertex -1.23607 3.80423 -10
      vertex -1.4725 3.71911 -10
    endloop
  endfacet
  facet normal 0.61291 0.790153 -0
    outer loop
      vertex 2.5497 3.08205 -10
      vertex 2.35114 3.23607 15
      vertex 2.5497 3.08205 15
    endloop
  endfacet
  facet normal 0.61291 0.790153 0
    outer loop
      vertex 2.35114 3.23607 15
      vertex 2.5497 3.08205 -10
      vertex 2.35114 3.23607 -10
    endloop
  endfacet
  facet normal -0.750104 -0.66132 0
    outer loop
      vertex -2.91587 -2.73819 -10
      vertex -3.08205 -2.5497 15
      vertex -3.08205 -2.5497 -10
    endloop
  endfacet
  facet normal -0.750104 -0.66132 0
    outer loop
      vertex -3.08205 -2.5497 15
      vertex -2.91587 -2.73819 -10
      vertex -2.91587 -2.73819 15
    endloop
  endfacet
  facet normal -0.0313985 0.999507 0
    outer loop
      vertex 0 4 -10
      vertex -0.251162 3.99211 15
      vertex 0 4 15
    endloop
  endfacet
  facet normal -0.0313985 0.999507 0
    outer loop
      vertex -0.251162 3.99211 15
      vertex 0 4 -10
      vertex -0.251162 3.99211 -10
    endloop
  endfacet
  facet normal 0.995561 -0.0941161 0
    outer loop
      vertex 3.96846 -0.501332 15
      vertex 3.99211 -0.251162 -10
      vertex 3.99211 -0.251162 15
    endloop
  endfacet
  facet normal 0.995561 -0.0941161 0
    outer loop
      vertex 3.99211 -0.251162 -10
      vertex 3.96846 -0.501332 15
      vertex 3.96846 -0.501332 -10
    endloop
  endfacet
  facet normal 0.397154 0.917752 -0
    outer loop
      vertex 1.70312 3.61931 -10
      vertex 1.4725 3.71911 15
      vertex 1.70312 3.61931 15
    endloop
  endfacet
  facet normal 0.397154 0.917752 0
    outer loop
      vertex 1.4725 3.71911 15
      vertex 1.70312 3.61931 -10
      vertex 1.4725 3.71911 -10
    endloop
  endfacet
  facet normal 0.453998 0.891003 -0
    outer loop
      vertex 1.92701 3.50523 -10
      vertex 1.70312 3.61931 15
      vertex 1.92701 3.50523 15
    endloop
  endfacet
  facet normal 0.453998 0.891003 0
    outer loop
      vertex 1.70312 3.61931 15
      vertex 1.92701 3.50523 -10
      vertex 1.70312 3.61931 -10
    endloop
  endfacet
  facet normal 0.750104 0.66132 0
    outer loop
      vertex 3.08205 2.5497 15
      vertex 2.91587 2.73819 -10
      vertex 2.91587 2.73819 15
    endloop
  endfacet
  facet normal 0.750104 0.66132 0
    outer loop
      vertex 2.91587 2.73819 -10
      vertex 3.08205 2.5497 15
      vertex 3.08205 2.5497 -10
    endloop
  endfacet
  facet normal -0.891003 -0.453998 0
    outer loop
      vertex -3.50523 -1.92701 -10
      vertex -3.61931 -1.70312 15
      vertex -3.61931 -1.70312 -10
    endloop
  endfacet
  facet normal -0.891003 -0.453998 0
    outer loop
      vertex -3.61931 -1.70312 15
      vertex -3.50523 -1.92701 -10
      vertex -3.50523 -1.92701 15
    endloop
  endfacet
  facet normal -0.827083 0.56208 0
    outer loop
      vertex -3.37731 2.14331 -10
      vertex -3.23607 2.35114 15
      vertex -3.23607 2.35114 -10
    endloop
  endfacet
  facet normal -0.827083 0.56208 0
    outer loop
      vertex -3.23607 2.35114 15
      vertex -3.37731 2.14331 -10
      vertex -3.37731 2.14331 15
    endloop
  endfacet
  facet normal 0.975914 -0.218157 0
    outer loop
      vertex 3.87433 -0.994759 15
      vertex 3.92915 -0.749525 -10
      vertex 3.92915 -0.749525 15
    endloop
  endfacet
  facet normal 0.975914 -0.218157 0
    outer loop
      vertex 3.92915 -0.749525 -10
      vertex 3.87433 -0.994759 15
      vertex 3.87433 -0.994759 -10
    endloop
  endfacet
  facet normal -0.509043 0.860741 0
    outer loop
      vertex -1.92701 3.50523 -10
      vertex -2.14331 3.37731 15
      vertex -1.92701 3.50523 15
    endloop
  endfacet
  facet normal -0.509043 0.860741 0
    outer loop
      vertex -2.14331 3.37731 15
      vertex -1.92701 3.50523 -10
      vertex -2.14331 3.37731 -10
    endloop
  endfacet
  facet normal 0.0313985 0.999507 -0
    outer loop
      vertex 0.251162 3.99211 -10
      vertex 0 4 15
      vertex 0.251162 3.99211 15
    endloop
  endfacet
  facet normal 0.0313985 0.999507 0
    outer loop
      vertex 0 4 15
      vertex 0.251162 3.99211 -10
      vertex 0 4 -10
    endloop
  endfacet
  facet normal 0.66132 -0.750104 0
    outer loop
      vertex 2.5497 -3.08205 -10
      vertex 2.73819 -2.91587 15
      vertex 2.5497 -3.08205 15
    endloop
  endfacet
  facet normal 0.66132 -0.750104 0
    outer loop
      vertex 2.73819 -2.91587 15
      vertex 2.5497 -3.08205 -10
      vertex 2.73819 -2.91587 -10
    endloop
  endfacet
  facet normal -0.0941161 -0.995561 0
    outer loop
      vertex -0.501332 -3.96846 -10
      vertex -0.251162 -3.99211 15
      vertex -0.501332 -3.96846 15
    endloop
  endfacet
  facet normal -0.0941161 -0.995561 -0
    outer loop
      vertex -0.251162 -3.99211 15
      vertex -0.501332 -3.96846 -10
      vertex -0.251162 -3.99211 -10
    endloop
  endfacet
  facet normal -0.278964 0.960301 0
    outer loop
      vertex -0.994759 3.87433 -10
      vertex -1.23607 3.80423 15
      vertex -0.994759 3.87433 15
    endloop
  endfacet
  facet normal -0.278964 0.960301 0
    outer loop
      vertex -1.23607 3.80423 15
      vertex -0.994759 3.87433 -10
      vertex -1.23607 3.80423 -10
    endloop
  endfacet
  facet normal -0.218157 0.975914 0
    outer loop
      vertex -0.749525 3.92915 -10
      vertex -0.994759 3.87433 15
      vertex -0.749525 3.92915 15
    endloop
  endfacet
  facet normal -0.218157 0.975914 0
    outer loop
      vertex -0.994759 3.87433 15
      vertex -0.749525 3.92915 -10
      vertex -0.994759 3.87433 -10
    endloop
  endfacet
  facet normal -0.917752 0.397154 0
    outer loop
      vertex -3.71911 1.4725 -10
      vertex -3.61931 1.70312 15
      vertex -3.61931 1.70312 -10
    endloop
  endfacet
  facet normal -0.917752 0.397154 0
    outer loop
      vertex -3.61931 1.70312 15
      vertex -3.71911 1.4725 -10
      vertex -3.71911 1.4725 15
    endloop
  endfacet
  facet normal -0.218157 -0.975914 0
    outer loop
      vertex -0.994759 -3.87433 -10
      vertex -0.749525 -3.92915 15
      vertex -0.994759 -3.87433 15
    endloop
  endfacet
  facet normal -0.218157 -0.975914 -0
    outer loop
      vertex -0.749525 -3.92915 15
      vertex -0.994759 -3.87433 -10
      vertex -0.749525 -3.92915 -10
    endloop
  endfacet
  facet normal -0.156435 0.987688 0
    outer loop
      vertex -0.501332 3.96846 -10
      vertex -0.749525 3.92915 15
      vertex -0.501332 3.96846 15
    endloop
  endfacet
  facet normal -0.156435 0.987688 0
    outer loop
      vertex -0.749525 3.92915 15
      vertex -0.501332 3.96846 -10
      vertex -0.749525 3.92915 -10
    endloop
  endfacet
  facet normal -0.999507 0.0313985 0
    outer loop
      vertex -4 0 -10
      vertex -3.99211 0.251162 15
      vertex -3.99211 0.251162 -10
    endloop
  endfacet
  facet normal -0.999507 0.0313985 0
    outer loop
      vertex -3.99211 0.251162 15
      vertex -4 0 -10
      vertex -4 0 15
    endloop
  endfacet
  facet normal 0.156435 -0.987688 0
    outer loop
      vertex 0.501332 -3.96846 -10
      vertex 0.749525 -3.92915 15
      vertex 0.501332 -3.96846 15
    endloop
  endfacet
  facet normal 0.156435 -0.987688 0
    outer loop
      vertex 0.749525 -3.92915 15
      vertex 0.501332 -3.96846 -10
      vertex 0.749525 -3.92915 -10
    endloop
  endfacet
  facet normal -0.66132 -0.750104 0
    outer loop
      vertex -2.73819 -2.91587 -10
      vertex -2.5497 -3.08205 15
      vertex -2.73819 -2.91587 15
    endloop
  endfacet
  facet normal -0.66132 -0.750104 -0
    outer loop
      vertex -2.5497 -3.08205 15
      vertex -2.73819 -2.91587 -10
      vertex -2.5497 -3.08205 -10
    endloop
  endfacet
  facet normal 0 0 1
    outer loop
      vertex 3.99211 0.251162 15
      vertex 3.99211 -0.251162 15
      vertex 4 0 15
    endloop
  endfacet
  facet normal 0 0 1
    outer loop
      vertex 3.96846 0.501332 15
      vertex 3.99211 -0.251162 15
      vertex 3.99211 0.251162 15
    endloop
  endfacet
  facet normal 0 0 1
    outer loop
      vertex 3.96846 0.501332 15
      vertex 3.96846 -0.501332 15
      vertex 3.99211 -0.251162 15
    endloop
  endfacet
  facet normal 0 0 1
    outer loop
      vertex 3.92915 0.749525 15
      vertex 3.96846 -0.501332 15
      vertex 3.96846 0.501332 15
    endloop
  endfacet
  facet normal 0 0 1
    outer loop
      vertex 3.92915 0.749525 15
      vertex 3.92915 -0.749525 15
      vertex 3.96846 -0.501332 15
    endloop
  endfacet
  facet normal 0 0 1
    outer loop
      vertex 3.87433 0.994759 15
      vertex 3.92915 -0.749525 15
      vertex 3.92915 0.749525 15
    endloop
  endfacet
  facet normal 0 0 1
    outer loop
      vertex 3.87433 0.994759 15
      vertex 3.87433 -0.994759 15
      vertex 3.92915 -0.749525 15
    endloop
  endfacet
  facet normal 0 0 1
    outer loop
      vertex 3.80423 1.23607 15
      vertex 3.87433 -0.994759 15
      vertex 3.87433 0.994759 15
    endloop
  endfacet
  facet normal 0 0 1
    outer loop
      vertex 3.80423 1.23607 15
      vertex 3.80423 -1.23607 15
      vertex 3.87433 -0.994759 15
    endloop
  endfacet
  facet normal 0 0 1
    outer loop
      vertex 3.71911 1.4725 15
      vertex 3.80423 -1.23607 15
      vertex 3.80423 1.23607 15
    endloop
  endfacet
  facet normal 0 0 1
    outer loop
      vertex 3.71911 1.4725 15
      vertex 3.71911 -1.4725 15
      vertex 3.80423 -1.23607 15
    endloop
  endfacet
  facet normal 0 0 1
    outer loop
      vertex 3.61931 1.70312 15
      vertex 3.71911 -1.4725 15
      vertex 3.71911 1.4725 15
    endloop
  endfacet
  facet normal 0 0 1
    outer loop
      vertex 3.61931 1.70312 15
      vertex 3.61931 -1.70312 15
      vertex 3.71911 -1.4725 15
    endloop
  endfacet
  facet normal 0 0 1
    outer loop
      vertex 3.50523 1.92701 15
      vertex 3.61931 -1.70312 15
      vertex 3.61931 1.70312 15
    endloop
  endfacet
  facet normal 0 0 1
    outer loop
      vertex 3.50523 1.92701 15
      vertex 3.50523 -1.92701 15
      vertex 3.61931 -1.70312 15
    endloop
  endfacet
  facet normal 0 0 1
    outer loop
      vertex 3.37731 2.14331 15
      vertex 3.50523 -1.92701 15
      vertex 3.50523 1.92701 15
    endloop
  endfacet
  facet normal 0 0 1
    outer loop
      vertex 3.37731 2.14331 15
      vertex 3.37731 -2.14331 15
      vertex 3.50523 -1.92701 15
    endloop
  endfacet
  facet normal 0 0 1
    outer loop
      vertex 3.23607 2.35114 15
      vertex 3.37731 -2.14331 15
      vertex 3.37731 2.14331 15
    endloop
  endfacet
  facet normal 0 0 1
    outer loop
      vertex 3.23607 2.35114 15
      vertex 3.23607 -2.35114 15
      vertex 3.37731 -2.14331 15
    endloop
  endfacet
  facet normal 0 0 1
    outer loop
      vertex 3.08205 2.5497 15
      vertex 3.23607 -2.35114 15
      vertex 3.23607 2.35114 15
    endloop
  endfacet
  facet normal 0 0 1
    outer loop
      vertex 3.08205 2.5497 15
      vertex 3.08205 -2.5497 15
      vertex 3.23607 -2.35114 15
    endloop
  endfacet
  facet normal 0 0 1
    outer loop
      vertex 2.91587 2.73819 15
      vertex 3.08205 -2.5497 15
      vertex 3.08205 2.5497 15
    endloop
  endfacet
  facet normal 0 0 1
    outer loop
      vertex 2.91587 2.73819 15
      vertex 2.91587 -2.73819 15
      vertex 3.08205 -2.5497 15
    endloop
  endfacet
  facet normal 0 0 1
    outer loop
      vertex 2.73819 2.91587 15
      vertex 2.91587 -2.73819 15
      vertex 2.91587 2.73819 15
    endloop
  endfacet
  facet normal 0 0 1
    outer loop
      vertex 2.73819 2.91587 15
      vertex 2.73819 -2.91587 15
      vertex 2.91587 -2.73819 15
    endloop
  endfacet
  facet normal 0 0 1
    outer loop
      vertex 2.5497 3.08205 15
      vertex 2.73819 -2.91587 15
      vertex 2.73819 2.91587 15
    endloop
  endfacet
  facet normal 0 0 1
    outer loop
      vertex 2.5497 3.08205 15
      vertex 2.5497 -3.08205 15
      vertex 2.73819 -2.91587 15
    endloop
  endfacet
  facet normal 0 0 1
    outer loop
      vertex 2.35114 3.23607 15
      vertex 2.5497 -3.08205 15
      vertex 2.5497 3.08205 15
    endloop
  endfacet
  facet normal 0 0 1
    outer loop
      vertex 2.35114 3.23607 15
      vertex 2.35114 -3.23607 15
      vertex 2.5497 -3.08205 15
    endloop
  endfacet
  facet normal 0 0 1
    outer loop
      vertex 2.14331 3.37731 15
      vertex 2.35114 -3.23607 15
      vertex 2.35114 3.23607 15
    endloop
  endfacet
  facet normal 0 0 1
    outer loop
      vertex 2.14331 3.37731 15
      vertex 2.14331 -3.37731 15
      vertex 2.35114 -3.23607 15
    endloop
  endfacet
  facet normal 0 0 1
    outer loop
      vertex 1.92701 3.50523 15
      vertex 2.14331 -3.37731 15
      vertex 2.14331 3.37731 15
    endloop
  endfacet
  facet normal 0 0 1
    outer loop
      vertex 1.92701 3.50523 15
      vertex 1.92701 -3.50523 15
      vertex 2.14331 -3.37731 15
    endloop
  endfacet
  facet normal 0 0 1
    outer loop
      vertex 1.70312 3.61931 15
      vertex 1.92701 -3.50523 15
      vertex 1.92701 3.50523 15
    endloop
  endfacet
  facet normal 0 0 1
    outer loop
      vertex 1.70312 3.61931 15
      vertex 1.70312 -3.61931 15
      vertex 1.92701 -3.50523 15
    endloop
  endfacet
  facet normal 0 0 1
    outer loop
      vertex 1.4725 3.71911 15
      vertex 1.70312 -3.61931 15
      vertex 1.70312 3.61931 15
    endloop
  endfacet
  facet normal 0 0 1
    outer loop
      vertex 1.4725 3.71911 15
      vertex 1.4725 -3.71911 15
      vertex 1.70312 -3.61931 15
    endloop
  endfacet
  facet normal 0 0 1
    outer loop
      vertex 1.23607 3.80423 15
      vertex 1.4725 -3.71911 15
      vertex 1.4725 3.71911 15
    endloop
  endfacet
  facet normal 0 0 1
    outer loop
      vertex 1.23607 3.80423 15
      vertex 1.23607 -3.80423 15
      vertex 1.4725 -3.71911 15
    endloop
  endfacet
  facet normal 0 0 1
    outer loop
      vertex 0.994759 3.87433 15
      vertex 1.23607 -3.80423 15
      vertex 1.23607 3.80423 15
    endloop
  endfacet
  facet normal 0 0 1
    outer loop
      vertex 0.994759 3.87433 15
      vertex 0.994759 -3.87433 15
      vertex 1.23607 -3.80423 15
    endloop
  endfacet
  facet normal 0 0 1
    outer loop
      vertex 0.749525 3.92915 15
      vertex 0.994759 -3.87433 15
      vertex 0.994759 3.87433 15
    endloop
  endfacet
  facet normal 0 0 1
    outer loop
      vertex 0.749525 3.92915 15
      vertex 0.749525 -3.92915 15
      vertex 0.994759 -3.87433 15
    endloop
  endfacet
  facet normal 0 0 1
    outer loop
      vertex 0.501332 3.96846 15
      vertex 0.749525 -3.92915 15
      vertex 0.749525 3.92915 15
    endloop
  endfacet
  facet normal 0 0 1
    outer loop
      vertex 0.501332 3.96846 15
      vertex 0.501332 -3.96846 15
      vertex 0.749525 -3.92915 15
    endloop
  endfacet
  facet normal 0 0 1
    outer loop
      vertex 0.251162 3.99211 15
      vertex 0.501332 -3.96846 15
      vertex 0.501332 3.96846 15
    endloop
  endfacet
  facet normal 0 0 1
    outer loop
      vertex 0.251162 3.99211 15
      vertex 0.251162 -3.99211 15
      vertex 0.501332 -3.96846 15
    endloop
  endfacet
  facet normal 0 0 1
    outer loop
      vertex 0 4 15
      vertex 0.251162 -3.99211 15
      vertex 0.251162 3.99211 15
    endloop
  endfacet
  facet normal 0 0 1
    outer loop
      vertex 0 4 15
      vertex 0 -4 15
      vertex 0.251162 -3.99211 15
    endloop
  endfacet
  facet normal -0 0 1
    outer loop
      vertex -0.251162 3.99211 15
      vertex 0 -4 15
      vertex 0 4 15
    endloop
  endfacet
  facet normal 0 0 1
    outer loop
      vertex -0.251162 3.99211 15
      vertex -0.251162 -3.99211 15
      vertex 0 -4 15
    endloop
  endfacet
  facet normal -0 0 1
    outer loop
      vertex -0.501332 3.96846 15
      vertex -0.251162 -3.99211 15
      vertex -0.251162 3.99211 15
    endloop
  endfacet
  facet normal 0 0 1
    outer loop
      vertex -0.501332 3.96846 15
      vertex -0.501332 -3.96846 15
      vertex -0.251162 -3.99211 15
    endloop
  endfacet
  facet normal -0 0 1
    outer loop
      vertex -0.749525 3.92915 15
      vertex -0.501332 -3.96846 15
      vertex -0.501332 3.96846 15
    endloop
  endfacet
  facet normal 0 0 1
    outer loop
      vertex -0.749525 3.92915 15
      vertex -0.749525 -3.92915 15
      vertex -0.501332 -3.96846 15
    endloop
  endfacet
  facet normal -0 0 1
    outer loop
      vertex -0.994759 3.87433 15
      vertex -0.749525 -3.92915 15
      vertex -0.749525 3.92915 15
    endloop
  endfacet
  facet normal 0 0 1
    outer loop
      vertex -0.994759 3.87433 15
      vertex -0.994759 -3.87433 15
      vertex -0.749525 -3.92915 15
    endloop
  endfacet
  facet normal -0 0 1
    outer loop
      vertex -1.23607 3.80423 15
      vertex -0.994759 -3.87433 15
      vertex -0.994759 3.87433 15
    endloop
  endfacet
  facet normal 0 0 1
    outer loop
      vertex -1.23607 3.80423 15
      vertex -1.23607 -3.80423 15
      vertex -0.994759 -3.87433 15
    endloop
  endfacet
  facet normal -0 0 1
    outer loop
      vertex -1.4725 3.71911 15
      vertex -1.23607 -3.80423 15
      vertex -1.23607 3.80423 15
    endloop
  endfacet
  facet normal 0 0 1
    outer loop
      vertex -1.4725 3.71911 15
      vertex -1.4725 -3.71911 15
      vertex -1.23607 -3.80423 15
    endloop
  endfacet
  facet normal -0 0 1
    outer loop
      vertex -1.70312 3.61931 15
      vertex -1.4725 -3.71911 15
      vertex -1.4725 3.71911 15
    endloop
  endfacet
  facet normal 0 0 1
    outer loop
      vertex -1.70312 3.61931 15
      vertex -1.70312 -3.61931 15
      vertex -1.4725 -3.71911 15
    endloop
  endfacet
  facet normal -0 0 1
    outer loop
      vertex -1.92701 3.50523 15
      vertex -1.70312 -3.61931 15
      vertex -1.70312 3.61931 15
    endloop
  endfacet
  facet normal 0 0 1
    outer loop
      vertex -1.92701 3.50523 15
      vertex -1.92701 -3.50523 15
      vertex -1.70312 -3.61931 15
    endloop
  endfacet
  facet normal -0 0 1
    outer loop
      vertex -2.14331 3.37731 15
      vertex -1.92701 -3.50523 15
      vertex -1.92701 3.50523 15
    endloop
  endfacet
  facet normal 0 0 1
    outer loop
      vertex -2.14331 3.37731 15
      vertex -2.14331 -3.37731 15
      vertex -1.92701 -3.50523 15
    endloop
  endfacet
  facet normal -0 0 1
    outer loop
      vertex -2.35114 3.23607 15
      vertex -2.14331 -3.37731 15
      vertex -2.14331 3.37731 15
    endloop
  endfacet
  facet normal 0 0 1
    outer loop
      vertex -2.35114 3.23607 15
      vertex -2.35114 -3.23607 15
      vertex -2.14331 -3.37731 15
    endloop
  endfacet
  facet normal -0 0 1
    outer loop
      vertex -2.5497 3.08205 15
      vertex -2.35114 -3.23607 15
      vertex -2.35114 3.23607 15
    endloop
  endfacet
  facet normal 0 0 1
    outer loop
      vertex -2.5497 3.08205 15
      vertex -2.5497 -3.08205 15
      vertex -2.35114 -3.23607 15
    endloop
  endfacet
  facet normal -0 0 1
    outer loop
      vertex -2.73819 2.91587 15
      vertex -2.5497 -3.08205 15
      vertex -2.5497 3.08205 15
    endloop
  endfacet
  facet normal 0 0 1
    outer loop
      vertex -2.73819 2.91587 15
      vertex -2.73819 -2.91587 15
      vertex -2.5497 -3.08205 15
    endloop
  endfacet
  facet normal -0 0 1
    outer loop
      vertex -2.91587 2.73819 15
      vertex -2.73819 -2.91587 15
      vertex -2.73819 2.91587 15
    endloop
  endfacet
  facet normal 0 0 1
    outer loop
      vertex -2.91587 2.73819 15
      vertex -2.91587 -2.73819 15
      vertex -2.73819 -2.91587 15
    endloop
  endfacet
  facet normal -0 0 1
    outer loop
      vertex -3.08205 2.5497 15
      vertex -2.91587 -2.73819 15
      vertex -2.91587 2.73819 15
    endloop
  endfacet
  facet normal 0 0 1
    outer loop
      vertex -3.08205 2.5497 15
      vertex -3.08205 -2.5497 15
      vertex -2.91587 -2.73819 15
    endloop
  endfacet
  facet normal -0 0 1
    outer loop
      vertex -3.23607 2.35114 15
      vertex -3.08205 -2.5497 15
      vertex -3.08205 2.5497 15
    endloop
  endfacet
  facet normal 0 0 1
    outer loop
      vertex -3.23607 2.35114 15
      vertex -3.23607 -2.35114 15
      vertex -3.08205 -2.5497 15
    endloop
  endfacet
  facet normal -0 0 1
    outer loop
      vertex -3.37731 2.14331 15
      vertex -3.23607 -2.35114 15
      vertex -3.23607 2.35114 15
    endloop
  endfacet
  facet normal 0 0 1
    outer loop
      vertex -3.37731 2.14331 15
      vertex -3.37731 -2.14331 15
      vertex -3.23607 -2.35114 15
    endloop
  endfacet
  facet normal -0 0 1
    outer loop
      vertex -3.50523 1.92701 15
      vertex -3.37731 -2.14331 15
      vertex -3.37731 2.14331 15
    endloop
  endfacet
  facet normal 0 0 1
    outer loop
      vertex -3.50523 1.92701 15
      vertex -3.50523 -1.92701 15
      vertex -3.37731 -2.14331 15
    endloop
  endfacet
  facet normal -0 0 1
    outer loop
      vertex -3.61931 1.70312 15
      vertex -3.50523 -1.92701 15
      vertex -3.50523 1.92701 15
    endloop
  endfacet
  facet normal 0 0 1
    outer loop
      vertex -3.61931 1.70312 15
      vertex -3.61931 -1.70312 15
      vertex -3.50523 -1.92701 15
    endloop
  endfacet
  facet normal -0 0 1
    outer loop
      vertex -3.71911 1.4725 15
      vertex -3.61931 -1.70312 15
      vertex -3.61931 1.70312 15
    endloop
  endfacet
  facet normal 0 0 1
    outer loop
      vertex -3.71911 1.4725 15
      vertex -3.71911 -1.4725 15
      vertex -3.61931 -1.70312 15
    endloop
  endfacet
  facet normal -0 0 1
    outer loop
      vertex -3.80423 1.23607 15
      vertex -3.71911 -1.4725 15
      vertex -3.71911 1.4725 15
    endloop
  endfacet
  facet normal 0 0 1
    outer loop
      vertex -3.80423 1.23607 15
      vertex -3.80423 -1.23607 15
      vertex -3.71911 -1.4725 15
    endloop
  endfacet
  facet normal -0 0 1
    outer loop
      vertex -3.87433 0.994759 15
      vertex -3.80423 -1.23607 15
      vertex -3.80423 1.23607 15
    endloop
  endfacet
  facet normal 0 0 1
    outer loop
      vertex -3.87433 0.994759 15
      vertex -3.87433 -0.994759 15
      vertex -3.80423 -1.23607 15
    endloop
  endfacet
  facet normal -0 0 1
    outer loop
      vertex -3.92915 0.749525 15
      vertex -3.87433 -0.994759 15
      vertex -3.87433 0.994759 15
    endloop
  endfacet
  facet normal 0 0 1
    outer loop
      vertex -3.92915 0.749525 15
      vertex -3.92915 -0.749525 15
      vertex -3.87433 -0.994759 15
    endloop
  endfacet
  facet normal -0 0 1
    outer loop
      vertex -3.96846 0.501332 15
      vertex -3.92915 -0.749525 15
      vertex -3.92915 0.749525 15
    endloop
  endfacet
  facet normal 0 0 1
    outer loop
      vertex -3.96846 0.501332 15
      vertex -3.96846 -0.501332 15
      vertex -3.92915 -0.749525 15
    endloop
  endfacet
  facet normal -0 0 1
    outer loop
      vertex -3.99211 0.251162 15
      vertex -3.96846 -0.501332 15
      vertex -3.96846 0.501332 15
    endloop
  endfacet
  facet normal 0 0 1
    outer loop
      vertex -3.99211 0.251162 15
      vertex -3.99211 -0.251162 15
      vertex -3.96846 -0.501332 15
    endloop
  endfacet
  facet normal 0 -0 1
    outer loop
      vertex -3.99211 -0.251162 15
      vertex -3.99211 0.251162 15
      vertex -4 0 15
    endloop
  endfacet
  facet normal -0.707107 0.707107 0
    outer loop
      vertex -2.91587 2.73819 -10
      vertex -2.73819 2.91587 15
      vertex -2.73819 2.91587 -10
    endloop
  endfacet
  facet normal -0.707107 0.707107 0
    outer loop
      vertex -2.73819 2.91587 15
      vertex -2.91587 2.73819 -10
      vertex -2.91587 2.73819 15
    endloop
  endfacet
  facet normal -0.338738 -0.940881 0
    outer loop
      vertex -1.4725 -3.71911 -10
      vertex -1.23607 -3.80423 15
      vertex -1.4725 -3.71911 15
    endloop
  endfacet
  facet normal -0.338738 -0.940881 -0
    outer loop
      vertex -1.23607 -3.80423 15
      vertex -1.4725 -3.71911 -10
      vertex -1.23607 -3.80423 -10
    endloop
  endfacet
  facet normal -0.453998 -0.891003 0
    outer loop
      vertex -1.92701 -3.50523 -10
      vertex -1.70312 -3.61931 15
      vertex -1.92701 -3.50523 15
    endloop
  endfacet
  facet normal -0.453998 -0.891003 -0
    outer loop
      vertex -1.70312 -3.61931 15
      vertex -1.92701 -3.50523 -10
      vertex -1.70312 -3.61931 -10
    endloop
  endfacet
  facet normal 0.827083 -0.56208 0
    outer loop
      vertex 3.23607 -2.35114 15
      vertex 3.37731 -2.14331 -10
      vertex 3.37731 -2.14331 15
    endloop
  endfacet
  facet normal 0.827083 -0.56208 0
    outer loop
      vertex 3.37731 -2.14331 -10
      vertex 3.23607 -2.35114 15
      vertex 3.23607 -2.35114 -10
    endloop
  endfacet
  facet normal 0.707107 -0.707107 0
    outer loop
      vertex 2.73819 -2.91587 15
      vertex 2.91587 -2.73819 -10
      vertex 2.91587 -2.73819 15
    endloop
  endfacet
  facet normal 0.707107 -0.707107 0
    outer loop
      vertex 2.91587 -2.73819 -10
      vertex 2.73819 -2.91587 15
      vertex 2.73819 -2.91587 -10
    endloop
  endfacet
  facet normal -0.790153 -0.61291 0
    outer loop
      vertex -3.08205 -2.5497 -10
      vertex -3.23607 -2.35114 15
      vertex -3.23607 -2.35114 -10
    endloop
  endfacet
  facet normal -0.790153 -0.61291 0
    outer loop
      vertex -3.23607 -2.35114 15
      vertex -3.08205 -2.5497 -10
      vertex -3.08205 -2.5497 15
    endloop
  endfacet
  facet normal -0.0313985 -0.999507 0
    outer loop
      vertex -0.251162 -3.99211 -10
      vertex 0 -4 15
      vertex -0.251162 -3.99211 15
    endloop
  endfacet
  facet normal -0.0313985 -0.999507 -0
    outer loop
      vertex 0 -4 15
      vertex -0.251162 -3.99211 -10
      vertex 0 -4 -10
    endloop
  endfacet
  facet normal 0.56208 -0.827083 0
    outer loop
      vertex 2.14331 -3.37731 -10
      vertex 2.35114 -3.23607 15
      vertex 2.14331 -3.37731 15
    endloop
  endfacet
  facet normal 0.56208 -0.827083 0
    outer loop
      vertex 2.35114 -3.23607 15
      vertex 2.14331 -3.37731 -10
      vertex 2.35114 -3.23607 -10
    endloop
  endfacet
  facet normal 0.999507 -0.0313985 0
    outer loop
      vertex 3.99211 -0.251162 15
      vertex 4 0 -10
      vertex 4 0 15
    endloop
  endfacet
  facet normal 0.999507 -0.0313985 0
    outer loop
      vertex 4 0 -10
      vertex 3.99211 -0.251162 15
      vertex 3.99211 -0.251162 -10
    endloop
  endfacet
  facet normal -0.397154 0.917752 0
    outer loop
      vertex -1.4725 3.71911 -10
      vertex -1.70312 3.61931 15
      vertex -1.4725 3.71911 15
    endloop
  endfacet
  facet normal -0.397154 0.917752 0
    outer loop
      vertex -1.70312 3.61931 15
      vertex -1.4725 3.71911 -10
      vertex -1.70312 3.61931 -10
    endloop
  endfacet
  facet normal 0.156435 0.987688 -0
    outer loop
      vertex 0.749525 3.92915 -10
      vertex 0.501332 3.96846 15
      vertex 0.749525 3.92915 15
    endloop
  endfacet
  facet normal 0.156435 0.987688 0
    outer loop
      vertex 0.501332 3.96846 15
      vertex 0.749525 3.92915 -10
      vertex 0.501332 3.96846 -10
    endloop
  endfacet
  facet normal -0.960301 0.278964 0
    outer loop
      vertex -3.87433 0.994759 -10
      vertex -3.80423 1.23607 15
      vertex -3.80423 1.23607 -10
    endloop
  endfacet
  facet normal -0.960301 0.278964 0
    outer loop
      vertex -3.80423 1.23607 15
      vertex -3.87433 0.994759 -10
      vertex -3.87433 0.994759 15
    endloop
  endfacet
  facet normal 0.790153 0.61291 0
    outer loop
      vertex 3.23607 2.35114 15
      vertex 3.08205 2.5497 -10
      vertex 3.08205 2.5497 15
    endloop
  endfacet
  facet normal 0.790153 0.61291 0
    outer loop
      vertex 3.08205 2.5497 -10
      vertex 3.23607 2.35114 15
      vertex 3.23607 2.35114 -10
    endloop
  endfacet
  facet normal -0.56208 -0.827083 0
    outer loop
      vertex -2.35114 -3.23607 -10
      vertex -2.14331 -3.37731 15
      vertex -2.35114 -3.23607 15
    endloop
  endfacet
  facet normal -0.56208 -0.827083 -0
    outer loop
      vertex -2.14331 -3.37731 15
      vertex -2.35114 -3.23607 -10
      vertex -2.14331 -3.37731 -10
    endloop
  endfacet
  facet normal 0.278964 0.960301 -0
    outer loop
      vertex 1.23607 3.80423 -10
      vertex 0.994759 3.87433 15
      vertex 1.23607 3.80423 15
    endloop
  endfacet
  facet normal 0.278964 0.960301 0
    outer loop
      vertex 0.994759 3.87433 15
      vertex 1.23607 3.80423 -10
      vertex 0.994759 3.87433 -10
    endloop
  endfacet
  facet normal -0.891003 0.453998 0
    outer loop
      vertex -3.61931 1.70312 -10
      vertex -3.50523 1.92701 15
      vertex -3.50523 1.92701 -10
    endloop
  endfacet
  facet normal -0.891003 0.453998 0
    outer loop
      vertex -3.50523 1.92701 15
      vertex -3.61931 1.70312 -10
      vertex -3.61931 1.70312 15
    endloop
  endfacet
  facet normal -0.453998 0.891003 0
    outer loop
      vertex -1.70312 3.61931 -10
      vertex -1.92701 3.50523 15
      vertex -1.70312 3.61931 15
    endloop
  endfacet
  facet normal -0.453998 0.891003 0
    outer loop
      vertex -1.92701 3.50523 15
      vertex -1.70312 3.61931 -10
      vertex -1.92701 3.50523 -10
    endloop
  endfacet
  facet normal 0.61291 -0.790153 0
    outer loop
      vertex 2.35114 -3.23607 -10
      vertex 2.5497 -3.08205 15
      vertex 2.35114 -3.23607 15
    endloop
  endfacet
  facet normal 0.61291 -0.790153 0
    outer loop
      vertex 2.5497 -3.08205 15
      vertex 2.35114 -3.23607 -10
      vertex 2.5497 -3.08205 -10
    endloop
  endfacet
  facet normal -0.61291 -0.790153 0
    outer loop
      vertex -2.5497 -3.08205 -10
      vertex -2.35114 -3.23607 15
      vertex -2.5497 -3.08205 15
    endloop
  endfacet
  facet normal -0.61291 -0.790153 -0
    outer loop
      vertex -2.35114 -3.23607 15
      vertex -2.5497 -3.08205 -10
      vertex -2.35114 -3.23607 -10
    endloop
  endfacet
endsolid OpenSCAD_Model
