# FreeCAD v1.0 build0 Arch module
# https://www.freecad.org
mtllib letterFdocking.mtl
o letterFdocking
usemtl color_cccce6
v -20.0 -4.0 -20.0
v -20.0 -4.0 20.0
v -20.0 4.0 -20.0
v -20.0 4.0 20.0
v 4.0 -4.0 -6.0
v 4.0 -4.0 14.0
v 4.0 -0.001 -6.0
v 4.0 -0.001 14.0
v 8.0 -4.0 -6.0
v 8.0 -4.0 2.0
v 8.0 -4.0 6.0
v 8.0 -4.0 10.0
v 8.0 -0.001 -6.0
v 8.0 -0.001 2.0
v 8.0 -0.001 6.0
v 8.0 -0.001 10.0
v 12.0 -4.0 2.0
v 12.0 -4.0 6.0
v 12.0 -0.001 2.0
v 12.0 -0.001 6.0
v 14.0 -4.0 10.0
v 14.0 -4.0 14.0
v 14.0 -0.001 10.0
v 14.0 -0.001 14.0
v 20.0 -4.0 -20.0
v 20.0 -4.0 20.0
v 20.0 4.0 -20.0
v 20.0 4.0 20.0
vn -1.0 0.0 0.0
vn -1.0 0.0 0.0
vn -1.0 0.0 0.0
vn -1.0 0.0 0.0
vn 0.0 0.0 -1.0
vn 0.0 0.0 -1.0
vn 0.0 0.0 1.0
vn 0.0 0.0 1.0
vn 1.0 0.0 0.0
vn 1.0 0.0 0.0
vn -0.0 -1.0 0.0
vn -0.0 -1.0 -0.0
vn -0.0 -1.0 0.0
vn -0.0 -1.0 -0.0
vn 0.0 -1.0 0.0
vn 0.0 -1.0 0.0
vn 0.0 -1.0 0.0
vn 0.0 -1.0 0.0
vn -1.0 0.0 0.0
vn -1.0 0.0 0.0
vn 0.0 0.0 -1.0
vn 0.0 0.0 -1.0
vn 0.0 0.0 1.0
vn 0.0 0.0 1.0
vn -1.0 0.0 0.0
vn -1.0 0.0 0.0
vn 0.0 0.0 1.0
vn 0.0 0.0 1.0
vn 1.0 0.0 0.0
vn 1.0 0.0 0.0
vn 0.0 0.0 1.0
vn 0.0 0.0 1.0
vn 0.0 0.0 -1.0
vn 0.0 0.0 -1.0
vn -1.0 0.0 0.0
vn -1.0 0.0 0.0
vn 0.0 1.0 0.0
vn 0.0 1.0 0.0
vn -0.0 -1.0 0.0
vn 0.0 -1.0 0.0
vn -0.0 -1.0 0.0
vn -0.0 -1.0 -0.0
vn 0.0 -1.0 0.0
vn 0.0 -1.0 0.0
vn 0.0 -1.0 0.0
vn 0.0 -1.0 0.0
vn -0.0 -1.0 0.0
vn 0.0 -1.0 0.0
vn 0.0 -1.0 0.0
vn 0.0 -1.0 -0.0
vn 0.0 -1.0 -0.0
vn -0.0 -1.0 -0.0
f 15//1 11//1 16//1 
f 12//2 16//2 11//2 
f 13//3 9//3 14//3 
f 10//4 14//4 9//4 
f 22//5 6//5 24//5 
f 8//6 24//6 6//6 
f 13//7 7//7 9//7 
f 5//8 9//8 7//8 
f 8//9 6//9 7//9 
f 5//10 7//10 6//10 
f 24//11 8//11 16//11 
f 16//12 8//12 15//12 
f 20//13 15//13 14//13 
f 15//14 8//14 14//14 
f 8//15 7//15 14//15 
f 13//16 14//16 7//16 
f 23//17 24//17 16//17 
f 19//18 20//18 14//18 
f 19//19 17//19 20//19 
f 18//20 20//20 17//20 
f 18//21 11//21 20//21 
f 15//22 20//22 11//22 
f 19//23 14//23 17//23 
f 10//24 17//24 14//24 
f 23//25 21//25 24//25 
f 22//26 24//26 21//26 
f 23//27 16//27 21//27 
f 12//28 21//28 16//28 
f 28//29 26//29 27//29 
f 25//30 27//30 26//30 
f 28//31 4//31 26//31 
f 2//32 26//32 4//32 
f 25//33 1//33 27//33 
f 3//34 27//34 1//34 
f 3//35 1//35 4//35 
f 2//36 4//36 1//36 
f 28//37 27//37 4//37 
f 3//38 4//38 27//38 
f 17//39 10//39 9//39 
f 11//40 18//40 12//40 
f 26//41 2//41 6//41 
f 6//42 2//42 5//42 
f 1//43 25//43 5//43 
f 2//44 1//44 5//44 
f 6//45 22//45 26//45 
f 22//46 21//46 26//46 
f 21//47 12//47 18//47 
f 18//48 17//48 21//48 
f 17//49 25//49 21//49 
f 26//50 21//50 25//50 
f 17//51 9//51 25//51 
f 9//52 5//52 25//52 
