# FreeCAD v1.0 build0 Arch module
# https://www.freecad.org
mtllib letterF.mtl
o letterF
usemtl color_cccce6
v -5.0 -2.0 -10.0
v -5.0 -2.0 10.0
v -5.0 2.0 -10.0
v -5.0 2.0 10.0
v -1.0 -2.0 -10.0
v -1.0 -2.0 -2.0
v -1.0 -2.0 2.0
v -1.0 -2.0 6.0
v -1.0 2.0 -10.0
v -1.0 2.0 -2.0
v -1.0 2.0 2.0
v -1.0 2.0 6.0
v 3.0 -2.0 -2.0
v 3.0 -2.0 2.0
v 3.0 2.0 -2.0
v 3.0 2.0 2.0
v 5.0 -2.0 6.0
v 5.0 -2.0 10.0
v 5.0 2.0 6.0
v 5.0 2.0 10.0
vn 1.0 0.0 0.0
vn 1.0 0.0 0.0
vn 1.0 0.0 0.0
vn 1.0 0.0 0.0
vn 0.0 0.0 1.0
vn 0.0 0.0 1.0
vn 0.0 0.0 -1.0
vn 0.0 0.0 -1.0
vn -1.0 0.0 0.0
vn -1.0 0.0 0.0
vn -0.0 1.0 0.0
vn 0.0 1.0 -0.0
vn -0.0 1.0 0.0
vn 0.0 1.0 0.0
vn 0.0 1.0 0.0
vn 0.0 1.0 0.0
vn 0.0 1.0 -0.0
vn 0.0 1.0 0.0
vn -0.0 -1.0 0.0
vn -0.0 -1.0 -0.0
vn -0.0 -1.0 0.0
vn -0.0 -1.0 -0.0
vn 0.0 -1.0 0.0
vn 0.0 -1.0 0.0
vn 0.0 -1.0 0.0
vn 0.0 -1.0 0.0
vn 1.0 0.0 0.0
vn 1.0 0.0 0.0
vn 0.0 0.0 1.0
vn 0.0 0.0 1.0
vn 0.0 0.0 -1.0
vn 0.0 0.0 -1.0
vn 1.0 0.0 0.0
vn 1.0 0.0 0.0
vn 0.0 0.0 -1.0
vn 0.0 0.0 -1.0
f 12//1 8//1 11//1 
f 7//2 11//2 8//2 
f 10//3 6//3 9//3 
f 5//4 9//4 6//4 
f 20//5 4//5 18//5 
f 2//6 18//6 4//6 
f 5//7 1//7 9//7 
f 3//8 9//8 1//8 
f 3//9 1//9 4//9 
f 2//10 4//10 1//10 
f 11//11 16//11 15//11 
f 19//12 12//12 20//12 
f 4//13 20//13 12//13 
f 12//14 11//14 4//14 
f 15//15 10//15 11//15 
f 11//16 10//16 4//16 
f 9//17 3//17 10//17 
f 4//18 10//18 3//18 
f 18//19 2//19 8//19 
f 8//20 2//20 7//20 
f 14//21 7//21 6//21 
f 7//22 2//22 6//22 
f 2//23 1//23 6//23 
f 5//24 6//24 1//24 
f 17//25 18//25 8//25 
f 13//26 14//26 6//26 
f 16//27 14//27 15//27 
f 13//28 15//28 14//28 
f 16//29 11//29 14//29 
f 7//30 14//30 11//30 
f 13//31 6//31 15//31 
f 10//32 15//32 6//32 
f 20//33 18//33 19//33 
f 17//34 19//34 18//34 
f 17//35 8//35 19//35 
f 12//36 19//36 8//36 
