# FreeCAD v1.0 build0 Arch module
# https://www.freecad.org
mtllib anchor.mtl
o anchor
usemtl color_cccce6
v -7.5 -8.75 -10.0
v -7.5 -8.75 10.0
v -7.5 -3.75 -5.0
v -7.5 -3.75 5.0
v -7.5 1.25 -10.0
v -7.5 1.25 -5.0
v -7.5 1.25 5.0
v -7.5 1.25 10.0
v -7.4852 1.72093 -10.0
v -7.4852 1.72093 -5.0
v -7.4852 1.72093 5.0
v -7.4852 1.72093 10.0
v -7.44086 2.19 -10.0
v -7.44086 2.19 -5.0
v -7.44086 2.19 5.0
v -7.44086 2.19 10.0
v -7.36715 2.65536 -10.0
v -7.36715 2.65536 -5.0
v -7.36715 2.65536 5.0
v -7.36715 2.65536 10.0
v -7.26437 3.11517 -10.0
v -7.26437 3.11517 -5.0
v -7.26437 3.11517 5.0
v -7.26437 3.11517 10.0
v -7.13292 3.56763 -10.0
v -7.13292 3.56763 -5.0
v -7.13292 3.56763 5.0
v -7.13292 3.56763 10.0
v -6.97332 4.01093 -10.0
v -6.97332 4.01093 -5.0
v -6.97332 4.01093 5.0
v -6.97332 4.01093 10.0
v -6.7862 4.44334 -10.0
v -6.7862 4.44334 -5.0
v -6.7862 4.44334 5.0
v -6.7862 4.44334 10.0
v -6.5723 4.86315 -10.0
v -6.5723 4.86315 -5.0
v -6.5723 4.86315 5.0
v -6.5723 4.86315 10.0
v -6.33246 5.2687 -10.0
v -6.33246 5.2687 -5.0
v -6.33246 5.2687 5.0
v -6.33246 5.2687 10.0
v -6.06763 5.65839 -10.0
v -6.06763 5.65839 -5.0
v -6.06763 5.65839 5.0
v -6.06763 5.65839 10.0
v -5.77885 6.03068 -10.0
v -5.77885 6.03068 -5.0
v -5.77885 6.03068 5.0
v -5.77885 6.03068 10.0
v -5.46726 6.3841 -10.0
v -5.46726 6.3841 -5.0
v -5.46726 6.3841 5.0
v -5.46726 6.3841 10.0
v -5.1341 6.71726 -10.0
v -5.1341 6.71726 -5.0
v -5.1341 6.71726 5.0
v -5.1341 6.71726 10.0
v -4.78068 7.02885 -10.0
v -4.78068 7.02885 -5.0
v -4.78068 7.02885 5.0
v -4.78068 7.02885 10.0
v -4.40839 7.31763 -10.0
v -4.40839 7.31763 -5.0
v -4.40839 7.31763 5.0
v -4.40839 7.31763 10.0
v -4.0187 7.58246 -10.0
v -4.0187 7.58246 -5.0
v -4.0187 7.58246 5.0
v -4.0187 7.58246 10.0
v -4.0 1.25 -10.0
v -4.0 1.25 -5.0
v -4.0 1.25 5.0
v -4.0 1.25 10.0
v -3.99211 0.998837 -10.0
v -3.99211 0.998837 -5.0
v -3.99211 0.998837 5.0
v -3.99211 0.998837 10.0
v -3.99211 1.50116 -10.0
v -3.99211 1.50116 -5.0
v -3.99211 1.50116 5.0
v -3.99211 1.50116 10.0
v -3.96846 0.748667 -10.0
v -3.96846 0.748667 -5.0
v -3.96846 0.748667 5.0
v -3.96846 0.748667 10.0
v -3.96846 1.75133 -10.0
v -3.96846 1.75133 -5.0
v -3.96846 1.75133 5.0
v -3.96846 1.75133 10.0
v -3.92915 0.500474 -10.0
v -3.92915 0.500474 -5.0
v -3.92915 0.500474 5.0
v -3.92915 0.500474 10.0
v -3.92915 1.99953 -10.0
v -3.92915 1.99953 -5.0
v -3.92915 1.99953 5.0
v -3.92915 1.99953 10.0
v -3.87433 0.25524 -10.0
v -3.87433 0.25524 -5.0
v -3.87433 0.25524 5.0
v -3.87433 0.25524 10.0
v -3.87433 2.24476 -10.0
v -3.87433 2.24476 -5.0
v -3.87433 2.24476 5.0
v -3.87433 2.24476 10.0
v -3.80423 0.013931 -10.0
v -3.80423 0.013931 -5.0
v -3.80423 0.013931 5.0
v -3.80423 0.013931 10.0
v -3.80423 2.48607 -10.0
v -3.80423 2.48607 -5.0
v -3.80423 2.48607 5.0
v -3.80423 2.48607 10.0
v -3.71911 -0.222499 -10.0
v -3.71911 -0.222499 -5.0
v -3.71911 -0.222499 5.0
v -3.71911 -0.222499 10.0
v -3.71911 2.7225 -10.0
v -3.71911 2.7225 -5.0
v -3.71911 2.7225 5.0
v -3.71911 2.7225 10.0
v -3.61931 -0.453117 -10.0
v -3.61931 -0.453117 -5.0
v -3.61931 -0.453117 5.0
v -3.61931 -0.453117 10.0
v -3.61931 2.95312 -10.0
v -3.61931 2.95312 -5.0
v -3.61931 2.95312 5.0
v -3.61931 2.95312 10.0
v -3.61315 7.8223 -10.0
v -3.61315 7.8223 -5.0
v -3.61315 7.8223 5.0
v -3.61315 7.8223 10.0
v -3.50523 -0.677015 -10.0
v -3.50523 -0.677015 -5.0
v -3.50523 -0.677015 5.0
v -3.50523 -0.677015 10.0
v -3.50523 3.17701 -10.0
v -3.50523 3.17701 -5.0
v -3.50523 3.17701 5.0
v -3.50523 3.17701 10.0
v -3.37731 -0.893308 -10.0
v -3.37731 -0.893308 -5.0
v -3.37731 -0.893308 5.0
v -3.37731 -0.893308 10.0
v -3.37731 3.39331 -10.0
v -3.37731 3.39331 -5.0
v -3.37731 3.39331 5.0
v -3.37731 3.39331 10.0
v -3.23607 -1.10114 -10.0
v -3.23607 -1.10114 -5.0
v -3.23607 -1.10114 5.0
v -3.23607 -1.10114 10.0
v -3.23607 3.60114 -10.0
v -3.23607 3.60114 -5.0
v -3.23607 3.60114 5.0
v -3.23607 3.60114 10.0
v -3.19334 8.0362 -10.0
v -3.19334 8.0362 -5.0
v -3.19334 8.0362 5.0
v -3.19334 8.0362 10.0
v -3.08205 -1.2997 -10.0
v -3.08205 -1.2997 -5.0
v -3.08205 -1.2997 5.0
v -3.08205 -1.2997 10.0
v -3.08205 3.7997 -10.0
v -3.08205 3.7997 -5.0
v -3.08205 3.7997 5.0
v -3.08205 3.7997 10.0
v -2.91587 -1.48819 -10.0
v -2.91587 -1.48819 -5.0
v -2.91587 -1.48819 5.0
v -2.91587 -1.48819 10.0
v -2.91587 3.98819 -10.0
v -2.91587 3.98819 -5.0
v -2.91587 3.98819 5.0
v -2.91587 3.98819 10.0
v -2.76093 8.22332 -10.0
v -2.76093 8.22332 -5.0
v -2.76093 8.22332 5.0
v -2.76093 8.22332 10.0
v -2.73819 -1.66588 -10.0
v -2.73819 -1.66588 -5.0
v -2.73819 -1.66588 5.0
v -2.73819 -1.66588 10.0
v -2.73819 4.16587 -10.0
v -2.73819 4.16587 -5.0
v -2.73819 4.16587 5.0
v -2.73819 4.16587 10.0
v -2.5497 -1.83205 -10.0
v -2.5497 -1.83205 -5.0
v -2.5497 -1.83205 5.0
v -2.5497 -1.83205 10.0
v -2.5497 4.33205 -10.0
v -2.5497 4.33205 -5.0
v -2.5497 4.33205 5.0
v -2.5497 4.33205 10.0
v -2.35114 -1.98607 -10.0
v -2.35114 -1.98607 -5.0
v -2.35114 -1.98607 5.0
v -2.35114 -1.98607 10.0
v -2.35114 4.48607 -10.0
v -2.35114 4.48607 -5.0
v -2.35114 4.48607 5.0
v -2.35114 4.48607 10.0
v -2.31763 8.38292 -10.0
v -2.31763 8.38292 -5.0
v -2.31763 8.38292 5.0
v -2.31763 8.38292 10.0
v -2.14331 -2.12731 -10.0
v -2.14331 -2.12731 -5.0
v -2.14331 -2.12731 5.0
v -2.14331 -2.12731 10.0
v -2.14331 4.62731 -10.0
v -2.14331 4.62731 -5.0
v -2.14331 4.62731 5.0
v -2.14331 4.62731 10.0
v -1.92702 -2.25523 -10.0
v -1.92702 -2.25523 -5.0
v -1.92702 -2.25523 5.0
v -1.92702 -2.25523 10.0
v -1.92702 4.75523 -10.0
v -1.92702 4.75523 -5.0
v -1.92702 4.75523 5.0
v -1.92702 4.75523 10.0
v -1.86517 8.51437 -10.0
v -1.86517 8.51437 -5.0
v -1.86517 8.51437 5.0
v -1.86517 8.51437 10.0
v -1.70312 -2.36931 -10.0
v -1.70312 -2.36931 -5.0
v -1.70312 -2.36931 5.0
v -1.70312 -2.36931 10.0
v -1.70312 4.86931 -10.0
v -1.70312 4.86931 -5.0
v -1.70312 4.86931 5.0
v -1.70312 4.86931 10.0
v -1.4725 -2.46911 -10.0
v -1.4725 -2.46911 -5.0
v -1.4725 -2.46911 5.0
v -1.4725 -2.46911 10.0
v -1.4725 4.96911 -10.0
v -1.4725 4.96911 -5.0
v -1.4725 4.96911 5.0
v -1.4725 4.96911 10.0
v -1.40536 8.61715 -10.0
v -1.40536 8.61715 -5.0
v -1.40536 8.61715 5.0
v -1.40536 8.61715 10.0
v -1.23607 -2.55423 -10.0
v -1.23607 -2.55423 -5.0
v -1.23607 -2.55423 5.0
v -1.23607 -2.55423 10.0
v -1.23607 5.05423 -10.0
v -1.23607 5.05423 -5.0
v -1.23607 5.05423 5.0
v -1.23607 5.05423 10.0
v -0.99476 -2.62433 -10.0
v -0.99476 -2.62433 -5.0
v -0.99476 -2.62433 5.0
v -0.99476 -2.62433 10.0
v -0.99476 5.12433 -10.0
v -0.99476 5.12433 -5.0
v -0.99476 5.12433 5.0
v -0.99476 5.12433 10.0
v -0.94 8.69086 -10.0
v -0.94 8.69086 -5.0
v -0.94 8.69086 5.0
v -0.94 8.69086 10.0
v -0.749526 -2.67915 -10.0
v -0.749526 -2.67915 -5.0
v -0.749526 -2.67915 5.0
v -0.749526 -2.67915 10.0
v -0.749526 5.17915 -10.0
v -0.749526 5.17915 -5.0
v -0.749526 5.17915 5.0
v -0.749526 5.17915 10.0
v -0.501333 -2.71846 -10.0
v -0.501333 -2.71846 -5.0
v -0.501333 -2.71846 5.0
v -0.501333 -2.71846 10.0
v -0.501333 5.21846 -10.0
v -0.501333 5.21846 -5.0
v -0.501333 5.21846 5.0
v -0.501333 5.21846 10.0
v -0.470929 8.7352 -10.0
v -0.470929 8.7352 -5.0
v -0.470929 8.7352 5.0
v -0.470929 8.7352 10.0
v -0.251163 -2.74211 -10.0
v -0.251163 -2.74211 -5.0
v -0.251163 -2.74211 5.0
v -0.251163 -2.74211 10.0
v -0.251163 5.24211 -10.0
v -0.251163 5.24211 -5.0
v -0.251163 5.24211 5.0
v -0.251163 5.24211 10.0
v 0.0 -2.75 -10.0
v 0.0 -2.75 -5.0
v 0.0 -2.75 5.0
v 0.0 -2.75 10.0
v 0.0 5.25 -10.0
v 0.0 5.25 -5.0
v 0.0 5.25 5.0
v 0.0 5.25 10.0
v 0.0 8.75 -10.0
v 0.0 8.75 -5.0
v 0.0 8.75 5.0
v 0.0 8.75 10.0
v 0.251162 -2.74211 -10.0
v 0.251162 -2.74211 -5.0
v 0.251162 -2.74211 5.0
v 0.251162 -2.74211 10.0
v 0.251162 5.24211 -10.0
v 0.251162 5.24211 -5.0
v 0.251162 5.24211 5.0
v 0.251162 5.24211 10.0
v 0.470928 8.7352 -10.0
v 0.470928 8.7352 -5.0
v 0.470928 8.7352 5.0
v 0.470928 8.7352 10.0
v 0.501332 -2.71846 -10.0
v 0.501332 -2.71846 -5.0
v 0.501332 -2.71846 5.0
v 0.501332 -2.71846 10.0
v 0.501332 5.21846 -10.0
v 0.501332 5.21846 -5.0
v 0.501332 5.21846 5.0
v 0.501332 5.21846 10.0
v 0.749525 -2.67915 -10.0
v 0.749525 -2.67915 -5.0
v 0.749525 -2.67915 5.0
v 0.749525 -2.67915 10.0
v 0.749525 5.17915 -10.0
v 0.749525 5.17915 -5.0
v 0.749525 5.17915 5.0
v 0.749525 5.17915 10.0
v 0.939999 8.69086 -10.0
v 0.939999 8.69086 -5.0
v 0.939999 8.69086 5.0
v 0.939999 8.69086 10.0
v 0.994759 -2.62433 -10.0
v 0.994759 -2.62433 -5.0
v 0.994759 -2.62433 5.0
v 0.994759 -2.62433 10.0
v 0.994759 5.12433 -10.0
v 0.994759 5.12433 -5.0
v 0.994759 5.12433 5.0
v 0.994759 5.12433 10.0
v 1.23607 -2.55423 -10.0
v 1.23607 -2.55423 -5.0
v 1.23607 -2.55423 5.0
v 1.23607 -2.55423 10.0
v 1.23607 5.05423 -10.0
v 1.23607 5.05423 -5.0
v 1.23607 5.05423 5.0
v 1.23607 5.05423 10.0
v 1.40536 8.61715 -10.0
v 1.40536 8.61715 -5.0
v 1.40536 8.61715 5.0
v 1.40536 8.61715 10.0
v 1.4725 -2.46911 -10.0
v 1.4725 -2.46911 -5.0
v 1.4725 -2.46911 5.0
v 1.4725 -2.46911 10.0
v 1.4725 4.96911 -10.0
v 1.4725 4.96911 -5.0
v 1.4725 4.96911 5.0
v 1.4725 4.96911 10.0
v 1.70312 -2.36931 -10.0
v 1.70312 -2.36931 -5.0
v 1.70312 -2.36931 5.0
v 1.70312 -2.36931 10.0
v 1.70312 4.86931 -10.0
v 1.70312 4.86931 -5.0
v 1.70312 4.86931 5.0
v 1.70312 4.86931 10.0
v 1.86517 8.51437 -10.0
v 1.86517 8.51437 -5.0
v 1.86517 8.51437 5.0
v 1.86517 8.51437 10.0
v 1.92701 -2.25523 -10.0
v 1.92701 -2.25523 -5.0
v 1.92701 -2.25523 5.0
v 1.92701 -2.25523 10.0
v 1.92701 4.75523 -10.0
v 1.92701 4.75523 -5.0
v 1.92701 4.75523 5.0
v 1.92701 4.75523 10.0
v 2.14331 -2.12731 -10.0
v 2.14331 -2.12731 -5.0
v 2.14331 -2.12731 5.0
v 2.14331 -2.12731 10.0
v 2.14331 4.62731 -10.0
v 2.14331 4.62731 -5.0
v 2.14331 4.62731 5.0
v 2.14331 4.62731 10.0
v 2.31763 8.38292 -10.0
v 2.31763 8.38292 -5.0
v 2.31763 8.38292 5.0
v 2.31763 8.38292 10.0
v 2.35114 -1.98607 -10.0
v 2.35114 -1.98607 -5.0
v 2.35114 -1.98607 5.0
v 2.35114 -1.98607 10.0
v 2.35114 4.48607 -10.0
v 2.35114 4.48607 -5.0
v 2.35114 4.48607 5.0
v 2.35114 4.48607 10.0
v 2.5497 -1.83205 -10.0
v 2.5497 -1.83205 -5.0
v 2.5497 -1.83205 5.0
v 2.5497 -1.83205 10.0
v 2.5497 4.33205 -10.0
v 2.5497 4.33205 -5.0
v 2.5497 4.33205 5.0
v 2.5497 4.33205 10.0
v 2.73819 -1.66588 -10.0
v 2.73819 -1.66588 -5.0
v 2.73819 -1.66588 5.0
v 2.73819 -1.66588 10.0
v 2.73819 4.16587 -10.0
v 2.73819 4.16587 -5.0
v 2.73819 4.16587 5.0
v 2.73819 4.16587 10.0
v 2.76093 8.22332 -10.0
v 2.76093 8.22332 -5.0
v 2.76093 8.22332 5.0
v 2.76093 8.22332 10.0
v 2.91587 -1.48819 -10.0
v 2.91587 -1.48819 -5.0
v 2.91587 -1.48819 5.0
v 2.91587 -1.48819 10.0
v 2.91587 3.98819 -10.0
v 2.91587 3.98819 -5.0
v 2.91587 3.98819 5.0
v 2.91587 3.98819 10.0
v 3.08205 -1.2997 -10.0
v 3.08205 -1.2997 -5.0
v 3.08205 -1.2997 5.0
v 3.08205 -1.2997 10.0
v 3.08205 3.7997 -10.0
v 3.08205 3.7997 -5.0
v 3.08205 3.7997 5.0
v 3.08205 3.7997 10.0
v 3.19334 8.0362 -10.0
v 3.19334 8.0362 -5.0
v 3.19334 8.0362 5.0
v 3.19334 8.0362 10.0
v 3.23607 -1.10114 -10.0
v 3.23607 -1.10114 -5.0
v 3.23607 -1.10114 5.0
v 3.23607 -1.10114 10.0
v 3.23607 3.60114 -10.0
v 3.23607 3.60114 -5.0
v 3.23607 3.60114 5.0
v 3.23607 3.60114 10.0
v 3.37731 -0.893308 -10.0
v 3.37731 -0.893308 -5.0
v 3.37731 -0.893308 5.0
v 3.37731 -0.893308 10.0
v 3.37731 3.39331 -10.0
v 3.37731 3.39331 -5.0
v 3.37731 3.39331 5.0
v 3.37731 3.39331 10.0
v 3.50523 -0.677015 -10.0
v 3.50523 -0.677015 -5.0
v 3.50523 -0.677015 5.0
v 3.50523 -0.677015 10.0
v 3.50523 3.17701 -10.0
v 3.50523 3.17701 -5.0
v 3.50523 3.17701 5.0
v 3.50523 3.17701 10.0
v 3.61315 7.8223 -10.0
v 3.61315 7.8223 -5.0
v 3.61315 7.8223 5.0
v 3.61315 7.8223 10.0
v 3.61931 -0.453117 -10.0
v 3.61931 -0.453117 -5.0
v 3.61931 -0.453117 5.0
v 3.61931 -0.453117 10.0
v 3.61931 2.95312 -10.0
v 3.61931 2.95312 -5.0
v 3.61931 2.95312 5.0
v 3.61931 2.95312 10.0
v 3.71911 -0.222499 -10.0
v 3.71911 -0.222499 -5.0
v 3.71911 -0.222499 5.0
v 3.71911 -0.222499 10.0
v 3.71911 2.7225 -10.0
v 3.71911 2.7225 -5.0
v 3.71911 2.7225 5.0
v 3.71911 2.7225 10.0
v 3.80423 0.013931 -10.0
v 3.80423 0.013931 -5.0
v 3.80423 0.013931 5.0
v 3.80423 0.013931 10.0
v 3.80423 2.48607 -10.0
v 3.80423 2.48607 -5.0
v 3.80423 2.48607 5.0
v 3.80423 2.48607 10.0
v 3.87433 0.25524 -10.0
v 3.87433 0.25524 -5.0
v 3.87433 0.25524 5.0
v 3.87433 0.25524 10.0
v 3.87433 2.24476 -10.0
v 3.87433 2.24476 -5.0
v 3.87433 2.24476 5.0
v 3.87433 2.24476 10.0
v 3.92915 0.500474 -10.0
v 3.92915 0.500474 -5.0
v 3.92915 0.500474 5.0
v 3.92915 0.500474 10.0
v 3.92915 1.99953 -10.0
v 3.92915 1.99953 -5.0
v 3.92915 1.99953 5.0
v 3.92915 1.99953 10.0
v 3.96846 0.748667 -10.0
v 3.96846 0.748667 -5.0
v 3.96846 0.748667 5.0
v 3.96846 0.748667 10.0
v 3.96846 1.75133 -10.0
v 3.96846 1.75133 -5.0
v 3.96846 1.75133 5.0
v 3.96846 1.75133 10.0
v 3.99211 0.998837 -10.0
v 3.99211 0.998837 -5.0
v 3.99211 0.998837 5.0
v 3.99211 0.998837 10.0
v 3.99211 1.50116 -10.0
v 3.99211 1.50116 -5.0
v 3.99211 1.50116 5.0
v 3.99211 1.50116 10.0
v 4.0 1.25 -10.0
v 4.0 1.25 -5.0
v 4.0 1.25 5.0
v 4.0 1.25 10.0
v 4.0187 7.58246 -10.0
v 4.0187 7.58246 -5.0
v 4.0187 7.58246 5.0
v 4.0187 7.58246 10.0
v 4.40839 7.31763 -10.0
v 4.40839 7.31763 -5.0
v 4.40839 7.31763 5.0
v 4.40839 7.31763 10.0
v 4.78068 7.02885 -10.0
v 4.78068 7.02885 -5.0
v 4.78068 7.02885 5.0
v 4.78068 7.02885 10.0
v 5.1341 6.71726 -10.0
v 5.1341 6.71726 -5.0
v 5.1341 6.71726 5.0
v 5.1341 6.71726 10.0
v 5.46726 6.3841 -10.0
v 5.46726 6.3841 -5.0
v 5.46726 6.3841 5.0
v 5.46726 6.3841 10.0
v 5.77885 6.03068 -10.0
v 5.77885 6.03068 -5.0
v 5.77885 6.03068 5.0
v 5.77885 6.03068 10.0
v 6.06763 5.65839 -10.0
v 6.06763 5.65839 -5.0
v 6.06763 5.65839 5.0
v 6.06763 5.65839 10.0
v 6.33246 5.2687 -10.0
v 6.33246 5.2687 -5.0
v 6.33246 5.2687 5.0
v 6.33246 5.2687 10.0
v 6.5723 4.86315 -10.0
v 6.5723 4.86315 -5.0
v 6.5723 4.86315 5.0
v 6.5723 4.86315 10.0
v 6.7862 4.44334 -10.0
v 6.7862 4.44334 -5.0
v 6.7862 4.44334 5.0
v 6.7862 4.44334 10.0
v 6.97332 4.01093 -10.0
v 6.97332 4.01093 -5.0
v 6.97332 4.01093 5.0
v 6.97332 4.01093 10.0
v 7.13292 3.56763 -10.0
v 7.13292 3.56763 -5.0
v 7.13292 3.56763 5.0
v 7.13292 3.56763 10.0
v 7.26437 3.11517 -10.0
v 7.26437 3.11517 -5.0
v 7.26437 3.11517 5.0
v 7.26437 3.11517 10.0
v 7.36715 2.65536 -10.0
v 7.36715 2.65536 -5.0
v 7.36715 2.65536 5.0
v 7.36715 2.65536 10.0
v 7.44086 2.19 -10.0
v 7.44086 2.19 -5.0
v 7.44086 2.19 5.0
v 7.44086 2.19 10.0
v 7.4852 1.72093 -10.0
v 7.4852 1.72093 -5.0
v 7.4852 1.72093 5.0
v 7.4852 1.72093 10.0
v 7.5 -8.75 -10.0
v 7.5 -8.75 10.0
v 7.5 -3.75 -5.0
v 7.5 -3.75 5.0
v 7.5 1.25 -10.0
v 7.5 1.25 -5.0
v 7.5 1.25 5.0
v 7.5 1.25 10.0
vn 1.0 0.0 0.0
vn 1.0 0.0 0.0
vn 1.0 -0.0 0.0
vn 1.0 -0.0 0.0
vn 1.0 0.0 0.0
vn 1.0 0.0 0.0
vn 0.0 0.0 1.0
vn 0.0 0.0 1.0
vn 0.0 0.0 1.0
vn 0.0 0.0 1.0
vn 0.0 0.0 1.0
vn 0.0 0.0 1.0
vn 0.0 0.0 1.0
vn 0.0 0.0 1.0
vn 0.0 0.0 1.0
vn 0.0 0.0 1.0
vn 0.0 0.0 1.0
vn 0.0 0.0 1.0
vn 0.0 0.0 1.0
vn 0.0 0.0 1.0
vn 0.0 0.0 1.0
vn 0.0 0.0 1.0
vn 0.0 0.0 1.0
vn 0.0 0.0 1.0
vn 0.0 0.0 1.0
vn 0.0 0.0 1.0
vn 0.0 0.0 1.0
vn 0.0 0.0 1.0
vn 0.0 0.0 1.0
vn 0.0 0.0 1.0
vn 0.0 0.0 1.0
vn 0.0 0.0 1.0
vn 0.0 0.0 1.0
vn 0.0 0.0 1.0
vn 0.0 0.0 1.0
vn 0.0 0.0 1.0
vn 0.0 0.0 1.0
vn 0.0 0.0 1.0
vn 0.0 0.0 1.0
vn 0.0 0.0 1.0
vn 0.0 0.0 1.0
vn -0.0 0.0 1.0
vn 0.0 0.0 1.0
vn -0.0 0.0 1.0
vn 0.0 0.0 1.0
vn -0.0 0.0 1.0
vn 0.0 0.0 1.0
vn -0.0 0.0 1.0
vn 0.0 0.0 1.0
vn -0.0 0.0 1.0
vn 0.0 0.0 1.0
vn -0.0 0.0 1.0
vn 0.0 0.0 1.0
vn -0.0 0.0 1.0
vn 0.0 0.0 1.0
vn -0.0 0.0 1.0
vn 0.0 0.0 1.0
vn -0.0 0.0 1.0
vn 0.0 0.0 1.0
vn -0.0 0.0 1.0
vn 0.0 0.0 1.0
vn -0.0 0.0 1.0
vn 0.0 0.0 1.0
vn -0.0 0.0 1.0
vn 0.0 0.0 1.0
vn -0.0 0.0 1.0
vn 0.0 0.0 1.0
vn -0.0 0.0 1.0
vn 0.0 0.0 1.0
vn -0.0 0.0 1.0
vn 0.0 0.0 1.0
vn -0.0 0.0 1.0
vn -0.0 0.0 1.0
vn 0.0 0.0 1.0
vn 0.0 0.0 1.0
vn 0.0 0.0 1.0
vn 0.0 0.0 1.0
vn 0.0 0.0 1.0
vn 0.0 0.0 1.0
vn 0.0 0.0 1.0
vn 0.0 0.0 1.0
vn 0.0 0.0 1.0
vn 0.0 0.0 1.0
vn 0.0 0.0 1.0
vn 0.0 0.0 1.0
vn 0.0 0.0 1.0
vn 0.0 0.0 1.0
vn 0.0 0.0 1.0
vn 0.0 0.0 1.0
vn 0.0 0.0 1.0
vn 0.0 0.0 1.0
vn 0.0 0.0 1.0
vn 0.0 0.0 1.0
vn 0.0 0.0 1.0
vn 0.0 0.0 1.0
vn 0.0 0.0 1.0
vn 0.0 0.0 1.0
vn -0.0 0.0 1.0
vn -0.0 0.0 1.0
vn -0.0 0.0 1.0
vn -0.0 0.0 1.0
vn -0.0 0.0 1.0
vn -0.0 0.0 1.0
vn -0.0 0.0 1.0
vn -0.0 0.0 1.0
vn -0.0 0.0 1.0
vn -0.0 0.0 1.0
vn -0.0 0.0 1.0
vn -0.0 0.0 1.0
vn -0.0 0.0 1.0
vn -0.0 0.0 1.0
vn -0.0 0.0 1.0
vn -0.0 0.0 1.0
vn -0.0 0.0 1.0
vn -0.0 0.0 1.0
vn -0.0 0.0 1.0
vn 0.0 0.0 1.0
vn 0.0 0.0 1.0
vn 0.0 0.0 1.0
vn -0.0 0.0 1.0
vn 0.0 0.0 1.0
vn -0.0 0.0 1.0
vn 0.0 0.0 1.0
vn -0.0 0.0 1.0
vn 0.0 0.0 1.0
vn -0.0 0.0 1.0
vn 0.0 0.0 1.0
vn -0.0 0.0 1.0
vn 0.0 0.0 1.0
vn -0.0 0.0 1.0
vn 0.0 0.0 1.0
vn -0.0 0.0 1.0
vn 0.0 0.0 1.0
vn 0.0 0.0 1.0
vn 0.0 0.0 1.0
vn 0.0 0.0 1.0
vn 0.0 0.0 1.0
vn 0.0 0.0 1.0
vn 0.0 0.0 1.0
vn 0.0 0.0 1.0
vn 0.0 0.0 1.0
vn 0.0 0.0 1.0
vn 0.0 0.0 1.0
vn 0.0 0.0 1.0
vn 0.0 0.0 1.0
vn 0.0 0.0 1.0
vn 0.0 0.0 1.0
vn 0.0 0.0 1.0
vn 0.0 0.0 1.0
vn 0.0 0.0 1.0
vn 0.0 0.0 1.0
vn 0.0 0.0 1.0
vn 0.0 0.0 1.0
vn 0.0 0.0 1.0
vn 0.0 0.0 1.0
vn 0.0 0.0 1.0
vn 0.0 0.0 1.0
vn 0.0 0.0 1.0
vn 0.0 0.0 1.0
vn 0.0 0.0 -1.0
vn 0.0 -0.0 -1.0
vn 0.0 -0.0 -1.0
vn 0.0 -0.0 -1.0
vn 0.0 -0.0 -1.0
vn 0.0 -0.0 -1.0
vn 0.0 0.0 -1.0
vn -0.0 0.0 -1.0
vn 0.0 0.0 -1.0
vn 0.0 0.0 -1.0
vn 0.0 0.0 -1.0
vn 0.0 0.0 -1.0
vn -0.0 0.0 -1.0
vn -0.0 0.0 -1.0
vn -0.0 0.0 -1.0
vn 0.0 0.0 -1.0
vn 0.0 0.0 -1.0
vn 0.0 0.0 -1.0
vn -0.0 0.0 -1.0
vn -0.0 0.0 -1.0
vn -0.0 0.0 -1.0
vn 0.0 0.0 -1.0
vn 0.0 -0.0 -1.0
vn 0.0 -0.0 -1.0
vn 0.0 -0.0 -1.0
vn 0.0 -0.0 -1.0
vn 0.0 0.0 -1.0
vn 0.0 0.0 -1.0
vn 0.0 0.0 -1.0
vn 0.0 0.0 -1.0
vn 0.0 0.0 -1.0
vn 0.0 0.0 -1.0
vn 0.0 0.0 -1.0
vn 0.0 0.0 -1.0
vn 0.0 0.0 -1.0
vn 0.0 0.0 -1.0
vn 0.0 0.0 -1.0
vn 0.0 0.0 -1.0
vn 0.0 0.0 -1.0
vn 0.0 0.0 -1.0
vn 0.0 0.0 -1.0
vn 0.0 0.0 -1.0
vn 0.0 0.0 -1.0
vn -0.0 0.0 -1.0
vn -0.0 0.0 -1.0
vn -0.0 0.0 -1.0
vn -0.0 0.0 -1.0
vn -0.0 0.0 -1.0
vn -0.0 0.0 -1.0
vn -0.0 0.0 -1.0
vn -0.0 0.0 -1.0
vn -0.0 0.0 -1.0
vn 0.0 0.0 -1.0
vn 0.0 0.0 -1.0
vn 0.0 0.0 -1.0
vn 0.0 0.0 -1.0
vn 0.0 0.0 -1.0
vn 0.0 0.0 -1.0
vn 0.0 0.0 -1.0
vn 0.0 0.0 -1.0
vn 0.0 0.0 -1.0
vn 0.0 0.0 -1.0
vn 0.0 0.0 -1.0
vn 0.0 0.0 -1.0
vn 0.0 0.0 -1.0
vn 0.0 0.0 -1.0
vn 0.0 0.0 -1.0
vn 0.0 0.0 -1.0
vn 0.0 0.0 -1.0
vn 0.0 0.0 -1.0
vn 0.0 0.0 -1.0
vn 0.0 0.0 -1.0
vn 0.0 0.0 -1.0
vn 0.0 0.0 -1.0
vn 0.0 0.0 -1.0
vn 0.0 0.0 -1.0
vn 0.0 0.0 -1.0
vn 0.0 0.0 -1.0
vn 0.0 0.0 -1.0
vn 0.0 0.0 -1.0
vn 0.0 0.0 -1.0
vn 0.0 0.0 -1.0
vn -0.0 0.0 -1.0
vn -0.0 0.0 -1.0
vn 0.0 0.0 -1.0
vn -0.0 0.0 -1.0
vn 0.0 0.0 -1.0
vn -0.0 0.0 -1.0
vn 0.0 0.0 -1.0
vn -0.0 0.0 -1.0
vn 0.0 0.0 -1.0
vn -0.0 0.0 -1.0
vn 0.0 0.0 -1.0
vn -0.0 0.0 -1.0
vn 0.0 0.0 -1.0
vn -0.0 0.0 -1.0
vn 0.0 0.0 -1.0
vn -0.0 0.0 -1.0
vn 0.0 0.0 -1.0
vn -0.0 0.0 -1.0
vn 0.0 0.0 -1.0
vn -0.0 0.0 -1.0
vn 0.0 0.0 -1.0
vn -0.0 0.0 -1.0
vn 0.0 0.0 -1.0
vn -0.0 0.0 -1.0
vn 0.0 0.0 -1.0
vn -0.0 0.0 -1.0
vn 0.0 0.0 -1.0
vn -0.0 0.0 -1.0
vn 0.0 0.0 -1.0
vn -0.0 0.0 -1.0
vn 0.0 0.0 -1.0
vn -0.0 0.0 -1.0
vn 0.0 0.0 -1.0
vn 0.0 0.0 -1.0
vn 0.0 0.0 -1.0
vn 0.0 0.0 -1.0
vn 0.0 0.0 -1.0
vn 0.0 0.0 -1.0
vn 0.0 0.0 -1.0
vn 0.0 0.0 -1.0
vn 0.0 0.0 -1.0
vn 0.0 0.0 -1.0
vn 0.0 0.0 -1.0
vn 0.0 0.0 -1.0
vn 0.0 0.0 -1.0
vn 0.0 0.0 -1.0
vn 0.0 0.0 -1.0
vn 0.0 0.0 -1.0
vn 0.0 0.0 -1.0
vn 0.0 0.0 -1.0
vn 0.0 0.0 -1.0
vn 0.0 0.0 -1.0
vn 0.0 0.0 -1.0
vn 0.0 0.0 -1.0
vn 0.0 0.0 -1.0
vn 0.0 0.0 -1.0
vn 0.0 0.0 -1.0
vn 0.0 0.0 -1.0
vn 0.0 0.0 -1.0
vn 0.0 0.0 -1.0
vn 0.0 0.0 -1.0
vn 0.0 0.0 -1.0
vn 0.0 0.0 -1.0
vn 0.0 0.0 -1.0
vn 0.0 0.0 -1.0
vn 0.0 0.0 -1.0
vn 0.0 0.0 -1.0
vn 0.0 0.0 -1.0
vn 0.0 0.0 -1.0
vn 0.0 0.0 -1.0
vn 0.0 0.0 -1.0
vn -1.0 0.0 0.0
vn -1.0 -0.0 0.0
vn -1.0 0.0 0.0
vn -1.0 0.0 0.0
vn -1.0 0.0 0.0
vn -1.0 0.0 0.0
vn 0.0 1.0 -0.0
vn 0.0 1.0 0.0
vn 0.995562 0.094108 0.0
vn 0.995562 0.094108 0.0
vn 0.999507 0.031412 0.0
vn 0.999507 0.031412 0.0
vn 0.987687 0.156443 0.0
vn 0.987687 0.156443 0.0
vn 0.917755 0.397147 0.0
vn 0.917755 0.397147 0.0
vn -0.995562 0.094108 0.0
vn -0.995562 0.094108 0.0
vn 0.031412 0.999507 -0.0
vn 0.031412 0.999507 0.0
vn -0.094108 0.995562 0.0
vn -0.094108 0.995562 0.0
vn -0.750102 0.661322 0.0
vn -0.750102 0.661322 0.0
vn -0.453983 0.89101 0.0
vn -0.453983 0.89101 0.0
vn 0.827083 0.562079 0.0
vn 0.827083 0.562079 0.0
vn 0.661322 0.750102 -0.0
vn 0.661322 0.750102 0.0
vn 0.278987 0.960295 -0.0
vn 0.278987 0.960295 0.0
vn 0.790153 0.61291 0.0
vn 0.790153 0.61291 0.0
vn 0.61291 0.790153 -0.0
vn 0.61291 0.790153 0.0
vn 0.094108 0.995562 -0.0
vn 0.094108 0.995562 0.0
vn -0.960295 0.278988 0.0
vn -0.960295 0.278988 0.0
vn -0.661322 0.750102 0.0
vn -0.661322 0.750102 0.0
vn -0.987687 0.156443 0.0
vn -0.987687 0.156443 0.0
vn 0.960295 0.278988 0.0
vn 0.960295 0.278988 0.0
vn -0.827083 0.562079 0.0
vn -0.827083 0.562079 0.0
vn 0.975917 0.218144 0.0
vn 0.975917 0.218144 0.0
vn 0.338742 0.940879 -0.0
vn 0.338742 0.940879 0.0
vn -0.156442 0.987687 0.0
vn -0.156442 0.987687 0.0
vn 0.940879 0.338742 0.0
vn 0.940879 0.338742 0.0
vn -0.562079 0.827083 0.0
vn -0.562079 0.827083 0.0
vn -0.707107 0.707107 0.0
vn -0.707107 0.707107 0.0
vn -0.509039 0.860744 0.0
vn -0.509039 0.860744 0.0
vn 0.509039 0.860744 -0.0
vn 0.509039 0.860744 0.0
vn -0.338742 0.940879 0.0
vn -0.338742 0.940879 0.0
vn 0.89101 0.453984 0.0
vn 0.89101 0.453984 0.0
vn 0.397148 0.917755 -0.0
vn 0.397148 0.917755 0.0
vn 0.860743 0.509039 0.0
vn 0.860743 0.509039 0.0
vn -0.61291 0.790153 0.0
vn -0.61291 0.790153 0.0
vn -0.397148 0.917755 0.0
vn -0.397148 0.917755 0.0
vn 0.707107 0.707107 0.0
vn 0.707107 0.707107 0.0
vn 0.562079 0.827083 -0.0
vn 0.562079 0.827083 0.0
vn 0.218145 0.975917 -0.0
vn 0.218145 0.975917 0.0
vn -0.031412 0.999507 0.0
vn -0.031412 0.999507 0.0
vn -0.218145 0.975917 0.0
vn -0.218145 0.975917 0.0
vn -0.278987 0.960295 0.0
vn -0.278987 0.960295 0.0
vn 0.453983 0.89101 -0.0
vn 0.453983 0.89101 0.0
vn -0.790153 0.61291 0.0
vn -0.790153 0.61291 0.0
vn -0.89101 0.453984 0.0
vn -0.89101 0.453984 0.0
vn 0.156442 0.987687 -0.0
vn 0.156442 0.987687 0.0
vn -0.940879 0.338742 0.0
vn -0.940879 0.338742 0.0
vn -0.975917 0.218144 0.0
vn -0.975917 0.218144 0.0
vn -0.999507 0.031412 0.0
vn -0.999507 0.031412 0.0
vn 0.750102 0.661322 0.0
vn 0.750102 0.661322 0.0
vn -0.860743 0.509039 0.0
vn -0.860743 0.509039 0.0
vn -0.917755 0.397147 0.0
vn -0.917755 0.397147 0.0
vn -0.56208 0.827083 0.0
vn -0.56208 0.827083 0.0
vn -0.453998 -0.891003 0.0
vn -0.453998 -0.891003 -0.0
vn -0.156435 -0.987688 0.0
vn -0.156435 -0.987688 -0.0
vn -0.397154 -0.917752 0.0
vn -0.397154 -0.917752 -0.0
vn 0.987688 0.156435 0.0
vn 0.987688 0.156435 0.0
vn -0.031399 -0.999507 0.0
vn -0.031399 -0.999507 -0.0
vn -0.827082 -0.562081 0.0
vn -0.827082 -0.562081 0.0
vn -0.750103 -0.661321 0.0
vn -0.750103 -0.661321 0.0
vn -0.790153 -0.612909 0.0
vn -0.790153 -0.612909 0.0
vn -0.917752 -0.397154 0.0
vn -0.917752 -0.397154 0.0
vn 0.987689 -0.15643 0.0
vn 0.987689 -0.15643 0.0
vn 0.940881 0.338737 0.0
vn 0.940881 0.338737 0.0
vn -0.031398 0.999507 0.0
vn -0.031398 0.999507 0.0
vn -0.940881 0.338737 0.0
vn -0.940881 0.338737 0.0
vn -0.338739 -0.940881 0.0
vn -0.338739 -0.940881 -0.0
vn 0.612911 -0.790152 0.0
vn 0.612911 -0.790152 0.0
vn -0.999507 -0.031399 0.0
vn -0.999507 -0.031399 0.0
vn 0.453982 -0.891011 0.0
vn 0.453982 -0.891011 0.0
vn -0.975913 -0.218161 0.0
vn -0.975913 -0.218161 0.0
vn 0.790153 0.612909 0.0
vn 0.790153 0.612909 0.0
vn -0.987688 0.156435 0.0
vn -0.987688 0.156435 0.0
vn -0.218158 -0.975914 0.0
vn -0.218158 -0.975914 -0.0
vn -0.860741 -0.509043 0.0
vn -0.860741 -0.509043 0.0
vn -0.995561 0.094116 0.0
vn -0.995561 0.094116 0.0
vn 0.707107 -0.707106 0.0
vn 0.707107 -0.707106 0.0
vn -0.750104 0.66132 0.0
vn -0.750104 0.66132 0.0
vn -0.940881 -0.338737 0.0
vn -0.940881 -0.338737 0.0
vn 0.917751 0.397157 0.0
vn 0.917751 0.397157 0.0
vn 0.960301 0.278967 0.0
vn 0.960301 0.278967 0.0
vn 0.509061 -0.860731 0.0
vn 0.509061 -0.860731 0.0
vn 0.995561 0.094116 0.0
vn 0.995561 0.094116 0.0
vn 0.031399 -0.999507 0.0
vn 0.031399 -0.999507 0.0
vn 0.66132 -0.750104 0.0
vn 0.66132 -0.750104 0.0
vn 0.891009 0.453985 0.0
vn 0.891009 0.453985 0.0
vn -0.987689 -0.15643 0.0
vn -0.987689 -0.15643 0.0
vn 0.827082 -0.562081 0.0
vn 0.827082 -0.562081 0.0
vn 0.156435 0.987688 -0.0
vn 0.156435 0.987688 0.0
vn 0.218158 -0.975914 0.0
vn 0.218158 -0.975914 0.0
vn 0.094115 -0.995561 0.0
vn 0.094115 -0.995561 0.0
vn 0.50906 0.860731 -0.0
vn 0.50906 0.860731 0.0
vn -0.995561 -0.094116 0.0
vn -0.995561 -0.094116 0.0
vn -0.707107 -0.707106 0.0
vn -0.707107 -0.707106 0.0
vn 0.661298 0.750123 -0.0
vn 0.661298 0.750123 0.0
vn -0.562079 -0.827083 0.0
vn -0.562079 -0.827083 -0.0
vn -0.61291 0.790153 0.0
vn -0.61291 0.790153 0.0
vn -0.278964 0.960301 0.0
vn -0.278964 0.960301 0.0
vn -0.999507 0.031398 0.0
vn -0.999507 0.031398 0.0
vn -0.960301 -0.278966 0.0
vn -0.960301 -0.278966 0.0
vn -0.827085 0.562077 0.0
vn -0.827085 0.562077 0.0
vn -0.218158 0.975914 0.0
vn -0.218158 0.975914 0.0
vn 0.453982 0.891011 -0.0
vn 0.453982 0.891011 0.0
vn -0.891003 -0.453998 0.0
vn -0.891003 -0.453998 0.0
vn -0.612911 -0.790152 0.0
vn -0.612911 -0.790152 -0.0
vn -0.278964 -0.960302 0.0
vn -0.278964 -0.960302 -0.0
vn 0.917752 -0.397154 0.0
vn 0.917752 -0.397154 0.0
vn -0.094115 -0.995561 0.0
vn -0.094115 -0.995561 -0.0
vn 0.940881 -0.338737 0.0
vn 0.940881 -0.338737 0.0
vn 0.031398 0.999507 -0.0
vn 0.031398 0.999507 0.0
vn -0.860734 0.509055 0.0
vn -0.860734 0.509055 0.0
vn 0.562079 -0.827083 0.0
vn 0.562079 -0.827083 0.0
vn 0.397154 -0.917752 0.0
vn 0.397154 -0.917752 0.0
vn -0.338738 0.940881 0.0
vn -0.338738 0.940881 0.0
vn 0.707126 0.707087 0.0
vn 0.707126 0.707087 0.0
vn 0.790153 -0.612909 0.0
vn 0.790153 -0.612909 0.0
vn 0.094116 0.995561 -0.0
vn 0.094116 0.995561 0.0
vn -0.094116 0.995561 0.0
vn -0.094116 0.995561 0.0
vn -0.156435 0.987688 0.0
vn -0.156435 0.987688 0.0
vn 0.156435 -0.987688 0.0
vn 0.156435 -0.987688 0.0
vn 0.827085 0.562077 0.0
vn 0.827085 0.562077 0.0
vn 0.338739 -0.940881 0.0
vn 0.338739 -0.940881 0.0
vn -0.509043 -0.860741 0.0
vn -0.509043 -0.860741 -0.0
vn -0.509043 0.860741 0.0
vn -0.509043 0.860741 0.0
vn 0.975914 0.218158 0.0
vn 0.975914 0.218158 0.0
vn -0.397154 0.917752 0.0
vn -0.397154 0.917752 0.0
vn 0.61291 0.790153 -0.0
vn 0.61291 0.790153 0.0
vn 0.338738 0.940881 -0.0
vn 0.338738 0.940881 0.0
vn 0.960301 -0.278966 0.0
vn 0.960301 -0.278966 0.0
vn -0.453998 0.891003 0.0
vn -0.453998 0.891003 0.0
vn 0.999507 0.031398 0.0
vn 0.999507 0.031398 0.0
vn 0.750104 0.66132 0.0
vn 0.750104 0.66132 0.0
vn 0.56208 0.827083 -0.0
vn 0.56208 0.827083 0.0
vn -0.917751 0.397157 0.0
vn -0.917751 0.397157 0.0
vn -0.975914 0.218158 0.0
vn -0.975914 0.218158 0.0
vn -0.66132 -0.750104 0.0
vn -0.66132 -0.750104 -0.0
vn -0.661298 0.750123 0.0
vn -0.661298 0.750123 0.0
vn -0.707126 0.707087 0.0
vn -0.707126 0.707087 0.0
vn 0.891003 -0.453998 0.0
vn 0.891003 -0.453998 0.0
vn 0.995561 -0.094116 0.0
vn 0.995561 -0.094116 0.0
vn -0.790153 0.612909 0.0
vn -0.790153 0.612909 0.0
vn -0.960301 0.278967 0.0
vn -0.960301 0.278967 0.0
vn 0.975913 -0.218161 0.0
vn 0.975913 -0.218161 0.0
vn 0.860741 -0.509043 0.0
vn 0.860741 -0.509043 0.0
vn 0.999507 -0.031399 0.0
vn 0.999507 -0.031399 0.0
vn 0.397154 0.917752 -0.0
vn 0.397154 0.917752 0.0
vn 0.278965 -0.960301 0.0
vn 0.278965 -0.960301 0.0
vn 0.218158 0.975914 -0.0
vn 0.218158 0.975914 0.0
vn 0.278965 0.960301 -0.0
vn 0.278965 0.960301 0.0
vn -0.891009 0.453985 0.0
vn -0.891009 0.453985 0.0
vn 0.860734 0.509055 0.0
vn 0.860734 0.509055 0.0
vn 0.750103 -0.661321 0.0
vn 0.750103 -0.661321 0.0
vn 0.0 0.0 1.0
vn 0.0 0.0 1.0
vn 0.0 0.0 1.0
vn 0.0 0.0 1.0
vn 0.0 0.0 1.0
vn 0.0 0.0 1.0
vn 0.0 0.0 1.0
vn 0.0 0.0 1.0
vn 0.0 0.0 1.0
vn 0.0 0.0 1.0
vn 0.0 0.0 1.0
vn 0.0 0.0 1.0
vn 0.0 0.0 1.0
vn 0.0 0.0 1.0
vn 0.0 0.0 1.0
vn 0.0 0.0 1.0
vn 0.0 0.0 1.0
vn 0.0 0.0 1.0
vn 0.0 0.0 1.0
vn 0.0 0.0 1.0
vn 0.0 0.0 1.0
vn 0.0 0.0 1.0
vn 0.0 0.0 1.0
vn 0.0 0.0 1.0
vn 0.0 0.0 1.0
vn 0.0 0.0 1.0
vn 0.0 0.0 1.0
vn 0.0 0.0 1.0
vn 0.0 0.0 1.0
vn 0.0 0.0 1.0
vn 0.0 0.0 1.0
vn 0.0 0.0 1.0
vn 0.0 0.0 1.0
vn 0.0 0.0 1.0
vn 0.0 0.0 1.0
vn -0.0 0.0 1.0
vn 0.0 0.0 1.0
vn -0.0 0.0 1.0
vn 0.0 0.0 1.0
vn -0.0 0.0 1.0
vn 0.0 0.0 1.0
vn -0.0 0.0 1.0
vn 0.0 0.0 1.0
vn -0.0 0.0 1.0
vn 0.0 0.0 1.0
vn -0.0 0.0 1.0
vn 0.0 0.0 1.0
vn -0.0 0.0 1.0
vn 0.0 0.0 1.0
vn -0.0 0.0 1.0
vn 0.0 0.0 1.0
vn -0.0 0.0 1.0
vn 0.0 0.0 1.0
vn -0.0 0.0 1.0
vn 0.0 0.0 1.0
vn -0.0 0.0 1.0
vn 0.0 0.0 1.0
vn -0.0 0.0 1.0
vn 0.0 0.0 1.0
vn -0.0 0.0 1.0
vn 0.0 0.0 1.0
vn -0.0 0.0 1.0
vn 0.0 0.0 1.0
vn -0.0 0.0 1.0
vn 0.0 0.0 1.0
vn -0.0 0.0 1.0
vn -0.0 0.0 1.0
vn 0.0 0.0 1.0
vn 0.0 0.0 1.0
vn 0.0 0.0 1.0
vn 0.0 0.0 1.0
vn 0.0 0.0 1.0
vn 0.0 0.0 1.0
vn 0.0 0.0 1.0
vn 0.0 0.0 1.0
vn 0.0 0.0 1.0
vn 0.0 0.0 1.0
vn 0.0 0.0 1.0
vn 0.0 0.0 1.0
vn 0.0 0.0 1.0
vn 0.0 0.0 1.0
vn 0.0 0.0 1.0
vn 0.0 0.0 1.0
vn 0.0 0.0 1.0
vn 0.0 0.0 1.0
vn 0.0 0.0 1.0
vn 0.0 0.0 1.0
vn 0.0 0.0 1.0
vn 0.0 0.0 1.0
vn 0.0 0.0 1.0
vn 0.0 0.0 1.0
vn 0.0 0.0 1.0
vn 0.0 0.0 1.0
vn 0.0 0.0 1.0
vn -0.0 0.0 1.0
vn -0.0 0.0 1.0
vn -0.0 0.0 1.0
vn -0.0 0.0 1.0
vn -0.0 0.0 1.0
vn -0.0 0.0 1.0
vn -0.0 0.0 1.0
vn -0.0 0.0 1.0
vn -0.0 0.0 1.0
vn -0.0 0.0 1.0
vn -0.0 0.0 1.0
vn -0.0 0.0 1.0
vn -0.0 0.0 1.0
vn -0.0 0.0 1.0
vn -0.0 0.0 1.0
vn -0.0 0.0 1.0
vn 0.0 0.0 1.0
vn 0.0 0.0 1.0
vn 0.0 0.0 1.0
vn 0.0 0.0 1.0
vn 0.0 0.0 1.0
vn 0.0 0.0 1.0
vn 0.0 0.0 1.0
vn 0.0 0.0 1.0
vn 0.0 0.0 1.0
vn 0.0 0.0 1.0
vn 0.0 0.0 1.0
vn -0.0 0.0 1.0
vn 0.0 0.0 1.0
vn -0.0 0.0 1.0
vn 0.0 0.0 1.0
vn -0.0 0.0 1.0
vn 0.0 0.0 1.0
vn -0.0 0.0 1.0
vn 0.0 0.0 1.0
vn -0.0 0.0 1.0
vn 0.0 0.0 1.0
vn -0.0 0.0 1.0
vn 0.0 0.0 1.0
vn -0.0 0.0 1.0
vn 0.0 0.0 1.0
vn 0.0 0.0 1.0
vn 0.0 0.0 1.0
vn 0.0 0.0 1.0
vn 0.0 0.0 1.0
vn 0.0 0.0 1.0
vn 0.0 0.0 1.0
vn 0.0 0.0 1.0
vn 0.0 0.0 1.0
vn 0.0 0.0 1.0
vn 0.0 0.0 1.0
vn 0.0 0.0 1.0
vn 0.0 0.0 1.0
vn 0.0 0.0 1.0
vn 0.0 0.0 1.0
vn 0.0 0.0 1.0
vn 0.0 0.0 1.0
vn 0.0 0.0 1.0
vn 0.0 0.0 1.0
vn 0.0 0.0 -1.0
vn 0.0 -0.0 -1.0
vn 0.0 -0.0 -1.0
vn 0.0 -0.0 -1.0
vn 0.0 0.0 -1.0
vn 0.0 0.0 -1.0
vn 0.0 0.0 -1.0
vn 0.0 0.0 -1.0
vn -0.0 0.0 -1.0
vn -0.0 0.0 -1.0
vn 0.0 0.0 -1.0
vn 0.0 0.0 -1.0
vn -0.0 0.0 -1.0
vn -0.0 0.0 -1.0
vn -0.0 0.0 -1.0
vn 0.0 0.0 -1.0
vn -0.0 0.0 -1.0
vn 0.0 0.0 -1.0
vn -0.0 0.0 -1.0
vn -0.0 0.0 -1.0
vn 0.0 -0.0 -1.0
vn 0.0 -0.0 -1.0
vn 0.0 0.0 -1.0
vn 0.0 0.0 -1.0
vn 0.0 0.0 -1.0
vn 0.0 0.0 -1.0
vn 0.0 0.0 -1.0
vn 0.0 0.0 -1.0
vn 0.0 0.0 -1.0
vn 0.0 0.0 -1.0
vn 0.0 0.0 -1.0
vn 0.0 0.0 -1.0
vn 0.0 0.0 -1.0
vn 0.0 0.0 -1.0
vn 0.0 0.0 -1.0
vn 0.0 0.0 -1.0
vn 0.0 0.0 -1.0
vn 0.0 0.0 -1.0
vn 0.0 0.0 -1.0
vn 0.0 0.0 -1.0
vn 0.0 0.0 -1.0
vn 0.0 0.0 -1.0
vn 0.0 0.0 -1.0
vn -0.0 0.0 -1.0
vn 0.0 0.0 -1.0
vn 0.0 0.0 -1.0
vn 0.0 0.0 -1.0
vn 0.0 0.0 -1.0
vn 0.0 0.0 -1.0
vn 0.0 0.0 -1.0
vn 0.0 0.0 -1.0
vn 0.0 0.0 -1.0
vn 0.0 0.0 -1.0
vn 0.0 0.0 -1.0
vn 0.0 0.0 -1.0
vn 0.0 0.0 -1.0
vn 0.0 0.0 -1.0
vn 0.0 0.0 -1.0
vn 0.0 0.0 -1.0
vn 0.0 0.0 -1.0
vn 0.0 0.0 -1.0
vn 0.0 0.0 -1.0
vn 0.0 0.0 -1.0
vn 0.0 0.0 -1.0
vn 0.0 0.0 -1.0
vn 0.0 0.0 -1.0
vn 0.0 0.0 -1.0
vn 0.0 0.0 -1.0
vn 0.0 0.0 -1.0
vn 0.0 0.0 -1.0
vn 0.0 0.0 -1.0
vn 0.0 0.0 -1.0
vn 0.0 0.0 -1.0
vn 0.0 0.0 -1.0
vn -0.0 0.0 -1.0
vn 0.0 0.0 -1.0
vn 0.0 0.0 -1.0
vn 0.0 0.0 -1.0
vn 0.0 0.0 -1.0
vn 0.0 0.0 -1.0
vn 0.0 0.0 -1.0
vn 0.0 0.0 -1.0
vn 0.0 0.0 -1.0
vn -0.0 0.0 -1.0
vn 0.0 0.0 -1.0
vn 0.0 0.0 -1.0
vn 0.0 0.0 -1.0
vn -0.0 0.0 -1.0
vn 0.0 0.0 -1.0
vn -0.0 0.0 -1.0
vn 0.0 0.0 -1.0
vn -0.0 0.0 -1.0
vn 0.0 0.0 -1.0
vn -0.0 0.0 -1.0
vn 0.0 0.0 -1.0
vn -0.0 0.0 -1.0
vn 0.0 0.0 -1.0
vn -0.0 0.0 -1.0
vn 0.0 0.0 -1.0
vn -0.0 0.0 -1.0
vn 0.0 0.0 -1.0
vn -0.0 0.0 -1.0
vn 0.0 0.0 -1.0
vn -0.0 0.0 -1.0
vn 0.0 0.0 -1.0
vn -0.0 0.0 -1.0
vn 0.0 0.0 -1.0
vn -0.0 0.0 -1.0
vn 0.0 0.0 -1.0
vn -0.0 0.0 -1.0
vn 0.0 0.0 -1.0
vn -0.0 0.0 -1.0
vn 0.0 0.0 -1.0
vn -0.0 0.0 -1.0
vn 0.0 0.0 -1.0
vn 0.0 0.0 -1.0
vn 0.0 0.0 -1.0
vn 0.0 0.0 -1.0
vn 0.0 0.0 -1.0
vn 0.0 0.0 -1.0
vn 0.0 0.0 -1.0
vn 0.0 0.0 -1.0
vn 0.0 0.0 -1.0
vn 0.0 0.0 -1.0
vn 0.0 0.0 -1.0
vn 0.0 0.0 -1.0
vn 0.0 0.0 -1.0
vn 0.0 0.0 -1.0
vn 0.0 0.0 -1.0
vn 0.0 0.0 -1.0
vn 0.0 0.0 -1.0
vn 0.0 0.0 -1.0
vn 0.0 0.0 -1.0
vn 0.0 0.0 -1.0
vn 0.0 0.0 -1.0
vn 0.0 0.0 -1.0
vn 0.0 0.0 -1.0
vn 0.0 0.0 -1.0
vn 0.0 0.0 -1.0
vn 0.0 0.0 -1.0
vn 0.0 0.0 -1.0
vn 0.0 0.0 -1.0
vn 0.0 0.0 -1.0
vn 0.0 0.0 -1.0
vn 0.0 0.0 -1.0
vn 0.0 0.0 -1.0
vn 0.0 0.0 -1.0
vn 0.0 0.0 -1.0
vn 0.0 0.0 -1.0
vn 0.0 0.0 -1.0
vn 0.0 0.0 -1.0
vn 0.0 0.0 -1.0
vn 0.0 0.0 -1.0
vn 0.995562 0.094108 0.0
vn 0.995562 0.094108 0.0
vn 0.999507 0.031412 0.0
vn 0.999507 0.031412 0.0
vn 0.987687 0.156443 0.0
vn 0.987687 0.156443 0.0
vn 0.917755 0.397147 0.0
vn 0.917755 0.397147 0.0
vn -0.995562 0.094108 0.0
vn -0.995562 0.094108 0.0
vn 0.031412 0.999507 -0.0
vn 0.031412 0.999507 0.0
vn -0.094108 0.995562 0.0
vn -0.094108 0.995562 0.0
vn -0.750102 0.661322 0.0
vn -0.750102 0.661322 0.0
vn -0.453983 0.89101 0.0
vn -0.453983 0.89101 0.0
vn 0.827083 0.562079 0.0
vn 0.827083 0.562079 0.0
vn 0.661322 0.750102 -0.0
vn 0.661322 0.750102 0.0
vn 0.278987 0.960295 -0.0
vn 0.278987 0.960295 0.0
vn 0.790153 0.61291 0.0
vn 0.790153 0.61291 0.0
vn 0.61291 0.790153 -0.0
vn 0.61291 0.790153 0.0
vn 0.094108 0.995562 -0.0
vn 0.094108 0.995562 0.0
vn -0.960295 0.278988 0.0
vn -0.960295 0.278988 0.0
vn -0.661322 0.750102 0.0
vn -0.661322 0.750102 0.0
vn -0.987687 0.156443 0.0
vn -0.987687 0.156443 0.0
vn 0.960295 0.278988 0.0
vn 0.960295 0.278988 0.0
vn -0.827083 0.562079 0.0
vn -0.827083 0.562079 0.0
vn 0.975917 0.218144 0.0
vn 0.975917 0.218144 0.0
vn 0.338742 0.940879 -0.0
vn 0.338742 0.940879 0.0
vn -0.156442 0.987687 0.0
vn -0.156442 0.987687 0.0
vn 0.940879 0.338742 0.0
vn 0.940879 0.338742 0.0
vn -0.562079 0.827083 0.0
vn -0.562079 0.827083 0.0
vn -0.707107 0.707107 0.0
vn -0.707107 0.707107 0.0
vn -0.509039 0.860744 0.0
vn -0.509039 0.860744 0.0
vn 0.509039 0.860744 -0.0
vn 0.509039 0.860744 0.0
vn -0.338742 0.940879 0.0
vn -0.338742 0.940879 0.0
vn 0.89101 0.453984 0.0
vn 0.89101 0.453984 0.0
vn 0.397148 0.917755 -0.0
vn 0.397148 0.917755 0.0
vn 0.860743 0.509039 0.0
vn 0.860743 0.509039 0.0
vn -0.61291 0.790153 0.0
vn -0.61291 0.790153 0.0
vn -0.397148 0.917755 0.0
vn -0.397148 0.917755 0.0
vn 0.707107 0.707107 0.0
vn 0.707107 0.707107 0.0
vn 0.562079 0.827083 -0.0
vn 0.562079 0.827083 0.0
vn 0.218145 0.975917 -0.0
vn 0.218145 0.975917 0.0
vn -0.031412 0.999507 0.0
vn -0.031412 0.999507 0.0
vn -0.218145 0.975917 0.0
vn -0.218145 0.975917 0.0
vn -0.278987 0.960295 0.0
vn -0.278987 0.960295 0.0
vn 0.453983 0.89101 -0.0
vn 0.453983 0.89101 0.0
vn -0.790153 0.61291 0.0
vn -0.790153 0.61291 0.0
vn -0.89101 0.453984 0.0
vn -0.89101 0.453984 0.0
vn 0.156442 0.987687 -0.0
vn 0.156442 0.987687 0.0
vn -0.940879 0.338742 0.0
vn -0.940879 0.338742 0.0
vn -0.975917 0.218144 0.0
vn -0.975917 0.218144 0.0
vn -0.999507 0.031412 0.0
vn -0.999507 0.031412 0.0
vn 0.750102 0.661322 0.0
vn 0.750102 0.661322 0.0
vn -0.860743 0.509039 0.0
vn -0.860743 0.509039 0.0
vn -0.917755 0.397147 0.0
vn -0.917755 0.397147 0.0
vn -0.56208 0.827083 0.0
vn -0.56208 0.827083 0.0
vn -0.453998 -0.891003 0.0
vn -0.453998 -0.891003 -0.0
vn -0.156435 -0.987688 0.0
vn -0.156435 -0.987688 -0.0
vn -0.397154 -0.917752 0.0
vn -0.397154 -0.917752 -0.0
vn 0.987688 0.156435 0.0
vn 0.987688 0.156435 0.0
vn -0.031399 -0.999507 0.0
vn -0.031399 -0.999507 -0.0
vn -0.827082 -0.562081 0.0
vn -0.827082 -0.562081 0.0
vn -0.750103 -0.661321 0.0
vn -0.750103 -0.661321 0.0
vn -0.790153 -0.612909 0.0
vn -0.790153 -0.612909 0.0
vn -0.917752 -0.397154 0.0
vn -0.917752 -0.397154 0.0
vn 0.987689 -0.15643 0.0
vn 0.987689 -0.15643 0.0
vn 0.940881 0.338737 0.0
vn 0.940881 0.338737 0.0
vn -0.031398 0.999507 0.0
vn -0.031398 0.999507 0.0
vn -0.940881 0.338737 0.0
vn -0.940881 0.338737 0.0
vn -0.338739 -0.940881 0.0
vn -0.338739 -0.940881 -0.0
vn 0.612911 -0.790152 0.0
vn 0.612911 -0.790152 0.0
vn -0.999507 -0.031399 0.0
vn -0.999507 -0.031399 0.0
vn 0.453982 -0.891011 0.0
vn 0.453982 -0.891011 0.0
vn -0.975913 -0.218161 0.0
vn -0.975913 -0.218161 0.0
vn 0.790153 0.612909 0.0
vn 0.790153 0.612909 0.0
vn -0.987688 0.156435 0.0
vn -0.987688 0.156435 0.0
vn -0.218158 -0.975914 0.0
vn -0.218158 -0.975914 -0.0
vn -0.860741 -0.509043 0.0
vn -0.860741 -0.509043 0.0
vn -0.995561 0.094116 0.0
vn -0.995561 0.094116 0.0
vn 0.707107 -0.707106 0.0
vn 0.707107 -0.707106 0.0
vn -0.750104 0.66132 0.0
vn -0.750104 0.66132 0.0
vn -0.940881 -0.338737 0.0
vn -0.940881 -0.338737 0.0
vn 0.917751 0.397157 0.0
vn 0.917751 0.397157 0.0
vn 0.960301 0.278967 0.0
vn 0.960301 0.278967 0.0
vn 0.509061 -0.860731 0.0
vn 0.509061 -0.860731 0.0
vn 0.995561 0.094116 0.0
vn 0.995561 0.094116 0.0
vn 0.031399 -0.999507 0.0
vn 0.031399 -0.999507 0.0
vn 0.66132 -0.750104 0.0
vn 0.66132 -0.750104 0.0
vn 0.891009 0.453985 0.0
vn 0.891009 0.453985 0.0
vn -0.987689 -0.15643 0.0
vn -0.987689 -0.15643 0.0
vn 0.827082 -0.562081 0.0
vn 0.827082 -0.562081 0.0
vn 0.156435 0.987688 -0.0
vn 0.156435 0.987688 0.0
vn 0.218158 -0.975914 0.0
vn 0.218158 -0.975914 0.0
vn 0.094115 -0.995561 0.0
vn 0.094115 -0.995561 0.0
vn 0.50906 0.860731 -0.0
vn 0.50906 0.860731 0.0
vn -0.995561 -0.094116 0.0
vn -0.995561 -0.094116 0.0
vn -0.707107 -0.707106 0.0
vn -0.707107 -0.707106 0.0
vn 0.661298 0.750123 -0.0
vn 0.661298 0.750123 0.0
vn -0.562079 -0.827083 0.0
vn -0.562079 -0.827083 -0.0
vn -0.61291 0.790153 0.0
vn -0.61291 0.790153 0.0
vn -0.278964 0.960301 0.0
vn -0.278964 0.960301 0.0
vn -0.999507 0.031398 0.0
vn -0.999507 0.031398 0.0
vn -0.960301 -0.278966 0.0
vn -0.960301 -0.278966 0.0
vn -0.827085 0.562077 0.0
vn -0.827085 0.562077 0.0
vn -0.218158 0.975914 0.0
vn -0.218158 0.975914 0.0
vn 0.453982 0.891011 -0.0
vn 0.453982 0.891011 0.0
vn -0.891003 -0.453998 0.0
vn -0.891003 -0.453998 0.0
vn -0.612911 -0.790152 0.0
vn -0.612911 -0.790152 -0.0
vn -0.278964 -0.960302 0.0
vn -0.278964 -0.960302 -0.0
vn 0.917752 -0.397154 0.0
vn 0.917752 -0.397154 0.0
vn -0.094115 -0.995561 0.0
vn -0.094115 -0.995561 -0.0
vn 0.940881 -0.338737 0.0
vn 0.940881 -0.338737 0.0
vn 0.031398 0.999507 -0.0
vn 0.031398 0.999507 0.0
vn -0.860734 0.509055 0.0
vn -0.860734 0.509055 0.0
vn 0.562079 -0.827083 0.0
vn 0.562079 -0.827083 0.0
vn 0.397154 -0.917752 0.0
vn 0.397154 -0.917752 0.0
vn -0.338738 0.940881 0.0
vn -0.338738 0.940881 0.0
vn 0.707126 0.707087 0.0
vn 0.707126 0.707087 0.0
vn 0.790153 -0.612909 0.0
vn 0.790153 -0.612909 0.0
vn 0.094116 0.995561 -0.0
vn 0.094116 0.995561 0.0
vn -0.094116 0.995561 0.0
vn -0.094116 0.995561 0.0
vn -0.156435 0.987688 0.0
vn -0.156435 0.987688 0.0
vn 0.156435 -0.987688 0.0
vn 0.156435 -0.987688 0.0
vn 0.827085 0.562077 0.0
vn 0.827085 0.562077 0.0
vn 0.338739 -0.940881 0.0
vn 0.338739 -0.940881 0.0
vn -0.509043 -0.860741 0.0
vn -0.509043 -0.860741 -0.0
vn -0.509043 0.860741 0.0
vn -0.509043 0.860741 0.0
vn 0.975914 0.218158 0.0
vn 0.975914 0.218158 0.0
vn -0.397154 0.917752 0.0
vn -0.397154 0.917752 0.0
vn 0.61291 0.790153 -0.0
vn 0.61291 0.790153 0.0
vn 0.338738 0.940881 -0.0
vn 0.338738 0.940881 0.0
vn 0.960301 -0.278966 0.0
vn 0.960301 -0.278966 0.0
vn -0.453998 0.891003 0.0
vn -0.453998 0.891003 0.0
vn 0.999507 0.031398 0.0
vn 0.999507 0.031398 0.0
vn 0.750104 0.66132 0.0
vn 0.750104 0.66132 0.0
vn 0.56208 0.827083 -0.0
vn 0.56208 0.827083 0.0
vn -0.917751 0.397157 0.0
vn -0.917751 0.397157 0.0
vn -0.975914 0.218158 0.0
vn -0.975914 0.218158 0.0
vn -0.66132 -0.750104 0.0
vn -0.66132 -0.750104 -0.0
vn -0.661298 0.750123 0.0
vn -0.661298 0.750123 0.0
vn -0.707126 0.707087 0.0
vn -0.707126 0.707087 0.0
vn 0.891003 -0.453998 0.0
vn 0.891003 -0.453998 0.0
vn 0.995561 -0.094116 0.0
vn 0.995561 -0.094116 0.0
vn -0.790153 0.612909 0.0
vn -0.790153 0.612909 0.0
vn -0.960301 0.278967 0.0
vn -0.960301 0.278967 0.0
vn 0.975913 -0.218161 0.0
vn 0.975913 -0.218161 0.0
vn 0.860741 -0.509043 0.0
vn 0.860741 -0.509043 0.0
vn 0.999507 -0.031399 0.0
vn 0.999507 -0.031399 0.0
vn 0.397154 0.917752 -0.0
vn 0.397154 0.917752 0.0
vn 0.278965 -0.960301 0.0
vn 0.278965 -0.960301 0.0
vn 0.218158 0.975914 -0.0
vn 0.218158 0.975914 0.0
vn 0.278965 0.960301 -0.0
vn 0.278965 0.960301 0.0
vn -0.891009 0.453985 0.0
vn -0.891009 0.453985 0.0
vn 0.860734 0.509055 0.0
vn 0.860734 0.509055 0.0
vn 0.750103 -0.661321 0.0
vn 0.750103 -0.661321 0.0
vn 0.0 -1.0 0.0
vn 0.0 -1.0 -0.0
f 612//1 608//1 611//1 
f 608//2 606//2 607//2 
f 606//3 608//3 612//3 
f 607//4 609//4 610//4 
f 607//5 605//5 609//5 
f 605//6 607//6 606//6 
f 602//7 534//7 538//7 
f 546//8 526//8 534//8 
f 546//9 518//9 526//9 
f 546//10 510//10 518//10 
f 546//11 502//11 510//11 
f 546//12 494//12 502//12 
f 546//13 486//13 494//13 
f 398//14 542//14 478//14 
f 546//15 474//15 486//15 
f 546//16 466//16 474//16 
f 546//17 458//17 466//17 
f 390//18 478//18 450//18 
f 546//19 446//19 458//19 
f 546//20 438//20 446//20 
f 378//21 450//21 430//21 
f 546//22 426//22 438//22 
f 546//23 418//23 426//23 
f 546//24 410//24 418//24 
f 370//25 430//25 402//25 
f 542//26 398//26 410//26 
f 478//27 390//27 398//27 
f 358//28 402//28 382//28 
f 450//29 378//29 390//29 
f 430//30 370//30 378//30 
f 350//31 382//31 362//31 
f 402//32 358//32 370//32 
f 382//33 350//33 358//33 
f 338//34 362//34 342//34 
f 362//35 338//35 350//35 
f 342//36 330//36 338//36 
f 322//37 330//37 342//37 
f 322//38 318//38 330//38 
f 310//39 318//39 322//39 
f 310//40 306//40 318//40 
f 310//41 298//41 306//41 
f 290//42 298//42 310//42 
f 290//43 286//43 298//43 
f 270//44 286//44 290//44 
f 286//45 270//45 278//45 
f 250//46 278//46 270//46 
f 278//47 250//47 266//47 
f 230//48 266//48 250//48 
f 266//49 230//49 258//49 
f 210//50 258//50 230//50 
f 258//51 210//51 246//51 
f 182//52 246//52 210//52 
f 246//53 182//53 238//53 
f 162//54 238//54 182//54 
f 238//55 162//55 226//55 
f 134//56 226//56 162//56 
f 226//57 134//57 218//57 
f 70//58 218//58 134//58 
f 218//59 70//59 206//59 
f 66//60 206//60 70//60 
f 206//61 66//61 198//61 
f 62//62 198//62 66//62 
f 198//63 62//63 190//63 
f 58//64 190//64 62//64 
f 190//65 58//65 178//65 
f 54//66 178//66 58//66 
f 178//67 54//67 170//67 
f 50//68 170//68 54//68 
f 170//69 50//69 158//69 
f 46//70 158//70 50//70 
f 158//71 46//71 150//71 
f 42//72 150//72 46//72 
f 38//73 142//73 42//73 
f 150//74 42//74 142//74 
f 538//75 610//75 602//75 
f 534//76 602//76 598//76 
f 534//77 598//77 594//77 
f 534//78 594//78 590//78 
f 534//79 590//79 586//79 
f 534//80 586//80 582//80 
f 534//81 582//81 578//81 
f 534//82 578//82 574//82 
f 534//83 574//83 570//83 
f 534//84 570//84 566//84 
f 534//85 566//85 562//85 
f 534//86 562//86 558//86 
f 534//87 558//87 554//87 
f 534//88 554//88 550//88 
f 534//89 550//89 546//89 
f 410//90 546//90 542//90 
f 610//91 538//91 530//91 
f 610//92 530//92 522//92 
f 610//93 522//93 514//93 
f 610//94 514//94 506//94 
f 610//95 506//95 498//95 
f 490//96 610//96 498//96 
f 610//97 490//97 607//97 
f 482//98 607//98 490//98 
f 470//99 607//99 482//99 
f 462//100 607//100 470//100 
f 454//101 607//101 462//101 
f 442//102 607//102 454//102 
f 434//103 607//103 442//103 
f 422//104 607//104 434//104 
f 414//105 607//105 422//105 
f 406//106 607//106 414//106 
f 394//107 607//107 406//107 
f 386//108 607//108 394//108 
f 374//109 607//109 386//109 
f 366//110 607//110 374//110 
f 354//111 607//111 366//111 
f 346//112 607//112 354//112 
f 334//113 607//113 346//113 
f 326//114 607//114 334//114 
f 314//115 607//115 326//115 
f 302//116 607//116 314//116 
f 3//117 302//117 294//117 
f 3//118 294//118 282//118 
f 142//119 38//119 130//119 
f 34//120 130//120 38//120 
f 130//121 34//121 122//121 
f 30//122 122//122 34//122 
f 122//123 30//123 114//123 
f 26//124 114//124 30//124 
f 114//125 26//125 106//125 
f 22//126 106//126 26//126 
f 106//127 22//127 98//127 
f 18//128 98//128 22//128 
f 98//129 18//129 90//129 
f 14//130 90//130 18//130 
f 90//131 14//131 82//131 
f 10//132 82//132 14//132 
f 82//133 10//133 74//133 
f 6//134 74//134 10//134 
f 74//135 6//135 78//135 
f 78//136 6//136 86//136 
f 86//137 6//137 94//137 
f 94//138 6//138 102//138 
f 102//139 6//139 110//139 
f 110//140 6//140 118//140 
f 3//141 118//141 6//141 
f 118//142 3//142 126//142 
f 126//143 3//143 138//143 
f 138//144 3//144 146//144 
f 146//145 3//145 154//145 
f 154//146 3//146 166//146 
f 166//147 3//147 174//147 
f 174//148 3//148 186//148 
f 186//149 3//149 194//149 
f 194//150 3//150 202//150 
f 302//151 3//151 607//151 
f 274//152 3//152 282//152 
f 262//153 3//153 274//153 
f 254//154 3//154 262//154 
f 242//155 3//155 254//155 
f 234//156 3//156 242//156 
f 222//157 3//157 234//157 
f 214//158 3//158 222//158 
f 202//159 3//159 214//159 
f 461//160 609//160 605//160 
f 469//161 609//161 461//161 
f 489//162 609//162 481//162 
f 505//163 609//163 497//163 
f 521//164 609//164 513//164 
f 529//165 609//165 521//165 
f 609//166 537//166 601//166 
f 601//167 533//167 597//167 
f 525//168 597//168 533//168 
f 517//169 593//169 525//169 
f 509//170 589//170 517//170 
f 501//171 585//171 509//171 
f 585//172 501//172 581//172 
f 581//173 493//173 577//173 
f 577//174 485//174 573//174 
f 473//175 573//175 485//175 
f 485//176 577//176 493//176 
f 493//177 581//177 501//177 
f 589//178 509//178 585//178 
f 593//179 517//179 589//179 
f 597//180 525//180 593//180 
f 533//181 601//181 537//181 
f 537//182 609//182 529//182 
f 513//183 609//183 505//183 
f 497//184 609//184 489//184 
f 481//185 609//185 469//185 
f 605//186 453//186 461//186 
f 605//187 441//187 453//187 
f 605//188 433//188 441//188 
f 605//189 421//189 433//189 
f 605//190 413//190 421//190 
f 605//191 405//191 413//191 
f 605//192 393//192 405//192 
f 605//193 385//193 393//193 
f 605//194 373//194 385//194 
f 605//195 365//195 373//195 
f 605//196 353//196 365//196 
f 605//197 345//197 353//197 
f 605//198 333//198 345//198 
f 605//199 325//199 333//199 
f 605//200 313//200 325//200 
f 605//201 301//201 313//201 
f 1//202 301//202 605//202 
f 301//203 1//203 293//203 
f 293//204 1//204 281//204 
f 281//205 1//205 273//205 
f 273//206 1//206 261//206 
f 261//207 1//207 253//207 
f 253//208 1//208 241//208 
f 241//209 1//209 233//209 
f 233//210 1//210 221//210 
f 221//211 1//211 213//211 
f 205//212 65//212 69//212 
f 5//213 73//213 77//213 
f 81//214 61//214 65//214 
f 5//215 77//215 85//215 
f 81//216 57//216 61//216 
f 5//217 85//217 93//217 
f 81//218 53//218 57//218 
f 5//219 93//219 101//219 
f 81//220 49//220 53//220 
f 5//221 101//221 109//221 
f 81//222 45//222 49//222 
f 5//223 109//223 117//223 
f 81//224 41//224 45//224 
f 5//225 117//225 125//225 
f 81//226 37//226 41//226 
f 5//227 125//227 137//227 
f 81//228 33//228 37//228 
f 5//229 137//229 145//229 
f 81//230 29//230 33//230 
f 1//231 145//231 153//231 
f 81//232 25//232 29//232 
f 1//233 153//233 165//233 
f 81//234 21//234 25//234 
f 1//235 165//235 173//235 
f 81//236 17//236 21//236 
f 1//237 173//237 185//237 
f 81//238 13//238 17//238 
f 1//239 185//239 193//239 
f 81//240 9//240 13//240 
f 1//241 193//241 201//241 
f 213//242 1//242 201//242 
f 145//243 1//243 5//243 
f 73//244 5//244 9//244 
f 573//245 473//245 569//245 
f 465//246 569//246 473//246 
f 569//247 465//247 565//247 
f 457//248 565//248 465//248 
f 565//249 457//249 561//249 
f 445//250 561//250 457//250 
f 561//251 445//251 557//251 
f 437//252 557//252 445//252 
f 557//253 437//253 553//253 
f 425//254 553//254 437//254 
f 553//255 425//255 549//255 
f 417//256 549//256 425//256 
f 549//257 417//257 545//257 
f 409//258 545//258 417//258 
f 545//259 409//259 541//259 
f 397//260 541//260 409//260 
f 541//261 397//261 477//261 
f 389//262 477//262 397//262 
f 477//263 389//263 449//263 
f 377//264 449//264 389//264 
f 449//265 377//265 429//265 
f 369//266 429//266 377//266 
f 429//267 369//267 401//267 
f 357//268 401//268 369//268 
f 401//269 357//269 381//269 
f 349//270 381//270 357//270 
f 381//271 349//271 361//271 
f 337//272 361//272 349//272 
f 361//273 337//273 341//273 
f 329//274 341//274 337//274 
f 329//275 321//275 341//275 
f 317//276 321//276 329//276 
f 305//277 321//277 317//277 
f 305//278 309//278 321//278 
f 297//279 309//279 305//279 
f 297//280 289//280 309//280 
f 285//281 289//281 297//281 
f 269//282 285//282 277//282 
f 285//283 269//283 289//283 
f 249//284 277//284 265//284 
f 229//285 265//285 257//285 
f 277//286 249//286 269//286 
f 209//287 257//287 245//287 
f 181//288 245//288 237//288 
f 265//289 229//289 249//289 
f 161//290 237//290 225//290 
f 133//291 225//291 217//291 
f 257//292 209//292 229//292 
f 69//293 217//293 205//293 
f 65//294 205//294 197//294 
f 65//295 197//295 189//295 
f 245//296 181//296 209//296 
f 65//297 189//297 177//297 
f 65//298 177//298 169//298 
f 237//299 161//299 181//299 
f 65//300 169//300 157//300 
f 65//301 157//301 149//301 
f 65//302 149//302 141//302 
f 225//303 133//303 161//303 
f 65//304 141//304 129//304 
f 65//305 129//305 121//305 
f 65//306 121//306 113//306 
f 65//307 113//307 105//307 
f 65//308 105//308 97//308 
f 65//309 97//309 89//309 
f 65//310 89//310 81//310 
f 217//311 69//311 133//311 
f 9//312 81//312 73//312 
f 5//313 3//313 6//313 
f 3//314 1//314 4//314 
f 1//315 3//315 5//315 
f 4//316 8//316 7//316 
f 4//317 2//317 8//317 
f 2//318 4//318 1//318 
f 607//319 4//319 608//319 
f 4//320 607//320 3//320 
f 602//321 597//321 598//321 
f 597//322 602//322 601//322 
f 610//323 601//323 602//323 
f 601//324 610//324 609//324 
f 598//325 593//325 594//325 
f 593//326 598//326 597//326 
f 582//327 577//327 578//327 
f 577//328 582//328 581//328 
f 9//329 14//329 13//329 
f 14//330 9//330 10//330 
f 321//331 310//331 322//331 
f 310//332 321//332 309//332 
f 289//333 270//333 290//333 
f 270//334 289//334 269//334 
f 49//335 54//335 53//335 
f 54//336 49//336 50//336 
f 161//337 134//337 162//337 
f 134//338 161//338 133//338 
f 570//339 565//339 566//339 
f 565//340 570//340 569//340 
f 553//341 550//341 554//341 
f 550//342 553//342 549//342 
f 401//343 382//343 402//343 
f 382//344 401//344 381//344 
f 566//345 561//345 562//345 
f 561//346 566//346 565//346 
f 549//347 546//347 550//347 
f 546//348 549//348 545//348 
f 341//349 322//349 342//349 
f 322//350 341//350 321//350 
f 21//351 26//351 25//351 
f 26//352 21//352 22//352 
f 61//353 58//353 62//353 
f 58//354 61//354 57//354 
f 13//355 18//355 17//355 
f 18//356 13//356 14//356 
f 590//357 585//357 586//357 
f 585//358 590//358 589//358 
f 41//359 46//359 45//359 
f 46//360 41//360 42//360 
f 594//361 589//361 590//361 
f 589//362 594//362 593//362 
f 429//363 402//363 430//363 
f 402//364 429//364 401//364 
f 269//365 250//365 270//365 
f 250//366 269//366 249//366 
f 586//367 581//367 582//367 
f 581//368 586//368 585//368 
f 69//369 66//369 70//369 
f 66//370 69//370 65//370 
f 53//371 58//371 57//371 
f 58//372 53//372 54//372 
f 133//373 70//373 134//373 
f 70//374 133//374 69//374 
f 541//375 478//375 542//375 
f 478//376 541//376 477//376 
f 209//377 182//377 210//377 
f 182//378 209//378 181//378 
f 578//379 573//379 574//379 
f 573//380 578//380 577//380 
f 449//381 430//381 450//381 
f 430//382 449//382 429//382 
f 574//383 569//383 570//383 
f 569//384 574//384 573//384 
f 65//385 62//385 66//385 
f 62//386 65//386 61//386 
f 181//387 162//387 182//387 
f 162//388 181//388 161//388 
f 558//389 553//389 554//389 
f 553//390 558//390 557//390 
f 545//391 542//391 546//391 
f 542//392 545//392 541//392 
f 381//393 362//393 382//393 
f 362//394 381//394 361//394 
f 309//395 290//395 310//395 
f 290//396 309//396 289//396 
f 249//397 230//397 250//397 
f 230//398 249//398 229//398 
f 229//399 210//399 230//399 
f 210//400 229//400 209//400 
f 477//401 450//401 478//401 
f 450//402 477//402 449//402 
f 45//403 50//403 49//403 
f 50//404 45//404 46//404 
f 33//405 38//405 37//405 
f 38//406 33//406 34//406 
f 361//407 342//407 362//407 
f 342//408 361//408 341//408 
f 25//409 30//409 29//409 
f 30//410 25//410 26//410 
f 17//411 22//411 21//411 
f 22//412 17//412 18//412 
f 5//413 10//413 9//413 
f 10//414 5//414 6//414 
f 562//415 557//415 558//415 
f 557//416 562//416 561//416 
f 37//417 42//417 41//417 
f 42//418 37//418 38//418 
f 29//419 34//419 33//419 
f 34//420 29//420 30//420 
f 405//421 394//421 406//421 
f 394//422 405//422 393//422 
f 377//423 390//423 378//423 
f 390//424 377//424 389//424 
f 329//425 338//425 330//425 
f 338//426 329//426 337//426 
f 369//427 378//427 370//427 
f 378//428 369//428 377//428 
f 94//429 85//429 86//429 
f 85//430 94//430 93//430 
f 305//431 318//431 306//431 
f 318//432 305//432 317//432 
f 465//433 458//433 457//433 
f 458//434 465//434 466//434 
f 445//435 438//435 437//435 
f 438//436 445//436 446//436 
f 457//437 446//437 445//437 
f 446//438 457//438 458//438 
f 493//439 486//439 485//439 
f 486//440 493//440 494//440 
f 90//441 97//441 98//441 
f 97//442 90//442 89//442 
f 118//443 109//443 110//443 
f 109//444 118//444 117//444 
f 313//445 302//445 314//445 
f 302//446 313//446 301//446 
f 489//447 498//447 497//447 
f 498//448 489//448 490//448 
f 357//449 370//449 358//449 
f 370//450 357//450 369//450 
f 197//451 206//451 198//451 
f 206//452 197//452 205//452 
f 537//453 534//453 533//453 
f 534//454 537//454 538//454 
f 225//455 238//455 226//455 
f 238//456 225//456 237//456 
f 517//457 510//457 509//457 
f 510//458 517//458 518//458 
f 166//459 153//459 154//459 
f 153//460 166//460 165//460 
f 513//461 522//461 521//461 
f 522//462 513//462 514//462 
f 337//463 350//463 338//463 
f 350//464 337//464 349//464 
f 473//465 466//465 465//465 
f 466//466 473//466 474//466 
f 521//467 530//467 529//467 
f 530//468 521//468 522//468 
f 178//469 189//469 190//469 
f 189//470 178//470 177//470 
f 433//471 442//471 441//471 
f 442//472 433//472 434//472 
f 501//473 494//473 493//473 
f 494//474 501//474 502//474 
f 126//475 117//475 118//475 
f 117//476 126//476 125//476 
f 110//477 101//477 102//477 
f 101//478 110//478 109//478 
f 217//479 226//479 218//479 
f 226//480 217//480 225//480 
f 86//481 77//481 78//481 
f 77//482 86//482 85//482 
f 297//483 306//483 298//483 
f 306//484 297//484 305//484 
f 189//485 198//485 190//485 
f 198//486 189//486 197//486 
f 138//487 125//487 126//487 
f 125//488 138//488 137//488 
f 525//489 518//489 517//489 
f 518//490 525//490 526//490 
f 150//491 157//491 158//491 
f 157//492 150//492 149//492 
f 281//493 274//493 282//493 
f 274//494 281//494 273//494 
f 265//495 278//495 266//495 
f 278//496 265//496 277//496 
f 285//497 298//497 286//497 
f 298//498 285//498 297//498 
f 221//499 214//499 222//499 
f 214//500 221//500 213//500 
f 533//501 526//501 525//501 
f 526//502 533//502 534//502 
f 437//503 426//503 425//503 
f 426//504 437//504 438//504 
f 193//505 186//505 194//505 
f 186//506 193//506 185//506 
f 397//507 410//507 398//507 
f 410//508 397//508 409//508 
f 413//509 406//509 414//509 
f 406//510 413//510 405//510 
f 353//511 346//511 354//511 
f 346//512 353//512 345//512 
f 529//513 538//513 537//513 
f 538//514 529//514 530//514 
f 509//515 502//515 501//515 
f 502//516 509//516 510//516 
f 453//517 462//517 461//517 
f 462//518 453//518 454//518 
f 345//519 334//519 346//519 
f 334//520 345//520 333//520 
f 233//521 222//521 234//521 
f 222//522 233//522 221//522 
f 485//523 474//523 473//523 
f 474//524 485//524 486//524 
f 409//525 418//525 410//525 
f 418//526 409//526 417//526 
f 349//527 358//527 350//527 
f 358//528 349//528 357//528 
f 122//529 129//529 130//529 
f 129//530 122//530 121//530 
f 317//531 330//531 318//531 
f 330//532 317//532 329//532 
f 114//533 121//533 122//533 
f 121//534 114//534 113//534 
f 301//535 294//535 302//535 
f 294//536 301//536 293//536 
f 461//537 470//537 469//537 
f 470//538 461//538 462//538 
f 205//539 218//539 206//539 
f 218//540 205//540 217//540 
f 237//541 246//541 238//541 
f 246//542 237//542 245//542 
f 365//543 354//543 366//543 
f 354//544 365//544 353//544 
f 186//545 173//545 174//545 
f 173//546 186//546 185//546 
f 158//547 169//547 170//547 
f 169//548 158//548 157//548 
f 293//549 282//549 294//549 
f 282//550 293//550 281//550 
f 325//551 314//551 326//551 
f 314//552 325//552 313//552 
f 333//553 326//553 334//553 
f 326//554 333//554 325//554 
f 277//555 286//555 278//555 
f 286//556 277//556 285//556 
f 154//557 145//557 146//557 
f 145//558 154//558 153//558 
f 245//559 258//559 246//559 
f 258//560 245//560 257//560 
f 389//561 398//561 390//561 
f 398//562 389//562 397//562 
f 393//563 386//563 394//563 
f 386//564 393//564 385//564 
f 102//565 93//565 94//565 
f 93//566 102//566 101//566 
f 373//567 366//567 374//567 
f 366//568 373//568 365//568 
f 201//569 194//569 202//569 
f 194//570 201//570 193//570 
f 253//571 242//571 254//571 
f 242//572 253//572 241//572 
f 106//573 113//573 114//573 
f 113//574 106//574 105//574 
f 385//575 374//575 386//575 
f 374//576 385//576 373//576 
f 78//577 73//577 74//577 
f 73//578 78//578 77//578 
f 174//579 165//579 166//579 
f 165//580 174//580 173//580 
f 213//581 202//581 214//581 
f 202//582 213//582 201//582 
f 481//583 490//583 489//583 
f 490//584 481//584 482//584 
f 505//585 514//585 513//585 
f 514//586 505//586 506//586 
f 417//587 426//587 418//587 
f 426//588 417//588 425//588 
f 421//589 414//589 422//589 
f 414//590 421//590 413//590 
f 421//591 434//591 433//591 
f 434//592 421//592 422//592 
f 130//593 141//593 142//593 
f 141//594 130//594 129//594 
f 82//595 89//595 90//595 
f 89//596 82//596 81//596 
f 441//597 454//597 453//597 
f 454//598 441//598 442//598 
f 497//599 506//599 505//599 
f 506//600 497//600 498//600 
f 98//601 105//601 106//601 
f 105//602 98//602 97//602 
f 142//603 149//603 150//603 
f 149//604 142//604 141//604 
f 74//605 81//605 82//605 
f 81//606 74//606 73//606 
f 241//607 234//607 242//607 
f 234//608 241//608 233//608 
f 257//609 266//609 258//609 
f 266//610 257//610 265//610 
f 273//611 262//611 274//611 
f 262//612 273//612 261//612 
f 261//613 254//613 262//613 
f 254//614 261//614 253//614 
f 469//615 482//615 481//615 
f 482//616 469//616 470//616 
f 146//617 137//617 138//617 
f 137//618 146//618 145//618 
f 170//619 177//619 178//619 
f 177//620 170//620 169//620 
f 604//621 536//621 540//621 
f 548//622 528//622 536//622 
f 548//623 520//623 528//623 
f 548//624 512//624 520//624 
f 548//625 504//625 512//625 
f 548//626 496//626 504//626 
f 548//627 488//627 496//627 
f 400//628 544//628 480//628 
f 548//629 476//629 488//629 
f 548//630 468//630 476//630 
f 548//631 460//631 468//631 
f 392//632 480//632 452//632 
f 548//633 448//633 460//633 
f 548//634 440//634 448//634 
f 380//635 452//635 432//635 
f 548//636 428//636 440//636 
f 548//637 420//637 428//637 
f 548//638 412//638 420//638 
f 372//639 432//639 404//639 
f 544//640 400//640 412//640 
f 480//641 392//641 400//641 
f 360//642 404//642 384//642 
f 452//643 380//643 392//643 
f 432//644 372//644 380//644 
f 352//645 384//645 364//645 
f 404//646 360//646 372//646 
f 384//647 352//647 360//647 
f 340//648 364//648 344//648 
f 364//649 340//649 352//649 
f 344//650 332//650 340//650 
f 324//651 332//651 344//651 
f 324//652 320//652 332//652 
f 312//653 320//653 324//653 
f 312//654 308//654 320//654 
f 312//655 300//655 308//655 
f 292//656 300//656 312//656 
f 292//657 288//657 300//657 
f 272//658 288//658 292//658 
f 288//659 272//659 280//659 
f 252//660 280//660 272//660 
f 280//661 252//661 268//661 
f 232//662 268//662 252//662 
f 268//663 232//663 260//663 
f 212//664 260//664 232//664 
f 260//665 212//665 248//665 
f 184//666 248//666 212//666 
f 248//667 184//667 240//667 
f 164//668 240//668 184//668 
f 240//669 164//669 228//669 
f 136//670 228//670 164//670 
f 228//671 136//671 220//671 
f 72//672 220//672 136//672 
f 220//673 72//673 208//673 
f 68//674 208//674 72//674 
f 208//675 68//675 200//675 
f 64//676 200//676 68//676 
f 200//677 64//677 192//677 
f 60//678 192//678 64//678 
f 192//679 60//679 180//679 
f 56//680 180//680 60//680 
f 180//681 56//681 172//681 
f 52//682 172//682 56//682 
f 172//683 52//683 160//683 
f 48//684 160//684 52//684 
f 160//685 48//685 152//685 
f 44//686 152//686 48//686 
f 40//687 144//687 44//687 
f 152//688 44//688 144//688 
f 540//689 612//689 604//689 
f 536//690 604//690 600//690 
f 536//691 600//691 596//691 
f 536//692 596//692 592//692 
f 536//693 592//693 588//693 
f 536//694 588//694 584//694 
f 536//695 584//695 580//695 
f 536//696 580//696 576//696 
f 536//697 576//697 572//697 
f 536//698 572//698 568//698 
f 536//699 568//699 564//699 
f 536//700 564//700 560//700 
f 536//701 560//701 556//701 
f 536//702 556//702 552//702 
f 536//703 552//703 548//703 
f 412//704 548//704 544//704 
f 612//705 540//705 532//705 
f 612//706 532//706 524//706 
f 612//707 524//707 516//707 
f 612//708 516//708 508//708 
f 612//709 508//709 500//709 
f 612//710 500//710 492//710 
f 612//711 492//711 484//711 
f 612//712 484//712 472//712 
f 612//713 472//713 464//713 
f 612//714 464//714 606//714 
f 456//715 606//715 464//715 
f 444//716 606//716 456//716 
f 436//717 606//717 444//717 
f 424//718 606//718 436//718 
f 416//719 606//719 424//719 
f 408//720 606//720 416//720 
f 396//721 606//721 408//721 
f 388//722 606//722 396//722 
f 376//723 606//723 388//723 
f 368//724 606//724 376//724 
f 356//725 606//725 368//725 
f 348//726 606//726 356//726 
f 336//727 606//727 348//727 
f 328//728 606//728 336//728 
f 316//729 606//729 328//729 
f 304//730 606//730 316//730 
f 2//731 304//731 296//731 
f 2//732 296//732 284//732 
f 2//733 284//733 276//733 
f 2//734 276//734 264//734 
f 2//735 264//735 256//735 
f 2//736 256//736 244//736 
f 2//737 244//737 236//737 
f 2//738 236//738 224//738 
f 2//739 224//739 216//739 
f 2//740 216//740 204//740 
f 144//741 40//741 132//741 
f 36//742 132//742 40//742 
f 132//743 36//743 124//743 
f 32//744 124//744 36//744 
f 124//745 32//745 116//745 
f 28//746 116//746 32//746 
f 116//747 28//747 108//747 
f 24//748 108//748 28//748 
f 108//749 24//749 100//749 
f 20//750 100//750 24//750 
f 100//751 20//751 92//751 
f 16//752 92//752 20//752 
f 92//753 16//753 84//753 
f 12//754 84//754 16//754 
f 84//755 12//755 76//755 
f 8//756 76//756 12//756 
f 76//757 8//757 80//757 
f 80//758 8//758 88//758 
f 88//759 8//759 96//759 
f 96//760 8//760 104//760 
f 104//761 8//761 112//761 
f 112//762 8//762 120//762 
f 120//763 8//763 128//763 
f 128//764 8//764 140//764 
f 140//765 8//765 148//765 
f 2//766 148//766 8//766 
f 148//767 2//767 156//767 
f 156//768 2//768 168//768 
f 168//769 2//769 176//769 
f 176//770 2//770 188//770 
f 188//771 2//771 196//771 
f 196//772 2//772 204//772 
f 304//773 2//773 606//773 
f 491//774 611//774 608//774 
f 507//775 611//775 499//775 
f 515//776 611//776 507//776 
f 531//777 611//777 523//777 
f 611//778 539//778 603//778 
f 535//779 603//779 539//779 
f 527//780 599//780 535//780 
f 519//781 595//781 527//781 
f 595//782 519//782 591//782 
f 591//783 511//783 587//783 
f 503//784 587//784 511//784 
f 495//785 583//785 503//785 
f 583//786 495//786 579//786 
f 579//787 487//787 575//787 
f 575//788 475//788 571//788 
f 467//789 571//789 475//789 
f 587//790 503//790 583//790 
f 511//791 591//791 519//791 
f 599//792 527//792 595//792 
f 603//793 535//793 599//793 
f 539//794 611//794 531//794 
f 523//795 611//795 515//795 
f 611//796 491//796 499//796 
f 608//797 483//797 491//797 
f 608//798 471//798 483//798 
f 608//799 463//799 471//799 
f 608//800 455//800 463//800 
f 608//801 443//801 455//801 
f 608//802 435//802 443//802 
f 608//803 423//803 435//803 
f 608//804 415//804 423//804 
f 608//805 407//805 415//805 
f 608//806 395//806 407//806 
f 608//807 387//807 395//807 
f 608//808 375//808 387//808 
f 608//809 367//809 375//809 
f 608//810 355//810 367//810 
f 608//811 347//811 355//811 
f 608//812 335//812 347//812 
f 608//813 327//813 335//813 
f 608//814 315//814 327//814 
f 608//815 303//815 315//815 
f 4//816 303//816 608//816 
f 303//817 4//817 295//817 
f 207//818 67//818 71//818 
f 7//819 75//819 79//819 
f 83//820 63//820 67//820 
f 7//821 79//821 87//821 
f 83//822 59//822 63//822 
f 7//823 87//823 95//823 
f 83//824 55//824 59//824 
f 7//825 95//825 103//825 
f 83//826 51//826 55//826 
f 7//827 103//827 111//827 
f 83//828 47//828 51//828 
f 7//829 111//829 119//829 
f 83//830 43//830 47//830 
f 4//831 119//831 127//831 
f 83//832 39//832 43//832 
f 4//833 127//833 139//833 
f 83//834 35//834 39//834 
f 4//835 139//835 147//835 
f 83//836 31//836 35//836 
f 4//837 147//837 155//837 
f 83//838 27//838 31//838 
f 4//839 155//839 167//839 
f 83//840 23//840 27//840 
f 4//841 167//841 175//841 
f 83//842 19//842 23//842 
f 4//843 175//843 187//843 
f 83//844 15//844 19//844 
f 4//845 187//845 195//845 
f 83//846 11//846 15//846 
f 4//847 195//847 203//847 
f 295//848 4//848 283//848 
f 4//849 275//849 283//849 
f 4//850 263//850 275//850 
f 4//851 255//851 263//851 
f 4//852 243//852 255//852 
f 4//853 235//853 243//853 
f 4//854 223//854 235//854 
f 4//855 215//855 223//855 
f 4//856 203//856 215//856 
f 119//857 4//857 7//857 
f 75//858 7//858 11//858 
f 487//859 579//859 495//859 
f 475//860 575//860 487//860 
f 571//861 467//861 567//861 
f 459//862 567//862 467//862 
f 567//863 459//863 563//863 
f 447//864 563//864 459//864 
f 563//865 447//865 559//865 
f 439//866 559//866 447//866 
f 559//867 439//867 555//867 
f 427//868 555//868 439//868 
f 555//869 427//869 551//869 
f 419//870 551//870 427//870 
f 551//871 419//871 547//871 
f 411//872 547//872 419//872 
f 547//873 411//873 543//873 
f 399//874 543//874 411//874 
f 543//875 399//875 479//875 
f 391//876 479//876 399//876 
f 479//877 391//877 451//877 
f 379//878 451//878 391//878 
f 451//879 379//879 431//879 
f 371//880 431//880 379//880 
f 431//881 371//881 403//881 
f 359//882 403//882 371//882 
f 403//883 359//883 383//883 
f 351//884 383//884 359//884 
f 383//885 351//885 363//885 
f 339//886 363//886 351//886 
f 363//887 339//887 343//887 
f 331//888 343//888 339//888 
f 331//889 323//889 343//889 
f 319//890 323//890 331//890 
f 307//891 323//891 319//891 
f 307//892 311//892 323//892 
f 299//893 311//893 307//893 
f 299//894 291//894 311//894 
f 287//895 291//895 299//895 
f 271//896 287//896 279//896 
f 287//897 271//897 291//897 
f 251//898 279//898 267//898 
f 231//899 267//899 259//899 
f 279//900 251//900 271//900 
f 211//901 259//901 247//901 
f 183//902 247//902 239//902 
f 267//903 231//903 251//903 
f 163//904 239//904 227//904 
f 135//905 227//905 219//905 
f 259//906 211//906 231//906 
f 71//907 219//907 207//907 
f 67//908 207//908 199//908 
f 67//909 199//909 191//909 
f 247//910 183//910 211//910 
f 67//911 191//911 179//911 
f 67//912 179//912 171//912 
f 239//913 163//913 183//913 
f 67//914 171//914 159//914 
f 67//915 159//915 151//915 
f 67//916 151//916 143//916 
f 227//917 135//917 163//917 
f 67//918 143//918 131//918 
f 67//919 131//919 123//919 
f 67//920 123//920 115//920 
f 67//921 115//921 107//921 
f 67//922 107//922 99//922 
f 67//923 99//923 91//923 
f 67//924 91//924 83//924 
f 219//925 71//925 135//925 
f 11//926 83//926 75//926 
f 604//927 599//927 600//927 
f 599//928 604//928 603//928 
f 612//929 603//929 604//929 
f 603//930 612//930 611//930 
f 600//931 595//931 596//931 
f 595//932 600//932 599//932 
f 584//933 579//933 580//933 
f 579//934 584//934 583//934 
f 11//935 16//935 15//935 
f 16//936 11//936 12//936 
f 323//937 312//937 324//937 
f 312//938 323//938 311//938 
f 291//939 272//939 292//939 
f 272//940 291//940 271//940 
f 51//941 56//941 55//941 
f 56//942 51//942 52//942 
f 163//943 136//943 164//943 
f 136//944 163//944 135//944 
f 572//945 567//945 568//945 
f 567//946 572//946 571//946 
f 555//947 552//947 556//947 
f 552//948 555//948 551//948 
f 403//949 384//949 404//949 
f 384//950 403//950 383//950 
f 568//951 563//951 564//951 
f 563//952 568//952 567//952 
f 551//953 548//953 552//953 
f 548//954 551//954 547//954 
f 343//955 324//955 344//955 
f 324//956 343//956 323//956 
f 23//957 28//957 27//957 
f 28//958 23//958 24//958 
f 63//959 60//959 64//959 
f 60//960 63//960 59//960 
f 15//961 20//961 19//961 
f 20//962 15//962 16//962 
f 592//963 587//963 588//963 
f 587//964 592//964 591//964 
f 43//965 48//965 47//965 
f 48//966 43//966 44//966 
f 596//967 591//967 592//967 
f 591//968 596//968 595//968 
f 431//969 404//969 432//969 
f 404//970 431//970 403//970 
f 271//971 252//971 272//971 
f 252//972 271//972 251//972 
f 588//973 583//973 584//973 
f 583//974 588//974 587//974 
f 71//975 68//975 72//975 
f 68//976 71//976 67//976 
f 55//977 60//977 59//977 
f 60//978 55//978 56//978 
f 135//979 72//979 136//979 
f 72//980 135//980 71//980 
f 543//981 480//981 544//981 
f 480//982 543//982 479//982 
f 211//983 184//983 212//983 
f 184//984 211//984 183//984 
f 580//985 575//985 576//985 
f 575//986 580//986 579//986 
f 451//987 432//987 452//987 
f 432//988 451//988 431//988 
f 576//989 571//989 572//989 
f 571//990 576//990 575//990 
f 67//991 64//991 68//991 
f 64//992 67//992 63//992 
f 183//993 164//993 184//993 
f 164//994 183//994 163//994 
f 560//995 555//995 556//995 
f 555//996 560//996 559//996 
f 547//997 544//997 548//997 
f 544//998 547//998 543//998 
f 383//999 364//999 384//999 
f 364//1000 383//1000 363//1000 
f 311//1001 292//1001 312//1001 
f 292//1002 311//1002 291//1002 
f 251//1003 232//1003 252//1003 
f 232//1004 251//1004 231//1004 
f 231//1005 212//1005 232//1005 
f 212//1006 231//1006 211//1006 
f 479//1007 452//1007 480//1007 
f 452//1008 479//1008 451//1008 
f 47//1009 52//1009 51//1009 
f 52//1010 47//1010 48//1010 
f 35//1011 40//1011 39//1011 
f 40//1012 35//1012 36//1012 
f 363//1013 344//1013 364//1013 
f 344//1014 363//1014 343//1014 
f 27//1015 32//1015 31//1015 
f 32//1016 27//1016 28//1016 
f 19//1017 24//1017 23//1017 
f 24//1018 19//1018 20//1018 
f 7//1019 12//1019 11//1019 
f 12//1020 7//1020 8//1020 
f 564//1021 559//1021 560//1021 
f 559//1022 564//1022 563//1022 
f 39//1023 44//1023 43//1023 
f 44//1024 39//1024 40//1024 
f 31//1025 36//1025 35//1025 
f 36//1026 31//1026 32//1026 
f 407//1027 396//1027 408//1027 
f 396//1028 407//1028 395//1028 
f 379//1029 392//1029 380//1029 
f 392//1030 379//1030 391//1030 
f 331//1031 340//1031 332//1031 
f 340//1032 331//1032 339//1032 
f 371//1033 380//1033 372//1033 
f 380//1034 371//1034 379//1034 
f 96//1035 87//1035 88//1035 
f 87//1036 96//1036 95//1036 
f 307//1037 320//1037 308//1037 
f 320//1038 307//1038 319//1038 
f 467//1039 460//1039 459//1039 
f 460//1040 467//1040 468//1040 
f 447//1041 440//1041 439//1041 
f 440//1042 447//1042 448//1042 
f 459//1043 448//1043 447//1043 
f 448//1044 459//1044 460//1044 
f 495//1045 488//1045 487//1045 
f 488//1046 495//1046 496//1046 
f 92//1047 99//1047 100//1047 
f 99//1048 92//1048 91//1048 
f 120//1049 111//1049 112//1049 
f 111//1050 120//1050 119//1050 
f 315//1051 304//1051 316//1051 
f 304//1052 315//1052 303//1052 
f 491//1053 500//1053 499//1053 
f 500//1054 491//1054 492//1054 
f 359//1055 372//1055 360//1055 
f 372//1056 359//1056 371//1056 
f 199//1057 208//1057 200//1057 
f 208//1058 199//1058 207//1058 
f 539//1059 536//1059 535//1059 
f 536//1060 539//1060 540//1060 
f 227//1061 240//1061 228//1061 
f 240//1062 227//1062 239//1062 
f 519//1063 512//1063 511//1063 
f 512//1064 519//1064 520//1064 
f 168//1065 155//1065 156//1065 
f 155//1066 168//1066 167//1066 
f 515//1067 524//1067 523//1067 
f 524//1068 515//1068 516//1068 
f 339//1069 352//1069 340//1069 
f 352//1070 339//1070 351//1070 
f 475//1071 468//1071 467//1071 
f 468//1072 475//1072 476//1072 
f 523//1073 532//1073 531//1073 
f 532//1074 523//1074 524//1074 
f 180//1075 191//1075 192//1075 
f 191//1076 180//1076 179//1076 
f 435//1077 444//1077 443//1077 
f 444//1078 435//1078 436//1078 
f 503//1079 496//1079 495//1079 
f 496//1080 503//1080 504//1080 
f 128//1081 119//1081 120//1081 
f 119//1082 128//1082 127//1082 
f 112//1083 103//1083 104//1083 
f 103//1084 112//1084 111//1084 
f 219//1085 228//1085 220//1085 
f 228//1086 219//1086 227//1086 
f 88//1087 79//1087 80//1087 
f 79//1088 88//1088 87//1088 
f 299//1089 308//1089 300//1089 
f 308//1090 299//1090 307//1090 
f 191//1091 200//1091 192//1091 
f 200//1092 191//1092 199//1092 
f 140//1093 127//1093 128//1093 
f 127//1094 140//1094 139//1094 
f 527//1095 520//1095 519//1095 
f 520//1096 527//1096 528//1096 
f 152//1097 159//1097 160//1097 
f 159//1098 152//1098 151//1098 
f 283//1099 276//1099 284//1099 
f 276//1100 283//1100 275//1100 
f 267//1101 280//1101 268//1101 
f 280//1102 267//1102 279//1102 
f 287//1103 300//1103 288//1103 
f 300//1104 287//1104 299//1104 
f 223//1105 216//1105 224//1105 
f 216//1106 223//1106 215//1106 
f 535//1107 528//1107 527//1107 
f 528//1108 535//1108 536//1108 
f 439//1109 428//1109 427//1109 
f 428//1110 439//1110 440//1110 
f 195//1111 188//1111 196//1111 
f 188//1112 195//1112 187//1112 
f 399//1113 412//1113 400//1113 
f 412//1114 399//1114 411//1114 
f 415//1115 408//1115 416//1115 
f 408//1116 415//1116 407//1116 
f 355//1117 348//1117 356//1117 
f 348//1118 355//1118 347//1118 
f 531//1119 540//1119 539//1119 
f 540//1120 531//1120 532//1120 
f 511//1121 504//1121 503//1121 
f 504//1122 511//1122 512//1122 
f 455//1123 464//1123 463//1123 
f 464//1124 455//1124 456//1124 
f 347//1125 336//1125 348//1125 
f 336//1126 347//1126 335//1126 
f 235//1127 224//1127 236//1127 
f 224//1128 235//1128 223//1128 
f 487//1129 476//1129 475//1129 
f 476//1130 487//1130 488//1130 
f 411//1131 420//1131 412//1131 
f 420//1132 411//1132 419//1132 
f 351//1133 360//1133 352//1133 
f 360//1134 351//1134 359//1134 
f 124//1135 131//1135 132//1135 
f 131//1136 124//1136 123//1136 
f 319//1137 332//1137 320//1137 
f 332//1138 319//1138 331//1138 
f 116//1139 123//1139 124//1139 
f 123//1140 116//1140 115//1140 
f 303//1141 296//1141 304//1141 
f 296//1142 303//1142 295//1142 
f 463//1143 472//1143 471//1143 
f 472//1144 463//1144 464//1144 
f 207//1145 220//1145 208//1145 
f 220//1146 207//1146 219//1146 
f 239//1147 248//1147 240//1147 
f 248//1148 239//1148 247//1148 
f 367//1149 356//1149 368//1149 
f 356//1150 367//1150 355//1150 
f 188//1151 175//1151 176//1151 
f 175//1152 188//1152 187//1152 
f 160//1153 171//1153 172//1153 
f 171//1154 160//1154 159//1154 
f 295//1155 284//1155 296//1155 
f 284//1156 295//1156 283//1156 
f 327//1157 316//1157 328//1157 
f 316//1158 327//1158 315//1158 
f 335//1159 328//1159 336//1159 
f 328//1160 335//1160 327//1160 
f 279//1161 288//1161 280//1161 
f 288//1162 279//1162 287//1162 
f 156//1163 147//1163 148//1163 
f 147//1164 156//1164 155//1164 
f 247//1165 260//1165 248//1165 
f 260//1166 247//1166 259//1166 
f 391//1167 400//1167 392//1167 
f 400//1168 391//1168 399//1168 
f 395//1169 388//1169 396//1169 
f 388//1170 395//1170 387//1170 
f 104//1171 95//1171 96//1171 
f 95//1172 104//1172 103//1172 
f 375//1173 368//1173 376//1173 
f 368//1174 375//1174 367//1174 
f 203//1175 196//1175 204//1175 
f 196//1176 203//1176 195//1176 
f 255//1177 244//1177 256//1177 
f 244//1178 255//1178 243//1178 
f 108//1179 115//1179 116//1179 
f 115//1180 108//1180 107//1180 
f 387//1181 376//1181 388//1181 
f 376//1182 387//1182 375//1182 
f 80//1183 75//1183 76//1183 
f 75//1184 80//1184 79//1184 
f 176//1185 167//1185 168//1185 
f 167//1186 176//1186 175//1186 
f 215//1187 204//1187 216//1187 
f 204//1188 215//1188 203//1188 
f 483//1189 492//1189 491//1189 
f 492//1190 483//1190 484//1190 
f 507//1191 516//1191 515//1191 
f 516//1192 507//1192 508//1192 
f 419//1193 428//1193 420//1193 
f 428//1194 419//1194 427//1194 
f 423//1195 416//1195 424//1195 
f 416//1196 423//1196 415//1196 
f 423//1197 436//1197 435//1197 
f 436//1198 423//1198 424//1198 
f 132//1199 143//1199 144//1199 
f 143//1200 132//1200 131//1200 
f 84//1201 91//1201 92//1201 
f 91//1202 84//1202 83//1202 
f 443//1203 456//1203 455//1203 
f 456//1204 443//1204 444//1204 
f 499//1205 508//1205 507//1205 
f 508//1206 499//1206 500//1206 
f 100//1207 107//1207 108//1207 
f 107//1208 100//1208 99//1208 
f 144//1209 151//1209 152//1209 
f 151//1210 144//1210 143//1210 
f 76//1211 83//1211 84//1211 
f 83//1212 76//1212 75//1212 
f 243//1213 236//1213 244//1213 
f 236//1214 243//1214 235//1214 
f 259//1215 268//1215 260//1215 
f 268//1216 259//1216 267//1216 
f 275//1217 264//1217 276//1217 
f 264//1218 275//1218 263//1218 
f 263//1219 256//1219 264//1219 
f 256//1220 263//1220 255//1220 
f 471//1221 484//1221 483//1221 
f 484//1222 471//1222 472//1222 
f 148//1223 139//1223 140//1223 
f 139//1224 148//1224 147//1224 
f 172//1225 179//1225 180//1225 
f 179//1226 172//1226 171//1226 
f 1//1227 606//1227 2//1227 
f 606//1228 1//1228 605//1228 
