# FreeCAD v1.0 build0 Arch module
# https://www.freecad.org
mtllib colors.mtl
o bolt
usemtl color_fad82c
v -5.19615 -3.0 -15.0
v -5.19615 -3.0 -10.0
v -5.19615 3.0 -15.0
v -5.19615 3.0 -10.0
v -4.0 0.0 -10.0
v -4.0 0.0 15.0
v -3.99211 -0.251162 -10.0
v -3.99211 -0.251162 15.0
v -3.99211 0.251162 -10.0
v -3.99211 0.251162 15.0
v -3.96846 -0.501332 -10.0
v -3.96846 -0.501332 15.0
v -3.96846 0.501332 -10.0
v -3.96846 0.501332 15.0
v -3.92915 -0.749525 -10.0
v -3.92915 -0.749525 15.0
v -3.92915 0.749525 -10.0
v -3.92915 0.749525 15.0
v -3.87433 -0.994759 -10.0
v -3.87433 -0.994759 15.0
v -3.87433 0.994759 -10.0
v -3.87433 0.994759 15.0
v -3.80423 -1.23607 -10.0
v -3.80423 -1.23607 15.0
v -3.80423 1.23607 -10.0
v -3.80423 1.23607 15.0
v -3.71911 -1.4725 -10.0
v -3.71911 -1.4725 15.0
v -3.71911 1.4725 -10.0
v -3.71911 1.4725 15.0
v -3.61931 -1.70312 -10.0
v -3.61931 -1.70312 15.0
v -3.61931 1.70312 -10.0
v -3.61931 1.70312 15.0
v -3.50523 -1.92701 -10.0
v -3.50523 -1.92701 15.0
v -3.50523 1.92701 -10.0
v -3.50523 1.92701 15.0
v -3.37731 -2.14331 -10.0
v -3.37731 -2.14331 15.0
v -3.37731 2.14331 -10.0
v -3.37731 2.14331 15.0
v -3.23607 -2.35114 -10.0
v -3.23607 -2.35114 15.0
v -3.23607 2.35114 -10.0
v -3.23607 2.35114 15.0
v -3.08205 -2.5497 -10.0
v -3.08205 -2.5497 15.0
v -3.08205 2.5497 -10.0
v -3.08205 2.5497 15.0
v -2.91587 -2.73819 -10.0
v -2.91587 -2.73819 15.0
v -2.91587 2.73819 -10.0
v -2.91587 2.73819 15.0
v -2.73819 -2.91587 -10.0
v -2.73819 -2.91587 15.0
v -2.73819 2.91587 -10.0
v -2.73819 2.91587 15.0
v -2.5497 -3.08205 -10.0
v -2.5497 -3.08205 15.0
v -2.5497 3.08205 -10.0
v -2.5497 3.08205 15.0
v -2.35114 -3.23607 -10.0
v -2.35114 -3.23607 15.0
v -2.35114 3.23607 -10.0
v -2.35114 3.23607 15.0
v -2.14331 -3.37731 -10.0
v -2.14331 -3.37731 15.0
v -2.14331 3.37731 -10.0
v -2.14331 3.37731 15.0
v -1.92701 -3.50523 -10.0
v -1.92701 -3.50523 15.0
v -1.92701 3.50523 -10.0
v -1.92701 3.50523 15.0
v -1.70312 -3.61931 -10.0
v -1.70312 -3.61931 15.0
v -1.70312 3.61931 -10.0
v -1.70312 3.61931 15.0
v -1.4725 -3.71911 -10.0
v -1.4725 -3.71911 15.0
v -1.4725 3.71911 -10.0
v -1.4725 3.71911 15.0
v -1.23607 -3.80423 -10.0
v -1.23607 -3.80423 15.0
v -1.23607 3.80423 -10.0
v -1.23607 3.80423 15.0
v -0.994759 -3.87433 -10.0
v -0.994759 -3.87433 15.0
v -0.994759 3.87433 -10.0
v -0.994759 3.87433 15.0
v -0.749525 -3.92915 -10.0
v -0.749525 -3.92915 15.0
v -0.749525 3.92915 -10.0
v -0.749525 3.92915 15.0
v -0.501332 -3.96846 -10.0
v -0.501332 -3.96846 15.0
v -0.501332 3.96846 -10.0
v -0.501332 3.96846 15.0
v -0.251162 -3.99211 -10.0
v -0.251162 -3.99211 15.0
v -0.251162 3.99211 -10.0
v -0.251162 3.99211 15.0
v 0.0 -6.0 -15.0
v 0.0 -6.0 -10.0
v 0.0 -4.0 -10.0
v 0.0 -4.0 15.0
v 0.0 4.0 -10.0
v 0.0 4.0 15.0
v 0.0 6.0 -15.0
v 0.0 6.0 -10.0
v 0.251162 -3.99211 -10.0
v 0.251162 -3.99211 15.0
v 0.251162 3.99211 -10.0
v 0.251162 3.99211 15.0
v 0.501332 -3.96846 -10.0
v 0.501332 -3.96846 15.0
v 0.501332 3.96846 -10.0
v 0.501332 3.96846 15.0
v 0.749525 -3.92915 -10.0
v 0.749525 -3.92915 15.0
v 0.749525 3.92915 -10.0
v 0.749525 3.92915 15.0
v 0.994759 -3.87433 -10.0
v 0.994759 -3.87433 15.0
v 0.994759 3.87433 -10.0
v 0.994759 3.87433 15.0
v 1.23607 -3.80423 -10.0
v 1.23607 -3.80423 15.0
v 1.23607 3.80423 -10.0
v 1.23607 3.80423 15.0
v 1.4725 -3.71911 -10.0
v 1.4725 -3.71911 15.0
v 1.4725 3.71911 -10.0
v 1.4725 3.71911 15.0
v 1.70312 -3.61931 -10.0
v 1.70312 -3.61931 15.0
v 1.70312 3.61931 -10.0
v 1.70312 3.61931 15.0
v 1.92701 -3.50523 -10.0
v 1.92701 -3.50523 15.0
v 1.92701 3.50523 -10.0
v 1.92701 3.50523 15.0
v 2.14331 -3.37731 -10.0
v 2.14331 -3.37731 15.0
v 2.14331 3.37731 -10.0
v 2.14331 3.37731 15.0
v 2.35114 -3.23607 -10.0
v 2.35114 -3.23607 15.0
v 2.35114 3.23607 -10.0
v 2.35114 3.23607 15.0
v 2.5497 -3.08205 -10.0
v 2.5497 -3.08205 15.0
v 2.5497 3.08205 -10.0
v 2.5497 3.08205 15.0
v 2.73819 -2.91587 -10.0
v 2.73819 -2.91587 15.0
v 2.73819 2.91587 -10.0
v 2.73819 2.91587 15.0
v 2.91587 -2.73819 -10.0
v 2.91587 -2.73819 15.0
v 2.91587 2.73819 -10.0
v 2.91587 2.73819 15.0
v 3.08205 -2.5497 -10.0
v 3.08205 -2.5497 15.0
v 3.08205 2.5497 -10.0
v 3.08205 2.5497 15.0
v 3.23607 -2.35114 -10.0
v 3.23607 -2.35114 15.0
v 3.23607 2.35114 -10.0
v 3.23607 2.35114 15.0
v 3.37731 -2.14331 -10.0
v 3.37731 -2.14331 15.0
v 3.37731 2.14331 -10.0
v 3.37731 2.14331 15.0
v 3.50523 -1.92701 -10.0
v 3.50523 -1.92701 15.0
v 3.50523 1.92701 -10.0
v 3.50523 1.92701 15.0
v 3.61931 -1.70312 -10.0
v 3.61931 -1.70312 15.0
v 3.61931 1.70312 -10.0
v 3.61931 1.70312 15.0
v 3.71911 -1.4725 -10.0
v 3.71911 -1.4725 15.0
v 3.71911 1.4725 -10.0
v 3.71911 1.4725 15.0
v 3.80423 -1.23607 -10.0
v 3.80423 -1.23607 15.0
v 3.80423 1.23607 -10.0
v 3.80423 1.23607 15.0
v 3.87433 -0.994759 -10.0
v 3.87433 -0.994759 15.0
v 3.87433 0.994759 -10.0
v 3.87433 0.994759 15.0
v 3.92915 -0.749525 -10.0
v 3.92915 -0.749525 15.0
v 3.92915 0.749525 -10.0
v 3.92915 0.749525 15.0
v 3.96846 -0.501332 -10.0
v 3.96846 -0.501332 15.0
v 3.96846 0.501332 -10.0
v 3.96846 0.501332 15.0
v 3.99211 -0.251162 -10.0
v 3.99211 -0.251162 15.0
v 3.99211 0.251162 -10.0
v 3.99211 0.251162 15.0
v 4.0 0.0 -10.0
v 4.0 0.0 15.0
v 5.19615 -3.0 -15.0
v 5.19615 -3.0 -10.0
v 5.19615 3.0 -15.0
v 5.19615 3.0 -10.0
vn 0.5 -0.866025 0.0
vn 0.5 -0.866025 0.0
vn 1.0 -0.0 0.0
vn 1.0 0.0 0.0
vn -0.5 0.866025 0.0
vn -0.5 0.866025 0.0
vn 0.5 0.866025 -0.0
vn 0.5 0.866025 0.0
vn -1.0 0.0 0.0
vn -1.0 -0.0 0.0
vn -0.5 -0.866025 0.0
vn -0.5 -0.866025 -0.0
vn 0.0 0.0 1.0
vn 0.0 0.0 1.0
vn 0.0 0.0 1.0
vn 0.0 0.0 1.0
vn 0.0 0.0 1.0
vn 0.0 0.0 1.0
vn 0.0 0.0 1.0
vn 0.0 0.0 1.0
vn 0.0 0.0 1.0
vn 0.0 0.0 1.0
vn 0.0 0.0 1.0
vn 0.0 0.0 1.0
vn 0.0 0.0 1.0
vn 0.0 0.0 1.0
vn 0.0 0.0 1.0
vn 0.0 0.0 1.0
vn 0.0 0.0 1.0
vn 0.0 0.0 1.0
vn 0.0 0.0 1.0
vn 0.0 0.0 1.0
vn 0.0 0.0 1.0
vn 0.0 0.0 1.0
vn 0.0 0.0 1.0
vn 0.0 0.0 1.0
vn 0.0 0.0 1.0
vn 0.0 0.0 1.0
vn 0.0 0.0 1.0
vn 0.0 0.0 1.0
vn 0.0 0.0 1.0
vn 0.0 0.0 1.0
vn 0.0 0.0 1.0
vn 0.0 0.0 1.0
vn 0.0 0.0 1.0
vn 0.0 0.0 1.0
vn 0.0 0.0 1.0
vn 0.0 0.0 1.0
vn 0.0 0.0 1.0
vn 0.0 0.0 1.0
vn 0.0 0.0 1.0
vn 0.0 0.0 1.0
vn 0.0 0.0 1.0
vn 0.0 0.0 1.0
vn 0.0 0.0 1.0
vn 0.0 0.0 1.0
vn 0.0 0.0 1.0
vn 0.0 0.0 1.0
vn 0.0 0.0 1.0
vn 0.0 0.0 1.0
vn 0.0 0.0 1.0
vn 0.0 0.0 1.0
vn 0.0 0.0 1.0
vn 0.0 0.0 1.0
vn 0.0 0.0 1.0
vn -0.0 0.0 1.0
vn -0.0 0.0 1.0
vn -0.0 0.0 1.0
vn -0.0 0.0 1.0
vn -0.0 0.0 1.0
vn -0.0 0.0 1.0
vn -0.0 0.0 1.0
vn -0.0 0.0 1.0
vn -0.0 0.0 1.0
vn -0.0 0.0 1.0
vn -0.0 0.0 1.0
vn -0.0 0.0 1.0
vn -0.0 0.0 1.0
vn 0.0 0.0 1.0
vn 0.0 0.0 1.0
vn 0.0 0.0 1.0
vn 0.0 0.0 1.0
vn 0.0 0.0 1.0
vn 0.0 0.0 1.0
vn 0.0 0.0 1.0
vn 0.0 0.0 1.0
vn 0.0 0.0 1.0
vn -0.0 0.0 1.0
vn -0.0 0.0 1.0
vn -0.0 0.0 1.0
vn -0.0 0.0 1.0
vn 0.0 0.0 1.0
vn 0.0 0.0 1.0
vn 0.0 0.0 1.0
vn 0.0 0.0 1.0
vn 0.0 0.0 1.0
vn 0.0 0.0 1.0
vn 0.0 0.0 1.0
vn 0.0 0.0 1.0
vn 0.0 0.0 1.0
vn 0.0 0.0 1.0
vn 0.0 0.0 1.0
vn -0.0 0.0 1.0
vn 0.0 0.0 1.0
vn 0.0 0.0 1.0
vn 0.0 0.0 1.0
vn 0.0 0.0 1.0
vn 0.0 0.0 1.0
vn 0.0 0.0 1.0
vn 0.0 0.0 1.0
vn 0.0 0.0 1.0
vn 0.0 0.0 1.0
vn 0.0 0.0 1.0
vn 0.0 0.0 1.0
vn 0.0 0.0 1.0
vn 0.0 0.0 1.0
vn 0.0 0.0 1.0
vn 0.0 0.0 1.0
vn 0.0 0.0 -1.0
vn 0.0 0.0 -1.0
vn 0.0 0.0 -1.0
vn 0.0 0.0 -1.0
vn 0.940881 0.338738 0.0
vn 0.940881 0.338738 0.0
vn 0.995561 0.094116 0.0
vn 0.995561 0.094116 0.0
vn 0.999507 0.031398 0.0
vn 0.999507 0.031398 0.0
vn 0.987688 0.156435 0.0
vn 0.987688 0.156435 0.0
vn 0.891003 -0.453998 0.0
vn 0.891003 -0.453998 0.0
vn 0.094116 -0.995561 0.0
vn 0.094116 -0.995561 0.0
vn -0.156435 -0.987688 0.0
vn -0.156435 -0.987688 -0.0
vn -0.397154 -0.917752 0.0
vn -0.397154 -0.917752 -0.0
vn -0.917752 -0.397154 0.0
vn -0.917752 -0.397154 0.0
vn 0.975914 0.218158 0.0
vn 0.975914 0.218158 0.0
vn 0.509043 0.860741 -0.0
vn 0.509043 0.860741 0.0
vn 0.031398 -0.999507 0.0
vn 0.031398 -0.999507 0.0
vn -0.860741 0.509043 0.0
vn -0.860741 0.509043 0.0
vn -0.661321 0.750103 0.0
vn -0.661321 0.750103 0.0
vn 0.827082 0.562081 0.0
vn 0.827082 0.562081 0.0
vn 0.860741 -0.509043 0.0
vn 0.860741 -0.509043 0.0
vn 0.707107 0.707107 0.0
vn 0.707107 0.707107 0.0
vn -0.827082 -0.562081 0.0
vn -0.827082 -0.562081 0.0
vn 0.750103 -0.661321 0.0
vn 0.750103 -0.661321 0.0
vn -0.999507 -0.031398 0.0
vn -0.999507 -0.031398 0.0
vn -0.940881 -0.338738 0.0
vn -0.940881 -0.338738 0.0
vn 0.860741 0.509043 0.0
vn 0.860741 0.509043 0.0
vn -0.995561 -0.094116 0.0
vn -0.995561 -0.094116 0.0
vn -0.987688 -0.156435 0.0
vn -0.987688 -0.156435 0.0
vn 0.661321 0.750103 -0.0
vn 0.661321 0.750103 0.0
vn 0.987688 -0.156435 0.0
vn 0.987688 -0.156435 0.0
vn 0.960301 0.278964 0.0
vn 0.960301 0.278964 0.0
vn 0.338738 0.940881 -0.0
vn 0.338738 0.940881 0.0
vn 0.338738 -0.940881 0.0
vn 0.338738 -0.940881 0.0
vn -0.562081 0.827082 0.0
vn -0.562081 0.827082 0.0
vn -0.612909 0.790153 0.0
vn -0.612909 0.790153 0.0
vn -0.995561 0.094116 0.0
vn -0.995561 0.094116 0.0
vn -0.790153 0.612909 0.0
vn -0.790153 0.612909 0.0
vn -0.975914 0.218158 0.0
vn -0.975914 0.218158 0.0
vn 0.218158 0.975914 -0.0
vn 0.218158 0.975914 0.0
vn 0.509043 -0.860741 0.0
vn 0.509043 -0.860741 0.0
vn 0.453998 -0.891003 0.0
vn 0.453998 -0.891003 0.0
vn 0.562081 0.827082 -0.0
vn 0.562081 0.827082 0.0
vn 0.960301 -0.278964 0.0
vn 0.960301 -0.278964 0.0
vn -0.940881 0.338738 0.0
vn -0.940881 0.338738 0.0
vn 0.891003 0.453998 0.0
vn 0.891003 0.453998 0.0
vn 0.917752 0.397154 0.0
vn 0.917752 0.397154 0.0
vn 0.940881 -0.338738 0.0
vn 0.940881 -0.338738 0.0
vn -0.707107 -0.707107 0.0
vn -0.707107 -0.707107 0.0
vn -0.987688 0.156435 0.0
vn -0.987688 0.156435 0.0
vn -0.094116 0.995561 0.0
vn -0.094116 0.995561 0.0
vn -0.975914 -0.218158 0.0
vn -0.975914 -0.218158 0.0
vn 0.790153 -0.612909 0.0
vn 0.790153 -0.612909 0.0
vn 0.278964 -0.960301 0.0
vn 0.278964 -0.960301 0.0
vn 0.218158 -0.975914 0.0
vn 0.218158 -0.975914 0.0
vn 0.917752 -0.397154 0.0
vn 0.917752 -0.397154 0.0
vn -0.509043 -0.860741 0.0
vn -0.509043 -0.860741 -0.0
vn 0.397154 -0.917752 0.0
vn 0.397154 -0.917752 0.0
vn -0.278964 -0.960301 0.0
vn -0.278964 -0.960301 -0.0
vn 0.094116 0.995561 -0.0
vn 0.094116 0.995561 0.0
vn -0.750103 0.661321 0.0
vn -0.750103 0.661321 0.0
vn -0.960301 -0.278964 0.0
vn -0.960301 -0.278964 0.0
vn -0.860741 -0.509043 0.0
vn -0.860741 -0.509043 0.0
vn -0.338738 0.940881 0.0
vn -0.338738 0.940881 0.0
vn 0.612909 0.790153 -0.0
vn 0.612909 0.790153 0.0
vn -0.750103 -0.661321 0.0
vn -0.750103 -0.661321 0.0
vn -0.031398 0.999507 0.0
vn -0.031398 0.999507 0.0
vn 0.995561 -0.094116 0.0
vn 0.995561 -0.094116 0.0
vn 0.397154 0.917752 -0.0
vn 0.397154 0.917752 0.0
vn 0.453998 0.891003 -0.0
vn 0.453998 0.891003 0.0
vn 0.750103 0.661321 0.0
vn 0.750103 0.661321 0.0
vn -0.891003 -0.453998 0.0
vn -0.891003 -0.453998 0.0
vn -0.827082 0.562081 0.0
vn -0.827082 0.562081 0.0
vn 0.975914 -0.218158 0.0
vn 0.975914 -0.218158 0.0
vn -0.509043 0.860741 0.0
vn -0.509043 0.860741 0.0
vn 0.031398 0.999507 -0.0
vn 0.031398 0.999507 0.0
vn 0.661321 -0.750103 0.0
vn 0.661321 -0.750103 0.0
vn -0.094116 -0.995561 0.0
vn -0.094116 -0.995561 -0.0
vn -0.278964 0.960301 0.0
vn -0.278964 0.960301 0.0
vn -0.218158 0.975914 0.0
vn -0.218158 0.975914 0.0
vn -0.917752 0.397154 0.0
vn -0.917752 0.397154 0.0
vn -0.218158 -0.975914 0.0
vn -0.218158 -0.975914 -0.0
vn -0.156435 0.987688 0.0
vn -0.156435 0.987688 0.0
vn -0.999507 0.031398 0.0
vn -0.999507 0.031398 0.0
vn 0.156435 -0.987688 0.0
vn 0.156435 -0.987688 0.0
vn -0.661321 -0.750103 0.0
vn -0.661321 -0.750103 -0.0
vn 0.0 0.0 1.0
vn 0.0 0.0 1.0
vn 0.0 0.0 1.0
vn 0.0 0.0 1.0
vn 0.0 0.0 1.0
vn 0.0 0.0 1.0
vn 0.0 0.0 1.0
vn 0.0 0.0 1.0
vn 0.0 0.0 1.0
vn 0.0 0.0 1.0
vn 0.0 0.0 1.0
vn 0.0 0.0 1.0
vn 0.0 0.0 1.0
vn 0.0 0.0 1.0
vn 0.0 0.0 1.0
vn 0.0 0.0 1.0
vn 0.0 0.0 1.0
vn 0.0 0.0 1.0
vn 0.0 0.0 1.0
vn 0.0 0.0 1.0
vn 0.0 0.0 1.0
vn 0.0 0.0 1.0
vn 0.0 0.0 1.0
vn 0.0 0.0 1.0
vn 0.0 0.0 1.0
vn 0.0 0.0 1.0
vn 0.0 0.0 1.0
vn 0.0 0.0 1.0
vn 0.0 0.0 1.0
vn 0.0 0.0 1.0
vn 0.0 0.0 1.0
vn 0.0 0.0 1.0
vn 0.0 0.0 1.0
vn 0.0 0.0 1.0
vn 0.0 0.0 1.0
vn 0.0 0.0 1.0
vn 0.0 0.0 1.0
vn 0.0 0.0 1.0
vn 0.0 0.0 1.0
vn 0.0 0.0 1.0
vn 0.0 0.0 1.0
vn 0.0 0.0 1.0
vn 0.0 0.0 1.0
vn 0.0 0.0 1.0
vn 0.0 0.0 1.0
vn 0.0 0.0 1.0
vn 0.0 0.0 1.0
vn 0.0 0.0 1.0
vn 0.0 0.0 1.0
vn -0.0 0.0 1.0
vn 0.0 0.0 1.0
vn -0.0 0.0 1.0
vn 0.0 0.0 1.0
vn -0.0 0.0 1.0
vn 0.0 0.0 1.0
vn -0.0 0.0 1.0
vn 0.0 0.0 1.0
vn -0.0 0.0 1.0
vn 0.0 0.0 1.0
vn -0.0 0.0 1.0
vn 0.0 0.0 1.0
vn -0.0 0.0 1.0
vn 0.0 0.0 1.0
vn -0.0 0.0 1.0
vn 0.0 0.0 1.0
vn -0.0 0.0 1.0
vn 0.0 0.0 1.0
vn -0.0 0.0 1.0
vn 0.0 0.0 1.0
vn -0.0 0.0 1.0
vn 0.0 0.0 1.0
vn -0.0 0.0 1.0
vn 0.0 0.0 1.0
vn -0.0 0.0 1.0
vn 0.0 0.0 1.0
vn -0.0 0.0 1.0
vn 0.0 0.0 1.0
vn -0.0 0.0 1.0
vn 0.0 0.0 1.0
vn -0.0 0.0 1.0
vn 0.0 0.0 1.0
vn -0.0 0.0 1.0
vn 0.0 0.0 1.0
vn -0.0 0.0 1.0
vn 0.0 0.0 1.0
vn -0.0 0.0 1.0
vn 0.0 0.0 1.0
vn -0.0 0.0 1.0
vn 0.0 0.0 1.0
vn -0.0 0.0 1.0
vn 0.0 0.0 1.0
vn -0.0 0.0 1.0
vn 0.0 0.0 1.0
vn -0.0 0.0 1.0
vn 0.0 0.0 1.0
vn -0.0 0.0 1.0
vn 0.0 0.0 1.0
vn 0.0 -0.0 1.0
vn -0.707107 0.707107 0.0
vn -0.707107 0.707107 0.0
vn -0.338738 -0.940881 0.0
vn -0.338738 -0.940881 -0.0
vn -0.453998 -0.891003 0.0
vn -0.453998 -0.891003 -0.0
vn 0.827082 -0.562081 0.0
vn 0.827082 -0.562081 0.0
vn 0.707107 -0.707107 0.0
vn 0.707107 -0.707107 0.0
vn -0.790153 -0.612909 0.0
vn -0.790153 -0.612909 0.0
vn -0.031398 -0.999507 0.0
vn -0.031398 -0.999507 -0.0
vn 0.562081 -0.827082 0.0
vn 0.562081 -0.827082 0.0
vn 0.999507 -0.031398 0.0
vn 0.999507 -0.031398 0.0
vn -0.397154 0.917752 0.0
vn -0.397154 0.917752 0.0
vn 0.156435 0.987688 -0.0
vn 0.156435 0.987688 0.0
vn -0.960301 0.278964 0.0
vn -0.960301 0.278964 0.0
vn 0.790153 0.612909 0.0
vn 0.790153 0.612909 0.0
vn -0.562081 -0.827082 0.0
vn -0.562081 -0.827082 -0.0
vn 0.278964 0.960301 -0.0
vn 0.278964 0.960301 0.0
vn -0.891003 0.453998 0.0
vn -0.891003 0.453998 0.0
vn -0.453998 0.891003 0.0
vn -0.453998 0.891003 0.0
vn 0.612909 -0.790153 0.0
vn 0.612909 -0.790153 0.0
vn -0.612909 -0.790153 0.0
vn -0.612909 -0.790153 -0.0
f 103//1 210//1 104//1 
f 210//2 103//2 209//2 
f 210//3 211//3 212//3 
f 211//4 210//4 209//4 
f 109//5 4//5 110//5 
f 4//6 109//6 3//6 
f 211//7 110//7 212//7 
f 110//8 211//8 109//8 
f 1//9 4//9 3//9 
f 4//10 1//10 2//10 
f 1//11 104//11 2//11 
f 104//12 1//12 103//12 
f 212//13 207//13 210//13 
f 212//14 205//14 207//14 
f 212//15 201//15 205//15 
f 212//16 197//16 201//16 
f 212//17 193//17 197//17 
f 212//18 189//18 193//18 
f 212//19 185//19 189//19 
f 212//20 181//20 185//20 
f 212//21 177//21 181//21 
f 212//22 173//22 177//22 
f 212//23 169//23 173//23 
f 212//24 165//24 169//24 
f 212//25 161//25 165//25 
f 212//26 157//26 161//26 
f 212//27 153//27 157//27 
f 212//28 149//28 153//28 
f 212//29 145//29 149//29 
f 212//30 141//30 145//30 
f 110//31 141//31 212//31 
f 141//32 110//32 137//32 
f 137//33 110//33 133//33 
f 133//34 110//34 129//34 
f 129//35 110//35 125//35 
f 125//36 110//36 121//36 
f 110//37 117//37 121//37 
f 110//38 113//38 117//38 
f 110//39 107//39 113//39 
f 110//40 101//40 107//40 
f 110//41 97//41 101//41 
f 110//42 93//42 97//42 
f 110//43 89//43 93//43 
f 110//44 85//44 89//44 
f 110//45 81//45 85//45 
f 110//46 77//46 81//46 
f 110//47 73//47 77//47 
f 4//48 73//48 110//48 
f 73//49 4//49 69//49 
f 69//50 4//50 65//50 
f 65//51 4//51 61//51 
f 61//52 4//52 57//52 
f 9//53 4//53 5//53 
f 13//54 4//54 9//54 
f 17//55 4//55 13//55 
f 21//56 4//56 17//56 
f 25//57 4//57 21//57 
f 29//58 4//58 25//58 
f 33//59 4//59 29//59 
f 37//60 4//60 33//60 
f 41//61 4//61 37//61 
f 45//62 4//62 41//62 
f 49//63 4//63 45//63 
f 53//64 4//64 49//64 
f 57//65 4//65 53//65 
f 203//66 210//66 207//66 
f 199//67 210//67 203//67 
f 195//68 210//68 199//68 
f 191//69 210//69 195//69 
f 187//70 210//70 191//70 
f 183//71 210//71 187//71 
f 179//72 210//72 183//72 
f 175//73 210//73 179//73 
f 171//74 210//74 175//74 
f 167//75 210//75 171//75 
f 163//76 210//76 167//76 
f 159//77 210//77 163//77 
f 155//78 210//78 159//78 
f 151//79 210//79 155//79 
f 147//80 210//80 151//80 
f 143//81 210//81 147//81 
f 139//82 210//82 143//82 
f 104//83 139//83 135//83 
f 104//84 135//84 131//84 
f 104//85 131//85 127//85 
f 104//86 127//86 123//86 
f 104//87 123//87 119//87 
f 139//88 104//88 210//88 
f 115//89 104//89 119//89 
f 111//90 104//90 115//90 
f 105//91 104//91 111//91 
f 99//92 104//92 105//92 
f 95//93 104//93 99//93 
f 91//94 104//94 95//94 
f 87//95 104//95 91//95 
f 83//96 104//96 87//96 
f 79//97 104//97 83//97 
f 75//98 104//98 79//98 
f 71//99 104//99 75//99 
f 2//100 71//100 67//100 
f 2//101 67//101 63//101 
f 2//102 63//102 59//102 
f 2//103 59//103 55//103 
f 2//104 55//104 51//104 
f 2//105 5//105 4//105 
f 5//106 2//106 7//106 
f 7//107 2//107 11//107 
f 11//108 2//108 15//108 
f 15//109 2//109 19//109 
f 71//110 2//110 104//110 
f 47//111 2//111 51//111 
f 43//112 2//112 47//112 
f 39//113 2//113 43//113 
f 35//114 2//114 39//114 
f 31//115 2//115 35//115 
f 27//116 2//116 31//116 
f 23//117 2//117 27//117 
f 19//118 2//118 23//118 
f 103//119 211//119 209//119 
f 103//120 109//120 211//120 
f 1//121 109//121 103//121 
f 109//122 1//122 3//122 
f 190//123 185//123 186//123 
f 185//124 190//124 189//124 
f 206//125 201//125 202//125 
f 201//126 206//126 205//126 
f 208//127 205//127 206//127 
f 205//128 208//128 207//128 
f 202//129 197//129 198//129 
f 197//130 202//130 201//130 
f 176//131 179//131 180//131 
f 179//132 176//132 175//132 
f 111//133 116//133 112//133 
f 116//134 111//134 115//134 
f 91//135 96//135 92//135 
f 96//136 91//136 95//136 
f 75//137 80//137 76//137 
f 80//138 75//138 79//138 
f 31//139 28//139 27//139 
f 28//140 31//140 32//140 
f 198//141 193//141 194//141 
f 193//142 198//142 197//142 
f 145//143 142//143 146//143 
f 142//144 145//144 141//144 
f 105//145 112//145 106//145 
f 112//146 105//146 111//146 
f 37//147 42//147 41//147 
f 42//148 37//148 38//148 
f 61//149 58//149 62//149 
f 58//150 61//150 57//150 
f 174//151 169//151 170//151 
f 169//152 174//152 173//152 
f 172//153 175//153 176//153 
f 175//154 172//154 171//154 
f 162//155 157//155 158//155 
f 157//156 162//156 161//156 
f 43//157 40//157 39//157 
f 40//158 43//158 44//158 
f 160//159 163//159 164//159 
f 163//160 160//160 159//160 
f 7//161 6//161 5//161 
f 6//162 7//162 8//162 
f 27//163 24//163 23//163 
f 24//164 27//164 28//164 
f 178//165 173//165 174//165 
f 173//166 178//166 177//166 
f 11//167 8//167 7//167 
f 8//168 11//168 12//168 
f 15//169 12//169 11//169 
f 12//170 15//170 16//170 
f 157//171 154//171 158//171 
f 154//172 157//172 153//172 
f 196//173 199//173 200//173 
f 199//174 196//174 195//174 
f 194//175 189//175 190//175 
f 189//176 194//176 193//176 
f 133//177 130//177 134//177 
f 130//178 133//178 129//178 
f 127//179 132//179 128//179 
f 132//180 127//180 131//180 
f 69//181 66//181 70//181 
f 66//182 69//182 65//182 
f 65//183 62//183 66//183 
f 62//184 65//184 61//184 
f 9//185 14//185 13//185 
f 14//186 9//186 10//186 
f 45//187 50//187 49//187 
f 50//188 45//188 46//188 
f 17//189 22//189 21//189 
f 22//190 17//190 18//190 
f 125//191 122//191 126//191 
f 122//192 125//192 121//192 
f 139//193 144//193 140//193 
f 144//194 139//194 143//194 
f 135//195 140//195 136//195 
f 140//196 135//196 139//196 
f 149//197 146//197 150//197 
f 146//198 149//198 145//198 
f 188//199 191//199 192//199 
f 191//200 188//200 187//200 
f 25//201 30//201 29//201 
f 30//202 25//202 26//202 
f 182//203 177//203 178//203 
f 177//204 182//204 181//204 
f 186//205 181//205 182//205 
f 181//206 186//206 185//206 
f 184//207 187//207 188//207 
f 187//208 184//208 183//208 
f 55//209 52//209 51//209 
f 52//210 55//210 56//210 
f 13//211 18//211 17//211 
f 18//212 13//212 14//212 
f 101//213 98//213 102//213 
f 98//214 101//214 97//214 
f 19//215 16//215 15//215 
f 16//216 19//216 20//216 
f 164//217 167//217 168//217 
f 167//218 164//218 163//218 
f 123//219 128//219 124//219 
f 128//220 123//220 127//220 
f 119//221 124//221 120//221 
f 124//222 119//222 123//222 
f 180//223 183//223 184//223 
f 183//224 180//224 179//224 
f 67//225 72//225 68//225 
f 72//226 67//226 71//226 
f 131//227 136//227 132//227 
f 136//228 131//228 135//228 
f 83//229 88//229 84//229 
f 88//230 83//230 87//230 
f 117//231 114//231 118//231 
f 114//232 117//232 113//232 
f 49//233 54//233 53//233 
f 54//234 49//234 50//234 
f 23//235 20//235 19//235 
f 20//236 23//236 24//236 
f 39//237 36//237 35//237 
f 36//238 39//238 40//238 
f 85//239 82//239 86//239 
f 82//240 85//240 81//240 
f 153//241 150//241 154//241 
f 150//242 153//242 149//242 
f 51//243 48//243 47//243 
f 48//244 51//244 52//244 
f 107//245 102//245 108//245 
f 102//246 107//246 101//246 
f 200//247 203//247 204//247 
f 203//248 200//248 199//248 
f 137//249 134//249 138//249 
f 134//250 137//250 133//250 
f 141//251 138//251 142//251 
f 138//252 141//252 137//252 
f 166//253 161//253 162//253 
f 161//254 166//254 165//254 
f 35//255 32//255 31//255 
f 32//256 35//256 36//256 
f 41//257 46//257 45//257 
f 46//258 41//258 42//258 
f 192//259 195//259 196//259 
f 195//260 192//260 191//260 
f 73//261 70//261 74//261 
f 70//262 73//262 69//262 
f 113//263 108//263 114//263 
f 108//264 113//264 107//264 
f 151//265 156//265 152//265 
f 156//266 151//266 155//266 
f 95//267 100//267 96//267 
f 100//268 95//268 99//268 
f 89//269 86//269 90//269 
f 86//270 89//270 85//270 
f 93//271 90//271 94//271 
f 90//272 93//272 89//272 
f 29//273 34//273 33//273 
f 34//274 29//274 30//274 
f 87//275 92//275 88//275 
f 92//276 87//276 91//276 
f 97//277 94//277 98//277 
f 94//278 97//278 93//278 
f 5//279 10//279 9//279 
f 10//280 5//280 6//280 
f 115//281 120//281 116//281 
f 120//282 115//282 119//282 
f 55//283 60//283 56//283 
f 60//284 55//284 59//284 
f 206//285 204//285 208//285 
f 202//286 204//286 206//286 
f 202//287 200//287 204//287 
f 198//288 200//288 202//288 
f 198//289 196//289 200//289 
f 194//290 196//290 198//290 
f 194//291 192//291 196//291 
f 190//292 192//292 194//292 
f 190//293 188//293 192//293 
f 186//294 188//294 190//294 
f 186//295 184//295 188//295 
f 182//296 184//296 186//296 
f 182//297 180//297 184//297 
f 178//298 180//298 182//298 
f 178//299 176//299 180//299 
f 174//300 176//300 178//300 
f 174//301 172//301 176//301 
f 170//302 172//302 174//302 
f 170//303 168//303 172//303 
f 166//304 168//304 170//304 
f 166//305 164//305 168//305 
f 162//306 164//306 166//306 
f 162//307 160//307 164//307 
f 158//308 160//308 162//308 
f 158//309 156//309 160//309 
f 154//310 156//310 158//310 
f 154//311 152//311 156//311 
f 150//312 152//312 154//312 
f 150//313 148//313 152//313 
f 146//314 148//314 150//314 
f 146//315 144//315 148//315 
f 142//316 144//316 146//316 
f 142//317 140//317 144//317 
f 138//318 140//318 142//318 
f 138//319 136//319 140//319 
f 134//320 136//320 138//320 
f 134//321 132//321 136//321 
f 130//322 132//322 134//322 
f 130//323 128//323 132//323 
f 126//324 128//324 130//324 
f 126//325 124//325 128//325 
f 122//326 124//326 126//326 
f 122//327 120//327 124//327 
f 118//328 120//328 122//328 
f 118//329 116//329 120//329 
f 114//330 116//330 118//330 
f 114//331 112//331 116//331 
f 108//332 112//332 114//332 
f 108//333 106//333 112//333 
f 102//334 106//334 108//334 
f 102//335 100//335 106//335 
f 98//336 100//336 102//336 
f 98//337 96//337 100//337 
f 94//338 96//338 98//338 
f 94//339 92//339 96//339 
f 90//340 92//340 94//340 
f 90//341 88//341 92//341 
f 86//342 88//342 90//342 
f 86//343 84//343 88//343 
f 82//344 84//344 86//344 
f 82//345 80//345 84//345 
f 78//346 80//346 82//346 
f 78//347 76//347 80//347 
f 74//348 76//348 78//348 
f 74//349 72//349 76//349 
f 70//350 72//350 74//350 
f 70//351 68//351 72//351 
f 66//352 68//352 70//352 
f 66//353 64//353 68//353 
f 62//354 64//354 66//354 
f 62//355 60//355 64//355 
f 58//356 60//356 62//356 
f 58//357 56//357 60//357 
f 54//358 56//358 58//358 
f 54//359 52//359 56//359 
f 50//360 52//360 54//360 
f 50//361 48//361 52//361 
f 46//362 48//362 50//362 
f 46//363 44//363 48//363 
f 42//364 44//364 46//364 
f 42//365 40//365 44//365 
f 38//366 40//366 42//366 
f 38//367 36//367 40//367 
f 34//368 36//368 38//368 
f 34//369 32//369 36//369 
f 30//370 32//370 34//370 
f 30//371 28//371 32//371 
f 26//372 28//372 30//372 
f 26//373 24//373 28//373 
f 22//374 24//374 26//374 
f 22//375 20//375 24//375 
f 18//376 20//376 22//376 
f 18//377 16//377 20//377 
f 14//378 16//378 18//378 
f 14//379 12//379 16//379 
f 10//380 12//380 14//380 
f 10//381 8//381 12//381 
f 8//382 10//382 6//382 
f 53//383 58//383 57//383 
f 58//384 53//384 54//384 
f 79//385 84//385 80//385 
f 84//386 79//386 83//386 
f 71//387 76//387 72//387 
f 76//388 71//388 75//388 
f 168//389 171//389 172//389 
f 171//390 168//390 167//390 
f 156//391 159//391 160//391 
f 159//392 156//392 155//392 
f 47//393 44//393 43//393 
f 44//394 47//394 48//394 
f 99//395 106//395 100//395 
f 106//396 99//396 105//396 
f 143//397 148//397 144//397 
f 148//398 143//398 147//398 
f 204//399 207//399 208//399 
f 207//400 204//400 203//400 
f 81//401 78//401 82//401 
f 78//402 81//402 77//402 
f 121//403 118//403 122//403 
f 118//404 121//404 117//404 
f 21//405 26//405 25//405 
f 26//406 21//406 22//406 
f 170//407 165//407 166//407 
f 165//408 170//408 169//408 
f 63//409 68//409 64//409 
f 68//410 63//410 67//410 
f 129//411 126//411 130//411 
f 126//412 129//412 125//412 
f 33//413 38//413 37//413 
f 38//414 33//414 34//414 
f 77//415 74//415 78//415 
f 74//416 77//416 73//416 
f 147//417 152//417 148//417 
f 152//418 147//418 151//418 
f 59//419 64//419 60//419 
f 64//420 59//420 63//420 
