# FreeCAD v1.0 build0 Arch module
# https://www.freecad.org
mtllib colors.mtl
o broken_part
usemtl color_008080
v -42.360001 -15.54 -10.0
v -42.360001 -15.54 10.0
v -42.360001 -5.74 -10.0
v -42.360001 -5.74 10.0
v -42.352798 -5.68719 -10.0
v -42.352798 -5.68719 10.0
v -42.299999 -5.74 -10.0
v -42.299999 -5.74 10.0
v -28.210699 8.45495 -10.0
v -28.210699 8.45495 10.0
v -18.210699 -1.54505 -10.0
v -18.210699 -1.54505 10.0
v -8.21068 8.45495 -10.0
v -8.21068 8.45495 10.0
v 5.98427 -5.74 -10.0
v 5.98427 -5.74 10.0
v 17.6472 -5.68719 -10.0
v 17.6472 -5.68719 10.0
v 17.700001 -5.74 -10.0
v 17.700001 -5.74 10.0
v 37.5 -15.54 -10.0
v 37.5 -15.54 10.0
v 38.755798 -15.5005 -10.0
v 38.755798 -15.5005 10.0
v 38.860401 15.526 -10.0
v 38.860401 15.526 10.0
v 38.900002 15.4864 -10.0
v 38.900002 15.4864 10.0
v 38.900002 15.53 -10.0
v 38.900002 15.53 10.0
v 40.006699 -15.3823 -10.0
v 40.006699 -15.3823 10.0
v 41.247601 -15.1857 -10.0
v 41.247601 -15.1857 10.0
v 42.473801 -14.9117 -10.0
v 42.473801 -14.9117 10.0
v 43.680302 -14.5611 -10.0
v 43.680302 -14.5611 10.0
v 44.862499 -14.1355 -10.0
v 44.862499 -14.1355 10.0
v 46.015598 -13.6365 -10.0
v 46.015598 -13.6365 10.0
v 47.135101 -13.0661 -10.0
v 47.135101 -13.0661 10.0
v 48.216499 -12.4266 -10.0
v 48.216499 -12.4266 10.0
v 48.864399 15.53 -10.0
v 48.864399 15.53 10.0
v 49.255699 -11.7203 -10.0
v 49.255699 -11.7203 10.0
v 50.248501 -10.9503 -10.0
v 50.248501 -10.9503 10.0
v 51.190899 -10.1194 -10.0
v 51.190899 -10.1194 10.0
v 52.079399 -9.23094 -10.0
v 52.079399 -9.23094 10.0
v 52.910301 -8.28848 -10.0
v 52.910301 -8.28848 10.0
v 53.680302 -7.2957 -10.0
v 53.680302 -7.2957 10.0
v 54.3866 -6.25654 -10.0
v 54.3866 -6.25654 10.0
v 55.0261 -5.17507 -10.0
v 55.0261 -5.17507 10.0
v 55.5965 -4.05558 -10.0
v 55.5965 -4.05558 10.0
v 56.095501 -2.90249 -10.0
v 56.095501 -2.90249 10.0
v 56.521099 -1.72034 -10.0
v 56.521099 -1.72034 10.0
v 56.8717 -0.513797 -10.0
v 56.8717 -0.513797 10.0
v 57.145699 0.712375 -10.0
v 57.145699 0.712375 10.0
v 57.3423 1.95334 -10.0
v 57.3423 1.95334 10.0
v 57.460499 3.20419 -10.0
v 57.460499 3.20419 10.0
v 57.5 4.46 -10.0
v 57.5 4.46 10.0
v 57.5 24.1656 -10.0
v 57.5 24.1656 10.0
vn 1.0 -0.0 0.0
vn 1.0 0.0 0.0
vn 0.0 0.0 1.0
vn -0.0 0.0 1.0
vn 0.0 0.0 1.0
vn 0.0 0.0 1.0
vn 0.0 0.0 1.0
vn 0.0 0.0 1.0
vn -0.0 0.0 1.0
vn 0.0 0.0 1.0
vn 0.0 0.0 1.0
vn 0.0 0.0 1.0
vn 0.0 0.0 1.0
vn 0.0 0.0 1.0
vn 0.0 0.0 1.0
vn 0.0 0.0 1.0
vn 0.0 0.0 1.0
vn 0.0 0.0 1.0
vn 0.0 0.0 1.0
vn 0.0 0.0 1.0
vn 0.0 0.0 1.0
vn 0.0 0.0 1.0
vn 0.0 0.0 1.0
vn 0.0 0.0 1.0
vn 0.0 0.0 1.0
vn 0.0 0.0 1.0
vn 0.0 0.0 1.0
vn 0.0 0.0 1.0
vn 0.0 0.0 1.0
vn 0.0 0.0 1.0
vn 0.0 0.0 1.0
vn 0.0 0.0 1.0
vn 0.0 0.0 1.0
vn 0.0 -0.0 1.0
vn -0.0 0.0 1.0
vn -0.0 0.0 1.0
vn 0.0 0.0 1.0
vn 0.0 0.0 1.0
vn 0.0 0.0 1.0
vn 0.0 0.0 1.0
vn 0.0 0.0 1.0
vn 0.0 0.0 -1.0
vn 0.0 0.0 -1.0
vn 0.0 0.0 -1.0
vn -0.0 0.0 -1.0
vn -0.0 0.0 -1.0
vn 0.0 0.0 -1.0
vn -0.0 0.0 -1.0
vn 0.0 0.0 -1.0
vn 0.0 0.0 -1.0
vn 0.0 0.0 -1.0
vn -0.0 0.0 -1.0
vn 0.0 0.0 -1.0
vn 0.0 0.0 -1.0
vn 0.0 0.0 -1.0
vn 0.0 0.0 -1.0
vn 0.0 0.0 -1.0
vn 0.0 0.0 -1.0
vn 0.0 0.0 -1.0
vn 0.0 0.0 -1.0
vn 0.0 0.0 -1.0
vn 0.0 0.0 -1.0
vn 0.0 0.0 -1.0
vn 0.0 0.0 -1.0
vn 0.0 0.0 -1.0
vn 0.0 0.0 -1.0
vn 0.0 0.0 -1.0
vn 0.0 0.0 -1.0
vn 0.0 0.0 -1.0
vn 0.0 0.0 -1.0
vn 0.0 0.0 -1.0
vn 0.0 0.0 -1.0
vn 0.0 0.0 -1.0
vn 0.0 0.0 -1.0
vn 0.0 0.0 -1.0
vn 0.0 0.0 -1.0
vn 0.0 0.0 -1.0
vn 0.0 0.0 -1.0
vn -0.0 0.0 -1.0
vn 0.0 0.0 -1.0
vn 0.0 -1.0 0.0
vn 0.0 -1.0 -0.0
vn 0.453981 -0.891011 0.0
vn 0.453981 -0.891011 0.0
vn 0.707091 -0.707123 0.0
vn 0.707091 -0.707123 0.0
vn 0.891009 -0.453985 0.0
vn 0.891009 -0.453985 0.0
vn 0.790185 -0.612868 0.0
vn 0.790185 -0.612868 0.0
vn 0.031439 -0.999506 0.0
vn 0.031439 -0.999506 0.0
vn 0.094072 -0.995565 0.0
vn 0.094072 -0.995565 0.0
vn 0.279049 -0.960277 0.0
vn 0.279049 -0.960277 0.0
vn 0.999506 -0.031439 0.0
vn 0.999506 -0.031439 0.0
vn 0.218077 -0.975932 0.0
vn 0.218077 -0.975932 0.0
vn 0.940881 -0.338737 0.0
vn 0.940881 -0.338737 0.0
vn 0.397154 -0.917752 0.0
vn 0.397154 -0.917752 0.0
vn 0.661341 -0.750086 0.0
vn 0.661341 -0.750086 0.0
vn 0.960279 -0.279041 0.0
vn 0.960279 -0.279041 0.0
vn 0.975931 -0.21808 0.0
vn 0.975931 -0.21808 0.0
vn 0.338726 -0.940885 0.0
vn 0.338726 -0.940885 0.0
vn 0.86077 -0.508994 0.0
vn 0.86077 -0.508994 0.0
vn 0.827049 -0.56213 0.0
vn 0.827049 -0.56213 0.0
vn 0.995565 -0.094075 0.0
vn 0.995565 -0.094075 0.0
vn 0.987682 -0.156475 0.0
vn 0.987682 -0.156475 0.0
vn 0.750106 -0.661317 0.0
vn 0.750106 -0.661317 0.0
vn 0.562117 -0.827058 0.0
vn 0.562117 -0.827058 0.0
vn 0.156481 -0.987681 0.0
vn 0.156481 -0.987681 0.0
vn 0.509019 -0.860755 0.0
vn 0.509019 -0.860755 0.0
vn 0.612859 -0.790192 0.0
vn 0.612859 -0.790192 0.0
vn 0.917751 -0.397157 0.0
vn 0.917751 -0.397157 0.0
vn 0.0 1.0 -0.0
vn 0.0 1.0 0.0
vn 0.0 1.0 -0.0
vn 0.0 1.0 0.0
vn -1.0 0.0 0.0
vn -1.0 -0.0 0.0
vn 0.707107 0.707107 0.0
vn 0.707107 0.707107 0.0
vn -0.707177 -0.707036 0.0
vn -0.707177 -0.707036 0.0
vn -0.707108 0.707106 0.0
vn -0.707108 0.707106 0.0
vn -0.707106 0.707107 0.0
vn -0.707106 0.707107 0.0
vn 0.707107 0.707107 0.0
vn 0.707107 0.707107 0.0
vn -0.707164 -0.707049 0.0
vn -0.707164 -0.707049 0.0
vn -0.707107 0.707107 0.0
vn -0.707107 0.707107 0.0
vn 0.707107 0.707107 -0.0
vn 0.707107 0.707107 0.0
vn -1.0 0.0 0.0
vn -1.0 -0.0 0.0
vn 0.0 1.0 -0.0
vn 0.0 1.0 0.0
vn -0.707107 0.707107 0.0
vn -0.707107 0.707107 0.0
f 80//1 81//1 82//1 
f 81//2 80//2 79//2 
f 10//3 6//3 8//3 
f 48//4 80//4 82//4 
f 80//5 48//5 78//5 
f 78//6 48//6 76//6 
f 76//7 48//7 74//7 
f 74//8 48//8 72//8 
f 28//9 72//9 48//9 
f 72//10 28//10 70//10 
f 70//11 28//11 68//11 
f 68//12 28//12 66//12 
f 66//13 28//13 64//13 
f 64//14 28//14 62//14 
f 62//15 28//15 60//15 
f 60//16 28//16 58//16 
f 58//17 28//17 56//17 
f 56//18 28//18 54//18 
f 54//19 28//19 52//19 
f 52//20 28//20 50//20 
f 50//21 28//21 46//21 
f 46//22 28//22 44//22 
f 44//23 28//23 42//23 
f 42//24 28//24 40//24 
f 40//25 28//25 38//25 
f 38//26 28//26 36//26 
f 36//27 28//27 34//27 
f 28//28 48//28 30//28 
f 34//29 28//29 32//29 
f 20//30 28//30 26//30 
f 28//31 24//31 32//31 
f 28//32 22//32 24//32 
f 28//33 20//33 22//33 
f 20//34 26//34 18//34 
f 16//35 22//35 20//35 
f 12//36 16//36 14//36 
f 2//37 16//37 12//37 
f 8//38 12//38 10//38 
f 2//39 12//39 8//39 
f 2//40 8//40 4//40 
f 16//41 2//41 22//41 
f 21//42 15//42 19//42 
f 15//43 11//43 13//43 
f 1//44 15//44 21//44 
f 11//45 7//45 9//45 
f 15//46 1//46 11//46 
f 11//47 1//47 7//47 
f 7//48 1//48 3//48 
f 23//49 27//49 31//49 
f 21//50 27//50 23//50 
f 19//51 27//51 21//51 
f 27//52 19//52 25//52 
f 25//53 19//53 17//53 
f 47//54 79//54 77//54 
f 47//55 77//55 75//55 
f 47//56 75//56 73//56 
f 47//57 73//57 71//57 
f 27//58 71//58 69//58 
f 27//59 69//59 67//59 
f 27//60 67//60 65//60 
f 27//61 65//61 63//61 
f 27//62 63//62 61//62 
f 27//63 61//63 59//63 
f 27//64 59//64 57//64 
f 27//65 57//65 55//65 
f 27//66 55//66 53//66 
f 27//67 53//67 51//67 
f 27//68 51//68 49//68 
f 79//69 47//69 81//69 
f 27//70 49//70 45//70 
f 27//71 45//71 43//71 
f 27//72 43//72 41//72 
f 27//73 41//73 39//73 
f 27//74 39//74 37//74 
f 27//75 37//75 35//75 
f 27//76 35//76 33//76 
f 27//77 33//77 31//77 
f 71//78 27//78 47//78 
f 47//79 27//79 29//79 
f 9//80 7//80 5//80 
f 1//81 22//81 2//81 
f 22//82 1//82 21//82 
f 41//83 44//83 42//83 
f 44//84 41//84 43//84 
f 53//85 56//85 54//85 
f 56//86 53//86 55//86 
f 64//87 65//87 66//87 
f 65//88 64//88 63//88 
f 58//89 59//89 60//89 
f 59//90 58//90 57//90 
f 21//91 24//91 22//91 
f 24//92 21//92 23//92 
f 23//93 32//93 24//93 
f 32//94 23//94 31//94 
f 35//95 38//95 36//95 
f 38//96 35//96 37//96 
f 78//97 79//97 80//97 
f 79//98 78//98 77//98 
f 33//99 36//99 34//99 
f 36//100 33//100 35//100 
f 68//101 69//101 70//101 
f 69//102 68//102 67//102 
f 39//103 42//103 40//103 
f 42//104 39//104 41//104 
f 51//105 54//105 52//105 
f 54//106 51//106 53//106 
f 70//107 71//107 72//107 
f 71//108 70//108 69//108 
f 72//109 73//109 74//109 
f 73//110 72//110 71//110 
f 37//111 40//111 38//111 
f 40//112 37//112 39//112 
f 62//113 63//113 64//113 
f 63//114 62//114 61//114 
f 60//115 61//115 62//115 
f 61//116 60//116 59//116 
f 76//117 77//117 78//117 
f 77//118 76//118 75//118 
f 74//119 75//119 76//119 
f 75//120 74//120 73//120 
f 56//121 57//121 58//121 
f 57//122 56//122 55//122 
f 45//123 50//123 46//123 
f 50//124 45//124 49//124 
f 31//125 34//125 32//125 
f 34//126 31//126 33//126 
f 43//127 46//127 44//127 
f 46//128 43//128 45//128 
f 49//129 52//129 50//129 
f 52//130 49//130 51//130 
f 66//131 67//131 68//131 
f 67//132 66//132 65//132 
f 7//133 4//133 8//133 
f 4//134 7//134 3//134 
f 19//135 16//135 20//135 
f 16//136 19//136 15//136 
f 1//137 4//137 3//137 
f 4//138 1//138 2//138 
f 12//139 9//139 10//139 
f 9//140 12//140 11//140 
f 7//141 6//141 5//141 
f 6//142 7//142 8//142 
f 5//143 10//143 9//143 
f 10//144 5//144 6//144 
f 11//145 14//145 13//145 
f 14//146 11//146 12//146 
f 16//147 13//147 14//147 
f 13//148 16//148 15//148 
f 19//149 18//149 17//149 
f 18//150 19//150 20//150 
f 17//151 26//151 25//151 
f 26//152 17//152 18//152 
f 27//153 26//153 28//153 
f 26//154 27//154 25//154 
f 27//155 30//155 29//155 
f 30//156 27//156 28//156 
f 47//157 30//157 48//157 
f 30//158 47//158 29//158 
f 47//159 82//159 81//159 
f 82//160 47//160 48//160 
