# FreeCAD v1.0 build0 Arch module
# https://www.freecad.org
mtllib colors.mtl
o nut
usemtl color_fad82c
v -6.0 0.0 -2.5
v -6.0 0.0 2.5
v -4.0 0.0 -2.5
v -4.0 0.0 2.5
v -3.99211 -0.251162 -2.5
v -3.99211 -0.251162 2.5
v -3.99211 0.251162 -2.5
v -3.99211 0.251162 2.5
v -3.96846 -0.501332 -2.5
v -3.96846 -0.501332 2.5
v -3.96846 0.501332 -2.5
v -3.96846 0.501332 2.5
v -3.92915 -0.749525 -2.5
v -3.92915 -0.749525 2.5
v -3.92915 0.749525 -2.5
v -3.92915 0.749525 2.5
v -3.87433 -0.994759 -2.5
v -3.87433 -0.994759 2.5
v -3.87433 0.994759 -2.5
v -3.87433 0.994759 2.5
v -3.80423 -1.23607 -2.5
v -3.80423 -1.23607 2.5
v -3.80423 1.23607 -2.5
v -3.80423 1.23607 2.5
v -3.71911 -1.4725 -2.5
v -3.71911 -1.4725 2.5
v -3.71911 1.4725 -2.5
v -3.71911 1.4725 2.5
v -3.61931 -1.70312 -2.5
v -3.61931 -1.70312 2.5
v -3.61931 1.70312 -2.5
v -3.61931 1.70312 2.5
v -3.50523 -1.92701 -2.5
v -3.50523 -1.92701 2.5
v -3.50523 1.92701 -2.5
v -3.50523 1.92701 2.5
v -3.37731 -2.14331 -2.5
v -3.37731 -2.14331 2.5
v -3.37731 2.14331 -2.5
v -3.37731 2.14331 2.5
v -3.23607 -2.35114 -2.5
v -3.23607 -2.35114 2.5
v -3.23607 2.35114 -2.5
v -3.23607 2.35114 2.5
v -3.08205 -2.5497 -2.5
v -3.08205 -2.5497 2.5
v -3.08205 2.5497 -2.5
v -3.08205 2.5497 2.5
v -3.0 -5.19615 -2.5
v -3.0 -5.19615 2.5
v -3.0 5.19615 -2.5
v -3.0 5.19615 2.5
v -2.91587 -2.73819 -2.5
v -2.91587 -2.73819 2.5
v -2.91587 2.73819 -2.5
v -2.91587 2.73819 2.5
v -2.73819 -2.91587 -2.5
v -2.73819 -2.91587 2.5
v -2.73819 2.91587 -2.5
v -2.73819 2.91587 2.5
v -2.5497 -3.08205 -2.5
v -2.5497 -3.08205 2.5
v -2.5497 3.08205 -2.5
v -2.5497 3.08205 2.5
v -2.35114 -3.23607 -2.5
v -2.35114 -3.23607 2.5
v -2.35114 3.23607 -2.5
v -2.35114 3.23607 2.5
v -2.14331 -3.37731 -2.5
v -2.14331 -3.37731 2.5
v -2.14331 3.37731 -2.5
v -2.14331 3.37731 2.5
v -1.92701 -3.50523 -2.5
v -1.92701 -3.50523 2.5
v -1.92701 3.50523 -2.5
v -1.92701 3.50523 2.5
v -1.70312 -3.61931 -2.5
v -1.70312 -3.61931 2.5
v -1.70312 3.61931 -2.5
v -1.70312 3.61931 2.5
v -1.4725 -3.71911 -2.5
v -1.4725 -3.71911 2.5
v -1.4725 3.71911 -2.5
v -1.4725 3.71911 2.5
v -1.23607 -3.80423 -2.5
v -1.23607 -3.80423 2.5
v -1.23607 3.80423 -2.5
v -1.23607 3.80423 2.5
v -0.994759 -3.87433 -2.5
v -0.994759 -3.87433 2.5
v -0.994759 3.87433 -2.5
v -0.994759 3.87433 2.5
v -0.749525 -3.92915 -2.5
v -0.749525 -3.92915 2.5
v -0.749525 3.92915 -2.5
v -0.749525 3.92915 2.5
v -0.501332 -3.96846 -2.5
v -0.501332 -3.96846 2.5
v -0.501332 3.96846 -2.5
v -0.501332 3.96846 2.5
v -0.251162 -3.99211 -2.5
v -0.251162 -3.99211 2.5
v -0.251162 3.99211 -2.5
v -0.251162 3.99211 2.5
v 0.0 -4.0 -2.5
v 0.0 -4.0 2.5
v 0.0 4.0 -2.5
v 0.0 4.0 2.5
v 0.251162 -3.99211 -2.5
v 0.251162 -3.99211 2.5
v 0.251162 3.99211 -2.5
v 0.251162 3.99211 2.5
v 0.501332 -3.96846 -2.5
v 0.501332 -3.96846 2.5
v 0.501332 3.96846 -2.5
v 0.501332 3.96846 2.5
v 0.749525 -3.92915 -2.5
v 0.749525 -3.92915 2.5
v 0.749525 3.92915 -2.5
v 0.749525 3.92915 2.5
v 0.994759 -3.87433 -2.5
v 0.994759 -3.87433 2.5
v 0.994759 3.87433 -2.5
v 0.994759 3.87433 2.5
v 1.23607 -3.80423 -2.5
v 1.23607 -3.80423 2.5
v 1.23607 3.80423 -2.5
v 1.23607 3.80423 2.5
v 1.4725 -3.71911 -2.5
v 1.4725 -3.71911 2.5
v 1.4725 3.71911 -2.5
v 1.4725 3.71911 2.5
v 1.70312 -3.61931 -2.5
v 1.70312 -3.61931 2.5
v 1.70312 3.61931 -2.5
v 1.70312 3.61931 2.5
v 1.92701 -3.50523 -2.5
v 1.92701 -3.50523 2.5
v 1.92701 3.50523 -2.5
v 1.92701 3.50523 2.5
v 2.14331 -3.37731 -2.5
v 2.14331 -3.37731 2.5
v 2.14331 3.37731 -2.5
v 2.14331 3.37731 2.5
v 2.35114 -3.23607 -2.5
v 2.35114 -3.23607 2.5
v 2.35114 3.23607 -2.5
v 2.35114 3.23607 2.5
v 2.5497 -3.08205 -2.5
v 2.5497 -3.08205 2.5
v 2.5497 3.08205 -2.5
v 2.5497 3.08205 2.5
v 2.73819 -2.91587 -2.5
v 2.73819 -2.91587 2.5
v 2.73819 2.91587 -2.5
v 2.73819 2.91587 2.5
v 2.91587 -2.73819 -2.5
v 2.91587 -2.73819 2.5
v 2.91587 2.73819 -2.5
v 2.91587 2.73819 2.5
v 3.0 -5.19615 -2.5
v 3.0 -5.19615 2.5
v 3.0 5.19615 -2.5
v 3.0 5.19615 2.5
v 3.08205 -2.5497 -2.5
v 3.08205 -2.5497 2.5
v 3.08205 2.5497 -2.5
v 3.08205 2.5497 2.5
v 3.23607 -2.35114 -2.5
v 3.23607 -2.35114 2.5
v 3.23607 2.35114 -2.5
v 3.23607 2.35114 2.5
v 3.37731 -2.14331 -2.5
v 3.37731 -2.14331 2.5
v 3.37731 2.14331 -2.5
v 3.37731 2.14331 2.5
v 3.50523 -1.92701 -2.5
v 3.50523 -1.92701 2.5
v 3.50523 1.92701 -2.5
v 3.50523 1.92701 2.5
v 3.61931 -1.70312 -2.5
v 3.61931 -1.70312 2.5
v 3.61931 1.70312 -2.5
v 3.61931 1.70312 2.5
v 3.71911 -1.4725 -2.5
v 3.71911 -1.4725 2.5
v 3.71911 1.4725 -2.5
v 3.71911 1.4725 2.5
v 3.80423 -1.23607 -2.5
v 3.80423 -1.23607 2.5
v 3.80423 1.23607 -2.5
v 3.80423 1.23607 2.5
v 3.87433 -0.994759 -2.5
v 3.87433 -0.994759 2.5
v 3.87433 0.994759 -2.5
v 3.87433 0.994759 2.5
v 3.92915 -0.749525 -2.5
v 3.92915 -0.749525 2.5
v 3.92915 0.749525 -2.5
v 3.92915 0.749525 2.5
v 3.96846 -0.501332 -2.5
v 3.96846 -0.501332 2.5
v 3.96846 0.501332 -2.5
v 3.96846 0.501332 2.5
v 3.99211 -0.251162 -2.5
v 3.99211 -0.251162 2.5
v 3.99211 0.251162 -2.5
v 3.99211 0.251162 2.5
v 4.0 0.0 -2.5
v 4.0 0.0 2.5
v 6.0 0.0 -2.5
v 6.0 0.0 2.5
vn 0.0 -1.0 0.0
vn 0.0 -1.0 -0.0
vn 0.866025 -0.5 0.0
vn 0.866025 -0.5 0.0
vn 0.0 1.0 -0.0
vn 0.0 1.0 0.0
vn 0.866025 0.5 0.0
vn 0.866025 0.5 0.0
vn -0.866025 0.5 0.0
vn -0.866025 0.5 0.0
vn -0.866025 -0.5 0.0
vn -0.866025 -0.5 0.0
vn 0.0 0.0 1.0
vn 0.0 0.0 1.0
vn 0.0 0.0 1.0
vn 0.0 0.0 1.0
vn 0.0 0.0 1.0
vn 0.0 0.0 1.0
vn 0.0 0.0 1.0
vn 0.0 0.0 1.0
vn 0.0 0.0 1.0
vn 0.0 0.0 1.0
vn 0.0 0.0 1.0
vn 0.0 0.0 1.0
vn 0.0 0.0 1.0
vn 0.0 0.0 1.0
vn 0.0 0.0 1.0
vn 0.0 0.0 1.0
vn 0.0 0.0 1.0
vn 0.0 0.0 1.0
vn 0.0 0.0 1.0
vn 0.0 0.0 1.0
vn 0.0 0.0 1.0
vn 0.0 0.0 1.0
vn 0.0 0.0 1.0
vn 0.0 0.0 1.0
vn 0.0 0.0 1.0
vn 0.0 0.0 1.0
vn -0.0 0.0 1.0
vn 0.0 0.0 1.0
vn 0.0 0.0 1.0
vn 0.0 0.0 1.0
vn 0.0 0.0 1.0
vn 0.0 0.0 1.0
vn 0.0 0.0 1.0
vn 0.0 0.0 1.0
vn 0.0 0.0 1.0
vn 0.0 0.0 1.0
vn 0.0 0.0 1.0
vn 0.0 0.0 1.0
vn 0.0 0.0 1.0
vn 0.0 0.0 1.0
vn 0.0 0.0 1.0
vn 0.0 0.0 1.0
vn 0.0 0.0 1.0
vn 0.0 0.0 1.0
vn 0.0 0.0 1.0
vn 0.0 0.0 1.0
vn 0.0 0.0 1.0
vn 0.0 0.0 1.0
vn 0.0 0.0 1.0
vn 0.0 0.0 1.0
vn 0.0 0.0 1.0
vn 0.0 0.0 1.0
vn 0.0 0.0 1.0
vn 0.0 0.0 1.0
vn 0.0 0.0 1.0
vn 0.0 0.0 1.0
vn 0.0 0.0 1.0
vn 0.0 0.0 1.0
vn 0.0 0.0 1.0
vn 0.0 0.0 1.0
vn 0.0 0.0 1.0
vn 0.0 0.0 1.0
vn 0.0 0.0 1.0
vn 0.0 0.0 1.0
vn -0.0 0.0 1.0
vn -0.0 0.0 1.0
vn -0.0 0.0 1.0
vn -0.0 0.0 1.0
vn -0.0 0.0 1.0
vn -0.0 0.0 1.0
vn -0.0 0.0 1.0
vn -0.0 0.0 1.0
vn -0.0 0.0 1.0
vn -0.0 0.0 1.0
vn -0.0 0.0 1.0
vn -0.0 0.0 1.0
vn -0.0 0.0 1.0
vn -0.0 0.0 1.0
vn -0.0 0.0 1.0
vn 0.0 0.0 1.0
vn 0.0 0.0 1.0
vn 0.0 0.0 1.0
vn 0.0 0.0 1.0
vn 0.0 0.0 1.0
vn 0.0 0.0 1.0
vn 0.0 0.0 1.0
vn 0.0 0.0 1.0
vn 0.0 0.0 1.0
vn 0.0 0.0 1.0
vn 0.0 0.0 1.0
vn 0.0 0.0 1.0
vn 0.0 0.0 1.0
vn 0.0 0.0 1.0
vn 0.0 0.0 1.0
vn 0.0 0.0 1.0
vn 0.0 0.0 1.0
vn 0.0 0.0 1.0
vn 0.0 0.0 1.0
vn 0.0 0.0 1.0
vn 0.0 0.0 1.0
vn 0.0 0.0 1.0
vn 0.0 0.0 1.0
vn 0.0 0.0 1.0
vn 0.0 0.0 1.0
vn 0.0 0.0 1.0
vn -0.0 0.0 1.0
vn -0.0 0.0 -1.0
vn 0.0 0.0 -1.0
vn 0.0 0.0 -1.0
vn 0.0 0.0 -1.0
vn 0.0 0.0 -1.0
vn 0.0 0.0 -1.0
vn 0.0 0.0 -1.0
vn 0.0 0.0 -1.0
vn 0.0 0.0 -1.0
vn 0.0 0.0 -1.0
vn 0.0 0.0 -1.0
vn 0.0 0.0 -1.0
vn 0.0 0.0 -1.0
vn 0.0 0.0 -1.0
vn 0.0 0.0 -1.0
vn 0.0 0.0 -1.0
vn 0.0 0.0 -1.0
vn 0.0 0.0 -1.0
vn 0.0 0.0 -1.0
vn 0.0 0.0 -1.0
vn 0.0 0.0 -1.0
vn 0.0 0.0 -1.0
vn 0.0 0.0 -1.0
vn 0.0 0.0 -1.0
vn 0.0 0.0 -1.0
vn 0.0 0.0 -1.0
vn 0.0 0.0 -1.0
vn -0.0 0.0 -1.0
vn -0.0 0.0 -1.0
vn -0.0 0.0 -1.0
vn -0.0 0.0 -1.0
vn -0.0 0.0 -1.0
vn 0.0 0.0 -1.0
vn 0.0 0.0 -1.0
vn 0.0 0.0 -1.0
vn 0.0 0.0 -1.0
vn 0.0 0.0 -1.0
vn 0.0 0.0 -1.0
vn 0.0 0.0 -1.0
vn 0.0 0.0 -1.0
vn 0.0 0.0 -1.0
vn 0.0 0.0 -1.0
vn 0.0 0.0 -1.0
vn 0.0 0.0 -1.0
vn 0.0 0.0 -1.0
vn 0.0 0.0 -1.0
vn 0.0 0.0 -1.0
vn 0.0 0.0 -1.0
vn 0.0 0.0 -1.0
vn 0.0 0.0 -1.0
vn 0.0 0.0 -1.0
vn 0.0 0.0 -1.0
vn 0.0 0.0 -1.0
vn 0.0 0.0 -1.0
vn 0.0 0.0 -1.0
vn 0.0 0.0 -1.0
vn 0.0 0.0 -1.0
vn 0.0 0.0 -1.0
vn 0.0 0.0 -1.0
vn 0.0 0.0 -1.0
vn 0.0 0.0 -1.0
vn 0.0 0.0 -1.0
vn 0.0 0.0 -1.0
vn 0.0 0.0 -1.0
vn 0.0 0.0 -1.0
vn 0.0 0.0 -1.0
vn 0.0 0.0 -1.0
vn 0.0 0.0 -1.0
vn 0.0 0.0 -1.0
vn 0.0 0.0 -1.0
vn 0.0 0.0 -1.0
vn 0.0 0.0 -1.0
vn 0.0 0.0 -1.0
vn 0.0 0.0 -1.0
vn 0.0 0.0 -1.0
vn 0.0 0.0 -1.0
vn 0.0 0.0 -1.0
vn 0.0 0.0 -1.0
vn 0.0 0.0 -1.0
vn 0.0 0.0 -1.0
vn 0.0 0.0 -1.0
vn 0.0 0.0 -1.0
vn 0.0 0.0 -1.0
vn 0.0 0.0 -1.0
vn 0.0 0.0 -1.0
vn 0.0 0.0 -1.0
vn 0.0 0.0 -1.0
vn 0.0 0.0 -1.0
vn 0.0 0.0 -1.0
vn 0.0 0.0 -1.0
vn 0.0 0.0 -1.0
vn 0.0 0.0 -1.0
vn 0.0 0.0 -1.0
vn 0.0 0.0 -1.0
vn 0.0 0.0 -1.0
vn 0.0 0.0 -1.0
vn 0.0 0.0 -1.0
vn 0.0 0.0 -1.0
vn 0.0 0.0 -1.0
vn 0.0 0.0 -1.0
vn 0.0 0.0 -1.0
vn 0.0 0.0 -1.0
vn -0.0 0.0 -1.0
vn -0.0 0.0 -1.0
vn -0.0 0.0 -1.0
vn 0.0 0.0 -1.0
vn -0.940881 -0.338738 0.0
vn -0.940881 -0.338738 0.0
vn -0.995561 -0.094116 0.0
vn -0.995561 -0.094116 0.0
vn -0.999507 -0.031398 0.0
vn -0.999507 -0.031398 0.0
vn -0.987688 -0.156435 0.0
vn -0.987688 -0.156435 0.0
vn -0.891003 0.453998 0.0
vn -0.891003 0.453998 0.0
vn -0.094116 0.995561 0.0
vn -0.094116 0.995561 0.0
vn 0.156435 0.987688 -0.0
vn 0.156435 0.987688 0.0
vn 0.397154 0.917752 -0.0
vn 0.397154 0.917752 0.0
vn 0.917752 0.397154 0.0
vn 0.917752 0.397154 0.0
vn -0.975914 -0.218158 0.0
vn -0.975914 -0.218158 0.0
vn -0.509043 -0.860741 0.0
vn -0.509043 -0.860741 -0.0
vn -0.031398 0.999507 0.0
vn -0.031398 0.999507 0.0
vn 0.860741 -0.509043 0.0
vn 0.860741 -0.509043 0.0
vn 0.661321 -0.750103 0.0
vn 0.661321 -0.750103 0.0
vn -0.827082 -0.562081 0.0
vn -0.827082 -0.562081 0.0
vn -0.860741 0.509043 0.0
vn -0.860741 0.509043 0.0
vn -0.707107 -0.707107 0.0
vn -0.707107 -0.707107 0.0
vn 0.827082 0.562081 0.0
vn 0.827082 0.562081 0.0
vn -0.750103 0.661321 0.0
vn -0.750103 0.661321 0.0
vn 0.999507 0.031398 0.0
vn 0.999507 0.031398 0.0
vn 0.940881 0.338738 0.0
vn 0.940881 0.338738 0.0
vn -0.860741 -0.509043 0.0
vn -0.860741 -0.509043 0.0
vn 0.995561 0.094116 0.0
vn 0.995561 0.094116 0.0
vn 0.987688 0.156435 0.0
vn 0.987688 0.156435 0.0
vn -0.661321 -0.750103 0.0
vn -0.661321 -0.750103 -0.0
vn -0.987688 0.156435 0.0
vn -0.987688 0.156435 0.0
vn -0.960301 -0.278964 0.0
vn -0.960301 -0.278964 0.0
vn -0.338738 -0.940881 0.0
vn -0.338738 -0.940881 -0.0
vn -0.338738 0.940881 0.0
vn -0.338738 0.940881 0.0
vn 0.562081 -0.827082 0.0
vn 0.562081 -0.827082 0.0
vn 0.612909 -0.790153 0.0
vn 0.612909 -0.790153 0.0
vn 0.995561 -0.094116 0.0
vn 0.995561 -0.094116 0.0
vn 0.790153 -0.612909 0.0
vn 0.790153 -0.612909 0.0
vn 0.975914 -0.218158 0.0
vn 0.975914 -0.218158 0.0
vn -0.218158 -0.975914 0.0
vn -0.218158 -0.975914 -0.0
vn -0.509043 0.860741 0.0
vn -0.509043 0.860741 0.0
vn -0.453998 0.891003 0.0
vn -0.453998 0.891003 0.0
vn -0.562081 -0.827082 0.0
vn -0.562081 -0.827082 -0.0
vn -0.960301 0.278964 0.0
vn -0.960301 0.278964 0.0
vn 0.940881 -0.338738 0.0
vn 0.940881 -0.338738 0.0
vn -0.891003 -0.453998 0.0
vn -0.891003 -0.453998 0.0
vn -0.917752 -0.397154 0.0
vn -0.917752 -0.397154 0.0
vn -0.940881 0.338738 0.0
vn -0.940881 0.338738 0.0
vn 0.707107 0.707107 0.0
vn 0.707107 0.707107 0.0
vn 0.987688 -0.156435 0.0
vn 0.987688 -0.156435 0.0
vn 0.094116 -0.995561 0.0
vn 0.094116 -0.995561 0.0
vn 0.975914 0.218158 0.0
vn 0.975914 0.218158 0.0
vn -0.790153 0.612909 0.0
vn -0.790153 0.612909 0.0
vn -0.278964 0.960301 0.0
vn -0.278964 0.960301 0.0
vn -0.218158 0.975914 0.0
vn -0.218158 0.975914 0.0
vn -0.917752 0.397154 0.0
vn -0.917752 0.397154 0.0
vn 0.509043 0.860741 -0.0
vn 0.509043 0.860741 0.0
vn -0.397154 0.917752 0.0
vn -0.397154 0.917752 0.0
vn 0.278964 0.960301 -0.0
vn 0.278964 0.960301 0.0
vn -0.094116 -0.995561 0.0
vn -0.094116 -0.995561 -0.0
vn 0.750103 -0.661321 0.0
vn 0.750103 -0.661321 0.0
vn 0.960301 0.278964 0.0
vn 0.960301 0.278964 0.0
vn 0.860741 0.509043 0.0
vn 0.860741 0.509043 0.0
vn 0.338738 -0.940881 0.0
vn 0.338738 -0.940881 0.0
vn -0.612909 -0.790153 0.0
vn -0.612909 -0.790153 -0.0
vn 0.750103 0.661321 0.0
vn 0.750103 0.661321 0.0
vn 0.031398 -0.999507 0.0
vn 0.031398 -0.999507 0.0
vn -0.995561 0.094116 0.0
vn -0.995561 0.094116 0.0
vn -0.397154 -0.917752 0.0
vn -0.397154 -0.917752 -0.0
vn -0.453998 -0.891003 0.0
vn -0.453998 -0.891003 -0.0
vn -0.750103 -0.661321 0.0
vn -0.750103 -0.661321 0.0
vn 0.891003 0.453998 0.0
vn 0.891003 0.453998 0.0
vn 0.827082 -0.562081 0.0
vn 0.827082 -0.562081 0.0
vn -0.975914 0.218158 0.0
vn -0.975914 0.218158 0.0
vn 0.509043 -0.860741 0.0
vn 0.509043 -0.860741 0.0
vn -0.031398 -0.999507 0.0
vn -0.031398 -0.999507 -0.0
vn -0.661321 0.750103 0.0
vn -0.661321 0.750103 0.0
vn 0.094116 0.995561 -0.0
vn 0.094116 0.995561 0.0
vn 0.278964 -0.960301 0.0
vn 0.278964 -0.960301 0.0
vn 0.218158 -0.975914 0.0
vn 0.218158 -0.975914 0.0
vn 0.917752 -0.397154 0.0
vn 0.917752 -0.397154 0.0
vn 0.218158 0.975914 -0.0
vn 0.218158 0.975914 0.0
vn 0.156435 -0.987688 0.0
vn 0.156435 -0.987688 0.0
vn 0.999507 -0.031398 0.0
vn 0.999507 -0.031398 0.0
vn -0.156435 0.987688 0.0
vn -0.156435 0.987688 0.0
vn 0.661321 0.750103 -0.0
vn 0.661321 0.750103 0.0
vn 0.707107 -0.707107 0.0
vn 0.707107 -0.707107 0.0
vn 0.338738 0.940881 -0.0
vn 0.338738 0.940881 0.0
vn 0.453998 0.891003 -0.0
vn 0.453998 0.891003 0.0
vn -0.827082 0.562081 0.0
vn -0.827082 0.562081 0.0
vn -0.707107 0.707107 0.0
vn -0.707107 0.707107 0.0
vn 0.790153 0.612909 0.0
vn 0.790153 0.612909 0.0
vn 0.031398 0.999507 -0.0
vn 0.031398 0.999507 0.0
vn -0.562081 0.827082 0.0
vn -0.562081 0.827082 0.0
vn -0.999507 0.031398 0.0
vn -0.999507 0.031398 0.0
vn 0.397154 -0.917752 0.0
vn 0.397154 -0.917752 0.0
vn -0.156435 -0.987688 0.0
vn -0.156435 -0.987688 -0.0
vn 0.960301 -0.278964 0.0
vn 0.960301 -0.278964 0.0
vn -0.790153 -0.612909 0.0
vn -0.790153 -0.612909 0.0
vn 0.562081 0.827082 -0.0
vn 0.562081 0.827082 0.0
vn -0.278964 -0.960301 0.0
vn -0.278964 -0.960301 -0.0
vn 0.891003 -0.453998 0.0
vn 0.891003 -0.453998 0.0
vn 0.453998 -0.891003 0.0
vn 0.453998 -0.891003 0.0
vn -0.612909 0.790153 0.0
vn -0.612909 0.790153 0.0
vn 0.612909 0.790153 -0.0
vn 0.612909 0.790153 0.0
f 49//1 162//1 50//1 
f 162//2 49//2 161//2 
f 162//3 211//3 212//3 
f 211//4 162//4 161//4 
f 163//5 52//5 164//5 
f 52//6 163//6 51//6 
f 212//7 163//7 164//7 
f 163//8 212//8 211//8 
f 1//9 52//9 51//9 
f 52//10 1//10 2//10 
f 49//11 2//11 1//11 
f 2//12 49//12 50//12 
f 212//13 208//13 210//13 
f 212//14 204//14 208//14 
f 212//15 200//15 204//15 
f 212//16 196//16 200//16 
f 212//17 192//17 196//17 
f 212//18 188//18 192//18 
f 212//19 184//19 188//19 
f 212//20 180//20 184//20 
f 164//21 180//21 212//21 
f 180//22 164//22 176//22 
f 176//23 164//23 172//23 
f 172//24 164//24 168//24 
f 164//25 160//25 168//25 
f 164//26 156//26 160//26 
f 164//27 152//27 156//27 
f 164//28 148//28 152//28 
f 164//29 144//29 148//29 
f 164//30 140//30 144//30 
f 164//31 136//31 140//31 
f 164//32 132//32 136//32 
f 164//33 128//33 132//33 
f 164//34 124//34 128//34 
f 164//35 120//35 124//35 
f 164//36 116//36 120//36 
f 164//37 112//37 116//37 
f 164//38 108//38 112//38 
f 52//39 108//39 164//39 
f 108//40 52//40 104//40 
f 104//41 52//41 100//41 
f 100//42 52//42 96//42 
f 96//43 52//43 92//43 
f 92//44 52//44 88//44 
f 52//45 84//45 88//45 
f 52//46 80//46 84//46 
f 52//47 76//47 80//47 
f 52//48 72//48 76//48 
f 52//49 68//49 72//49 
f 52//50 64//50 68//50 
f 52//51 60//51 64//51 
f 52//52 56//52 60//52 
f 52//53 48//53 56//53 
f 52//54 44//54 48//54 
f 52//55 40//55 44//55 
f 52//56 36//56 40//56 
f 2//57 36//57 52//57 
f 36//58 2//58 32//58 
f 32//59 2//59 28//59 
f 28//60 2//60 24//60 
f 24//61 2//61 20//61 
f 8//62 2//62 4//62 
f 12//63 2//63 8//63 
f 16//64 2//64 12//64 
f 20//65 2//65 16//65 
f 206//66 212//66 210//66 
f 202//67 212//67 206//67 
f 198//68 212//68 202//68 
f 194//69 212//69 198//69 
f 190//70 212//70 194//70 
f 186//71 212//71 190//71 
f 182//72 212//72 186//72 
f 178//73 212//73 182//73 
f 162//74 178//74 174//74 
f 162//75 174//75 170//75 
f 162//76 170//76 166//76 
f 178//77 162//77 212//77 
f 158//78 162//78 166//78 
f 154//79 162//79 158//79 
f 150//80 162//80 154//80 
f 146//81 162//81 150//81 
f 142//82 162//82 146//82 
f 138//83 162//83 142//83 
f 134//84 162//84 138//84 
f 130//85 162//85 134//85 
f 126//86 162//86 130//86 
f 122//87 162//87 126//87 
f 118//88 162//88 122//88 
f 114//89 162//89 118//89 
f 110//90 162//90 114//90 
f 106//91 162//91 110//91 
f 50//92 106//92 102//92 
f 50//93 102//93 98//93 
f 50//94 98//94 94//94 
f 50//95 94//95 90//95 
f 50//96 90//96 86//96 
f 106//97 50//97 162//97 
f 82//98 50//98 86//98 
f 78//99 50//99 82//99 
f 74//100 50//100 78//100 
f 70//101 50//101 74//101 
f 66//102 50//102 70//102 
f 62//103 50//103 66//103 
f 58//104 50//104 62//104 
f 54//105 50//105 58//105 
f 46//106 50//106 54//106 
f 42//107 50//107 46//107 
f 38//108 50//108 42//108 
f 34//109 50//109 38//109 
f 2//110 34//110 30//110 
f 2//111 30//111 26//111 
f 2//112 26//112 22//112 
f 2//113 22//113 18//113 
f 2//114 18//114 14//114 
f 34//115 2//115 50//115 
f 10//116 2//116 14//116 
f 6//117 2//117 10//117 
f 2//118 6//118 4//118 
f 211//119 205//119 209//119 
f 211//120 201//120 205//120 
f 211//121 197//121 201//121 
f 211//122 193//122 197//122 
f 211//123 189//123 193//123 
f 211//124 185//124 189//124 
f 211//125 181//125 185//125 
f 211//126 177//126 181//126 
f 161//127 177//127 211//127 
f 177//128 161//128 173//128 
f 173//129 161//129 169//129 
f 169//130 161//130 165//130 
f 161//131 157//131 165//131 
f 161//132 153//132 157//132 
f 161//133 149//133 153//133 
f 161//134 145//134 149//134 
f 161//135 141//135 145//135 
f 161//136 137//136 141//136 
f 161//137 133//137 137//137 
f 161//138 129//138 133//138 
f 161//139 125//139 129//139 
f 161//140 121//140 125//140 
f 161//141 117//141 121//141 
f 161//142 113//142 117//142 
f 161//143 109//143 113//143 
f 161//144 105//144 109//144 
f 49//145 105//145 161//145 
f 105//146 49//146 101//146 
f 101//147 49//147 97//147 
f 97//148 49//148 93//148 
f 93//149 49//149 89//149 
f 89//150 49//150 85//150 
f 49//151 81//151 85//151 
f 49//152 77//152 81//152 
f 49//153 73//153 77//153 
f 49//154 69//154 73//154 
f 49//155 65//155 69//155 
f 49//156 61//156 65//156 
f 49//157 57//157 61//157 
f 49//158 53//158 57//158 
f 49//159 45//159 53//159 
f 49//160 41//160 45//160 
f 49//161 37//161 41//161 
f 49//162 33//162 37//162 
f 1//163 33//163 49//163 
f 33//164 1//164 29//164 
f 29//165 1//165 25//165 
f 25//166 1//166 21//166 
f 21//167 1//167 17//167 
f 5//168 1//168 3//168 
f 9//169 1//169 5//169 
f 13//170 1//170 9//170 
f 17//171 1//171 13//171 
f 207//172 211//172 209//172 
f 203//173 211//173 207//173 
f 199//174 211//174 203//174 
f 195//175 211//175 199//175 
f 191//176 211//176 195//176 
f 187//177 211//177 191//177 
f 183//178 211//178 187//178 
f 179//179 211//179 183//179 
f 163//180 179//180 175//180 
f 163//181 175//181 171//181 
f 163//182 171//182 167//182 
f 179//183 163//183 211//183 
f 159//184 163//184 167//184 
f 155//185 163//185 159//185 
f 151//186 163//186 155//186 
f 147//187 163//187 151//187 
f 143//188 163//188 147//188 
f 139//189 163//189 143//189 
f 135//190 163//190 139//190 
f 131//191 163//191 135//191 
f 127//192 163//192 131//192 
f 123//193 163//193 127//193 
f 119//194 163//194 123//194 
f 115//195 163//195 119//195 
f 111//196 163//196 115//196 
f 107//197 163//197 111//197 
f 51//198 107//198 103//198 
f 51//199 103//199 99//199 
f 51//200 99//200 95//200 
f 51//201 95//201 91//201 
f 51//202 91//202 87//202 
f 107//203 51//203 163//203 
f 83//204 51//204 87//204 
f 79//205 51//205 83//205 
f 75//206 51//206 79//206 
f 71//207 51//207 75//207 
f 67//208 51//208 71//208 
f 63//209 51//209 67//209 
f 59//210 51//210 63//210 
f 55//211 51//211 59//211 
f 47//212 51//212 55//212 
f 43//213 51//213 47//213 
f 39//214 51//214 43//214 
f 35//215 51//215 39//215 
f 1//216 35//216 31//216 
f 1//217 31//217 27//217 
f 1//218 27//218 23//218 
f 1//219 23//219 19//219 
f 1//220 19//220 15//220 
f 35//221 1//221 51//221 
f 11//222 1//222 15//222 
f 7//223 1//223 11//223 
f 1//224 7//224 3//224 
f 191//225 188//225 187//225 
f 188//226 191//226 192//226 
f 207//227 204//227 203//227 
f 204//228 207//228 208//228 
f 209//229 208//229 207//229 
f 208//230 209//230 210//230 
f 203//231 200//231 199//231 
f 200//232 203//232 204//232 
f 177//233 182//233 181//233 
f 182//234 177//234 178//234 
f 113//235 110//235 114//235 
f 110//236 113//236 109//236 
f 97//237 94//237 98//237 
f 94//238 97//238 93//238 
f 81//239 78//239 82//239 
f 78//240 81//240 77//240 
f 30//241 25//241 26//241 
f 25//242 30//242 29//242 
f 199//243 196//243 195//243 
f 196//244 199//244 200//244 
f 139//245 144//245 140//245 
f 144//246 139//246 143//246 
f 109//247 106//247 110//247 
f 106//248 109//248 105//248 
f 36//249 39//249 40//249 
f 39//250 36//250 35//250 
f 59//251 64//251 60//251 
f 64//252 59//252 63//252 
f 175//253 172//253 171//253 
f 172//254 175//254 176//254 
f 173//255 178//255 177//255 
f 178//256 173//256 174//256 
f 159//257 156//257 155//257 
f 156//258 159//258 160//258 
f 42//259 37//259 38//259 
f 37//260 42//260 41//260 
f 157//261 166//261 165//261 
f 166//262 157//262 158//262 
f 6//263 3//263 4//263 
f 3//264 6//264 5//264 
f 26//265 21//265 22//265 
f 21//266 26//266 25//266 
f 179//267 176//267 175//267 
f 176//268 179//268 180//268 
f 10//269 5//269 6//269 
f 5//270 10//270 9//270 
f 14//271 9//271 10//271 
f 9//272 14//272 13//272 
f 151//273 156//273 152//273 
f 156//274 151//274 155//274 
f 197//275 202//275 201//275 
f 202//276 197//276 198//276 
f 195//277 192//277 191//277 
f 192//278 195//278 196//278 
f 127//279 132//279 128//279 
f 132//280 127//280 131//280 
f 129//281 126//281 130//281 
f 126//282 129//282 125//282 
f 67//283 72//283 68//283 
f 72//284 67//284 71//284 
f 63//285 68//285 64//285 
f 68//286 63//286 67//286 
f 8//287 11//287 12//287 
f 11//288 8//288 7//288 
f 44//289 47//289 48//289 
f 47//290 44//290 43//290 
f 16//291 19//291 20//291 
f 19//292 16//292 15//292 
f 119//293 124//293 120//293 
f 124//294 119//294 123//294 
f 141//295 138//295 142//295 
f 138//296 141//296 137//296 
f 137//297 134//297 138//297 
f 134//298 137//298 133//298 
f 143//299 148//299 144//299 
f 148//300 143//300 147//300 
f 189//301 194//301 193//301 
f 194//302 189//302 190//302 
f 24//303 27//303 28//303 
f 27//304 24//304 23//304 
f 183//305 180//305 179//305 
f 180//306 183//306 184//306 
f 187//307 184//307 183//307 
f 184//308 187//308 188//308 
f 185//309 190//309 189//309 
f 190//310 185//310 186//310 
f 58//311 53//311 54//311 
f 53//312 58//312 57//312 
f 12//313 15//313 16//313 
f 15//314 12//314 11//314 
f 99//315 104//315 100//315 
f 104//316 99//316 103//316 
f 18//317 13//317 14//317 
f 13//318 18//318 17//318 
f 165//319 170//319 169//319 
f 170//320 165//320 166//320 
f 125//321 122//321 126//321 
f 122//322 125//322 121//322 
f 121//323 118//323 122//323 
f 118//324 121//324 117//324 
f 181//325 186//325 185//325 
f 186//326 181//326 182//326 
f 73//327 70//327 74//327 
f 70//328 73//328 69//328 
f 133//329 130//329 134//329 
f 130//330 133//330 129//330 
f 89//331 86//331 90//331 
f 86//332 89//332 85//332 
f 111//333 116//333 112//333 
f 116//334 111//334 115//334 
f 48//335 55//335 56//335 
f 55//336 48//336 47//336 
f 22//337 17//337 18//337 
f 17//338 22//338 21//338 
f 38//339 33//339 34//339 
f 33//340 38//340 37//340 
f 83//341 88//341 84//341 
f 88//342 83//342 87//342 
f 147//343 152//343 148//343 
f 152//344 147//344 151//344 
f 54//345 45//345 46//345 
f 45//346 54//346 53//346 
f 103//347 108//347 104//347 
f 108//348 103//348 107//348 
f 201//349 206//349 205//349 
f 206//350 201//350 202//350 
f 131//351 136//351 132//351 
f 136//352 131//352 135//352 
f 135//353 140//353 136//353 
f 140//354 135//354 139//354 
f 167//355 160//355 159//355 
f 160//356 167//356 168//356 
f 34//357 29//357 30//357 
f 29//358 34//358 33//358 
f 40//359 43//359 44//359 
f 43//360 40//360 39//360 
f 193//361 198//361 197//361 
f 198//362 193//362 194//362 
f 71//363 76//363 72//363 
f 76//364 71//364 75//364 
f 107//365 112//365 108//365 
f 112//366 107//366 111//366 
f 153//367 150//367 154//367 
f 150//368 153//368 149//368 
f 101//369 98//369 102//369 
f 98//370 101//370 97//370 
f 87//371 92//371 88//371 
f 92//372 87//372 91//372 
f 91//373 96//373 92//373 
f 96//374 91//374 95//374 
f 28//375 31//375 32//375 
f 31//376 28//376 27//376 
f 93//377 90//377 94//377 
f 90//378 93//378 89//378 
f 95//379 100//379 96//379 
f 100//380 95//380 99//380 
f 4//381 7//381 8//381 
f 7//382 4//382 3//382 
f 117//383 114//383 118//383 
f 114//384 117//384 113//384 
f 61//385 58//385 62//385 
f 58//386 61//386 57//386 
f 56//387 59//387 60//387 
f 59//388 56//388 55//388 
f 85//389 82//389 86//389 
f 82//390 85//390 81//390 
f 77//391 74//391 78//391 
f 74//392 77//392 73//392 
f 169//393 174//393 173//393 
f 174//394 169//394 170//394 
f 153//395 158//395 157//395 
f 158//396 153//396 154//396 
f 46//397 41//397 42//397 
f 41//398 46//398 45//398 
f 105//399 102//399 106//399 
f 102//400 105//400 101//400 
f 145//401 142//401 146//401 
f 142//402 145//402 141//402 
f 205//403 210//403 209//403 
f 210//404 205//404 206//404 
f 79//405 84//405 80//405 
f 84//406 79//406 83//406 
f 115//407 120//407 116//407 
f 120//408 115//408 119//408 
f 20//409 23//409 24//409 
f 23//410 20//410 19//410 
f 171//411 168//411 167//411 
f 168//412 171//412 172//412 
f 69//413 66//413 70//413 
f 66//414 69//414 65//414 
f 123//415 128//415 124//415 
f 128//416 123//416 127//416 
f 32//417 35//417 36//417 
f 35//418 32//418 31//418 
f 75//419 80//419 76//419 
f 80//420 75//420 79//420 
f 149//421 146//421 150//421 
f 146//422 149//422 145//422 
f 65//423 62//423 66//423 
f 62//424 65//424 61//424 
