# FreeCAD v1.0 build0 Arch module
# https://www.freecad.org
mtllib text_left.mtl
o part_left_logo
usemtl color_cccce6
v -14.0146 -6.07784 -2.0
v -14.0146 -6.07784 2.0
v -13.8045 -7.83834 -2.0
v -13.8045 -7.83834 2.0
v -13.7411 6.43506 -2.0
v -13.7411 6.43506 2.0
v -13.5396 8.06919 -2.0
v -13.5396 8.06919 2.0
v -13.4364 -9.37933 -2.0
v -13.4364 -9.37933 2.0
v -13.1857 9.51575 -2.0
v -13.1857 9.51575 2.0
v -12.9102 -10.7008 -2.0
v -12.9102 -10.7008 2.0
v -12.6795 10.7748 -2.0
v -12.6795 10.7748 2.0
v -12.2259 -11.8027 -2.0
v -12.2259 -11.8027 2.0
v -12.0209 11.8463 -2.0
v -12.0209 11.8463 2.0
v -11.3964 -12.6708 -2.0
v -11.3964 -12.6708 2.0
v -11.2299 12.702 -2.0
v -11.2299 12.702 2.0
v -10.7562 -5.60296 -2.0
v -10.7562 -5.60296 2.0
v -10.5398 6.05509 -2.0
v -10.5398 6.05509 2.0
v -10.4764 -7.2893 -2.0
v -10.4764 -7.2893 2.0
v -10.4619 6.84315 -2.0
v -10.4619 6.84315 2.0
v -10.4344 -13.2908 -2.0
v -10.4344 -13.2908 2.0
v -10.3263 13.3132 -2.0
v -10.3263 13.3132 2.0
v -10.3191 7.53623 -2.0
v -10.3191 7.53623 2.0
v -10.1116 8.13437 -2.0
v -10.1116 8.13437 2.0
v -9.94455 -8.49383 -2.0
v -9.94455 -8.49383 2.0
v -9.89053 -1.91958 -2.0
v -9.89053 -1.91958 2.0
v -9.89053 2.39075 -2.0
v -9.89053 2.39075 2.0
v -9.83928 8.63755 -2.0
v -9.83928 8.63755 2.0
v -9.51068 9.03629 -2.0
v -9.51068 9.03629 2.0
v -9.34006 -13.6628 -2.0
v -9.34006 -13.6628 2.0
v -9.3102 13.6799 -2.0
v -9.3102 13.6799 2.0
v -9.16064 -9.21655 -2.0
v -9.16064 -9.21655 2.0
v -9.13436 9.32108 -2.0
v -9.13436 9.32108 2.0
v -8.84238 2.39075 -2.0
v -8.84238 2.39075 2.0
v -8.77399 -1.91958 -2.0
v -8.77399 -1.91958 2.0
v -8.71033 9.49198 -2.0
v -8.71033 9.49198 2.0
v -8.23859 9.54896 -2.0
v -8.23859 9.54896 2.0
v -8.19587 2.44947 -2.0
v -8.19587 2.44947 2.0
v -8.18163 13.8021 -2.0
v -8.18163 13.8021 2.0
v -8.12468 -9.45745 -2.0
v -8.12468 -9.45745 2.0
v -8.11326 -13.7868 -2.0
v -8.11326 -13.7868 2.0
v -8.05768 -1.97891 -2.0
v -8.05768 -1.97891 2.0
v -7.74049 9.49021 -2.0
v -7.74049 9.49021 2.0
v -7.6348 2.62568 -2.0
v -7.6348 2.62568 2.0
v -7.58141 -9.39813 -2.0
v -7.58141 -9.39813 2.0
v -7.43538 -2.15695 -2.0
v -7.43538 -2.15695 2.0
v -7.30576 9.31394 -2.0
v -7.30576 9.31394 2.0
v -7.15915 2.91932 -2.0
v -7.15915 2.91932 2.0
v -7.10224 -9.22015 -2.0
v -7.10224 -9.22015 2.0
v -6.99144 13.6841 -2.0
v -6.99144 13.6841 2.0
v -6.93442 9.02021 -2.0
v -6.93442 9.02021 2.0
v -6.90707 -2.45367 -2.0
v -6.90707 -2.45367 2.0
v -6.82449 -13.6586 -2.0
v -6.82449 -13.6586 2.0
v -6.76891 3.33042 -2.0
v -6.76891 3.33042 2.0
v -6.68714 -8.92352 -2.0
v -6.68714 -8.92352 2.0
v -6.62646 8.60898 -2.0
v -6.62646 8.60898 2.0
v -6.47274 -2.86904 -2.0
v -6.47274 -2.86904 2.0
v -6.46485 3.85084 -2.0
v -6.46485 3.85084 2.0
v -6.38472 8.09452 -2.0
v -6.38472 8.09452 2.0
v -6.33614 -8.50826 -2.0
v -6.33614 -8.50826 2.0
v -6.25618 0.340033 -2.0
v -6.25618 0.340033 2.0
v -6.25618 0.4159 -2.0
v -6.25618 0.4159 2.0
v -6.24765 4.47211 -2.0
v -6.24765 4.47211 2.0
v -6.21204 7.4911 -2.0
v -6.21204 7.4911 2.0
v -6.13383 -3.39587 -2.0
v -6.13383 -3.39587 2.0
v -6.11735 5.19428 -2.0
v -6.11735 5.19428 2.0
v -6.10844 6.79868 -2.0
v -6.10844 6.79868 2.0
v -6.0739 6.01731 -2.0
v -6.0739 6.01731 2.0
v -6.057 -7.97061 -2.0
v -6.057 -7.97061 2.0
v -5.93871 13.3298 -2.0
v -5.93871 13.3298 2.0
v -5.89175 -4.02712 -2.0
v -5.89175 -4.02712 2.0
v -5.8576 -7.30718 -2.0
v -5.8576 -7.30718 2.0
v -5.74651 -4.76284 -2.0
v -5.74651 -4.76284 2.0
v -5.73798 -6.51797 -2.0
v -5.73798 -6.51797 2.0
v -5.6981 -5.60296 -2.0
v -5.6981 -5.60296 2.0
v -5.69238 -13.2741 -2.0
v -5.69238 -13.2741 2.0
v -5.47335 0.749396 -2.0
v -5.47335 0.749396 2.0
v -5.38649 0.078284 -2.0
v -5.38649 0.078284 2.0
v -5.02341 12.7393 -2.0
v -5.02341 12.7393 2.0
v -4.78808 1.21818 -2.0
v -4.78808 1.21818 2.0
v -4.71693 -12.6333 -2.0
v -4.71693 -12.6333 2.0
v -4.62288 -0.346033 -2.0
v -4.62288 -0.346033 2.0
v -4.24556 11.9127 -2.0
v -4.24556 11.9127 2.0
v -4.20033 1.82221 -2.0
v -4.20033 1.82221 2.0
v -3.96539 -0.932947 -2.0
v -3.96539 -0.932947 2.0
v -3.89813 -11.7361 -2.0
v -3.89813 -11.7361 2.0
v -3.71014 2.56153 -2.0
v -3.71014 2.56153 2.0
v -3.62499 10.8773 -2.0
v -3.62499 10.8773 2.0
v -3.41396 -1.68243 -2.0
v -3.41396 -1.68243 2.0
v -3.32382 3.42429 -2.0
v -3.32382 3.42429 2.0
v -3.25016 -10.6039 -2.0
v -3.25016 -10.6039 2.0
v -3.18175 9.66038 -2.0
v -3.18175 9.66038 2.0
v -3.04788 4.39857 -2.0
v -3.04788 4.39857 2.0
v -2.97781 -2.57058 -2.0
v -2.97781 -2.57058 2.0
v -2.91579 8.26185 -2.0
v -2.91579 8.26185 2.0
v -2.88232 5.48438 -2.0
v -2.88232 5.48438 2.0
v -2.82713 6.68174 -2.0
v -2.82713 6.68174 2.0
v -2.78732 -9.25817 -2.0
v -2.78732 -9.25817 2.0
v -2.66627 -3.57388 -2.0
v -2.66627 -3.57388 2.0
v -2.50963 -7.69879 -2.0
v -2.50963 -7.69879 2.0
v -2.47936 -4.69229 -2.0
v -2.47936 -4.69229 2.0
v -2.41705 -5.92581 -2.0
v -2.41705 -5.92581 2.0
v -0.316608 -13.35 -2.0
v -0.316608 -13.35 2.0
v -0.316608 13.4034 -2.0
v -0.316608 13.4034 2.0
v 3.04424 -9.02093 -2.0
v 3.04424 -9.02093 2.0
v 3.04424 9.07435 -2.0
v 3.04424 9.07435 2.0
v 5.42529 9.07435 -2.0
v 5.42529 9.07435 2.0
v 5.49368 13.4034 -2.0
v 5.49368 13.4034 2.0
v 5.89233 -9.02093 -2.0
v 5.89233 -9.02093 2.0
v 6.1771 -13.35 -2.0
v 6.1771 -13.35 2.0
v 6.60086 8.93253 -2.0
v 6.60086 8.93253 2.0
v 6.91913 -8.86547 -2.0
v 6.91913 -8.86547 2.0
v 7.2954 -13.2479 -2.0
v 7.2954 -13.2479 2.0
v 7.40687 13.1904 -2.0
v 7.40687 13.1904 2.0
v 7.63261 8.50706 -2.0
v 7.63261 8.50706 2.0
v 7.83483 -8.39913 -2.0
v 7.83483 -8.39913 2.0
v 8.34888 -12.9418 -2.0
v 8.34888 -12.9418 2.0
v 8.52052 7.79798 -2.0
v 8.52052 7.79798 2.0
v 8.63945 -7.62185 -2.0
v 8.63945 -7.62185 2.0
v 9.0908 12.5513 -2.0
v 9.0908 12.5513 2.0
v 9.26461 6.80521 -2.0
v 9.26461 6.80521 2.0
v 9.33298 -6.53369 -2.0
v 9.33298 -6.53369 2.0
v 9.33752 -12.4315 -2.0
v 9.33752 -12.4315 2.0
v 9.85274 5.5431 -2.0
v 9.85274 5.5431 2.0
v 9.89121 -5.1784 -2.0
v 9.89121 -5.1784 2.0
v 10.2613 -11.7171 -2.0
v 10.2613 -11.7171 2.0
v 10.2729 4.02589 -2.0
v 10.2729 4.02589 2.0
v 10.2899 -3.6 -2.0
v 10.2899 -3.6 2.0
v 10.5249 2.25352 -2.0
v 10.5249 2.25352 2.0
v 10.5292 -1.79852 -2.0
v 10.5292 -1.79852 2.0
v 10.5454 11.4862 -2.0
v 10.5454 11.4862 2.0
v 10.6089 0.22605 -2.0
v 10.6089 0.22605 2.0
v 11.1023 -10.8098 -2.0
v 11.1023 -10.8098 2.0
v 11.7708 9.99497 -2.0
v 11.7708 9.99497 2.0
v 11.8421 -9.721 -2.0
v 11.8421 -9.721 2.0
v 12.4808 -8.45068 -2.0
v 12.4808 -8.45068 2.0
v 12.7428 8.10636 -2.0
v 12.7428 8.10636 2.0
v 13.0184 -6.99877 -2.0
v 13.0184 -6.99877 2.0
v 13.437 5.84867 -2.0
v 13.437 5.84867 2.0
v 13.4445 -5.39013 -2.0
v 13.4445 -5.39013 2.0
v 13.7489 -3.64977 -2.0
v 13.7489 -3.64977 2.0
v 13.8536 3.2219 -2.0
v 13.8536 3.2219 2.0
v 13.9316 -1.7777 -2.0
v 13.9316 -1.7777 2.0
v 13.9925 0.22605 -2.0
v 13.9925 0.22605 2.0
vn 0.0 0.0 -1.0
vn 0.0 0.0 -1.0
vn 0.0 0.0 -1.0
vn 0.0 0.0 -1.0
vn 0.0 -0.0 -1.0
vn 0.0 0.0 -1.0
vn 0.0 -0.0 -1.0
vn 0.0 0.0 -1.0
vn 0.0 0.0 -1.0
vn 0.0 0.0 -1.0
vn 0.0 0.0 -1.0
vn 0.0 0.0 -1.0
vn -0.0 0.0 -1.0
vn 0.0 -0.0 -1.0
vn 0.0 0.0 -1.0
vn -0.0 0.0 -1.0
vn 0.0 0.0 -1.0
vn 0.0 0.0 -1.0
vn -0.0 0.0 -1.0
vn -0.0 0.0 -1.0
vn 0.0 0.0 -1.0
vn 0.0 -0.0 -1.0
vn 0.0 -0.0 -1.0
vn 0.0 0.0 -1.0
vn 0.0 0.0 -1.0
vn 0.0 0.0 -1.0
vn 0.0 -0.0 -1.0
vn 0.0 -0.0 -1.0
vn 0.0 0.0 -1.0
vn 0.0 0.0 -1.0
vn 0.0 0.0 -1.0
vn 0.0 -0.0 -1.0
vn 0.0 -0.0 -1.0
vn -0.0 0.0 -1.0
vn 0.0 0.0 -1.0
vn 0.0 0.0 -1.0
vn 0.0 0.0 -1.0
vn 0.0 0.0 -1.0
vn 0.0 0.0 -1.0
vn -0.0 0.0 -1.0
vn 0.0 -0.0 -1.0
vn 0.0 0.0 -1.0
vn 0.0 0.0 -1.0
vn 0.0 0.0 -1.0
vn -0.0 0.0 -1.0
vn 0.0 0.0 -1.0
vn 0.0 0.0 -1.0
vn 0.0 0.0 -1.0
vn 0.0 0.0 -1.0
vn -0.0 0.0 -1.0
vn 0.0 -0.0 -1.0
vn 0.0 0.0 -1.0
vn 0.0 -0.0 -1.0
vn -0.0 0.0 -1.0
vn 0.0 0.0 -1.0
vn 0.0 0.0 -1.0
vn 0.0 0.0 -1.0
vn 0.0 0.0 -1.0
vn 0.0 0.0 -1.0
vn 0.0 0.0 -1.0
vn 0.0 0.0 -1.0
vn 0.0 0.0 -1.0
vn 0.0 0.0 -1.0
vn 0.0 0.0 -1.0
vn 0.0 0.0 -1.0
vn 0.0 0.0 -1.0
vn 0.0 0.0 -1.0
vn -0.0 0.0 -1.0
vn 0.0 0.0 -1.0
vn -0.0 -0.0 -1.0
vn 0.0 0.0 -1.0
vn -0.0 0.0 -1.0
vn 0.0 0.0 -1.0
vn 0.0 0.0 -1.0
vn 0.0 0.0 -1.0
vn 0.0 -0.0 -1.0
vn 0.0 0.0 -1.0
vn 0.0 0.0 -1.0
vn -0.0 0.0 -1.0
vn 0.0 0.0 -1.0
vn 0.0 0.0 -1.0
vn 0.0 0.0 -1.0
vn 0.0 0.0 -1.0
vn 0.0 0.0 -1.0
vn 0.0 0.0 -1.0
vn 0.0 0.0 -1.0
vn -0.0 0.0 -1.0
vn 0.0 0.0 -1.0
vn 0.0 0.0 -1.0
vn 0.0 0.0 -1.0
vn -0.0 0.0 -1.0
vn 0.0 -0.0 -1.0
vn 0.0 -0.0 -1.0
vn 0.0 0.0 -1.0
vn 0.0 -0.0 -1.0
vn 0.0 0.0 -1.0
vn 0.0 0.0 -1.0
vn 0.0 0.0 -1.0
vn 0.0 0.0 -1.0
vn 0.0 0.0 -1.0
vn 0.0 0.0 -1.0
vn 0.0 0.0 -1.0
vn -0.0 0.0 -1.0
vn 0.0 0.0 -1.0
vn 0.0 -0.0 -1.0
vn 0.0 0.0 -1.0
vn 0.0 -0.0 -1.0
vn 0.0 0.0 -1.0
vn 0.0 -0.0 -1.0
vn 0.0 0.0 -1.0
vn 0.0 0.0 -1.0
vn 0.0 0.0 -1.0
vn 0.0 0.0 -1.0
vn 0.0 0.0 -1.0
vn 0.0 0.0 -1.0
vn -0.0 0.0 -1.0
vn 0.0 0.0 -1.0
vn 0.0 0.0 -1.0
vn 0.0 0.0 -1.0
vn 0.0 0.0 -1.0
vn -0.0 0.0 -1.0
vn 0.0 0.0 -1.0
vn 0.0 -0.0 -1.0
vn 0.0 0.0 -1.0
vn 0.0 0.0 -1.0
vn 0.0 -0.0 -1.0
vn -0.0 0.0 -1.0
vn 0.0 0.0 -1.0
vn 0.0 0.0 -1.0
vn 0.0 0.0 -1.0
vn 0.0 0.0 -1.0
vn 0.0 0.0 -1.0
vn -0.0 0.0 -1.0
vn -0.0 0.0 -1.0
vn 0.0 -0.0 -1.0
vn 0.0 0.0 -1.0
vn 0.0 0.0 -1.0
vn 0.0 0.0 -1.0
vn 0.0 0.0 1.0
vn 0.0 0.0 1.0
vn 0.0 0.0 1.0
vn 0.0 -0.0 1.0
vn 0.0 0.0 1.0
vn -0.0 0.0 1.0
vn 0.0 0.0 1.0
vn 0.0 0.0 1.0
vn 0.0 -0.0 1.0
vn 0.0 0.0 1.0
vn 0.0 0.0 1.0
vn 0.0 -0.0 1.0
vn 0.0 0.0 1.0
vn -0.0 0.0 1.0
vn 0.0 0.0 1.0
vn 0.0 0.0 1.0
vn 0.0 -0.0 1.0
vn 0.0 0.0 1.0
vn 0.0 0.0 1.0
vn 0.0 0.0 1.0
vn 0.0 0.0 1.0
vn 0.0 0.0 1.0
vn -0.0 0.0 1.0
vn 0.0 -0.0 1.0
vn 0.0 0.0 1.0
vn 0.0 0.0 1.0
vn 0.0 0.0 1.0
vn -0.0 0.0 1.0
vn 0.0 -0.0 1.0
vn 0.0 -0.0 1.0
vn 0.0 -0.0 1.0
vn -0.0 0.0 1.0
vn -0.0 0.0 1.0
vn 0.0 0.0 1.0
vn 0.0 0.0 1.0
vn 0.0 0.0 1.0
vn 0.0 0.0 1.0
vn 0.0 0.0 1.0
vn 0.0 0.0 1.0
vn 0.0 0.0 1.0
vn -0.0 0.0 1.0
vn 0.0 0.0 1.0
vn 0.0 0.0 1.0
vn 0.0 0.0 1.0
vn 0.0 0.0 1.0
vn 0.0 -0.0 1.0
vn 0.0 0.0 1.0
vn 0.0 0.0 1.0
vn 0.0 0.0 1.0
vn 0.0 0.0 1.0
vn -0.0 0.0 1.0
vn -0.0 0.0 1.0
vn -0.0 0.0 1.0
vn 0.0 0.0 1.0
vn 0.0 0.0 1.0
vn -0.0 0.0 1.0
vn 0.0 0.0 1.0
vn 0.0 0.0 1.0
vn -0.0 0.0 1.0
vn 0.0 0.0 1.0
vn 0.0 0.0 1.0
vn 0.0 -0.0 1.0
vn 0.0 0.0 1.0
vn 0.0 0.0 1.0
vn 0.0 0.0 1.0
vn 0.0 0.0 1.0
vn 0.0 0.0 1.0
vn 0.0 0.0 1.0
vn 0.0 0.0 1.0
vn 0.0 0.0 1.0
vn 0.0 0.0 1.0
vn -0.0 0.0 1.0
vn -0.0 0.0 1.0
vn 0.0 0.0 1.0
vn 0.0 -0.0 1.0
vn 0.0 0.0 1.0
vn 0.0 -0.0 1.0
vn 0.0 -0.0 1.0
vn 0.0 0.0 1.0
vn 0.0 0.0 1.0
vn 0.0 0.0 1.0
vn 0.0 0.0 1.0
vn 0.0 0.0 1.0
vn 0.0 0.0 1.0
vn 0.0 0.0 1.0
vn 0.0 0.0 1.0
vn 0.0 0.0 1.0
vn 0.0 0.0 1.0
vn 0.0 0.0 1.0
vn 0.0 0.0 1.0
vn 0.0 0.0 1.0
vn -0.0 0.0 1.0
vn 0.0 0.0 1.0
vn 0.0 -0.0 1.0
vn 0.0 0.0 1.0
vn 0.0 0.0 1.0
vn -0.0 0.0 1.0
vn 0.0 0.0 1.0
vn 0.0 0.0 1.0
vn 0.0 0.0 1.0
vn 0.0 0.0 1.0
vn 0.0 0.0 1.0
vn 0.0 0.0 1.0
vn -0.0 0.0 1.0
vn -0.0 0.0 1.0
vn 0.0 0.0 1.0
vn -0.0 0.0 1.0
vn 0.0 0.0 1.0
vn -0.0 0.0 1.0
vn 0.0 -0.0 1.0
vn 0.0 0.0 1.0
vn 0.0 0.0 1.0
vn 0.0 0.0 1.0
vn 0.0 0.0 1.0
vn 0.0 0.0 1.0
vn 0.0 0.0 1.0
vn 0.0 0.0 1.0
vn 0.0 0.0 1.0
vn 0.0 0.0 1.0
vn 0.0 0.0 1.0
vn 0.0 0.0 1.0
vn 0.0 -0.0 1.0
vn 0.0 0.0 1.0
vn -0.0 0.0 1.0
vn 0.0 -0.0 1.0
vn -0.0 0.0 1.0
vn 0.0 0.0 1.0
vn 0.0 0.0 1.0
vn 0.0 0.0 1.0
vn 0.0 0.0 1.0
vn 0.0 0.0 1.0
vn 0.0 0.0 1.0
vn 0.0 0.0 1.0
vn 0.0 0.0 1.0
vn -0.0 0.0 1.0
vn 0.0 -0.0 1.0
vn 0.0 -0.0 1.0
vn 0.0 -0.0 1.0
vn 0.321589 -0.946879 0.0
vn 0.321589 -0.946879 0.0
vn 0.549052 -0.835788 0.0
vn 0.549052 -0.835788 0.0
vn 0.738642 -0.674098 0.0
vn 0.738642 -0.674098 0.0
vn 0.867913 -0.496716 0.0
vn 0.867913 -0.496716 0.0
vn 0.945634 -0.325234 0.0
vn 0.945634 -0.325234 0.0
vn 0.984512 -0.175319 0.0
vn 0.984512 -0.175319 0.0
vn 0.998639 -0.052146 0.0
vn 0.998639 -0.052146 0.0
vn 0.998727 0.05045 0.0
vn 0.998727 0.05045 -0.0
vn 0.986321 0.164835 0.0
vn 0.986321 0.164835 -0.0
vn 0.955018 0.296548 0.0
vn 0.955018 0.296548 -0.0
vn 0.897608 0.440795 0.0
vn 0.897608 0.440795 -0.0
vn 0.805477 0.592627 0.0
vn 0.805477 0.592627 -0.0
vn 0.665933 0.746011 0.0
vn 0.665933 0.746011 -0.0
vn 0.485721 0.874114 0.0
vn 0.485721 0.874114 -0.0
vn 0.288199 0.957571 0.0
vn 0.288199 0.957571 -0.0
vn 1.0 0.0 0.0
vn 1.0 0.0 -0.0
vn 0.39193 -0.919995 0.0
vn 0.39193 -0.919995 0.0
vn 0.564614 -0.825355 0.0
vn 0.564614 -0.825355 0.0
vn 0.716699 -0.697383 0.0
vn 0.716699 -0.697383 0.0
vn 0.833447 -0.552599 0.0
vn 0.833447 -0.552599 0.0
vn 0.912681 -0.408673 0.0
vn 0.912681 -0.408673 0.0
vn 0.962154 -0.272506 0.0
vn 0.962154 -0.272506 0.0
vn 0.988574 -0.150734 0.0
vn 0.988574 -0.150734 0.0
vn 0.998939 -0.046044 0.0
vn 0.998939 -0.046044 0.0
vn 0.99843 0.056022 0.0
vn 0.99843 0.056022 -0.0
vn 0.982394 0.186823 0.0
vn 0.982394 0.186823 -0.0
vn 0.939614 0.342236 0.0
vn 0.939614 0.342236 -0.0
vn 0.857738 0.514088 0.0
vn 0.857738 0.514088 -0.0
vn 0.728256 0.685305 0.0
vn 0.728256 0.685305 -0.0
vn 0.542116 0.840304 0.0
vn 0.542116 0.840304 -0.0
vn 0.318974 0.947764 0.0
vn 0.318974 0.947764 -0.0
vn 0.09866 0.995121 0.0
vn 0.09866 0.995121 -0.0
vn -0.107649 0.994189 0.0
vn -0.107649 0.994189 0.0
vn -0.33946 0.94062 0.0
vn -0.33946 0.94062 0.0
vn -0.560272 0.828308 0.0
vn -0.560272 0.828308 0.0
vn -0.734323 0.6788 0.0
vn -0.734323 0.6788 0.0
vn -0.851937 0.523645 0.0
vn -0.851937 0.523645 0.0
vn -0.927819 0.37303 0.0
vn -0.927819 0.37303 0.0
vn -0.971353 0.237641 0.0
vn -0.971353 0.237641 0.0
vn -0.992483 0.12238 0.0
vn -0.992483 0.12238 0.0
vn -0.117865 -0.99303 0.0
vn -0.117865 -0.99303 0.0
vn 0.99515 -0.098371 0.0
vn 0.99515 -0.098371 0.0
vn 0.979427 -0.201797 0.0
vn 0.979427 -0.201797 0.0
vn 0.944765 -0.327748 0.0
vn 0.944765 -0.327748 0.0
vn 0.879465 -0.475964 0.0
vn 0.879465 -0.475964 0.0
vn 0.771716 -0.635968 0.0
vn 0.771716 -0.635968 0.0
vn 0.603453 -0.797399 0.0
vn 0.603453 -0.797399 0.0
vn 0.373817 -0.927503 0.0
vn 0.373817 -0.927503 0.0
vn 0.119916 -0.992784 0.0
vn 0.119916 -0.992784 0.0
vn -0.117136 -0.993116 0.0
vn -0.117136 -0.993116 0.0
vn -0.375756 -0.926719 0.0
vn -0.375756 -0.926719 0.0
vn -0.620381 -0.7843 0.0
vn -0.620381 -0.7843 0.0
vn -0.800432 -0.599424 0.0
vn -0.800432 -0.599424 0.0
vn -0.905062 -0.42528 0.0
vn -0.905062 -0.42528 0.0
vn -0.961408 -0.275125 0.0
vn -0.961408 -0.275125 0.0
vn -0.988991 -0.147973 0.0
vn -0.988991 -0.147973 0.0
vn -0.999024 -0.044161 0.0
vn -0.999024 -0.044161 0.0
vn -0.998609 0.052719 0.0
vn -0.998609 0.052719 0.0
vn -0.98411 0.177561 0.0
vn -0.98411 0.177561 0.0
vn -0.943974 0.330019 0.0
vn -0.943974 0.330019 0.0
vn -0.863431 0.504467 0.0
vn -0.863431 0.504467 0.0
vn -0.725268 0.688467 0.0
vn -0.725268 0.688467 0.0
vn -0.525307 0.850913 0.0
vn -0.525307 0.850913 0.0
vn -0.299631 0.954055 0.0
vn -0.299631 0.954055 0.0
vn -0.090454 0.995901 0.0
vn -0.090454 0.995901 0.0
vn 0.0 1.0 0.0
vn 0.0 1.0 0.0
vn -1.0 0.0 0.0
vn -1.0 0.0 0.0
vn 0.0 -1.0 0.0
vn 0.0 -1.0 0.0
vn -0.082545 -0.996587 0.0
vn -0.082545 -0.996587 0.0
vn -0.275064 -0.961426 0.0
vn -0.275064 -0.961426 0.0
vn -0.489692 -0.871896 0.0
vn -0.489692 -0.871896 0.0
vn -0.691157 -0.722705 0.0
vn -0.691157 -0.722705 0.0
vn -0.841009 -0.541022 0.0
vn -0.841009 -0.541022 0.0
vn -0.933696 -0.358066 0.0
vn -0.933696 -0.358066 0.0
vn -0.981066 -0.193674 0.0
vn -0.981066 -0.193674 0.0
vn -0.998344 -0.057527 0.0
vn -0.998344 -0.057527 0.0
vn -0.999052 0.043543 0.0
vn -0.999052 0.043543 0.0
vn -0.988707 0.149858 0.0
vn -0.988707 0.149858 0.0
vn -0.957679 0.287839 0.0
vn -0.957679 0.287839 0.0
vn -0.887512 0.460784 0.0
vn -0.887512 0.460784 0.0
vn -0.763726 0.645541 0.0
vn -0.763726 0.645541 0.0
vn -0.581407 0.813613 0.0
vn -0.581407 0.813613 0.0
vn -0.348192 0.937423 0.0
vn -0.348192 0.937423 0.0
vn -0.108545 0.994092 0.0
vn -0.108545 0.994092 0.0
vn 0.226495 0.974012 0.0
vn 0.226495 0.974012 -0.0
vn 0.67783 0.735219 0.0
vn 0.67783 0.735219 -0.0
vn 0.914794 0.40392 0.0
vn 0.914794 0.40392 -0.0
vn 0.986513 0.163683 0.0
vn 0.986513 0.163683 -0.0
vn -0.144217 0.989546 0.0
vn -0.144217 0.989546 0.0
vn -0.992954 -0.1185 0.0
vn -0.992954 -0.1185 0.0
vn -0.972636 -0.232335 0.0
vn -0.972636 -0.232335 0.0
vn -0.929054 -0.369943 0.0
vn -0.929054 -0.369943 0.0
vn -0.849515 -0.527565 0.0
vn -0.849515 -0.527565 0.0
vn -0.722998 -0.69085 0.0
vn -0.722998 -0.69085 0.0
vn -0.541728 -0.840554 0.0
vn -0.541728 -0.840554 0.0
vn -0.321844 -0.946793 0.0
vn -0.321844 -0.946793 0.0
vn -0.100564 -0.994931 0.0
vn -0.100564 -0.994931 0.0
vn 0.098987 -0.995089 0.0
vn 0.098987 -0.995089 0.0
vn 0.279021 -0.960285 0.0
vn 0.279021 -0.960285 0.0
vn 0.458667 -0.888608 0.0
vn 0.458667 -0.888608 0.0
vn 0.611753 -0.791049 0.0
vn 0.611753 -0.791049 0.0
vn 0.733395 -0.679803 0.0
vn 0.733395 -0.679803 0.0
vn 0.827133 -0.562007 0.0
vn 0.827133 -0.562007 0.0
vn 0.893429 -0.449204 0.0
vn 0.893429 -0.449204 0.0
vn 0.937779 -0.347233 0.0
vn 0.937779 -0.347233 0.0
vn 0.966663 -0.256052 0.0
vn 0.966663 -0.256052 0.0
vn 0.985046 -0.172291 0.0
vn 0.985046 -0.172291 0.0
vn 0.995272 -0.097131 0.0
vn 0.995272 -0.097131 0.0
vn 0.999538 -0.030379 0.0
vn 0.999538 -0.030379 0.0
vn 0.998927 0.046315 0.0
vn 0.998927 0.046315 -0.0
vn 0.987656 0.15664 0.0
vn 0.987656 0.15664 -0.0
vn 0.955835 0.293903 0.0
vn 0.955835 0.293903 -0.0
vn 0.889151 0.457614 0.0
vn 0.889151 0.457614 -0.0
vn 0.772609 0.634882 0.0
vn 0.772609 0.634882 -0.0
vn 0.590784 0.80683 0.0
vn 0.590784 0.80683 -0.0
vn 0.354833 0.93493 0.0
vn 0.354833 0.93493 -0.0
vn 0.110649 0.99386 0.0
vn 0.110649 0.99386 -0.0
vn 0.0 1.0 0.0
vn 0.0 1.0 0.0
vn -1.0 0.0 0.0
vn -1.0 0.0 0.0
vn 0.0 -1.0 0.0
vn 0.0 -1.0 0.0
vn 0.090921 -0.995858 0.0
vn 0.090921 -0.995858 0.0
vn 1.0 0.0 -0.0
vn 1.0 -0.0 0.0
vn 0.0 -1.0 0.0
vn 0.0 -1.0 0.0
vn -0.119771 -0.992802 0.0
vn -0.119771 -0.992802 -0.0
vn -0.381234 -0.924479 0.0
vn -0.381234 -0.924479 -0.0
vn -0.624025 -0.781404 0.0
vn -0.624025 -0.781404 -0.0
vn -0.800188 -0.599749 0.0
vn -0.800188 -0.599749 -0.0
vn -0.906418 -0.422381 0.0
vn -0.906418 -0.422381 -0.0
vn -0.963729 -0.266884 0.0
vn -0.963729 -0.266884 -0.0
vn -0.990043 -0.140767 0.0
vn -0.990043 -0.140767 -0.0
vn -0.999143 -0.041395 0.0
vn -0.999143 -0.041395 -0.0
vn -0.999226 0.039336 0.0
vn -0.999226 0.039336 0.0
vn -0.991292 0.131678 0.0
vn -0.991292 0.131678 0.0
vn -0.969548 0.2449 0.0
vn -0.969548 0.2449 0.0
vn -0.924638 0.380848 0.0
vn -0.924638 0.380848 0.0
vn -0.843288 0.537463 0.0
vn -0.843288 0.537463 0.0
vn -0.694782 0.71922 0.0
vn -0.694782 0.71922 0.0
vn -0.453811 0.891098 0.0
vn -0.453811 0.891098 0.0
vn -0.149697 0.988732 0.0
vn -0.149697 0.988732 0.0
vn 0.0 1.0 0.0
vn 0.0 1.0 0.0
f 227//1 221//1 231//1 
f 195//2 141//2 193//2 
f 137//3 189//3 193//3 
f 95//4 113//4 105//4 
f 155//5 161//5 133//5 
f 147//6 121//6 105//6 
f 147//7 155//7 121//7 
f 105//8 113//8 147//8 
f 229//9 243//9 237//9 
f 83//10 75//10 113//10 
f 95//11 83//11 113//11 
f 67//12 113//12 75//12 
f 191//13 187//13 135//13 
f 67//14 75//14 61//14 
f 47//15 23//15 49//15 
f 65//16 63//16 69//16 
f 119//17 181//17 125//17 
f 127//18 125//18 185//18 
f 181//19 119//19 175//19 
f 183//20 177//20 127//20 
f 203//21 199//21 207//21 
f 167//22 175//22 119//22 
f 127//23 177//23 123//23 
f 103//24 157//24 109//24 
f 267//25 247//25 271//25 
f 263//26 241//26 267//26 
f 131//27 149//27 93//27 
f 251//28 273//28 247//28 
f 69//29 91//29 77//29 
f 235//30 263//30 261//30 
f 93//31 149//31 103//31 
f 223//32 225//32 215//32 
f 207//33 213//33 205//33 
f 63//34 57//34 53//34 
f 49//35 23//35 35//35 
f 39//36 19//36 47//36 
f 37//37 15//37 39//37 
f 37//38 11//38 15//38 
f 31//39 7//39 11//39 
f 37//40 31//40 11//40 
f 7//41 27//41 5//41 
f 87//42 99//42 115//42 
f 113//43 67//43 79//43 
f 17//44 29//44 41//44 
f 31//45 27//45 7//45 
f 117//46 165//46 159//46 
f 15//47 19//47 39//47 
f 107//48 117//48 151//48 
f 19//49 23//49 47//49 
f 57//50 49//50 35//50 
f 53//51 57//51 35//51 
f 69//52 63//52 53//52 
f 69//53 77//53 65//53 
f 131//54 85//54 91//54 
f 85//55 77//55 91//55 
f 131//56 93//56 85//56 
f 103//57 149//57 157//57 
f 109//58 157//58 167//58 
f 167//59 119//59 109//59 
f 125//60 181//60 185//60 
f 183//61 127//61 185//61 
f 123//62 177//62 171//62 
f 165//63 117//63 123//63 
f 165//64 123//64 171//64 
f 151//65 117//65 159//65 
f 145//66 107//66 151//66 
f 145//67 99//67 107//67 
f 145//68 115//68 99//68 
f 115//69 79//69 87//69 
f 115//70 113//70 79//70 
f 61//71 43//71 59//71 
f 59//72 43//72 45//72 
f 67//73 61//73 59//73 
f 101//74 111//74 153//74 
f 135//75 187//75 173//75 
f 161//76 169//76 133//76 
f 121//77 155//77 133//77 
f 133//78 169//78 137//78 
f 189//79 137//79 179//79 
f 137//80 169//80 179//80 
f 141//81 137//81 193//81 
f 191//82 139//82 195//82 
f 139//83 141//83 195//83 
f 191//84 135//84 139//84 
f 129//85 135//85 173//85 
f 163//86 129//86 173//86 
f 163//87 153//87 111//87 
f 163//88 111//88 129//88 
f 143//89 101//89 153//89 
f 143//90 89//90 101//90 
f 143//91 97//91 89//91 
f 89//92 97//92 81//92 
f 81//93 97//93 73//93 
f 71//94 81//94 73//94 
f 55//95 71//95 51//95 
f 3//96 25//96 29//96 
f 25//97 3//97 1//97 
f 9//98 3//98 29//98 
f 13//99 9//99 29//99 
f 17//100 13//100 29//100 
f 21//101 17//101 41//101 
f 33//102 21//102 41//102 
f 55//103 33//103 41//103 
f 55//104 51//104 33//104 
f 71//105 73//105 51//105 
f 251//106 255//106 277//106 
f 235//107 257//107 229//107 
f 279//108 255//108 249//108 
f 269//109 275//109 245//109 
f 207//110 219//110 213//110 
f 213//111 219//111 221//111 
f 221//112 219//112 231//112 
f 233//113 253//113 259//113 
f 245//114 265//114 269//114 
f 207//115 205//115 203//115 
f 201//116 197//116 199//116 
f 201//117 199//117 203//117 
f 211//118 215//118 217//118 
f 211//119 197//119 201//119 
f 211//120 201//120 209//120 
f 253//121 227//121 231//121 
f 227//122 253//122 233//122 
f 259//123 265//123 239//123 
f 259//124 239//124 233//124 
f 239//125 265//125 245//125 
f 275//126 279//126 249//126 
f 275//127 249//127 245//127 
f 277//128 255//128 279//128 
f 273//129 251//129 277//129 
f 271//130 247//130 273//130 
f 267//131 241//131 247//131 
f 263//132 235//132 241//132 
f 261//133 257//133 235//133 
f 257//134 243//134 229//134 
f 229//135 237//135 223//135 
f 223//136 237//136 225//136 
f 209//137 215//137 211//137 
f 215//138 225//138 217//138 
f 232//139 222//139 228//139 
f 194//140 142//140 196//140 
f 194//141 190//141 138//141 
f 106//142 114//142 96//142 
f 134//143 162//143 156//143 
f 106//144 122//144 148//144 
f 122//145 156//145 148//145 
f 148//146 114//146 106//146 
f 238//147 244//147 230//147 
f 114//148 76//148 84//148 
f 114//149 84//149 96//149 
f 76//150 114//150 68//150 
f 136//151 188//151 192//151 
f 62//152 76//152 68//152 
f 50//153 24//153 48//153 
f 70//154 64//154 66//154 
f 126//155 182//155 120//155 
f 186//156 126//156 128//156 
f 176//157 120//157 182//157 
f 128//158 178//158 184//158 
f 208//159 200//159 204//159 
f 120//160 176//160 168//160 
f 124//161 178//161 128//161 
f 110//162 158//162 104//162 
f 272//163 248//163 268//163 
f 268//164 242//164 264//164 
f 94//165 150//165 132//165 
f 248//166 274//166 252//166 
f 78//167 92//167 70//167 
f 262//168 264//168 236//168 
f 104//169 150//169 94//169 
f 216//170 226//170 224//170 
f 206//171 214//171 208//171 
f 54//172 58//172 64//172 
f 36//173 24//173 50//173 
f 48//174 20//174 40//174 
f 40//175 16//175 38//175 
f 16//176 12//176 38//176 
f 12//177 8//177 32//177 
f 12//178 32//178 38//178 
f 6//179 28//179 8//179 
f 116//180 100//180 88//180 
f 80//181 68//181 114//181 
f 42//182 30//182 18//182 
f 8//183 28//183 32//183 
f 160//184 166//184 118//184 
f 40//185 20//185 16//185 
f 152//186 118//186 108//186 
f 48//187 24//187 20//187 
f 36//188 50//188 58//188 
f 36//189 58//189 54//189 
f 54//190 64//190 70//190 
f 66//191 78//191 70//191 
f 92//192 86//192 132//192 
f 92//193 78//193 86//193 
f 86//194 94//194 132//194 
f 158//195 150//195 104//195 
f 168//196 158//196 110//196 
f 110//197 120//197 168//197 
f 186//198 182//198 126//198 
f 186//199 128//199 184//199 
f 172//200 178//200 124//200 
f 124//201 118//201 166//201 
f 172//202 124//202 166//202 
f 160//203 118//203 152//203 
f 152//204 108//204 146//204 
f 108//205 100//205 146//205 
f 100//206 116//206 146//206 
f 88//207 80//207 116//207 
f 80//208 114//208 116//208 
f 60//209 44//209 62//209 
f 46//210 44//210 60//210 
f 60//211 62//211 68//211 
f 154//212 112//212 102//212 
f 174//213 188//213 136//213 
f 134//214 170//214 162//214 
f 134//215 156//215 122//215 
f 138//216 170//216 134//216 
f 180//217 138//217 190//217 
f 180//218 170//218 138//218 
f 194//219 138//219 142//219 
f 196//220 140//220 192//220 
f 196//221 142//221 140//221 
f 140//222 136//222 192//222 
f 174//223 136//223 130//223 
f 174//224 130//224 164//224 
f 112//225 154//225 164//225 
f 130//226 112//226 164//226 
f 154//227 102//227 144//227 
f 102//228 90//228 144//228 
f 90//229 98//229 144//229 
f 82//230 98//230 90//230 
f 74//231 98//231 82//231 
f 74//232 82//232 72//232 
f 52//233 72//233 56//233 
f 30//234 26//234 4//234 
f 2//235 4//235 26//235 
f 30//236 4//236 10//236 
f 30//237 10//237 14//237 
f 30//238 14//238 18//238 
f 42//239 18//239 22//239 
f 42//240 22//240 34//240 
f 42//241 34//241 56//241 
f 34//242 52//242 56//242 
f 52//243 74//243 72//243 
f 278//244 256//244 252//244 
f 230//245 258//245 236//245 
f 250//246 256//246 280//246 
f 246//247 276//247 270//247 
f 214//248 220//248 208//248 
f 222//249 220//249 214//249 
f 232//250 220//250 222//250 
f 260//251 254//251 234//251 
f 270//252 266//252 246//252 
f 204//253 206//253 208//253 
f 200//254 198//254 202//254 
f 204//255 200//255 202//255 
f 218//256 216//256 212//256 
f 202//257 198//257 212//257 
f 210//258 202//258 212//258 
f 232//259 228//259 254//259 
f 234//260 254//260 228//260 
f 240//261 266//261 260//261 
f 234//262 240//262 260//262 
f 246//263 266//263 240//263 
f 250//264 280//264 276//264 
f 246//265 250//265 276//265 
f 280//266 256//266 278//266 
f 278//267 252//267 274//267 
f 274//268 248//268 272//268 
f 248//269 242//269 268//269 
f 242//270 236//270 264//270 
f 236//271 258//271 262//271 
f 230//272 244//272 258//272 
f 224//273 238//273 230//273 
f 226//274 238//274 224//274 
f 212//275 216//275 210//275 
f 218//276 226//276 216//276 
f 143//277 98//277 97//277 
f 143//278 144//278 98//278 
f 153//279 144//279 143//279 
f 153//280 154//280 144//280 
f 163//281 154//281 153//281 
f 163//282 164//282 154//282 
f 173//283 164//283 163//283 
f 173//284 174//284 164//284 
f 187//285 174//285 173//285 
f 187//286 188//286 174//286 
f 191//287 188//287 187//287 
f 191//288 192//288 188//288 
f 195//289 192//289 191//289 
f 195//290 196//290 192//290 
f 193//291 196//291 195//291 
f 193//292 194//292 196//292 
f 189//293 194//293 193//293 
f 189//294 190//294 194//294 
f 179//295 190//295 189//295 
f 179//296 180//296 190//296 
f 169//297 180//297 179//297 
f 169//298 170//298 180//298 
f 161//299 170//299 169//299 
f 161//300 162//300 170//300 
f 155//301 162//301 161//301 
f 155//302 156//302 162//302 
f 147//303 156//303 155//303 
f 147//304 148//304 156//304 
f 113//305 148//305 147//305 
f 113//306 114//306 148//306 
f 115//307 114//307 113//307 
f 115//308 116//308 114//308 
f 145//309 116//309 115//309 
f 145//310 146//310 116//310 
f 151//311 146//311 145//311 
f 151//312 152//312 146//312 
f 159//313 152//313 151//313 
f 159//314 160//314 152//314 
f 165//315 160//315 159//315 
f 165//316 166//316 160//316 
f 171//317 166//317 165//317 
f 171//318 172//318 166//318 
f 177//319 172//319 171//319 
f 177//320 178//320 172//320 
f 183//321 178//321 177//321 
f 183//322 184//322 178//322 
f 185//323 184//323 183//323 
f 185//324 186//324 184//324 
f 181//325 186//325 185//325 
f 181//326 182//326 186//326 
f 175//327 182//327 181//327 
f 175//328 176//328 182//328 
f 167//329 176//329 175//329 
f 167//330 168//330 176//330 
f 157//331 168//331 167//331 
f 157//332 158//332 168//332 
f 149//333 158//333 157//333 
f 149//334 150//334 158//334 
f 131//335 150//335 149//335 
f 131//336 132//336 150//336 
f 91//337 132//337 131//337 
f 91//338 92//338 132//338 
f 69//339 92//339 91//339 
f 69//340 70//340 92//340 
f 53//341 70//341 69//341 
f 53//342 54//342 70//342 
f 35//343 54//343 53//343 
f 35//344 36//344 54//344 
f 23//345 36//345 35//345 
f 23//346 24//346 36//346 
f 19//347 24//347 23//347 
f 19//348 20//348 24//348 
f 15//349 20//349 19//349 
f 15//350 16//350 20//350 
f 11//351 16//351 15//351 
f 11//352 12//352 16//352 
f 7//353 12//353 11//353 
f 7//354 8//354 12//354 
f 5//355 8//355 7//355 
f 5//356 6//356 8//356 
f 27//357 6//357 5//357 
f 27//358 28//358 6//358 
f 31//359 28//359 27//359 
f 31//360 32//360 28//360 
f 37//361 32//361 31//361 
f 37//362 38//362 32//362 
f 39//363 38//363 37//363 
f 39//364 40//364 38//364 
f 47//365 40//365 39//365 
f 47//366 48//366 40//366 
f 49//367 48//367 47//367 
f 49//368 50//368 48//368 
f 57//369 50//369 49//369 
f 57//370 58//370 50//370 
f 63//371 58//371 57//371 
f 63//372 64//372 58//372 
f 65//373 64//373 63//373 
f 65//374 66//374 64//374 
f 77//375 66//375 65//375 
f 77//376 78//376 66//376 
f 85//377 78//377 77//377 
f 85//378 86//378 78//378 
f 93//379 86//379 85//379 
f 93//380 94//380 86//380 
f 103//381 94//381 93//381 
f 103//382 104//382 94//382 
f 109//383 104//383 103//383 
f 109//384 110//384 104//384 
f 119//385 110//385 109//385 
f 119//386 120//386 110//386 
f 125//387 120//387 119//387 
f 125//388 126//388 120//388 
f 127//389 126//389 125//389 
f 127//390 128//390 126//390 
f 123//391 128//391 127//391 
f 123//392 124//392 128//392 
f 117//393 124//393 123//393 
f 117//394 118//394 124//394 
f 107//395 118//395 117//395 
f 107//396 108//396 118//396 
f 99//397 108//397 107//397 
f 99//398 100//398 108//398 
f 87//399 100//399 99//399 
f 87//400 88//400 100//400 
f 79//401 88//401 87//401 
f 79//402 80//402 88//402 
f 67//403 80//403 79//403 
f 67//404 68//404 80//404 
f 59//405 68//405 67//405 
f 59//406 60//406 68//406 
f 45//407 60//407 59//407 
f 45//408 46//408 60//408 
f 43//409 46//409 45//409 
f 43//410 44//410 46//410 
f 61//411 44//411 43//411 
f 61//412 62//412 44//412 
f 75//413 62//413 61//413 
f 75//414 76//414 62//414 
f 83//415 76//415 75//415 
f 83//416 84//416 76//416 
f 95//417 84//417 83//417 
f 95//418 96//418 84//418 
f 105//419 96//419 95//419 
f 105//420 106//420 96//420 
f 121//421 106//421 105//421 
f 121//422 122//422 106//422 
f 133//423 122//423 121//423 
f 133//424 134//424 122//424 
f 137//425 134//425 133//425 
f 137//426 138//426 134//426 
f 141//427 138//427 137//427 
f 141//428 142//428 138//428 
f 139//429 142//429 141//429 
f 139//430 140//430 142//430 
f 135//431 140//431 139//431 
f 135//432 136//432 140//432 
f 129//433 136//433 135//433 
f 129//434 130//434 136//434 
f 111//435 130//435 129//435 
f 111//436 112//436 130//436 
f 101//437 112//437 111//437 
f 101//438 102//438 112//438 
f 89//439 102//439 101//439 
f 89//440 90//440 102//440 
f 81//441 90//441 89//441 
f 81//442 82//442 90//442 
f 71//443 82//443 81//443 
f 71//444 72//444 82//444 
f 55//445 72//445 71//445 
f 55//446 56//446 72//446 
f 41//447 56//447 55//447 
f 41//448 42//448 56//448 
f 29//449 42//449 41//449 
f 29//450 30//450 42//450 
f 25//451 30//451 29//451 
f 25//452 26//452 30//452 
f 1//453 26//453 25//453 
f 1//454 2//454 26//454 
f 3//455 2//455 1//455 
f 3//456 4//456 2//456 
f 9//457 4//457 3//457 
f 9//458 10//458 4//458 
f 13//459 10//459 9//459 
f 13//460 14//460 10//460 
f 17//461 14//461 13//461 
f 17//462 18//462 14//462 
f 21//463 18//463 17//463 
f 21//464 22//464 18//464 
f 33//465 22//465 21//465 
f 33//466 34//466 22//466 
f 51//467 34//467 33//467 
f 51//468 52//468 34//468 
f 73//469 52//469 51//469 
f 73//470 74//470 52//470 
f 97//471 74//471 73//471 
f 97//472 98//472 74//472 
f 225//473 218//473 217//473 
f 225//474 226//474 218//474 
f 237//475 226//475 225//475 
f 237//476 238//476 226//476 
f 243//477 238//477 237//477 
f 243//478 244//478 238//478 
f 257//479 244//479 243//479 
f 257//480 258//480 244//480 
f 261//481 258//481 257//481 
f 261//482 262//482 258//482 
f 263//483 262//483 261//483 
f 263//484 264//484 262//484 
f 267//485 264//485 263//485 
f 267//486 268//486 264//486 
f 271//487 268//487 267//487 
f 271//488 272//488 268//488 
f 273//489 272//489 271//489 
f 273//490 274//490 272//490 
f 277//491 274//491 273//491 
f 277//492 278//492 274//492 
f 279//493 278//493 277//493 
f 279//494 280//494 278//494 
f 275//495 280//495 279//495 
f 275//496 276//496 280//496 
f 269//497 276//497 275//497 
f 269//498 270//498 276//498 
f 265//499 270//499 269//499 
f 265//500 266//500 270//500 
f 259//501 266//501 265//501 
f 259//502 260//502 266//502 
f 253//503 260//503 259//503 
f 253//504 254//504 260//504 
f 231//505 254//505 253//505 
f 231//506 232//506 254//506 
f 219//507 232//507 231//507 
f 219//508 220//508 232//508 
f 207//509 220//509 219//509 
f 207//510 208//510 220//510 
f 199//511 208//511 207//511 
f 199//512 200//512 208//512 
f 197//513 200//513 199//513 
f 197//514 198//514 200//514 
f 211//515 198//515 197//515 
f 211//516 212//516 198//516 
f 217//517 212//517 211//517 
f 217//518 218//518 212//518 
f 203//519 204//519 201//519 
f 202//520 201//520 204//520 
f 205//521 206//521 203//521 
f 204//522 203//522 206//522 
f 213//523 214//523 205//523 
f 206//524 205//524 214//524 
f 221//525 222//525 213//525 
f 214//526 213//526 222//526 
f 227//527 228//527 221//527 
f 222//528 221//528 228//528 
f 233//529 234//529 227//529 
f 228//530 227//530 234//530 
f 239//531 240//531 233//531 
f 234//532 233//532 240//532 
f 245//533 246//533 239//533 
f 240//534 239//534 246//534 
f 249//535 250//535 245//535 
f 246//536 245//536 250//536 
f 255//537 256//537 249//537 
f 250//538 249//538 256//538 
f 251//539 252//539 255//539 
f 256//540 255//540 252//540 
f 247//541 248//541 251//541 
f 252//542 251//542 248//542 
f 241//543 242//543 247//543 
f 248//544 247//544 242//544 
f 235//545 236//545 241//545 
f 242//546 241//546 236//546 
f 229//547 230//547 235//547 
f 236//548 235//548 230//548 
f 223//549 224//549 229//549 
f 230//550 229//550 224//550 
f 215//551 216//551 223//551 
f 224//552 223//552 216//552 
f 209//553 210//553 215//553 
f 216//554 215//554 210//554 
f 201//555 202//555 209//555 
f 210//556 209//556 202//556 
