#Exported from google sketchup
mtllib lettreA.mtl
  v   1.2644   1.2933  -0.1334
  v   0.5791   1.1965   0.4228
  v   0.5198   1.1965  -0.0374
  v   1.3238   1.2933   0.3268
  v   1.9278   0.2393   0.2489
  v   2.2235   0.2855  -0.2571
  v   1.8684   0.2393  -0.2113
  v   2.2829   0.2855   0.2031
  v   0.7584   2.8262  -0.0681
  v   0.8177   2.8262   0.3921
  v   0.2355   2.7505   0.4671
  v   0.5791   0.0640   0.4228
  v   0.0873  -0.0000   0.4863
  v   0.5791   0.9699   0.4228
  v   1.4446   1.0824   0.3112
  v   0.5791   2.3290   0.4228
  v   0.7198   2.3472   0.4047
  v   0.1761   2.7505   0.0070
  v   0.0279  -0.0000   0.0261
  v   0.5198   0.0640  -0.0374
  v   0.5198   0.9699  -0.0374
  v   1.3853   1.0824  -0.1490
  v   0.5198   2.3290  -0.0374
  v   0.6604   2.3472  -0.0555
#  24 elements
  vt   0.0000   0.0000 0.0000
  vt   0.0000   0.0000 0.0000
  vt   0.0000   0.0000 0.0000
  vt   0.0000   0.0000 0.0000
  vt   0.0000   0.0000 0.0000
  vt   0.0000   0.0000 0.0000
  vt   0.0000   0.0000 0.0000
  vt   0.0000   0.0000 0.0000
  vt   0.0000   0.0000 0.0000
  vt   0.0000   0.0000 0.0000
  vt   0.0000   0.0000 0.0000
  vt   0.0000   0.0000 0.0000
  vt   0.0000   0.0000 0.0000
  vt   0.0000   0.0000 0.0000
  vt   0.0000   0.0000 0.0000
  vt   0.0000   0.0000 0.0000
  vt   0.0000   0.0000 0.0000
  vt   0.0000   0.0000 0.0000
  vt   0.0000   0.0000 0.0000
  vt   0.0000   0.0000 0.0000
  vt   0.0000   0.0000 0.0000
  vt   0.0000   0.0000 0.0000
  vt   0.0000   0.0000 0.0000
  vt   0.0000   0.0000 0.0000
#  24 elements
  vn  -0.1269   0.9918   0.0164
  vn   0.1269  -0.9918  -0.0164
  vn   0.8574   0.5026  -0.1106
  vn  -0.8574  -0.5026   0.1106
  vn   0.1279  -0.0000   0.9918
  vn  -0.1279   0.0000  -0.9918
  vn  -0.9903   0.0542   0.1277
  vn   0.9903  -0.0542  -0.1277
  vn   0.9918   0.0000  -0.1279
  vn  -0.9918  -0.0000   0.1279
  vn  -0.8587  -0.5003   0.1107
  vn   0.8587   0.5003  -0.1107
  vn   0.9918  -0.0000  -0.1279
  vn  -0.9918   0.0000   0.1279
#  14 elements
#  96 faces
usemtl Default_Material
f 3/3/1 2/2/1 1/1/1
f 4/4/1 1/1/1 2/2/1
f 1/1/2 2/2/2 3/3/2
f 2/2/2 1/1/2 4/4/2
f 7/7/2 6/6/2 5/5/2
f 8/8/2 5/5/2 6/6/2
f 5/5/1 6/6/1 7/7/1
f 6/6/1 5/5/1 8/8/1
f 6/6/3 9/9/3 8/8/3
f 10/10/3 8/8/3 9/9/3
f 8/8/4 9/9/4 6/6/4
f 9/9/4 8/8/4 10/10/4
f 13/13/5 12/12/5 11/11/5
f 14/14/5 11/11/5 12/12/5
f 2/2/5 11/11/5 14/14/5
f 15/15/5 2/2/5 14/14/5
f 16/16/5 11/11/5 2/2/5
f 17/17/5 11/11/5 16/16/5
f 5/5/5 8/8/5 15/15/5
f 10/10/5 15/15/5 8/8/5
f 4/4/5 15/15/5 10/10/5
f 2/2/5 15/15/5 4/4/5
f 17/17/5 4/4/5 10/10/5
f 11/11/5 17/17/5 10/10/5
f 11/11/6 12/12/6 13/13/6
f 12/12/6 11/11/6 14/14/6
f 14/14/6 11/11/6 2/2/6
f 14/14/6 2/2/6 15/15/6
f 2/2/6 11/11/6 16/16/6
f 16/16/6 11/11/6 17/17/6
f 15/15/6 8/8/6 5/5/6
f 8/8/6 15/15/6 10/10/6
f 10/10/6 15/15/6 4/4/6
f 4/4/6 15/15/6 2/2/6
f 10/10/6 4/4/6 17/17/6
f 10/10/6 17/17/6 11/11/6
f 18/18/1 11/11/1 9/9/1
f 10/10/1 9/9/1 11/11/1
f 9/9/2 11/11/2 18/18/2
f 11/11/2 9/9/2 10/10/2
f 18/18/7 19/19/7 11/11/7
f 13/13/7 11/11/7 19/19/7
f 11/11/8 19/19/8 18/18/8
f 19/19/8 11/11/8 13/13/8
f 19/19/2 20/20/2 13/13/2
f 12/12/2 13/13/2 20/20/2
f 13/13/1 20/20/1 19/19/1
f 20/20/1 13/13/1 12/12/1
f 20/20/9 21/21/9 12/12/9
f 14/14/9 12/12/9 21/21/9
f 12/12/10 21/21/10 20/20/10
f 21/21/10 12/12/10 14/14/10
f 21/21/2 22/22/2 14/14/2
f 15/15/2 14/14/2 22/22/2
f 14/14/1 22/22/1 21/21/1
f 22/22/1 14/14/1 15/15/1
f 7/7/11 5/5/11 22/22/11
f 15/15/11 22/22/11 5/5/11
f 22/22/12 5/5/12 7/7/12
f 5/5/12 22/22/12 15/15/12
f 3/3/13 23/23/13 2/2/13
f 16/16/13 2/2/13 23/23/13
f 2/2/14 23/23/14 3/3/14
f 23/23/14 2/2/14 16/16/14
f 23/23/2 24/24/2 16/16/2
f 17/17/2 16/16/2 24/24/2
f 16/16/1 24/24/1 23/23/1
f 24/24/1 16/16/1 17/17/1
f 1/1/11 4/4/11 24/24/11
f 17/17/11 24/24/11 4/4/11
f 24/24/12 4/4/12 1/1/12
f 4/4/12 24/24/12 17/17/12
f 7/7/6 22/22/6 6/6/6
f 9/9/6 6/6/6 22/22/6
f 1/1/6 9/9/6 22/22/6
f 3/3/6 1/1/6 22/22/6
f 24/24/6 9/9/6 1/1/6
f 18/18/6 9/9/6 24/24/6
f 19/19/6 18/18/6 20/20/6
f 21/21/6 20/20/6 18/18/6
f 3/3/6 21/21/6 18/18/6
f 22/22/6 21/21/6 3/3/6
f 23/23/6 3/3/6 18/18/6
f 24/24/6 23/23/6 18/18/6
f 6/6/5 22/22/5 7/7/5
f 22/22/5 6/6/5 9/9/5
f 22/22/5 9/9/5 1/1/5
f 22/22/5 1/1/5 3/3/5
f 1/1/5 9/9/5 24/24/5
f 24/24/5 9/9/5 18/18/5
f 20/20/5 18/18/5 19/19/5
f 18/18/5 20/20/5 21/21/5
f 18/18/5 21/21/5 3/3/5
f 3/3/5 21/21/5 22/22/5
f 18/18/5 3/3/5 23/23/5
f 18/18/5 23/23/5 24/24/5