#Exported from google sketchup
mtllib lettreR.mtl
  v  -4.0629 -11.6656   2.7349
  v  -0.6559 -11.1474   2.7349
  v  -0.6559 -11.7909   2.7349
  v  -3.8559   9.4091   2.7349
  v  -0.6559  -3.7849   2.7349
  v  -0.6459  -1.2310   2.7349
  v   0.6509  -0.9634   2.7349
  v  -0.6559   2.5597   2.7349
  v   1.8420  -0.3849   2.7349
  v   2.8539   0.4692   2.7349
  v   3.6244   1.5461   2.7349
  v  -0.1237   2.4848   2.7349
  v  -0.6559   5.8797   2.7349
  v  -0.1237   5.9545   2.7349
  v   3.6196   6.6400   2.7349
  v   2.8471   7.7155   2.7349
  v   1.8336   8.5677   2.7349
  v   0.6414   9.1440   2.7349
  v  -0.6559   9.4091   2.7349
  v   4.1060   2.7796   2.7349
  v   0.4059   2.5764   2.7349
  v   0.8820   2.8256   2.7349
  v   4.2691   4.0937   2.7349
  v   1.2591   3.2087   2.7349
  v   1.5008   3.6887   2.7349
  v   1.5841   4.2197   2.7349
  v   4.1035   5.4075   2.7349
  v   1.5008   4.7506   2.7349
  v   1.2591   5.2307   2.7349
  v   0.8820   5.6137   2.7349
  v   0.4059   5.8629   2.7349
  v   6.3612 -11.6765   2.7349
  v   4.4089 -11.7741   2.7349
  v   6.2485 -10.3851   2.7349
  v   6.3612 -11.6765  -1.8701
  v   2.5281  -8.8074  -1.8701
  v   4.4089 -11.7741  -1.8701
  v   6.2485 -10.3851  -1.8701
  v   5.0603  -8.8074  -1.8701
  v  -0.6459  -1.2310  -1.8701
  v  -0.6559  -3.7849  -1.8701
  v   4.1060   2.7796  -1.8701
  v  -0.1237   2.4848  -1.8701
  v   3.6244   1.5461  -1.8701
  v   0.4059   2.5764  -1.8701
  v   0.8820   2.8256  -1.8701
  v   4.2691   4.0937  -1.8701
  v   1.2591   3.2087  -1.8701
  v   1.5008   3.6887  -1.8701
  v   1.5841   4.2197  -1.8701
  v   4.1035   5.4075  -1.8701
  v   1.5008   4.7506  -1.8701
  v   1.2591   5.2307  -1.8701
  v   0.8820   5.6137  -1.8701
  v   3.6196   6.6400  -1.8701
  v   0.4059   5.8629  -1.8701
  v  -0.1237   5.9545  -1.8701
  v  -0.6559 -11.1474  -1.8701
  v  -4.0629 -11.6656  -1.8701
  v  -0.6559 -11.7909  -1.8701
  v  -4.0348  -8.8074  -1.8701
  v  -3.8559   9.4091  -1.8701
  v   0.6509  -0.9634  -1.8701
  v  -0.6559   2.5597  -1.8701
  v   1.8420  -0.3849  -1.8701
  v   2.8539   0.4692  -1.8701
  v  -0.6559   5.8797  -1.8701
  v   2.8471   7.7155  -1.8701
  v   1.8336   8.5677  -1.8701
  v   0.6414   9.1440  -1.8701
  v  -0.6559   9.4091  -1.8701
#  71 elements
  vt   0.0000   0.0000 0.0000
  vt   0.0000   0.0000 0.0000
  vt   0.0000   0.0000 0.0000
  vt   0.0000   0.0000 0.0000
  vt   0.0000   0.0000 0.0000
  vt   0.0000   0.0000 0.0000
  vt   0.0000   0.0000 0.0000
  vt   0.0000   0.0000 0.0000
  vt   0.0000   0.0000 0.0000
  vt   0.0000   0.0000 0.0000
  vt   0.0000   0.0000 0.0000
  vt   0.0000   0.0000 0.0000
  vt   0.0000   0.0000 0.0000
  vt   0.0000   0.0000 0.0000
  vt   0.0000   0.0000 0.0000
  vt   0.0000   0.0000 0.0000
  vt   0.0000   0.0000 0.0000
  vt   0.0000   0.0000 0.0000
  vt   0.0000   0.0000 0.0000
  vt   0.0000   0.0000 0.0000
  vt   0.0000   0.0000 0.0000
  vt   0.0000   0.0000 0.0000
  vt   0.0000   0.0000 0.0000
  vt   0.0000   0.0000 0.0000
  vt   0.0000   0.0000 0.0000
  vt   0.0000   0.0000 0.0000
  vt   0.0000   0.0000 0.0000
  vt   0.0000   0.0000 0.0000
  vt   0.0000   0.0000 0.0000
  vt   0.0000   0.0000 0.0000
  vt   0.0000   0.0000 0.0000
  vt   0.0000   0.0000 0.0000
  vt   0.0000   0.0000 0.0000
  vt   0.0000   0.0000 0.0000
  vt   0.0000   0.0000 0.0000
  vt   0.0000   0.0000 0.0000
  vt   0.0000   0.0000 0.0000
  vt   0.0000   0.0000 0.0000
  vt   0.0000   0.0000 0.0000
  vt   0.0000   0.0000 0.0000
  vt   0.0000   0.0000 0.0000
  vt   0.0000   0.0000 0.0000
  vt   0.0000   0.0000 0.0000
  vt   0.0000   0.0000 0.0000
  vt   0.0000   0.0000 0.0000
  vt   0.0000   0.0000 0.0000
  vt   0.0000   0.0000 0.0000
  vt   0.0000   0.0000 0.0000
  vt   0.0000   0.0000 0.0000
  vt   0.0000   0.0000 0.0000
  vt   0.0000   0.0000 0.0000
  vt   0.0000   0.0000 0.0000
  vt   0.0000   0.0000 0.0000
  vt   0.0000   0.0000 0.0000
  vt   0.0000   0.0000 0.0000
  vt   0.0000   0.0000 0.0000
  vt   0.0000   0.0000 0.0000
  vt   0.0000   0.0000 0.0000
  vt   0.0000   0.0000 0.0000
  vt   0.0000   0.0000 0.0000
  vt   0.0000   0.0000 0.0000
  vt   0.0000   0.0000 0.0000
  vt   0.0000   0.0000 0.0000
  vt   0.0000   0.0000 0.0000
  vt   0.0000   0.0000 0.0000
  vt   0.0000   0.0000 0.0000
  vt   0.0000   0.0000 0.0000
  vt   0.0000   0.0000 0.0000
  vt   0.0000   0.0000 0.0000
  vt   0.0000   0.0000 0.0000
  vt   0.0000   0.0000 0.0000
#  71 elements
  vn  -0.0000  -0.0000   1.0000
  vn   0.0000   0.0000  -1.0000
  vn   0.9694  -0.2453   0.0000
  vn   1.0000   0.0009   0.0000
  vn  -0.9694   0.2453  -0.0000
  vn  -1.0000  -0.0009  -0.0000
  vn   0.8792  -0.4765  -0.0000
  vn  -0.8792   0.4765   0.0000
  vn  -1.0000   0.0098  -0.0000
  vn   1.0000  -0.0098   0.0000
  vn   0.5436   0.8393   0.0000
  vn   0.7335   0.6797   0.0000
  vn  -0.5436  -0.8393  -0.0000
  vn  -0.7335  -0.6797  -0.0000
  vn   0.0499  -0.9988  -0.0000
  vn  -0.0499   0.9988   0.0000
  vn  -0.0157  -0.9999  -0.0000
  vn   0.1393  -0.9902  -0.0000
  vn  -0.1393   0.9902   0.0000
  vn   0.0157   0.9999   0.0000
  vn  -1.0000   0.0000  -0.0000
  vn  -0.9520   0.3060  -0.0000
  vn   0.9520  -0.3060   0.0000
  vn   1.0000  -0.0000   0.0000
  vn  -0.8446  -0.5354  -0.0000
  vn   0.8446   0.5354   0.0000
  vn  -0.8127   0.5827   0.0000
  vn  -0.5954   0.8034   0.0000
  vn   0.5954  -0.8034  -0.0000
  vn   0.8127  -0.5827  -0.0000
  vn   0.3220  -0.9467  -0.0000
  vn   0.2020  -0.9794  -0.0000
  vn  -0.2020   0.9794   0.0000
  vn  -0.3220   0.9467   0.0000
  vn  -0.8127  -0.5827  -0.0000
  vn  -0.9520  -0.3060  -0.0000
  vn   0.8127   0.5827   0.0000
  vn   0.9520   0.3060   0.0000
  vn   0.7348  -0.6783  -0.0000
  vn   0.5452  -0.8383  -0.0000
  vn  -0.5452   0.8383   0.0000
  vn  -0.7348   0.6783   0.0000
  vn   0.3202   0.9474   0.0000
  vn  -0.3202  -0.9474  -0.0000
  vn   0.9690   0.2471   0.0000
  vn   0.8783   0.4781   0.0000
  vn  -0.9690  -0.2471  -0.0000
  vn  -0.8783  -0.4781  -0.0000
  vn   0.0000   1.0000   0.0000
  vn   0.1006   0.9949   0.0000
  vn  -0.0000  -1.0000  -0.0000
  vn  -0.1006  -0.9949  -0.0000
  vn  -0.3210   0.9471   0.0000
  vn   0.3210  -0.9471  -0.0000
  vn  -0.5954  -0.8034  -0.0000
  vn  -0.3210  -0.9471  -0.0000
  vn   0.3210   0.9471   0.0000
  vn   0.5954   0.8034   0.0000
  vn   1.0000   0.0000   0.0000
  vn  -1.0000  -0.0000  -0.0000
  vn   0.7988   0.6016   0.0000
  vn  -0.7988  -0.6016  -0.0000
  vn   0.1393   0.9902   0.0000
  vn  -0.0157   0.9999   0.0000
  vn  -0.1393  -0.9902  -0.0000
  vn   0.0157  -0.9999  -0.0000
  vn   0.9962   0.0869   0.0000
  vn  -0.9962  -0.0869  -0.0000
  vn  -0.0367  -0.9993  -0.0000
  vn   0.0367   0.9993   0.0000
#  70 elements
#  284 faces
usemtl Default_Material
f 3/3/1 2/2/1 1/1/1
f 4/4/1 1/1/1 2/2/1
f 5/5/1 4/4/1 2/2/1
f 6/6/1 4/4/1 5/5/1
f 7/7/1 4/4/1 6/6/1
f 8/8/1 4/4/1 7/7/1
f 9/9/1 8/8/1 7/7/1
f 10/10/1 8/8/1 9/9/1
f 11/11/1 8/8/1 10/10/1
f 12/12/1 8/8/1 11/11/1
f 13/13/1 4/4/1 8/8/1
f 14/14/1 4/4/1 13/13/1
f 15/15/1 4/4/1 14/14/1
f 16/16/1 4/4/1 15/15/1
f 17/17/1 4/4/1 16/16/1
f 18/18/1 4/4/1 17/17/1
f 19/19/1 4/4/1 18/18/1
f 11/11/1 20/20/1 12/12/1
f 21/21/1 12/12/1 20/20/1
f 22/22/1 21/21/1 20/20/1
f 23/23/1 22/22/1 20/20/1
f 24/24/1 22/22/1 23/23/1
f 25/25/1 24/24/1 23/23/1
f 26/26/1 25/25/1 23/23/1
f 27/27/1 26/26/1 23/23/1
f 28/28/1 26/26/1 27/27/1
f 29/29/1 28/28/1 27/27/1
f 30/30/1 29/29/1 27/27/1
f 15/15/1 30/30/1 27/27/1
f 31/31/1 30/30/1 15/15/1
f 14/14/1 31/31/1 15/15/1
f 33/33/1 32/32/1 5/5/1
f 34/34/1 5/5/1 32/32/1
f 6/6/1 5/5/1 34/34/1
f 1/1/2 2/2/2 3/3/2
f 2/2/2 1/1/2 4/4/2
f 2/2/2 4/4/2 5/5/2
f 5/5/2 4/4/2 6/6/2
f 6/6/2 4/4/2 7/7/2
f 7/7/2 4/4/2 8/8/2
f 7/7/2 8/8/2 9/9/2
f 9/9/2 8/8/2 10/10/2
f 10/10/2 8/8/2 11/11/2
f 11/11/2 8/8/2 12/12/2
f 8/8/2 4/4/2 13/13/2
f 13/13/2 4/4/2 14/14/2
f 14/14/2 4/4/2 15/15/2
f 15/15/2 4/4/2 16/16/2
f 16/16/2 4/4/2 17/17/2
f 17/17/2 4/4/2 18/18/2
f 18/18/2 4/4/2 19/19/2
f 12/12/2 20/20/2 11/11/2
f 20/20/2 12/12/2 21/21/2
f 20/20/2 21/21/2 22/22/2
f 20/20/2 22/22/2 23/23/2
f 23/23/2 22/22/2 24/24/2
f 23/23/2 24/24/2 25/25/2
f 23/23/2 25/25/2 26/26/2
f 23/23/2 26/26/2 27/27/2
f 27/27/2 26/26/2 28/28/2
f 27/27/2 28/28/2 29/29/2
f 27/27/2 29/29/2 30/30/2
f 27/27/2 30/30/2 15/15/2
f 15/15/2 30/30/2 31/31/2
f 15/15/2 31/31/2 14/14/2
f 5/5/2 32/32/2 33/33/2
f 32/32/2 5/5/2 34/34/2
f 34/34/2 5/5/2 6/6/2
f 37/37/2 36/36/2 35/35/2
f 38/38/2 35/35/2 36/36/2
f 39/39/2 38/38/2 36/36/2
f 40/40/2 39/39/2 36/36/2
f 41/41/2 40/40/2 36/36/2
f 44/44/2 43/43/2 42/42/2
f 45/45/2 42/42/2 43/43/2
f 46/46/2 42/42/2 45/45/2
f 47/47/2 42/42/2 46/46/2
f 48/48/2 47/47/2 46/46/2
f 49/49/2 47/47/2 48/48/2
f 50/50/2 47/47/2 49/49/2
f 51/51/2 47/47/2 50/50/2
f 52/52/2 51/51/2 50/50/2
f 53/53/2 51/51/2 52/52/2
f 54/54/2 51/51/2 53/53/2
f 55/55/2 51/51/2 54/54/2
f 56/56/2 55/55/2 54/54/2
f 57/57/2 55/55/2 56/56/2
f 60/60/2 59/59/2 58/58/2
f 61/61/2 58/58/2 59/59/2
f 41/41/2 58/58/2 61/61/2
f 62/62/2 41/41/2 61/61/2
f 40/40/2 41/41/2 62/62/2
f 63/63/2 40/40/2 62/62/2
f 64/64/2 63/63/2 62/62/2
f 65/65/2 63/63/2 64/64/2
f 66/66/2 65/65/2 64/64/2
f 44/44/2 66/66/2 64/64/2
f 43/43/2 44/44/2 64/64/2
f 67/67/2 64/64/2 62/62/2
f 57/57/2 67/67/2 62/62/2
f 55/55/2 57/57/2 62/62/2
f 68/68/2 55/55/2 62/62/2
f 69/69/2 68/68/2 62/62/2
f 70/70/2 69/69/2 62/62/2
f 71/71/2 70/70/2 62/62/2
f 35/35/1 36/36/1 37/37/1
f 36/36/1 35/35/1 38/38/1
f 36/36/1 38/38/1 39/39/1
f 36/36/1 39/39/1 40/40/1
f 36/36/1 40/40/1 41/41/1
f 42/42/1 43/43/1 44/44/1
f 43/43/1 42/42/1 45/45/1
f 45/45/1 42/42/1 46/46/1
f 46/46/1 42/42/1 47/47/1
f 46/46/1 47/47/1 48/48/1
f 48/48/1 47/47/1 49/49/1
f 49/49/1 47/47/1 50/50/1
f 50/50/1 47/47/1 51/51/1
f 50/50/1 51/51/1 52/52/1
f 52/52/1 51/51/1 53/53/1
f 53/53/1 51/51/1 54/54/1
f 54/54/1 51/51/1 55/55/1
f 54/54/1 55/55/1 56/56/1
f 56/56/1 55/55/1 57/57/1
f 58/58/1 59/59/1 60/60/1
f 59/59/1 58/58/1 61/61/1
f 61/61/1 58/58/1 41/41/1
f 61/61/1 41/41/1 62/62/1
f 62/62/1 41/41/1 40/40/1
f 62/62/1 40/40/1 63/63/1
f 62/62/1 63/63/1 64/64/1
f 64/64/1 63/63/1 65/65/1
f 64/64/1 65/65/1 66/66/1
f 64/64/1 66/66/1 44/44/1
f 64/64/1 44/44/1 43/43/1
f 62/62/1 64/64/1 67/67/1
f 62/62/1 67/67/1 57/57/1
f 62/62/1 57/57/1 55/55/1
f 62/62/1 55/55/1 68/68/1
f 62/62/1 68/68/1 69/69/1
f 62/62/1 69/69/1 70/70/1
f 62/62/1 70/70/1 71/71/1
f 42/42/3 47/47/4 20/20/3
f 23/23/4 20/20/3 47/47/4
f 20/20/5 47/47/6 42/42/5
f 47/47/6 20/20/5 23/23/6
f 42/42/3 20/20/3 44/44/7
f 11/11/7 44/44/7 20/20/3
f 44/44/8 20/20/5 42/42/5
f 20/20/5 44/44/8 11/11/8
f 61/61/9 59/59/9 62/62/9
f 1/1/9 62/62/9 59/59/9
f 4/4/9 62/62/9 1/1/9
f 62/62/10 59/59/10 61/61/10
f 59/59/10 62/62/10 1/1/10
f 1/1/10 62/62/10 4/4/10
f 17/17/11 16/16/12 69/69/11
f 68/68/12 69/69/11 16/16/12
f 69/69/13 16/16/14 17/17/13
f 16/16/14 69/69/13 68/68/14
f 33/33/15 37/37/15 32/32/15
f 35/35/15 32/32/15 37/37/15
f 32/32/16 37/37/16 33/33/16
f 37/37/16 32/32/16 35/35/16
f 13/13/18 67/67/18 14/14/17
f 57/57/17 14/14/17 67/67/18
f 14/14/20 67/67/19 13/13/19
f 67/67/19 14/14/20 57/57/20
f 49/49/22 25/25/22 50/50/21
f 26/26/21 50/50/21 25/25/22
f 50/50/24 25/25/23 49/49/23
f 25/25/23 50/50/24 26/26/24
f 41/41/25 36/36/25 5/5/25
f 37/37/25 5/5/25 36/36/25
f 33/33/25 5/5/25 37/37/25
f 5/5/26 36/36/26 41/41/26
f 36/36/26 5/5/26 37/37/26
f 37/37/26 5/5/26 33/33/26
f 46/46/28 22/22/28 48/48/27
f 24/24/27 48/48/27 22/22/28
f 48/48/30 22/22/29 46/46/29
f 22/22/29 48/48/30 24/24/30
f 6/6/32 40/40/32 7/7/31
f 63/63/31 7/7/31 40/40/32
f 7/7/34 40/40/33 6/6/33
f 40/40/33 7/7/34 63/63/34
f 53/53/35 52/52/36 29/29/35
f 28/28/36 29/29/35 52/52/36
f 29/29/37 52/52/38 53/53/37
f 52/52/38 29/29/37 28/28/38
f 9/9/40 65/65/40 10/10/39
f 66/66/39 10/10/39 65/65/40
f 10/10/42 65/65/41 9/9/41
f 65/65/41 10/10/42 66/66/42
f 18/18/43 17/17/11 70/70/43
f 69/69/11 70/70/43 17/17/11
f 70/70/44 17/17/13 18/18/44
f 17/17/13 70/70/44 69/69/13
f 51/51/45 55/55/46 27/27/45
f 15/15/46 27/27/45 55/55/46
f 27/27/47 55/55/48 51/51/47
f 55/55/48 27/27/47 15/15/48
f 4/4/49 19/19/50 62/62/49
f 71/71/50 62/62/49 19/19/50
f 62/62/51 19/19/52 4/4/51
f 19/19/52 62/62/51 71/71/52
f 19/19/50 18/18/43 71/71/50
f 70/70/43 71/71/50 18/18/43
f 71/71/52 18/18/44 19/19/52
f 18/18/44 71/71/52 70/70/44
f 21/21/53 22/22/28 45/45/53
f 46/46/28 45/45/53 22/22/28
f 45/45/54 22/22/29 21/21/54
f 22/22/29 45/45/54 46/46/29
f 48/48/27 24/24/27 49/49/22
f 25/25/22 49/49/22 24/24/27
f 49/49/23 24/24/30 48/48/30
f 24/24/30 49/49/23 25/25/23
f 31/31/56 56/56/56 30/30/55
f 54/54/55 30/30/55 56/56/56
f 30/30/58 56/56/57 31/31/57
f 56/56/57 30/30/58 54/54/58
f 64/64/59 67/67/59 8/8/59
f 13/13/59 8/8/59 67/67/59
f 8/8/60 67/67/60 64/64/60
f 67/67/60 8/8/60 13/13/60
f 40/40/61 6/6/61 39/39/61
f 38/38/61 39/39/61 6/6/61
f 34/34/61 38/38/61 6/6/61
f 39/39/62 6/6/62 40/40/62
f 6/6/62 39/39/62 38/38/62
f 6/6/62 38/38/62 34/34/62
f 50/50/21 26/26/21 52/52/36
f 28/28/36 52/52/36 26/26/21
f 52/52/38 26/26/24 50/50/24
f 26/26/24 52/52/38 28/28/38
f 66/66/39 44/44/7 10/10/39
f 11/11/7 10/10/39 44/44/7
f 10/10/42 44/44/8 66/66/42
f 44/44/8 10/10/42 11/11/8
f 53/53/35 29/29/35 54/54/55
f 30/30/55 54/54/55 29/29/35
f 54/54/58 29/29/37 53/53/37
f 29/29/37 54/54/58 30/30/58
f 8/8/63 12/12/64 64/64/63
f 43/43/64 64/64/63 12/12/64
f 64/64/65 12/12/66 8/8/65
f 12/12/66 64/64/65 43/43/66
f 14/14/17 57/57/17 31/31/56
f 56/56/56 31/31/56 57/57/17
f 31/31/57 57/57/20 14/14/20
f 57/57/20 31/31/57 56/56/57
f 60/60/59 58/58/59 3/3/59
f 41/41/59 3/3/59 58/58/59
f 5/5/59 3/3/59 41/41/59
f 2/2/59 3/3/59 5/5/59
f 3/3/60 58/58/60 60/60/60
f 58/58/60 3/3/60 41/41/60
f 41/41/60 3/3/60 5/5/60
f 5/5/60 3/3/60 2/2/60
f 35/35/67 38/38/67 32/32/67
f 34/34/67 32/32/67 38/38/67
f 32/32/68 38/38/68 35/35/68
f 38/38/68 32/32/68 34/34/68
f 12/12/64 21/21/53 43/43/64
f 45/45/53 43/43/64 21/21/53
f 43/43/66 21/21/54 12/12/66
f 21/21/54 43/43/66 45/45/54
f 1/1/69 59/59/69 3/3/69
f 60/60/69 3/3/69 59/59/69
f 3/3/70 59/59/70 1/1/70
f 59/59/70 3/3/70 60/60/70
f 55/55/46 68/68/12 15/15/46
f 16/16/12 15/15/46 68/68/12
f 15/15/48 68/68/14 55/55/48
f 68/68/14 15/15/48 16/16/14
f 51/51/45 27/27/45 47/47/4
f 23/23/4 47/47/4 27/27/45
f 47/47/6 27/27/47 51/51/47
f 27/27/47 47/47/6 23/23/6
f 7/7/31 63/63/31 9/9/40
f 65/65/40 9/9/40 63/63/31
f 9/9/41 63/63/34 7/7/34
f 63/63/34 9/9/41 65/65/41