#Exported from google sketchup
mtllib lettreA2.mtl
  v  -8.5381  -9.9377   1.7123
  v  -2.8311  -3.2760   1.7123
  v  -4.6196  -9.9510   1.7123
  v  -3.5813   8.5615   1.7123
  v  -2.2600  -1.1445   1.7123
  v   3.0306  -3.2760   1.7123
  v  -0.5471   5.2480   1.7123
  v  -0.4943   5.3839   1.7123
  v  -0.4132   5.5051   1.7123
  v  -0.3079   5.6060   1.7123
  v  -0.1833   5.6816   1.7123
  v  -0.0452   5.7285   1.7123
  v   0.0997   5.7443   1.7123
  v   4.8277  -9.9829   1.7123
  v   3.7808   8.5615   1.7123
  v   8.7533  -9.9962   1.7123
  v   2.4594  -1.1445   1.7123
  v   0.7466   5.2480   1.7123
  v   0.6937   5.3839   1.7123
  v   0.6127   5.5051   1.7123
  v   0.5074   5.6060   1.7123
  v   0.3827   5.6816   1.7123
  v   0.2447   5.7285   1.7123
  v  -3.1600   9.3534   1.7123
  v   3.3595   9.3534   1.7123
  v   2.9695   9.7897   1.7123
  v  -2.7255   9.8395   1.7123
  v   2.7242  10.0641   1.7123
  v  -2.5248  10.0641   1.7123
  v  -1.7386  10.6032   1.7123
  v   1.9380  10.6032   1.7123
  v  -0.8466  10.9396   1.7123
  v   1.0461  10.9396   1.7123
  v   0.0997  11.0539   1.7123
  v   3.7808   8.5615  -1.2520
  v   4.8277  -9.9829  -1.2520
  v   8.7533  -9.9962  -1.2520
  v   3.0306  -3.2760  -1.2520
  v   2.4594  -1.1445  -1.2520
  v  -2.8311  -3.2760  -1.2520
  v   0.7466   5.2480  -1.2520
  v   0.6937   5.3839  -1.2520
  v   0.6127   5.5051  -1.2520
  v   0.5074   5.6060  -1.2520
  v   0.3827   5.6816  -1.2520
  v   0.2447   5.7285  -1.2520
  v   0.0997   5.7443  -1.2520
  v  -3.5813   8.5615  -1.2520
  v  -3.1600   9.3534  -1.2520
  v   3.3595   9.3534  -1.2520
  v   2.9695   9.7897  -1.2520
  v  -2.7255   9.8395  -1.2520
  v   2.7242  10.0641  -1.2520
  v  -2.5248  10.0641  -1.2520
  v   1.9380  10.6032  -1.2520
  v  -1.7386  10.6032  -1.2520
  v   1.0461  10.9396  -1.2520
  v  -0.8466  10.9396  -1.2520
  v   0.0997  11.0539  -1.2520
  v  -8.5381  -9.9377  -1.2520
  v  -4.6196  -9.9510  -1.2520
  v  -2.2600  -1.1445  -1.2520
  v  -0.5471   5.2480  -1.2520
  v  -0.4943   5.3839  -1.2520
  v  -0.4132   5.5051  -1.2520
  v  -0.3079   5.6060  -1.2520
  v  -0.1833   5.6816  -1.2520
  v  -0.0452   5.7285  -1.2520
#  68 elements
  vt   0.0000   0.0000 0.0000
  vt   0.0000   0.0000 0.0000
  vt   0.0000   0.0000 0.0000
  vt   0.0000   0.0000 0.0000
  vt   0.0000   0.0000 0.0000
  vt   0.0000   0.0000 0.0000
  vt   0.0000   0.0000 0.0000
  vt   0.0000   0.0000 0.0000
  vt   0.0000   0.0000 0.0000
  vt   0.0000   0.0000 0.0000
  vt   0.0000   0.0000 0.0000
  vt   0.0000   0.0000 0.0000
  vt   0.0000   0.0000 0.0000
  vt   0.0000   0.0000 0.0000
  vt   0.0000   0.0000 0.0000
  vt   0.0000   0.0000 0.0000
  vt   0.0000   0.0000 0.0000
  vt   0.0000   0.0000 0.0000
  vt   0.0000   0.0000 0.0000
  vt   0.0000   0.0000 0.0000
  vt   0.0000   0.0000 0.0000
  vt   0.0000   0.0000 0.0000
  vt   0.0000   0.0000 0.0000
  vt   0.0000   0.0000 0.0000
  vt   0.0000   0.0000 0.0000
  vt   0.0000   0.0000 0.0000
  vt   0.0000   0.0000 0.0000
  vt   0.0000   0.0000 0.0000
  vt   0.0000   0.0000 0.0000
  vt   0.0000   0.0000 0.0000
  vt   0.0000   0.0000 0.0000
  vt   0.0000   0.0000 0.0000
  vt   0.0000   0.0000 0.0000
  vt   0.0000   0.0000 0.0000
  vt   0.0000   0.0000 0.0000
  vt   0.0000   0.0000 0.0000
  vt   0.0000   0.0000 0.0000
  vt   0.0000   0.0000 0.0000
  vt   0.0000   0.0000 0.0000
  vt   0.0000   0.0000 0.0000
  vt   0.0000   0.0000 0.0000
  vt   0.0000   0.0000 0.0000
  vt   0.0000   0.0000 0.0000
  vt   0.0000   0.0000 0.0000
  vt   0.0000   0.0000 0.0000
  vt   0.0000   0.0000 0.0000
  vt   0.0000   0.0000 0.0000
  vt   0.0000   0.0000 0.0000
  vt   0.0000   0.0000 0.0000
  vt   0.0000   0.0000 0.0000
  vt   0.0000   0.0000 0.0000
  vt   0.0000   0.0000 0.0000
  vt   0.0000   0.0000 0.0000
  vt   0.0000   0.0000 0.0000
  vt   0.0000   0.0000 0.0000
  vt   0.0000   0.0000 0.0000
  vt   0.0000   0.0000 0.0000
  vt   0.0000   0.0000 0.0000
  vt   0.0000   0.0000 0.0000
  vt   0.0000   0.0000 0.0000
  vt   0.0000   0.0000 0.0000
  vt   0.0000   0.0000 0.0000
  vt   0.0000   0.0000 0.0000
  vt   0.0000   0.0000 0.0000
  vt   0.0000   0.0000 0.0000
  vt   0.0000   0.0000 0.0000
  vt   0.0000   0.0000 0.0000
  vt   0.0000   0.0000 0.0000
#  68 elements
  vn   0.0000   0.0000   1.0000
  vn  -0.0000  -0.0000  -1.0000
  vn   0.0000   0.0000  -1.0000
  vn  -0.0000  -0.0000   1.0000
  vn  -0.9659  -0.2588   0.0000
  vn   0.9659   0.2588  -0.0000
  vn   0.0000  -1.0000   0.0000
  vn   0.0000   1.0000   0.0000
  vn   0.9659  -0.2588  -0.0000
  vn  -0.9659   0.2588   0.0000
  vn  -0.0034  -1.0000  -0.0000
  vn   0.0034   1.0000   0.0000
  vn  -0.8201   0.5722   0.0000
  vn  -0.8828   0.4697  -0.0000
  vn   0.8201  -0.5722  -0.0000
  vn   0.8828  -0.4697   0.0000
  vn  -0.7456   0.6664   0.0000
  vn   0.7456  -0.6664  -0.0000
  vn  -0.6603   0.7510   0.0000
  vn   0.6603  -0.7510  -0.0000
  vn  -0.4625   0.8866   0.0000
  vn   0.4625  -0.8866  -0.0000
  vn  -0.2381   0.9712  -0.0000
  vn   0.2381  -0.9712   0.0000
  vn   0.0000   1.0000  -0.0000
  vn   0.2381   0.9712  -0.0000
  vn  -0.2381  -0.9712   0.0000
  vn   0.4625   0.8866   0.0000
  vn  -0.4625  -0.8866  -0.0000
  vn   0.6603   0.7510   0.0000
  vn  -0.6603  -0.7510  -0.0000
  vn   0.7456   0.6664   0.0000
  vn  -0.7456  -0.6664  -0.0000
  vn   0.8201   0.5722   0.0000
  vn   0.7456   0.6664  -0.0000
  vn  -0.8201  -0.5722  -0.0000
  vn  -0.7456  -0.6664   0.0000
  vn   0.8828   0.4697   0.0000
  vn  -0.8828  -0.4697  -0.0000
  vn   0.9659   0.2588   0.0000
  vn  -0.9659  -0.2588  -0.0000
  vn  -0.0034  -1.0000   0.0000
  vn   0.0034   1.0000  -0.0000
  vn   0.0000  -1.0000  -0.0000
  vn  -0.8870  -0.4617  -0.0000
  vn  -0.9320  -0.3624   0.0000
  vn   0.8870   0.4617   0.0000
  vn   0.9320   0.3624  -0.0000
  vn  -0.7660  -0.6428  -0.0000
  vn   0.7660   0.6428   0.0000
  vn  -0.6088  -0.7934   0.0000
  vn   0.6088   0.7934  -0.0000
  vn  -0.4226  -0.9063   0.0000
  vn   0.4226   0.9063  -0.0000
  vn  -0.2164  -0.9763   0.0000
  vn   0.2164   0.9763  -0.0000
  vn   0.2164  -0.9763   0.0000
  vn  -0.2164   0.9763  -0.0000
  vn   0.4226  -0.9063   0.0000
  vn  -0.4226   0.9063  -0.0000
  vn   0.6088  -0.7934   0.0000
  vn  -0.6088   0.7934  -0.0000
  vn   0.7660  -0.6428  -0.0000
  vn  -0.7660   0.6428   0.0000
  vn   0.8870  -0.4617  -0.0000
  vn  -0.8870   0.4617   0.0000
  vn   0.9320  -0.3624   0.0000
  vn  -0.9320   0.3624  -0.0000
#  68 elements
#  272 faces
usemtl Default_Material
f 3/3/1 2/2/1 1/1/1
f 4/4/1 1/1/1 2/2/1
f 5/5/1 4/4/1 2/2/1
f 6/6/1 5/5/1 2/2/1
f 7/7/1 4/4/1 5/5/1
f 8/8/1 4/4/1 7/7/1
f 9/9/1 4/4/1 8/8/1
f 10/10/1 4/4/1 9/9/1
f 11/11/1 4/4/1 10/10/1
f 12/12/1 4/4/1 11/11/1
f 13/13/1 4/4/1 12/12/1
f 16/16/1 15/15/1 14/14/1
f 6/6/1 14/14/1 15/15/1
f 17/17/1 6/6/1 15/15/1
f 5/5/1 6/6/1 17/17/1
f 18/18/1 17/17/1 15/15/1
f 19/19/1 18/18/1 15/15/1
f 20/20/1 19/19/1 15/15/1
f 21/21/1 20/20/1 15/15/1
f 22/22/1 21/21/1 15/15/1
f 23/23/1 22/22/1 15/15/1
f 13/13/1 23/23/1 15/15/1
f 4/4/1 13/13/1 15/15/1
f 24/24/1 4/4/1 15/15/1
f 25/25/1 24/24/1 15/15/1
f 26/26/1 24/24/1 25/25/1
f 27/27/1 24/24/1 26/26/1
f 28/28/1 27/27/1 26/26/1
f 29/29/1 27/27/1 28/28/1
f 30/30/1 29/29/1 28/28/1
f 31/31/1 30/30/1 28/28/1
f 32/32/1 30/30/1 31/31/1
f 33/33/1 32/32/1 31/31/1
f 34/34/1 32/32/1 33/33/1
f 1/1/2 2/2/2 3/3/2
f 2/2/2 1/1/2 4/4/2
f 2/2/2 4/4/2 5/5/2
f 2/2/2 5/5/2 6/6/2
f 5/5/2 4/4/2 7/7/2
f 7/7/2 4/4/2 8/8/2
f 8/8/2 4/4/2 9/9/2
f 9/9/2 4/4/2 10/10/2
f 10/10/2 4/4/2 11/11/2
f 11/11/2 4/4/2 12/12/2
f 12/12/2 4/4/2 13/13/2
f 14/14/2 15/15/2 16/16/2
f 15/15/2 14/14/2 6/6/2
f 15/15/2 6/6/2 17/17/2
f 17/17/2 6/6/2 5/5/2
f 15/15/2 17/17/2 18/18/2
f 15/15/2 18/18/2 19/19/2
f 15/15/2 19/19/2 20/20/2
f 15/15/2 20/20/2 21/21/2
f 15/15/2 21/21/2 22/22/2
f 15/15/2 22/22/2 23/23/2
f 15/15/2 23/23/2 13/13/2
f 15/15/2 13/13/2 4/4/2
f 15/15/2 4/4/2 24/24/2
f 15/15/2 24/24/2 25/25/2
f 25/25/2 24/24/2 26/26/2
f 26/26/2 24/24/2 27/27/2
f 26/26/2 27/27/2 28/28/2
f 28/28/2 27/27/2 29/29/2
f 28/28/2 29/29/2 30/30/2
f 28/28/2 30/30/2 31/31/2
f 31/31/2 30/30/2 32/32/2
f 31/31/2 32/32/2 33/33/2
f 33/33/2 32/32/2 34/34/2
f 37/37/3 36/36/3 35/35/3
f 38/38/3 35/35/3 36/36/3
f 39/39/3 35/35/3 38/38/3
f 40/40/3 39/39/3 38/38/3
f 41/41/3 35/35/3 39/39/3
f 42/42/3 35/35/3 41/41/3
f 43/43/3 35/35/3 42/42/3
f 44/44/3 35/35/3 43/43/3
f 45/45/3 35/35/3 44/44/3
f 46/46/3 35/35/3 45/45/3
f 47/47/3 35/35/3 46/46/3
f 48/48/3 35/35/3 47/47/3
f 49/49/3 35/35/3 48/48/3
f 50/50/3 35/35/3 49/49/3
f 51/51/3 50/50/3 49/49/3
f 52/52/3 51/51/3 49/49/3
f 53/53/3 51/51/3 52/52/3
f 54/54/3 53/53/3 52/52/3
f 55/55/3 53/53/3 54/54/3
f 56/56/3 55/55/3 54/54/3
f 57/57/3 55/55/3 56/56/3
f 58/58/3 57/57/3 56/56/3
f 59/59/3 57/57/3 58/58/3
f 61/61/3 60/60/3 40/40/3
f 48/48/3 40/40/3 60/60/3
f 62/62/3 40/40/3 48/48/3
f 39/39/3 40/40/3 62/62/3
f 63/63/3 62/62/3 48/48/3
f 64/64/3 63/63/3 48/48/3
f 65/65/3 64/64/3 48/48/3
f 66/66/3 65/65/3 48/48/3
f 67/67/3 66/66/3 48/48/3
f 68/68/3 67/67/3 48/48/3
f 47/47/3 68/68/3 48/48/3
f 35/35/4 36/36/4 37/37/4
f 36/36/4 35/35/4 38/38/4
f 38/38/4 35/35/4 39/39/4
f 38/38/4 39/39/4 40/40/4
f 39/39/4 35/35/4 41/41/4
f 41/41/4 35/35/4 42/42/4
f 42/42/4 35/35/4 43/43/4
f 43/43/4 35/35/4 44/44/4
f 44/44/4 35/35/4 45/45/4
f 45/45/4 35/35/4 46/46/4
f 46/46/4 35/35/4 47/47/4
f 47/47/4 35/35/4 48/48/4
f 48/48/4 35/35/4 49/49/4
f 49/49/4 35/35/4 50/50/4
f 49/49/4 50/50/4 51/51/4
f 49/49/4 51/51/4 52/52/4
f 52/52/4 51/51/4 53/53/4
f 52/52/4 53/53/4 54/54/4
f 54/54/4 53/53/4 55/55/4
f 54/54/4 55/55/4 56/56/4
f 56/56/4 55/55/4 57/57/4
f 56/56/4 57/57/4 58/58/4
f 58/58/4 57/57/4 59/59/4
f 40/40/4 60/60/4 61/61/4
f 60/60/4 40/40/4 48/48/4
f 48/48/4 40/40/4 62/62/4
f 62/62/4 40/40/4 39/39/4
f 48/48/4 62/62/4 63/63/4
f 48/48/4 63/63/4 64/64/4
f 48/48/4 64/64/4 65/65/4
f 48/48/4 65/65/4 66/66/4
f 48/48/4 66/66/4 67/67/4
f 48/48/4 67/67/4 68/68/4
f 48/48/4 68/68/4 47/47/4
f 38/38/5 36/36/5 6/6/5
f 14/14/5 6/6/5 36/36/5
f 6/6/6 36/36/6 38/38/6
f 36/36/6 6/6/6 14/14/6
f 2/2/7 40/40/7 6/6/7
f 38/38/7 6/6/7 40/40/7
f 6/6/8 40/40/8 2/2/8
f 40/40/8 6/6/8 38/38/8
f 40/40/9 2/2/9 61/61/9
f 3/3/9 61/61/9 2/2/9
f 61/61/10 2/2/10 40/40/10
f 2/2/10 61/61/10 3/3/10
f 1/1/11 60/60/11 3/3/11
f 61/61/11 3/3/11 60/60/11
f 3/3/12 60/60/12 1/1/12
f 60/60/12 3/3/12 61/61/12
f 60/60/10 1/1/10 48/48/10
f 4/4/10 48/48/10 1/1/10
f 48/48/9 1/1/9 60/60/9
f 1/1/9 48/48/9 4/4/9
f 49/49/13 48/48/14 24/24/13
f 4/4/14 24/24/13 48/48/14
f 24/24/15 48/48/16 49/49/15
f 48/48/16 24/24/15 4/4/16
f 49/49/13 24/24/13 52/52/17
f 27/27/17 52/52/17 24/24/13
f 52/52/18 24/24/15 49/49/15
f 24/24/15 52/52/18 27/27/18
f 54/54/19 52/52/17 29/29/19
f 27/27/17 29/29/19 52/52/17
f 29/29/20 52/52/18 54/54/20
f 52/52/18 29/29/20 27/27/18
f 54/54/19 29/29/19 56/56/21
f 30/30/21 56/56/21 29/29/19
f 56/56/22 29/29/20 54/54/20
f 29/29/20 56/56/22 30/30/22
f 56/56/21 30/30/21 58/58/23
f 32/32/23 58/58/23 30/30/21
f 58/58/24 30/30/22 56/56/22
f 30/30/22 58/58/24 32/32/24
f 58/58/23 32/32/23 59/59/25
f 34/34/25 59/59/25 32/32/23
f 59/59/7 32/32/24 58/58/24
f 32/32/24 59/59/7 34/34/7
f 59/59/25 34/34/25 57/57/26
f 33/33/26 57/57/26 34/34/25
f 57/57/27 34/34/7 59/59/7
f 34/34/7 57/57/27 33/33/27
f 57/57/26 33/33/26 55/55/28
f 31/31/28 55/55/28 33/33/26
f 55/55/29 33/33/27 57/57/27
f 33/33/27 55/55/29 31/31/29
f 55/55/28 31/31/28 53/53/30
f 28/28/30 53/53/30 31/31/28
f 53/53/31 31/31/29 55/55/29
f 31/31/29 53/53/31 28/28/31
f 53/53/30 28/28/30 51/51/32
f 26/26/32 51/51/32 28/28/30
f 51/51/33 28/28/31 53/53/31
f 28/28/31 51/51/33 26/26/33
f 50/50/34 51/51/35 25/25/34
f 26/26/35 25/25/34 51/51/35
f 25/25/36 51/51/37 50/50/36
f 51/51/37 25/25/36 26/26/37
f 35/35/38 50/50/34 15/15/38
f 25/25/34 15/15/38 50/50/34
f 15/15/39 50/50/36 35/35/39
f 50/50/36 15/15/39 25/25/36
f 35/35/40 15/15/40 37/37/40
f 16/16/40 37/37/40 15/15/40
f 37/37/41 15/15/41 35/35/41
f 15/15/41 37/37/41 16/16/41
f 14/14/42 36/36/42 16/16/42
f 37/37/42 16/16/42 36/36/42
f 16/16/43 36/36/43 14/14/43
f 36/36/43 16/16/43 37/37/43
f 62/62/8 5/5/8 39/39/8
f 17/17/8 39/39/8 5/5/8
f 39/39/44 5/5/44 62/62/44
f 5/5/44 39/39/44 17/17/44
f 41/41/41 39/39/41 18/18/41
f 17/17/41 18/18/41 39/39/41
f 18/18/40 39/39/40 41/41/40
f 39/39/40 18/18/40 17/17/40
f 42/42/45 41/41/46 19/19/45
f 18/18/46 19/19/45 41/41/46
f 19/19/47 41/41/48 42/42/47
f 41/41/48 19/19/47 18/18/48
f 42/42/45 19/19/45 43/43/49
f 20/20/49 43/43/49 19/19/45
f 43/43/50 19/19/47 42/42/47
f 19/19/47 43/43/50 20/20/50
f 21/21/51 44/44/51 20/20/49
f 43/43/49 20/20/49 44/44/51
f 20/20/50 44/44/52 21/21/52
f 44/44/52 20/20/50 43/43/50
f 22/22/53 45/45/53 21/21/51
f 44/44/51 21/21/51 45/45/53
f 21/21/52 45/45/54 22/22/54
f 45/45/54 21/21/52 44/44/52
f 23/23/55 46/46/55 22/22/53
f 45/45/53 22/22/53 46/46/55
f 22/22/54 46/46/56 23/23/56
f 46/46/56 22/22/54 45/45/54
f 13/13/7 47/47/7 23/23/55
f 46/46/55 23/23/55 47/47/7
f 23/23/56 47/47/25 13/13/25
f 47/47/25 23/23/56 46/46/56
f 12/12/57 68/68/57 13/13/7
f 47/47/7 13/13/7 68/68/57
f 13/13/25 68/68/58 12/12/58
f 68/68/58 13/13/25 47/47/25
f 11/11/59 67/67/59 12/12/57
f 68/68/57 12/12/57 67/67/59
f 12/12/58 67/67/60 11/11/60
f 67/67/60 12/12/58 68/68/58
f 10/10/61 66/66/61 11/11/59
f 67/67/59 11/11/59 66/66/61
f 11/11/60 66/66/62 10/10/62
f 66/66/62 11/11/60 67/67/60
f 9/9/63 65/65/63 10/10/61
f 66/66/61 10/10/61 65/65/63
f 10/10/62 65/65/64 9/9/64
f 65/65/64 10/10/62 66/66/62
f 64/64/65 65/65/63 8/8/65
f 9/9/63 8/8/65 65/65/63
f 8/8/66 65/65/64 64/64/66
f 65/65/64 8/8/66 9/9/64
f 63/63/67 64/64/65 7/7/67
f 8/8/65 7/7/67 64/64/65
f 7/7/68 64/64/66 63/63/68
f 64/64/66 7/7/68 8/8/66
f 63/63/9 7/7/9 62/62/9
f 5/5/9 62/62/9 7/7/9
f 62/62/10 7/7/10 63/63/10
f 7/7/10 62/62/10 5/5/10